<?xml version="1.0" encoding="UTF-8"?><svg id="Layer_2" xmlns="http://www.w3.org/2000/svg" viewBox="0 0 244.02 345.55"><defs><style>.cls-1{fill:#020a14;}.cls-2{fill:#fefefe;}.cls-3{fill:#98cae5;}.cls-4{fill:#b1daee;}.cls-5{fill:#c5eaf9;}.cls-6{fill:#d5f2fc;}.cls-7{fill:#13283f;}.cls-8{fill:#1e3a54;}.cls-9{fill:#08122b;}.cls-10{fill:#0c172d;}.cls-11{fill:#71a7ca;}.cls-12{fill:#86bcdb;}.cls-13{fill:#5a8baf;}.cls-14{fill:#4a789a;}.cls-15{fill:#2b4f6d;}.cls-16{fill:#39668a;}</style></defs><g id="Layer_1-2"><g><path class="cls-2" d="M75.58,92.97c1.34,.1,2.67,.21,4.01,.31,2.04,2.2,1.89,4.86,1.43,7.5-1.89,10.95-2.93,22.02-4.37,33.03-3.94,30.22-10.71,60.02-14.08,90.34-1.28,11.5-3.82,22.85-4.03,34.47-.46,2.58-1.69,4.86-2.71,7.24-2.83,6.62-5.89,13.22-5.14,20.74v3c.07,3.7-1.15,7.48,.7,11.07l.32,3.9c1.37,3.91,2.26,8.1,4.79,11.45,11.84,15.64,27.99,22.75,47.28,23.45,6.72,2.83,13.74,1.86,20.7,1.65l5.01,.61c1.8,3.74,5.7,2.81,8.58,3.29,6.34,1.06,12.78,.86,18.34-3.29,2.68-.17,5.36-.34,8.04-.51h14.05c-3.63-2.21-7.24-.07-9.57-2.85,7.78-4.13,14.04-10.11,20.23-16.26,5.25-5.21,6.9-11.46,6.77-18.5l.03-7c1.55-5.08-1.26-9.68-1.58-14.55-.43-6.54-.45-13.13-1.28-19.62-.56-4.37-.99-9.33-4.44-12.43-2.26-2.03-2.22-4.02-2.32-6.39,.09-.65,.32-1.31,.24-1.94-2.82-22.59-7.1-44.94-10.67-67.41-4.04-25.43-5-51.22-9.18-76.62-.45-2.74,1.12-3.89,2.95-5.08,1.25-.19,2.5-.38,3.74-.57,1.21,.68,2.29,.54,3.24-.49,.92-.17,1.83-.33,2.75-.5,1.22,.69,2.28,.5,3.15-.61l1.82-.34c1.25,.71,2.31,.52,3.17-.65l1.83-.32c1.22,.67,2.3,.49,3.2-.59l1.78-.37c8.06-.97,15.92-2.58,23-6.85,.33-.04,.63-.15,.91-.31,8.44-1.78,15.89-5.57,21.62-11.99,6.27-7.02,5.08-23.31-1.72-29.47-2.07-2.15-4.3-4.09-7.05-5.36-.28-1.06-.92-1.53-2.03-1.25l-3.82-1.84c-.44-.93-1.09-1.4-2.15-.99-.91-.37-1.82-.74-2.73-1.1-.48-1.02-1.27-1.23-2.28-.89-1.89-.72-3.77-1.43-5.66-2.15-.46-.98-1.13-1.33-2.12-.69-8.49-2.12-16.93-4.48-25.65-5.51-.64-.79-1.36-1.12-2.27-.41l-3.66-.64c-.65-.77-1.4-1.09-2.34-.49l-5.77-2.45c-4.91-4.54-10.62-7.69-16.96-9.73-1.21-1.3-2.64-2.02-4.47-1.65l-1.88-.66c-.49-.83-1.12-.96-1.9-.39l-1.64-.38c-.6-.97-1.35-1.24-2.33-.51-1.38-.22-2.76-.43-4.14-.65-.83-.94-1.78-1.09-2.85-.43-1.88-.14-3.75-.28-5.63-.42-4.74-1.31-9.49-1.13-14.25-.15l-5.12,.53c-1.55-.57-3.01-.51-4.31,.64l-2.69,.48c-.96-.66-1.72-.44-2.32,.52-1.97,.14-3.88,.54-5.65,1.46-2.03-.4-3.66,.37-5.11,1.71-1.73,.26-3.26,.98-4.66,2.01-1.83-.18-3.17,.6-4.17,2.08-2.26,.91-4.25,2.24-6.02,3.91-1.32-.04-2.07,.85-2.85,1.71-1.68,.22-3.13,.99-4.49,1.95l-2.68,.48c-1.23-.59-2.33-.4-3.32,.54l-2.67,.47c-.92-.61-1.68-.33-2.35,.43-4.21,.87-8.42,1.75-12.63,2.62-2.02-.46-3.7,.31-5.25,1.5l-4.53,1.21c-5.69,1.12-11.2,2.7-16.02,6.1-.64,.29-1.29,.59-1.93,.88-3.87,.76-6.85,2.84-9.08,6.06l-1.09,1.12c-1.56,.39-2.12,1.68-2.66,2.98l-.45,1.7c-5.19,12.58-2.35,24,7.17,29.85,20.25,12.46,43.11,15.55,65.85,19.23Z"/><path class="cls-9" d="M179.42,91c-.92,.17-1.83,.33-2.75,.5-1.2-.65-2.29-.54-3.24,.49-1.25,.19-2.5,.38-3.74,.57-1.47-.74-2.93-.12-4.39,.04,0-2.51-.01-5.02-.02-7.52,1.78-.68-.28-3.55,1.64-3.59,4.87-.11,8.49-4.52,13.69-3.47,6.05,1.23,10.13-5.33,16.2-4.52,.24,.03,.6-.74,.89-1.14,1.46-1.99,3.03-3.79,5.01-5.39,2.84-2.29,3.57-5.73,1.88-9.02-2.1-4.11-5.37-7.1-10.2-7.78-1.33-.19-3.01,.05-3.6-1.22-2.24-4.76-6.44-3.73-10.32-3.8-2.91-.05-6.1,.77-7.79-2.84-.27-.57-1.42-1.1-2.1-1.03-5.72,.54-11.11-1.69-16.66-1.98-10.31-.53-20.66,.07-30.88-2.04-2.06-.42-4.31-.12-6.45,.1-5.24,.53-10.47,1.67-15.7,1.71-13.14,.1-26.07,1.26-38.54,5.7-2.54,.9-5.47-.58-7.75,1.13-4.71,3.52-10,5.93-15.21,8.52-3.87,1.92-5.41,10.32-1.82,12.63,3.94,2.52,7.11,6.07,12.1,7.45,6.59,1.83,13.19,2.81,19.9,3.64,8.7,1.07,11.33,4.59,9.99,12.92-1.38,.04-2.76,.08-4.13,.11-12.56-1.72-25.05-3.83-37.27-7.32-9.54-2.72-18.9-5.92-27.22-11.53-4.36-2.94-7.6-6.59-9.09-11.9-1.24-4.41,3-5.9,3.89-9.08,.34-.39,.68-.78,1.02-1.17,2.73-1.12,4.84-3.07,6.9-5.1,6.04-2.27,12.08-4.54,18.12-6.81,.62-.11,1.23-.22,1.85-.34,1.52-1.04,3.73-.08,5.04-1.72,1-.32,2.21-.03,2.99-1.01,4.57,.55,8.72-1.31,13.03-2.28,2.16,.98,3.58-.78,5.31-1.42,1.19-.14,2.37-.28,3.56-.43,.86,.17,1.7,.31,2.11-.76,.29-.08,.59-.11,.89-.09,.13,.5,.34,.91,.98,.79l3.04-.92c1.04-.06,2.08-.11,3.13-.17,3.4,.73,6.48-1.82,9.89-.98,2.07,.26,4.2,1.09,6.07-.62,2.56-.98,5.5,.93,7.93-1.04,1.87-.28,3.85,.38,5.65-.58,3.99,2.81,8.1,.74,12.18,.31,1.72,.28,3.42,.36,5.08-.29,1.98,0,3.97,0,5.95,0,1.98,.71,4.01,.51,6.04,.39l1.74-.09h.17l1.05-.07c1.32,.11,2.64,.22,3.96,.32,1.04,1.75,2.63,.67,3.99,.77,4.69,.34,9.46-.51,14.07,.98,3.28,.08,6.57,.17,9.85,.25v-.04l.91,.76,1.14-.08,1.24-.57,.41,.14,.43-.03c1.28,2.03,3.33,1.98,5.26,1.7,2.05-.3,3.88,.06,5.68,.93l2-.29c.89,1.84,2.43,1.51,3.97,1.19,.65-.09,1.29-.18,1.94-.27,.96,.43,1.52,1.88,2.94,1.19,4.71,1.07,9.42,2.13,14.13,3.2,1.04,1.82,2.64,.53,3.98,.72l5.49,1.76c1.41,1.74,3.52,1.52,5.41,1.93,2.4,2.06,5.39,3.03,8.16,4.4,2.59,1.8,5.17,3.6,7.76,5.39,.41,1.67,1.56,2.05,3.08,1.81,.36,3.09,1.33,6.02,.23,9.3-2.16,6.42-7.28,9.6-12.59,12.8-3.45,2.08-7.77,2.57-10.59,5.78-.28,.17-.59,.27-.91,.31-7.77,1.95-15.57,3.77-23,6.85-.59,.12-1.19,.25-1.78,.37-1.22-.63-2.3-.49-3.2,.59-.61,.11-1.22,.21-1.83,.31-1.22-.56-2.32-.57-3.18,.65l-1.82,.34c-1.21-.61-2.29-.55-3.16,.61Z"/><path class="cls-7" d="M186.34,243.62c.1,2.36,.06,4.36,2.32,6.39,3.45,3.1,3.88,8.06,4.44,12.43,.83,6.49,.85,13.08,1.28,19.62,.32,4.87,3.14,9.47,1.58,14.55-1.64-.17-2.76,.67-3.93,1.71-2.3,2.05-4.49,4.47-7.2,5.77-6.76,3.25-13.66,5.86-21.38,6.7-6.32,.68-12.8,1.03-18.98,2.42-10.73,2.42-21.59,2.07-32.11,.77-11.06-1.37-22.17-3.17-33.15-5.94-10.58-2.67-19.15-6.84-25.2-15.86-.86-1.28-1.53-2.59-3.32-2.58v-3c4.07-1.61,4.24-6.02,6.21-9.07,4.26-6.56,9.14-13.11,7.75-21.81-.43-2.65-.48-5.38-3.9-6.02,.12-1.47,.17-2.95,.38-4.41,2.23-15.48,4.48-30.96,6.72-46.44,1.36-.22,1.85-1.02,1.56-2.33-.06-.27-.05-.53,.04-.78,1.01,.36,2.02,.72,3.03,1.08,.24,1.33-.37,2.84,.86,3.95,.23,1.75,.12,3.44-.85,4.98-2.02,.2-1.92,1.65-1.82,3.1-.01,5.95-.03,11.91-.04,17.86,0,2.47-.03,4.94-.03,7.42,0,1.58,.63,3.79,2.1,3.24,3.57-1.33,6.19,1.76,9.37,1.33,5.08-.69,8.99,1.17,12.1,5.11,.82,1.04,1.84,1.91,3.3,1.94,.73,6.35-1.19,12.56-.97,18.88-6.21,1.56-10.55,6.78-16.48,8.65-4.96,1.57-8.61,4.79-11.07,8.74-5.02,8.05-4.86,16.2,6.5,18.6,2.26,.48,4.62,.97,6.62,2.05,6.28,3.42,13.01,5.27,20.02,6.13,2.72,.34,5.75-.75,8.27,.02,7.26,2.22,14.67,1.19,21.99,1.63,2.8,.17,5.64-.47,8.11-2.07l1.89,.05c2.4-.45,5.5,1.73,7.06-1.88,.67,0,1.33-.01,2-.02,.51,2.48,1.89,2.03,3.71,1.34,4.51-1.71,9.01-3.46,14.01-3.39,3.03,.04,6.74,1.4,8.05-3.39,.23-.83,2.8-1.88,3.8-1.51,5.36,1.99,4.02-1.95,4.03-4.42,0-1.08-.51-2.12-.28-3.36,.95-5.31-1.89-11.03-6.62-13.41-8.79-4.41-14.13-10.77-12.74-21.29,.28-2.12,.03-4.32,.04-6.48,.01-1.41-.1-2.71-1.89-2.95,0-2.32,0-4.63-.01-6.95,2.2-1.16,4.44-3.4,6.47,.26,.81,1.46,1.63,3.19,3.7,2.41,1.83-.69,2.52-2.27,2.77-4.29,.56-4.52,2.36-8.8,2.26-13.49-.03-1.51,.44-3.76,2.89-4.03,.26,7.63,.97,15.15,4.76,22.02Z"/><path class="cls-1" d="M195.93,303.6c.12,7.04-1.53,13.29-6.77,18.5-6.19,6.15-12.45,12.13-20.23,16.26-1.84,.4-3.86,.53-4.49,2.85-2.68,.17-5.36,.34-8.04,.51-8.97,0-17.95,0-26.92,0-1.67-.2-3.34-.41-5.01-.61-1.07-1.67-1.21-4.5-4.45-3.45-5.29,1.71-10.79,1.59-16.25,1.8-19.29-.7-35.44-7.81-47.28-23.45-2.53-3.34-3.42-7.53-4.79-11.45l6.92,.99c1,0,1.99,0,2.99,0,2.33,4.6,6.94,4.17,10.98,4.98,1.33,0,2.65,0,3.98,0,.29,.56,.44,1.47,.88,1.64,3.95,1.54,8.1,2.46,12.04,4.15,1.64,.7,4.24,.99,6.05-.8,1.31,.15,2.61,.28,3.92,.47,5.98,.84,12.23,2.13,17.93,1.89,7.66-.32,15.38-1.4,23.13-1.36,18.85,.1,36.84-3.39,53.46-12.7,.53-.3,1.29-.18,1.95-.25Z"/><path class="cls-1" d="M109.49,1.31l5.12-.53c4.72,3.09,9.5-.05,14.25,.15,1.88,.14,3.75,.28,5.63,.42,.78,1.26,1.74,1.35,2.85,.43,1.38,.22,2.76,.43,4.14,.65,.59,1.01,1.41,1,2.33,.51l1.64,.38c.46,.97,1.04,1.37,1.9,.39l1.88,.66c1.13,1.53,2.62,2.07,4.47,1.65,6.34,2.04,12.05,5.19,16.96,9.73,.65,3.48-2.63,3.2-4.28,4.48l-1.05,.77c-.48-.09-.96-.18-1.44-.26-.05-.31-.17-.6-.36-.85-1.56-2.32-4.01-2.48-6.43-2.53-4.88-.11-9.77-.1-14.66-.14-1.98-3.08-3.99-2.96-6.04-.07-.08,.26-.12,.52-.1,.79-1.25,0-2.5,0-3.75,0-1.38-1.02-2.76-1.12-4.14-.01-3.33,.55-6.76-.43-10.05,.62,.08-.26,.18-.51,.29-.76-.18-.9-.04-2.02-1.25-2.33-1.25-.32-1.7,.49-1.9,1.54-2.99,.7-6.22-.69-9.09,1.04-.19,.24-.3,.51-.33,.81-.24-.08-.45-.03-.63,.15-.97-.24-1.94-.48-2.91-.73-.12-.9-.5-2.71-.91-2.27-1.77,1.85-5.09,.1-6.23,2.92l-1.93,.76c-1.3-.43-2.58-.39-3.84,.16l-1.01-.73c-.29-.48-.52-1.3-.88-1.36-1.01-.18-1.07,.74-1.18,1.47l.03,.43-2-.38c-1.32-1.54-3.03-1.19-4.54-.64-4.44,1.6-5.71-.46-5.49-4.46,1.77-1.67,3.76-3,6.02-3.91,1.77,.07,3.23-.48,4.17-2.08,1.4-1.03,2.93-1.75,4.66-2.01,1.96,.21,3.68-.31,5.11-1.71,1.77-.92,3.68-1.32,5.65-1.46,.91,.45,1.73,.48,2.32-.52,.9-.16,1.79-.32,2.69-.48,1.55,.54,3.06,.85,4.31-.64Z"/><path class="cls-14" d="M186.34,243.62c-3.79-6.86-4.5-14.39-4.76-22.02-2.1-12.91-4.19-25.82-6.28-38.72-.89-2.95-.47-6.17-1.9-9h-.02c.78-.39,.58-.8,.01-1.21,.02-.24,.02-.48,.02-.72-1.46-1.83,.51-4.74-1.96-6.26,.28-10.61-2.34-20.8-4.08-31.15-.69,.65-1.01,1.27-.97,1.87,.71,10.87,2.03,21.7,2.03,32.62,0,1.21,.84,1.7,1.92,1.87,.05,.3,.08,.6,.11,.9l.04,2.19-.18,1.85c-.51,.27-1.37,.45-1.45,.81-.24,1.05,.73,1.09,1.45,1.24l.16,1.88c-.74,3.38-1.39,6.75-1.13,10.25,.39,5.07,.69,10.15,.97,15.22,.07,1.34-.09,2.89-1.75,3.08-1.77,.21-1.85-1.34-2.2-2.65-1.95-7.27-4-14.53-6.01-21.78,1.76,.03,2.93,.89,2.94,2.67,.02,2.78,2.14,4.41,3.37,6.68,1.01-5.6,.56-11.03-.2-16.56-2.1-15.34-3.86-30.73-5.39-46.14-.41-4.13,.58-8.62-1.64-12.56,0-2.65,.56-5.04-.46-7.98-1.08-3.11-3.23-7.2-.26-10.86,.77-.94,.45-2.01-.41-2.64-2.58-1.88-2.37-4.77-3.25-7.38-1.12-3.34,.63-7.03-1.7-10.03,.07-3.02,.13-6.03,.2-9.05,2.33-3.7-.47-6.13-2.19-8.82,5.46,1,8.06,4.15,6.8,9.82-1.39,6.26,.26,12.08,1.16,18.06,.27,1.8,.62,3.68,2.93,4.08,1.05,.07,2.13,.26,3.02-.56,1.46-.16,2.92-.79,4.39-.05-1.84,1.19-3.41,2.34-2.96,5.08,4.17,25.4,5.14,51.19,9.18,76.62,3.57,22.47,7.85,44.82,10.67,67.41,.08,.63-.15,1.29-.24,1.94Z"/><path class="cls-14" d="M67.85,198.85c-2.24,15.48-4.5,30.96-6.72,46.44-.21,1.46-.26,2.94-.38,4.41-.56,3.01-.47,6.19-2.2,8.91,.21-11.62,2.75-22.97,4.03-34.47,3.37-30.32,10.14-60.11,14.08-90.34,1.44-11.01,2.48-22.07,4.37-33.03,.46-2.64,.6-5.3-1.43-7.5-.2-.16-.22-.33-.05-.52,1.01,.17,2.02,.35,3.03,.52,1.6,4.73,.24,9.45-.75,13.93-2.22,10.03-1.76,20.27-3.18,30.34-.47,3.34,1.26,4.18,4.19,2.56,.85-.47,1.76-.82,2.64-1.23,.63,.37,1.25,.74,1.88,1.11,.02,2.3,.05,4.61,.08,6.91-.32,.32-.63,.63-.95,.95-2.4,.47-1.87,2.39-1.89,3.96-.04,5.47-.08,10.94,.01,16.41,.03,1.85-.89,4.52,1.71,5.1,2.58,.58,1.91-2.58,3.08-3.79,.68-.7,1.06-1.68,1.68-2.45,.89-1.13,2.37-1.37,2.81-.07,.99,2.93,5.61,5.01,2.2,9.11-1.13,1.35-.09,2.41,1.26,3.11,1.3,.68,2.59,1.26,3.18,2.9,3.28,9.13,2.53,18.37,.98,27.65-1.36-1.15-1.08-2.76-.93-4.18,1.01-9.61-2.62-18-6.74-26.29-.49-.98-.41-2.46-2.09-2.27-1.36,.15-1.81,1.19-2.22,2.35-1.12,3.23-2.76,5.2-6.48,2.83-.86-.55-2.25-.25-3.4-.35,.42-2.2,.77-4.42,1.28-6.6,1.12-4.79,.54-5.41-4.27-4.38-.55-3.24,3.87-5.97,.8-9.94-3.76,4.88-3.63,10.6-4.88,15.87-2.39,6.08-3.73,12.33-3.12,18.9-.09,.26-.1,.52-.04,.79-1.24,.3-1.83,1.03-1.56,2.33Z"/><path class="cls-10" d="M76.57,310.56c-1.33,0-2.65,0-3.98,0-2.81-3.54-6.69-4.71-10.98-4.98-1,0-1.99,0-2.99,0-1.46-3.04-4.01-4.46-7.24-4.89-1.85-3.59-.63-7.37-.7-11.07,1.79-.01,2.46,1.3,3.32,2.58,6.05,9.02,14.62,13.19,25.2,15.86,10.98,2.77,22.09,4.57,33.15,5.94,10.52,1.3,21.38,1.65,32.11-.77,6.18-1.39,12.66-1.74,18.98-2.42,7.72-.83,14.62-3.45,21.38-6.7,2.7-1.3,4.9-3.72,7.2-5.77,1.17-1.04,2.3-1.89,3.93-1.71,0,2.33-.02,4.66-.03,7-.66,.08-1.42-.04-1.95,.25-16.62,9.31-34.61,12.79-53.46,12.7-7.75-.04-15.48,1.04-23.13,1.36-5.71,.24-11.96-1.05-17.93-1.89-1.3-.18-2.61-.31-3.92-.47-.3-.55-.62-1.59-.89-1.58-6.31,.33-11.99-2.66-18.08-3.41Z"/><path class="cls-7" d="M74.56,14.13c-.22,4,1.05,6.06,5.49,4.46,1.51-.54,3.22-.89,4.54,.64,0,.31-.03,.61-.09,.91h.01l-1,.25-2.73,.41c-.87-.52-1.64-.54-2.2,.47l-1.85,.22c-4.21-.59-8.22,.16-12.11,1.78l-2.88,.17c-1.19-.4-2.31-.29-3.32,.5-1.61,.3-3.49-.37-4.7,1.33l-1,.22c-1.56-.52-2.78-.16-3.57,1.35-3.38,.1-6.66,.62-9.56,2.55-1.15,.05-2.3,.1-3.44,.15-1.77-.27-3.72-1.07-4.56,1.49-.27,.09-.55,.16-.84,.2-2.21-.06-4.24,.24-5.21,2.63l-2.84,1.31c-1.45-.1-2.84-.11-3.09,1.83-.28,.11-.56,.18-.86,.22-1.51-.17-2.89-.13-3.12,1.85-.28,.05-.57,.11-.85,.18-2.47,.63-5.2,.86-6,3.99-.26,.1-.53,.17-.8,.22-.61-.06-.96,.19-.99,.83l-.06,.13c-1.63,.1-2.04,1.3-2.33,2.6-2.4,.08-1.55-1.98-2.06-3.15,.15-.57,.3-1.14,.45-1.7,1.79-.18,2.62-1.23,2.66-2.98,.36-.37,.73-.74,1.09-1.12,3.4-1.47,6.31-3.66,9.08-6.06,.64-.29,1.29-.59,1.93-.88,5.57-1.42,10.9-3.5,16.02-6.1,1.51-.4,3.02-.81,4.53-1.21,1.97,.26,3.73-.2,5.26-1.5,4.21-.87,8.42-1.75,12.63-2.62,.9,.49,1.71,.47,2.35-.43,.89-.16,1.78-.31,2.67-.47,1.21,.48,2.37,.63,3.32-.54,.89-.16,1.79-.32,2.68-.48,1.98,.46,3.53-.07,4.49-1.95,.77-.87,1.53-1.75,2.85-1.71Z"/><path class="cls-8" d="M166.38,20.22c1.65-1.27,4.93-1,4.28-4.48,1.92,.82,3.84,1.64,5.77,2.45,.62,.93,1.43,.98,2.35,.49,1.22,.21,2.44,.43,3.66,.64,.62,.87,1.41,.87,2.27,.41,8.72,1.03,17.16,3.39,25.65,5.51,.5,.88,1.24,1,2.12,.69,1.89,.72,3.77,1.43,5.65,2.15,.51,.94,1.27,1.23,2.28,.89,.91,.37,1.82,.74,2.73,1.1,.43,.94,1.15,1.26,2.15,.99,1.27,.61,2.55,1.22,3.82,1.84,.31,1.01,1,1.41,2.03,1.25,2.75,1.27,4.97,3.21,7.05,5.36,.81,2.24,1.62,4.49,2.43,6.73-1.79-.53-2.98-2.43-5.1-2.2-3.76-3.85-8.17-6.52-13.51-7.52l-1.1-1.03c-.33-2.38-1.97-2.34-3.76-2.02l-.12-.06c-.51-1.49-1.67-1.27-2.82-1.06l-.07-.02c-.31-.98-1.07-1.06-1.92-.95l-3.65-.38c-.4-1.1-1.04-1.82-2.36-1.43-1.65-.42-3.29-.85-4.94-1.27-.72-1.21-1.87-1.07-3.01-.95-.97-.07-1.94-.13-2.91-.2l.04-.09c-2.6-2.47-5.79-2.77-9.14-2.5-.98-.03-1.96-.06-2.95-.09-4.78-2.01-9.73-2.92-14.92-2.41-.24-.16-.5-.24-.78-.24l-1.23-1.6Z"/><path class="cls-15" d="M2.56,43.89c.51,1.17-.34,3.22,2.06,3.15,.13,.13,.26,.26,.39,.39l.62,1.8c-.05,.32-.01,.63,.11,.93v1.2c-.87,3.17-5.12,4.66-3.88,9.07,1.49,5.32,4.74,8.96,9.09,11.9,8.32,5.62,17.68,8.81,27.22,11.53,12.21,3.48,24.7,5.59,37.27,7.32,.04,.6,.09,1.2,.13,1.8-22.74-3.68-45.6-6.78-65.85-19.23C.21,67.89-2.62,56.47,2.56,43.89Z"/><path class="cls-10" d="M58.54,258.62c1.73-2.72,1.65-5.9,2.2-8.91,3.42,.64,3.48,3.37,3.9,6.02,1.4,8.69-3.49,15.24-7.75,21.81-1.97,3.05-2.14,7.46-6.21,9.07-.75-7.52,2.31-14.13,5.14-20.74,1.02-2.38,2.25-4.66,2.71-7.24Z"/><path class="cls-14" d="M240.63,46.24c-.81-2.24-1.62-4.49-2.43-6.73,6.8,6.17,7.99,22.45,1.72,29.47-5.73,6.42-13.18,10.21-21.62,11.99,2.82-3.21,7.14-3.7,10.59-5.78,5.31-3.2,10.44-6.37,12.59-12.8,1.1-3.28,.13-6.21-.23-9.3,0-2.3,.59-4.66-.62-6.85Z"/><path class="cls-6" d="M129.48,341.72c8.97,0,17.95,0,26.92,0-5.56,4.15-12,4.35-18.34,3.29-2.88-.48-6.78,.46-8.58-3.29Z"/><path class="cls-16" d="M103.77,339.46c5.46-.21,10.96-.08,16.25-1.8,3.24-1.05,3.38,1.78,4.45,3.45-6.96,.22-13.98,1.18-20.7-1.65Z"/><path class="cls-14" d="M194.38,88.13c7.43-3.08,15.24-4.9,23-6.85-7.08,4.27-14.94,5.88-23,6.85Z"/><path class="cls-15" d="M128.86,.93c-4.75-.2-9.53,2.94-14.25-.15,4.76-.98,9.52-1.16,14.25,.15Z"/><path class="cls-13" d="M164.44,341.21c.63-2.32,2.65-2.45,4.49-2.85,2.32,2.78,5.94,.64,9.57,2.85h-14.05Z"/><path class="cls-16" d="M33.79,25.04c-5.13,2.6-10.45,4.68-16.02,6.1,4.82-3.41,10.34-4.98,16.02-6.1Z"/><path class="cls-9" d="M51.38,300.67c3.23,.43,5.78,1.85,7.24,4.89l-6.92-.99-.32-3.9Z"/><path class="cls-16" d="M15.84,32.03c-2.77,2.4-5.68,4.6-9.08,6.06,2.23-3.22,5.21-5.3,9.08-6.06Z"/><path class="cls-16" d="M43.57,22.33c-1.52,1.3-3.29,1.76-5.26,1.5,1.56-1.19,3.23-1.96,5.26-1.5Z"/><path class="cls-15" d="M94.52,4.41c-1.43,1.4-3.15,1.92-5.11,1.71,1.45-1.34,3.08-2.1,5.11-1.71Z"/><path class="cls-15" d="M153.7,6.01c-1.85,.42-3.34-.12-4.47-1.65,1.83-.37,3.26,.36,4.47,1.65Z"/><path class="cls-15" d="M109.49,1.31c-1.25,1.48-2.76,1.18-4.31,.64,1.3-1.15,2.76-1.21,4.31-.64Z"/><path class="cls-7" d="M75.58,92.97c-.04-.6-.09-1.2-.13-1.8,1.38-.04,2.75-.07,4.13-.11v1c0,.24-.01,.47-.04,.71-.17,.19-.16,.36,.05,.52-1.34-.1-2.67-.21-4.01-.31Z"/><path class="cls-15" d="M84.75,8.13c-.94,1.6-2.4,2.15-4.17,2.08,1-1.48,2.34-2.26,4.17-2.08Z"/><path class="cls-16" d="M71.71,15.84c-.97,1.88-2.52,2.4-4.49,1.95,1.37-.96,2.81-1.72,4.49-1.95Z"/><path class="cls-16" d="M5.67,39.21c-.04,1.75-.87,2.8-2.66,2.98,.54-1.3,1.1-2.59,2.66-2.98Z"/><path class="cls-14" d="M179.42,91c.87-1.16,1.95-1.23,3.16-.61-.88,1.11-1.93,1.3-3.16,.61Z"/><path class="cls-14" d="M173.43,91.99c.95-1.03,2.04-1.14,3.24-.49-.95,1.03-2.03,1.17-3.24,.49Z"/><path class="cls-14" d="M184.4,90.05c.85-1.22,1.96-1.21,3.18-.65-.86,1.17-1.93,1.36-3.18,.65Z"/><path class="cls-14" d="M189.4,89.09c.91-1.08,1.98-1.22,3.2-.59-.91,1.08-1.98,1.25-3.2,.59Z"/><path class="cls-15" d="M137.34,1.77c-1.11,.93-2.07,.84-2.85-.43,1.07-.66,2.02-.51,2.85,.43Z"/><path class="cls-16" d="M64.54,18.27c-.95,1.17-2.11,1.02-3.32,.54,.98-.93,2.09-1.13,3.32-.54Z"/><path class="cls-16" d="M58.55,19.28c-.64,.9-1.45,.93-2.35,.43,.67-.76,1.43-1.04,2.35-.43Z"/><path class="cls-14" d="M178.77,18.69c-.92,.49-1.73,.44-2.35-.49,.94-.6,1.69-.28,2.35,.49Z"/><path class="cls-14" d="M212.49,25.93c-.88,.32-1.63,.2-2.12-.69,.99-.65,1.66-.3,2.12,.69Z"/><path class="cls-15" d="M102.49,2.43c-.58,1.01-1.4,.98-2.32,.52,.59-.97,1.36-1.18,2.32-.52Z"/><path class="cls-14" d="M184.71,19.74c-.87,.46-1.65,.46-2.27-.41,.91-.71,1.63-.37,2.27,.41Z"/><path class="cls-15" d="M143.81,2.93c-.92,.48-1.74,.5-2.33-.51,.97-.73,1.73-.46,2.33,.51Z"/><path class="cls-14" d="M231.15,34.15c-1.03,.16-1.72-.24-2.03-1.25,1.11-.28,1.75,.19,2.03,1.25Z"/><path class="cls-14" d="M220.42,28.97c-1.01,.34-1.77,.06-2.28-.89,1.01-.34,1.8-.13,2.28,.89Z"/><path class="cls-15" d="M147.35,3.7c-.86,.98-1.44,.59-1.9-.39,.78-.57,1.41-.44,1.9,.39Z"/><path class="cls-14" d="M225.29,31.06c-.99,.27-1.71-.05-2.15-.99,1.06-.41,1.71,.06,2.15,.99Z"/><path class="cls-10" d="M79.58,92.06v-1c1.33-8.33-1.3-11.86-10-12.92-6.71-.82-13.31-1.81-19.9-3.64-4.99-1.39-8.16-4.93-12.1-7.45-3.59-2.3-2.06-10.71,1.82-12.63,5.22-2.59,10.5-5,15.21-8.52,2.28-1.71,5.21-.22,7.75-1.13,12.47-4.43,25.4-5.59,38.54-5.7,5.24-.04,10.46-1.19,15.7-1.71,2.14-.21,4.39-.52,6.45-.1,10.22,2.11,20.57,1.51,30.88,2.04,5.54,.28,10.93,2.52,16.66,1.98,.69-.06,1.84,.46,2.1,1.03,1.69,3.61,4.88,2.79,7.79,2.84,3.87,.07,8.07-.96,10.32,3.8,.6,1.27,2.28,1.04,3.6,1.22,4.82,.67,8.09,3.67,10.2,7.78,1.68,3.29,.95,6.73-1.88,9.02-1.98,1.6-3.55,3.4-5.01,5.39-.29,.4-.65,1.17-.89,1.14-6.08-.8-10.15,5.75-16.2,4.52-5.2-1.06-8.82,3.36-13.69,3.47-1.93,.04,.14,2.91-1.64,3.59-1.36-1.05-.82-2.59-1-3.94,.14-2.6-.37-5.53,3.09-6.53,3.53-1.02,6.49-2.86,9.5-5.02,5.34-3.82,5.92-7.46,.8-11.57-4.06-3.26-8.88-4.91-13.92-5.91-12.64-2.5-25.01-5.8-38.28-5.27-14.11,.56-27.85,2.42-41.63,5.1-5.66,1.1-10.22,3.25-14.07,7.44-3.53,3.85-3.31,6.46,.62,10.23,3.79,3.64,8.75,4.54,13.28,6.46,0,2-.01,3.99-.02,5.99-1.1,.65-1.12,1.32-.03,2-1.36,2.66,1.01,7.2-4.05,7.99Z"/><path class="cls-8" d="M79.58,92.06c5.05-.79,2.69-5.33,4.05-7.99,.97-.65,.98-1.32,.03-2,0-2,.01-3.99,.02-5.99,2.1-4.4-2.14-5.23-4.21-6.97-4.02-3.39-4.11-6.96,.22-10.01,6.97-4.9,15.15-5.64,23.23-7.12,19.85-3.64,39.29-1.59,58.52,3.48,3.95,1.04,8.51,2.74,9.81,7.47,1.31,4.79-2.98,5.87-5.92,7.89-3.8,2.6-4.11,7.06-1.03,10.33,.19,1.35-.35,2.88,1,3.94,0,2.51,.01,5.01,.02,7.52-.89,.83-1.97,.63-3.02,.56,.39-1.92-.77-3.52-1.06-5.29-.72-4.49-2.18-8.9-1.06-13.55,2.62-10.85-2.6-17.33-13.76-17.14-.65-.04-1.29-.07-1.94-.11-2.97-2.59-6.2-3.87-10.03-1.89-.76-.01-1.49,.07-1.96,.8-1.96-.13-3.92-.25-5.88-.38-.11-1.47-.66-2.4-2.36-2.45-1.8-.05-2.78,.6-2.86,2.44-2.29,.13-4.58,.26-6.87,.39-.71-.91-1.37-.86-1.98,.11-1.98,.26-3.97,.52-5.95,.79-3.4-4.16-7.02-.45-10.29,.09-5.02,.83-10.12,6.91-9.61,11.1,1.04,8.54-.44,16.78-2.01,25.05l-2.08,.17c-1.01-.17-2.02-.35-3.03-.52,.03-.24,.04-.47,.04-.71Z"/><path class="cls-11" d="M167.62,21.82c.29,0,.55,.08,.78,.25,2.12,2,2.31,4.8,3.05,7.37l-.43,.03-.41-.14c-.41,.19-.82,.38-1.24,.57l-1.14,.08c-.31-.25-.62-.5-.93-.76v.04c.22-2.87-.38-5.43-3.71-5.84-3.98-.49-5.28,2.41-6.13,5.58-4.61-1.49-9.38-.64-14.07-.98,1.51-4.18-3.31-5.34-4.04-8.45,.39-.17,.78-.35,1.17-.52,1.91,.15,3.81,.29,5.72,.44,.3,6.82,.97,7.67,5.83,6.68,2.97-.61,3.84-3.11,4.36-5.74,1.63,.04,3.25,.09,4.88,.13,.82,.71,1.68,.7,2.58,.17,.48,.09,.96,.18,1.44,.26,.39,1.31,1.28,1.21,2.28,.83Z"/><path class="cls-11" d="M76.74,21.51c.62-.07,1.23-.15,1.85-.22,1.07,1.43,1.65,.57,2.2-.47,.91-.14,1.82-.28,2.73-.41,.33,.23,.66,.46,.99,.69,1.75-.27,3.91,1.12,5.12-1.29,1.26-.55,2.54-.6,3.84-.16-.07,3.33,.89,6.1,4.14,7.63-2.43,1.96-5.37,.06-7.93,1.04,1.25-2.29,.32-3.91-1.81-4.74-2.26-.87-4.27,.14-5.71,1.89-1.52,1.84,.69,2.42,1.45,3.47-3.41-.84-6.49,1.71-9.89,.98,3.02-2.07,3.17-5.19,3.03-8.4Z"/><path class="cls-13" d="M171.44,29.43c-.74-2.57-.93-5.37-3.05-7.37,5.18-.51,10.14,.4,14.92,2.41,.05,2.57-1.54,4.95-.93,7.59-1.8-.87-3.63-1.23-5.68-.93-1.94,.29-3.99,.33-5.26-1.7Z"/><path class="cls-13" d="M195.36,27.15c.97,.07,1.94,.13,2.91,.19,.48,1.98,1.45,2.41,3.01,.95,1.65,.42,3.29,.85,4.94,1.27,.29,1.29,1.12,1.69,2.35,1.43,1.22,.13,2.43,.25,3.65,.38,.01,.31,0,.62-.03,.93-3.21-.02-3.85,2.56-4.84,4.78-4.71-1.07-9.42-2.13-14.13-3.2,.29-.34,.58-.68,.87-1.02,.47,0,1.04,.51,1.33-.29l-1.19-.31c-.06-.34-.13-.69-.19-1.03,1.76-.93,1.04-2.66,1.31-4.07Z"/><path class="cls-13" d="M39.61,29.41c2.9-1.93,6.17-2.44,9.56-2.55,.86,.11,1.71,.22,2.57,.32,1.9,1.05-.28,3.94,2.14,4.76l.82,.96c-4.31,.97-8.46,2.83-13.03,2.28,.54-2.36-1.88-3.67-2.06-5.77Z"/><path class="cls-13" d="M97.6,27.27c-3.25-1.53-4.21-4.3-4.14-7.63,.64-.25,1.29-.5,1.93-.76,2.43,.35,4.89,1.01,7.14-.64,.97,.24,1.94,.48,2.91,.73-.73,2.57-1.46,5.15-2.19,7.72-1.8,.97-3.77,.3-5.65,.58Z"/><path class="cls-13" d="M22.71,35.19c.95-.44,1.89-.88,2.84-1.31,1.39-.21,2.79-.43,4.18-.65-.28,2.07-2.88,5.09,2.05,5.02-6.04,2.27-12.08,4.54-18.12,6.81-.02-.49-.03-.99-.05-1.48-.14-.77,.28-1.24,.88-1.61,2.27,.49,3.39-.38,3.24-2.74l1.03-1.99c.29-.04,.58-.12,.86-.22,1.54,.25,2.53-.41,3.08-1.83Z"/><path class="cls-11" d="M126.46,26.7c-1.98,0-3.97,0-5.95,.01-1.04-.21-2.08-.41-3.12-.62-.59-.34-1.18-.68-1.77-1.01l-1.24-2.75c.04-.93,.08-1.85,.12-2.78,.07-.32,.14-.65,.21-.97l.85-.51c1.06,.21,2.12,.33,3.09-.31-.11,.25-.21,.5-.29,.76,.56,4.73,2.63,7.35,8,6.81,4.11-.42,4.05-3.04,4.16-5.89,1.68,.03,3.35,.06,5.03,.09-1.67,2.17-3.35,4.35-5.02,6.52-1.34,.31-2.83-.34-4.06,.64Z"/><path class="cls-14" d="M222.01,36.52c5.34,1,9.76,3.66,13.51,7.52-.1,.38-.2,.75-.29,1.13-1.54,.73-3.74-3.04-4.83,.72-2.77-1.37-5.76-2.34-8.16-4.4-.07-1.66-.15-3.31-.22-4.97Z"/><path class="cls-14" d="M76.74,21.51c.13,3.21,0,6.33-3.03,8.4-1.04,.06-2.08,.11-3.13,.17,.02-.3,.02-.6,0-.89,.81-.67,.8-1.2-.11-1.87-1.91-1.41-4.46-1.88-5.84-4.03,3.89-1.62,7.9-2.37,12.11-1.78Z"/><path class="cls-12" d="M222.01,36.52c.07,1.66,.15,3.31,.22,4.97-1.89-.41-4-.19-5.41-1.93,2.5-2.11,.34-3.27-1.11-3.97-2.06-.99-3.88-.45-4.37,2.21-1.34-.18-2.94,1.1-3.98-.72,1-2.22,1.63-4.8,4.84-4.78,.65,0,1.3,.01,1.95,.02l.07,.02c.67,1.07,1.75,1.06,2.82,1.06l.12,.06c.82,1.47,2.2,1.91,3.75,2.03l1.1,1.03Z"/><path class="cls-12" d="M130.52,26.06c1.67-2.17,3.35-4.35,5.02-6.53,1.28,.01,2.55,.03,3.83,.04,.73,3.11,5.55,4.27,4.04,8.45-1.36-.1-2.94,.98-3.99-.77,1.51-1.34,1.92-2.72-.3-3.6-3.11-1.23-4.63,.22-4.89,3.34-.58,.03-1.16,.06-1.74,.09l-1.98-1.03Z"/><path class="cls-4" d="M157.47,29.01c.86-3.18,2.15-6.07,6.13-5.58,3.32,.41,3.93,2.96,3.72,5.84-3.29-.08-6.57-.17-9.85-.25Z"/><path class="cls-11" d="M195.36,27.15c-.27,1.41,.45,3.14-1.31,4.07-1.35-.1-1.65-1.43-2.51-2.09-3.05-2.34-6.56-1.01-7.16,2.64l-2,.29c-.61-2.64,.99-5.01,.93-7.59,.98,.03,1.96,.06,2.95,.09,2.8,1.74,5.86,2.51,9.14,2.5l-.04,.09Z"/><path class="cls-3" d="M184.39,31.77c.6-3.65,4.11-4.98,7.16-2.64,.86,.66,1.16,2,2.51,2.09,.06,.34,.12,.69,.19,1.03-.01,.21-.06,.41-.14,.6-.29,.34-.58,.68-.87,1.02-1.42,.69-1.97-.76-2.94-1.19-.75-.66-1.41-.64-1.94,.27-1.54,.32-3.08,.66-3.97-1.19Z"/><path class="cls-4" d="M83.59,28.93c-.76-1.05-2.97-1.63-1.45-3.47,1.44-1.75,3.45-2.76,5.71-1.89,2.13,.82,3.06,2.45,1.81,4.74-1.87,1.71-4,.88-6.07,.62Z"/><path class="cls-11" d="M103.24,26.69c.73-2.57,1.46-5.15,2.19-7.72,.18-.18,.39-.23,.63-.15,.86,.26,1.72,.51,2.57,.77-.01,.89-.02,1.78-.03,2.67l.04,1.01c-.08,.29-.15,.59-.21,.89l-.98,.98c-.06,.15-.16,.3-.17,.44,0,.12,.12,.33,.19,.34,2.69,.13,5.38,.23,8.07,.34-.04,.25-.08,.49-.13,.74-4.07,.43-8.19,2.5-12.18-.31Z"/><path class="cls-11" d="M64.63,23.29c1.39,2.15,3.94,2.62,5.84,4.03,.9,.67,.91,1.2,.11,1.87-1.14-.02-2.31-.13-3.04,1.04-.32,0-.65,0-.97-.02-.3-.02-.6,.01-.89,.09-.41-.83-1.13-1.1-2-1.11l-.08-.06-.89-.88-.09-.13c.02-1.09,.12-2.21-1-2.91,0-.33,0-.66,0-1,.09-.24,.14-.49,.13-.74l2.88-.17Z"/><path class="cls-12" d="M61.62,25.2c1.12,.7,1.02,1.82,1,2.91-.98,.06-1.99-.02-2.92,.22-1.04,.27-2.58,.5-2.48,1.87,.11,1.58,1.87,.76,2.79,1.28-1.73,.64-3.15,2.4-5.31,1.42-.27-.32-.55-.64-.83-.96,1.76-1.83,1.5-4.53,2.83-6.55,.64-.07,1.28-.13,1.92-.2,1,0,2,0,3,0Z"/><path class="cls-12" d="M230.4,45.89c1.08-3.76,3.29,.01,4.83-.72,1.28,1.89,5.88,2.19,2.93,6.11-2.59-1.8-5.17-3.6-7.76-5.39Z"/><path class="cls-11" d="M39.61,29.41c.18,2.1,2.6,3.41,2.06,5.77-.78,.99-1.99,.69-2.99,1.01l-1-2.02c-.73-1.89-2.35-2.03-4.03-2.03,.03-.31,.05-.63,.04-.95h.01c.81-.25,2.03,.75,2.42-.79,.04-.28,.05-.56,.05-.85,1.15-.05,2.3-.1,3.44-.15Z"/><path class="cls-12" d="M33.64,32.15c1.69,0,3.3,.14,4.03,2.03-1.13,.01-2.3-.15-3.39,.07-3.11,.64-2.81,2.02-.65,3.67-.62,.11-1.23,.22-1.85,.34-4.93,.06-2.33-2.95-2.05-5.02,.27-.09,.55-.15,.84-.17,1.22,.36,2.1-.45,3.07-.92Z"/><path class="cls-15" d="M238.16,51.28c2.94-3.92-1.66-4.22-2.93-6.11,.1-.38,.19-.75,.29-1.13,2.12-.23,3.31,1.68,5.1,2.2,1.22,2.19,.62,4.55,.62,6.85-1.52,.24-2.68-.14-3.08-1.81Z"/><path class="cls-12" d="M13.62,43.58c.02,.49,.03,.99,.05,1.48-2.05,2.03-4.17,3.99-6.9,5.1-.35,0-.69-.01-1.04-.02-.12-.3-.16-.61-.11-.93,.11-.57,.23-1.13,.34-1.7l.98-1.25c1.63-.77,3.26-1.55,4.88-2.32l1.8-.36Z"/><path class="cls-4" d="M211.34,37.79c.49-2.65,2.31-3.2,4.37-2.21,1.45,.7,3.61,1.86,1.11,3.97-1.83-.59-3.66-1.18-5.49-1.76Z"/><path class="cls-4" d="M134.23,27c.26-3.12,1.78-4.57,4.89-3.34,2.21,.87,1.8,2.26,.3,3.6-1.32-.11-2.64-.22-3.96-.32-.39-.42-.74-.43-1.05,.08h-.17Z"/><path class="cls-4" d="M33.63,37.92c-2.15-1.65-2.45-3.03,.65-3.67,1.09-.22,2.26-.06,3.39-.07,.33,.67,.67,1.35,1,2.02-1.32,1.64-3.52,.68-5.04,1.72Z"/><path class="cls-4" d="M60.01,31.48c-.91-.52-2.67,.29-2.79-1.28-.1-1.37,1.44-1.59,2.48-1.87,.93-.24,1.94-.16,2.92-.22l.09,.13c.3,.29,.6,.59,.89,.88l.08,.06c-.04,.62-.08,1.25-.12,1.87-1.19,.14-2.37,.28-3.56,.43Z"/><path class="cls-14" d="M130.52,26.06l1.98,1.03c-2.03,.12-4.07,.32-6.04-.39,1.23-.98,2.72-.33,4.06-.64Z"/><path class="cls-14" d="M115.42,27c.05-.25,.09-.49,.13-.74l-.08-.12,1.91-.04c1.04,.21,2.08,.41,3.12,.62-1.66,.65-3.37,.57-5.08,.29Z"/><path class="cls-12" d="M63.57,31.06c.04-.62,.08-1.25,.12-1.87,.87,0,1.58,.28,2,1.11-.41,1.07-1.26,.93-2.11,.76Z"/><path class="cls-13" d="M67.53,30.22c.73-1.17,1.9-1.06,3.04-1.04,.03,.3,.03,.6,0,.89-1.01,.31-2.02,.61-3.04,.92,.02-.26,.02-.52-.01-.77Z"/><path class="cls-11" d="M188.36,32.96c.53-.91,1.19-.93,1.94-.27-.65,.09-1.29,.18-1.94,.27Z"/><path class="cls-12" d="M67.53,30.22c.03,.26,.03,.52,.01,.77-.64,.12-.85-.29-.98-.79,.32,.01,.65,.02,.97,.02Z"/><path class="cls-13" d="M169.37,29.9c.41-.19,.82-.38,1.24-.57-.41,.19-.82,.38-1.24,.57Z"/><path class="cls-4" d="M167.31,29.22c.31,.25,.62,.5,.93,.76-.31-.25-.62-.5-.93-.76Z"/><path class="cls-13" d="M5.74,50.15c.35,0,.69,.01,1.04,.02-.34,.39-.68,.78-1.02,1.17,0-.4,0-.8-.01-1.2Z"/><path class="cls-12" d="M134.4,27.02c.31-.51,.67-.5,1.05-.08l-1.05,.08Z"/><path class="cls-15" d="M70.63,226.71c.01-5.95,.03-11.91,.04-17.86,.67-.02,1.33-.05,2-.07,1.51,.68,.18,3.05,2.12,3.56,2.75-2.39,2.94-5.88,3.7-8.98,1.24-5.11,4.75-7.32,9.32-8.81,2.07-.67,3.18-.19,3.9,1.66,2.23,5.73,8.78,9.7,6.96,17.12-.21,.84,.85,1.29,1.72,1.45,.32,.67,.63,1.34,.95,2.01,.5,6.68-1.58,13.25-.85,19.94,.03,3.01,0,6.01-.89,8.92-.02,2.79-.11,5.58-.01,8.37,.04,1.14-.66,3.12,1.33,3.04,1.55-.06,1.66-1.85,1.57-3.17-.19-2.82,.32-5.53,.95-8.24l.08-1.94c.41-.28,1-.46,1.19-.85,2.44-4.91,3.88-1.92,5.04,.72,2.68,6.14,3.16,12.62,2.82,19.25-.22,4.32-4.8,11.92-8.07,10.88-6.43-2.04-6.87,3.66-10.08,5.61-3.47,2.12-3.45,7.1-7.35,8.85,1.57,1.81-1.84,4.4,2.01,6.62,4.18,2.41,8.44,3.5,12.84,4.83,5.85,1.77,11.36,5.46,17.85,2.39,1.04-.49,1.88,.36,2.81,.59,4.5,1.09,9.08,2.81,13.12-1.23,.93-.93,2.12-.46,3.26-.53,5.14-.3,10.59,.28,14.52-4.23,1.69-.68,3.35,1.88,5.06,.06,.91-.39,1.98-.59,2.68-1.21,1.88-1.66,5.39-4.07,5.04-5.17-.93-2.95-1.17-6.64-5.35-8.19-5.49-2.03-10.57-5.15-15.86-7.74-7.94-3.89-12.61-11.57-10.3-19.22,1.54-5.1,3.13-10.46,5.59-15.07,1.6-3.01,1.09-7.18,4.84-9.29,4.88-2.74,3.82-7.57,3.32-12.04,0-.97,0-1.94,.01-2.9q3.89-3.43,6.8-.98l.03,3.9c-1.5,1.45-.23,1.76,.88,2.14l.11,7.83c-.34,.69-.67,1.38-1.01,2.07-3.34-.6-5.11,1.06-5.44,4.18-.48,4.57-2.77,8.41-4.6,12.45-5.17,11.37-1.78,17.83,6.04,22.93,6.07,3.97,14.08,4.78,18.43,11.73,.85,1.36,3,2.28,5.15,2.64,3.84,.66,4.5,3.04,2.38,6.53-1.02,1.67-2.08,3.42-2.55,5.28-.32,1.29-.39,1.88-1.93,2.07-5.89,.74-11.29,3.51-17.24,4.2-1.73,.2-3.76,1.39-4.15,3.74-.67,0-1.33,.01-2,.02-2.36,.61-5.48-1.65-7.06,1.88-.63-.02-1.26-.03-1.89-.05-.17-1.12-.77-1.79-1.96-1.82-7.85-.21-15.7,.34-23.55,.5-3.11,.06-5.69-.42-8.44-1.48-2.85-1.09-5.77-2.62-8.7-2.71-4.04-.12-7.4-1.04-10.06-4.05-.88-.99-2.12-.82-3.04-1.32-3.48-1.91-8.33-3.16-7.97-8.2,.31-4.42,.64-9.25,6.36-11.21,2.34-.8,4.61-2.5,6.74-3.91,3.27-2.16,7.26-4.44,6.66-9.56-.22-6.32,1.69-12.54,.97-18.88,.92-10.44,.25-20.03-10.36-26.16-5.63-3.25-8.95-2.65-10.53,3.65-.86,3.44-2.18,5.35-5.95,3.47Z"/><path class="cls-8" d="M151.41,306.53c.39-2.35,2.43-3.53,4.15-3.74,5.95-.69,11.36-3.46,17.24-4.2,1.54-.19,1.6-.78,1.93-2.07,.47-1.86,1.53-3.61,2.55-5.28,2.12-3.48,1.46-5.87-2.38-6.53-2.14-.37-4.3-1.28-5.15-2.64-4.35-6.96-12.36-7.77-18.43-11.73-7.82-5.11-11.2-11.56-6.04-22.93,1.83-4.04,4.12-7.88,4.6-12.45,.33-3.11,2.09-4.77,5.44-4.18,.35,1.98,.7,3.95,1.05,5.93-1.44,1.41-.44,1.77,.87,2,.06,1.33,.11,2.65,.17,3.98-1.53,1.53-.32,1.79,.93,2.04,.02,.98,.05,1.97,.07,2.95-1.45,2.19,.03,4.41,.25,6.51,.23,2.14,1.39,6.31,3.12,5.65,2.75-1.04,2.16-4.55,.61-7.16,.28-1.68-.72-3.65,1.1-5,1.79,.24,1.9,1.54,1.89,2.95-.02,2.16,.24,4.35-.04,6.48-1.39,10.52,3.95,16.89,12.74,21.29,4.73,2.37,7.57,8.09,6.62,13.41-.22,1.24,.29,2.28,.28,3.36-.01,2.47,1.33,6.41-4.03,4.42-1-.37-3.57,.68-3.8,1.51-1.31,4.79-5.02,3.44-8.05,3.39-5-.07-9.49,1.68-14.01,3.39-1.82,.69-3.2,1.13-3.71-1.34Zm2.89-58.27c-.03-1.09-.54-2.08-1.57-2.19-1.67-.18-2.22,1.06-2.25,2.51-.02,1.07,.34,1.98,1.64,1.9,1.34-.08,1.97-.98,2.18-2.23Z"/><path class="cls-8" d="M96.51,264.63c.6,5.11-3.39,7.4-6.66,9.56-2.13,1.41-4.4,3.11-6.74,3.91-5.72,1.96-6.05,6.8-6.36,11.21-.35,5.05,4.49,6.29,7.97,8.2,.92,.5,2.16,.33,3.04,1.32,2.66,3.01,6.02,3.93,10.06,4.05,2.93,.09,5.85,1.62,8.7,2.71,2.75,1.05,5.32,1.54,8.44,1.48,7.84-.16,15.69-.7,23.55-.5,1.19,.03,1.79,.69,1.96,1.82-2.47,1.6-5.31,2.24-8.11,2.07-7.32-.44-14.73,.59-21.99-1.63-2.52-.77-5.55,.31-8.27-.02-7.01-.86-13.74-2.72-20.02-6.13-1.99-1.08-4.36-1.58-6.62-2.05-11.36-2.4-11.52-10.55-6.5-18.6,2.46-3.95,6.11-7.17,11.07-8.74,5.94-1.88,10.27-7.09,16.48-8.65Z"/><path class="cls-8" d="M175.3,182.87c2.09,12.91,4.19,25.82,6.28,38.72-2.45,.26-2.92,2.51-2.89,4.03,.09,4.69-1.7,8.98-2.26,13.49-.25,2.02-.94,3.6-2.77,4.29-2.07,.78-2.9-.96-3.7-2.41-2.02-3.66-4.26-1.41-6.47-.26-1.99-3.51-.7-7.34-1.09-11.01,1.26-2.53,2.73-5.12-1.66-6.12-.06-.61-.11-1.21-.17-1.82,1.57-1.82,.54-4.02,.87-6.02,1.54,0,3.06,.09,3.7,1.83,1.08,2.91,2.32,5.78,3.11,8.77,.55,2.1,1.22,4.15,3.53,4.07,2.49-.1,1.24-2.56,1.66-3.98,.28-.95,.87-1.96,.73-2.85-.64-4.28,2.47-9.09-1.73-12.87-.01-4.64-.03-9.28-.04-13.92,1.03-3.15,2.56-6.36-.95-9.03,0-1.29,0-2.59-.01-3.88,1.28-.34,2.57-.68,3.85-1.02Z"/><path class="cls-8" d="M70.63,226.71c3.76,1.88,5.08-.03,5.95-3.47,1.58-6.3,4.9-6.91,10.53-3.65,10.61,6.13,11.29,15.72,10.36,26.16-1.46-.03-2.49-.9-3.31-1.94-3.11-3.94-7.02-5.8-12.1-5.11-3.18,.43-5.8-2.66-9.37-1.33-1.46,.54-2.09-1.66-2.1-3.24,0-2.47,.02-4.94,.03-7.42Z"/><path class="cls-16" d="M100.4,214.79c-.86-.16-1.92-.61-1.72-1.45,1.82-7.43-4.73-11.39-6.96-17.12-.72-1.85-1.83-2.33-3.9-1.66-4.57,1.49-8.08,3.7-9.32,8.81-.76,3.1-.95,6.59-3.7,8.98-1.94-.51-.61-2.89-2.12-3.56-.06-1.01-.12-2.01-.18-3.02,.97-1.54,1.08-3.23,.85-4.98,.4,0,.8,0,1.2,0,1.11,.62,2.37,3.41,3.22-.19,.3-1.27,.51-2.56,.75-3.84,.38-4.95,.76-9.91,1.14-14.86,1.15,.09,2.54-.2,3.4,.35,3.72,2.37,5.36,.4,6.48-2.83,.4-1.16,.85-2.2,2.22-2.35,1.68-.19,1.6,1.29,2.09,2.27,4.12,8.28,7.75,16.67,6.74,26.29-.15,1.41-.43,3.02,.93,4.18,0,1.66,0,3.32,0,4.98l-1.11,.02Z"/><path class="cls-8" d="M69.45,195.74c-.61-6.57,.73-12.82,3.12-18.9,.96,.03,1.93,.06,2.89,.09,.3,.65,.61,1.29,.91,1.94-.12,1.94-.24,3.88-.37,5.82-3.49,.72-2.84,2.26-.81,4.07,.02,2.65,.03,5.3,.05,7.95-.3-.04-.6-.04-.9,.02-.62,.03-1.25,.06-1.87,.09-1.01-.36-2.02-.72-3.03-1.08Z"/><path class="cls-16" d="M162.4,229.73c.38,3.67-.9,7.5,1.09,11.01,0,2.32,0,4.63,.01,6.95-1.81,1.35-.82,3.31-1.1,5-2.97-.35-1.81-4-3.99-4.99-.02-.98-.05-1.97-.07-2.95,.04-.84-.11-1.59-.94-2.04-.06-1.33-.11-2.65-.17-3.98h1.1c4.13-2.22,1.03-6.2,2.23-9.13l1.82,.14Z"/><path class="cls-8" d="M142.36,308.44c1.58-3.54,4.7-1.27,7.06-1.88-1.56,3.61-4.66,1.43-7.06,1.88Z"/><path class="cls-15" d="M72.48,196.82c.62-.03,1.25-.06,1.88-.09,.06,1.35,.12,2.7,.18,4.06-.4,0-.8,0-1.2,0-1.23-1.11-.62-2.63-.86-3.96Z"/><path class="cls-8" d="M72.49,205.75c.06,1.01,.12,2.01,.18,3.02-.67,.02-1.33,.05-2,.07-.1-1.45-.2-2.89,1.82-3.09Z"/><path class="cls-8" d="M67.85,198.85c-.26-1.3,.32-2.04,1.56-2.33,.28,1.31-.2,2.12-1.56,2.33Z"/><path class="cls-9" d="M76.57,310.56c6.09,.75,11.77,3.74,18.08,3.41,.27-.01,.59,1.03,.89,1.58-1.81,1.79-4.41,1.5-6.05,.8-3.94-1.69-8.09-2.61-12.04-4.15-.44-.17-.59-1.07-.88-1.64Z"/><path class="cls-9" d="M61.61,305.57c4.29,.27,8.17,1.44,10.98,4.98-4.05-.81-8.66-.38-10.98-4.98Z"/><path class="cls-13" d="M130.51,19.45c-.11,2.85-.05,5.47-4.16,5.89-5.37,.54-7.43-2.08-8-6.81,3.3-1.05,6.72-.07,10.05-.62,.67,.21,1.33,.42,2,.62,.02,.31,.05,.61,.11,.92Z"/><path class="cls-8" d="M161.32,20.56c-1.63-.04-3.25-.09-4.88-.13-3.24-2.04-6.75-1.08-10.19-.93-1.91-.15-3.81-.29-5.72-.44-1.18-1.23-2.9-.49-4.23-1.15-.01-.27,.02-.53,.1-.79,2.01,.02,4.03,.05,6.04,.07,4.89,.04,9.77,.03,14.66,.14,2.41,.06,4.87,.22,6.43,2.54-.74,.23-1.48,.46-2.21,.68Z"/><path class="cls-8" d="M102.53,18.24c-2.25,1.65-4.71,.99-7.14,.64,1.13-2.82,4.45-1.07,6.23-2.92,.41-.43,.79,1.38,.91,2.27Z"/><path class="cls-10" d="M142.45,17.2c-2.01-.02-4.03-.05-6.04-.07,2.05-2.89,4.06-3.01,6.04,.07Z"/><path class="cls-14" d="M136.31,17.91c1.34,.66,3.05-.08,4.23,1.15-.39,.17-.78,.34-1.17,.52-1.28-.01-2.55-.03-3.83-.04-1.68-.03-3.35-.06-5.03-.09-.05-.3-.09-.61-.11-.92,.72-.21,1.43-.41,2.15-.61,1.25,0,2.5,0,3.75,0Z"/><path class="cls-10" d="M118.64,17.76c-.98,.64-2.03,.52-3.09,.31-.02-.37-.04-.74-.06-1.1,.2-1.05,.65-1.85,1.9-1.54,1.21,.31,1.06,1.43,1.25,2.33Z"/><path class="cls-8" d="M115.49,16.97c.02,.37,.04,.74,.06,1.1-.28,.17-.56,.34-.85,.51-2.77-.19-5.54-.38-8.31-.57,2.87-1.72,6.1-.34,9.09-1.04Z"/><path class="cls-13" d="M89.62,19.81c-1.21,2.41-3.37,1.02-5.12,1.29,.04-.32,.04-.64,0-.96h-.01c.69-.17,1.39-.34,2.08-.52l-.03-.43c.69-.04,1.37-.08,2.06-.11l1.01,.73Z"/><path class="cls-14" d="M106.39,18.01c2.77,.19,5.54,.38,8.31,.57-.07,.33-.14,.65-.2,.97-1.95,.01-3.9,.02-5.86,.04-.86-.26-1.71-.51-2.57-.77,.03-.3,.14-.58,.33-.81Z"/><path class="cls-8" d="M132.55,17.92c-.72,.2-1.43,.41-2.15,.61-.67-.21-1.33-.41-2-.62,1.38-1.11,2.77-1.01,4.14,0Z"/><path class="cls-7" d="M88.61,19.08c-.69,.04-1.37,.08-2.06,.11,.11-.74,.16-1.65,1.18-1.47,.36,.06,.59,.88,.88,1.36Z"/><path class="cls-14" d="M167.62,21.82c-1,.38-1.89,.48-2.28-.83,.35-.26,.7-.52,1.05-.77,.41,.53,.82,1.07,1.23,1.6Z"/><path class="cls-14" d="M86.58,19.62c-.69,.18-1.39,.35-2.08,.53,.05-.3,.08-.61,.09-.91,.67,.13,1.33,.26,2,.38Z"/><path class="cls-14" d="M161.32,20.56c.74-.23,1.48-.46,2.21-.68,.19,.25,.31,.54,.36,.85-.9,.53-1.76,.54-2.58-.17Z"/><path class="cls-13" d="M159.45,117.98c2.22,3.94,1.23,8.43,1.64,12.56,1.53,15.42,3.29,30.8,5.39,46.14,.76,5.52,1.2,10.96,.2,16.56-1.22-2.26-3.34-3.9-3.37-6.68-.01-1.78-1.18-2.64-2.94-2.67-.65,0-1.31-.02-1.96-.02-1.09-1.94-1.42-3.62,.95-5.03,3.38-2.01,2.11-4.77,.78-7.34-.59-1.14-1.41-2.43-2.98-2.21-1.37,.2-1.51,1.53-1.91,2.62-1.6,4.36-.56,8.87-.81,13.31-.11,2.06-.14,3.79-2.62,4.71-4.04,1.49-3.15,5.24-3.43,8.47-.28,3.18,1.85,2.98,3.96,3.69,3.52,1.17,1.62,3.11,.08,4.75h-1.97c-1.77-.08-2.54,1.11-3.33,2.44-.66,1.11-1.61,2.63-2.98,2.11-3.79-1.43-4.12,1.77-5.7,3.63-1.98,2.33-.77,6.16-3.94,7.79l-.08-.07c-1.29-4.09-4.19-7.82-1.9-12.58,1.77-3.68,2.95-7.65,4.5-11.44,1.95-4.77,2.37-4.85,6.2-1.26,.61,.57,1.03,1.37,1.98,1.14,1.27-.31,1.31-1.43,1.19-2.39-.14-1.12-.57-2.21-.87-3.31,.32-1.35,.63-2.69,.95-4.04,.32-.73,.92-1.46,.92-2.19,0-6.25-.76-12.65,4.39-17.65,.5-.49,.54-1.54,.63-2.34,.59-5.24,1.43-10.47,1.04-15.78-.18-2.42,.19-4.9,2.09-6.39,5.5-4.3,4.06-9.95,3.39-15.47-.45-3.72-1.35-7.44,.53-11.04Z"/><path class="cls-11" d="M159.45,117.98c-1.88,3.6-.98,7.32-.53,11.04,.66,5.52,2.11,11.17-3.39,15.47-1.9,1.48-2.26,3.96-2.09,6.39,.39,5.31-.45,10.54-1.04,15.78-.09,.81-.13,1.86-.63,2.34-5.16,5-4.39,11.4-4.39,17.65,0,.73-.6,1.46-.92,2.19-2.2-7.88-.65-15.9-.79-23.85-.01-.77,.93-1.74,1.66-2.32,4.5-3.59,5.28-6.61,3.12-12.75,0-2.64,.01-5.29,.02-7.93,1.07-.21,1.83-.73,1.89-1.93,.31-6.76,1.76-13.35,2.75-20,.82-5.49,1.52-11.45-.74-17.03v-4.97c.03-1.11,.22-2.27-.93-3.02-.3-5.32-2.52-10.62-.07-15.95,2.33,3,.58,6.69,1.7,10.03,.87,2.61,.66,5.5,3.25,7.38,.86,.63,1.18,1.7,.41,2.64-2.97,3.65-.83,7.75,.26,10.86,1.02,2.94,.47,5.33,.46,7.98Z"/><path class="cls-3" d="M154.38,98.06c0,1.66,0,3.31-.01,4.97-3.03,3.98-1.56,8.66-2.04,13.04-2.12-.37-3.67-2.55-3.44-3.73,1.05-5.55-.36-11.14,.59-16.57,.53-3.06,3.32-6.1-2.06-7.55-1.27-.34-.95-2.3-.99-3.62-.05-1.48,.44-3.72-.33-4.32-4.44-3.47-.78-6.24,.8-8.7,3.32-5.16,3.4-5.48-2.46-7.46-3.93-1.25-7.76-2.88-11.98-2.93-1.96-.21-3.96-.34-5.04-2.41,6.52-1.07,12.52,1.52,18.72,2.7,4.61,.88,4.96,5.7,7.43,8.57-.07,3.02-.13,6.03-.2,9.05-2.45,5.33-.23,10.63,.07,15.95-1.67,1.62-1.17,2.57,.94,3.02Z"/><path class="cls-16" d="M158.41,183.85c.65,0,1.31,.02,1.96,.02,2.01,7.26,4.06,14.51,6.01,21.78,.35,1.31,.43,2.86,2.2,2.65,1.66-.2,1.83-1.74,1.75-3.08-.27-5.08-.58-10.15-.97-15.22-.27-3.5,.39-6.87,1.12-10.25,3.2,.71,.38,2.81,.96,4.13,0,1.29,0,2.59,.01,3.88,.27,3.02-1.06,6.2,.95,9.03,.01,4.64,.03,9.28,.04,13.92-.03,2.49-.05,4.98-.1,7.48-.03,1.36-.11,2.87-1.81,3.09-1.71,.22-2.05-1.42-2.59-2.57-.34-.73-.31-1.63-.62-2.39-2.01-4.99-3.02-10.42-5.77-15.09l-1.27,.26v9.33c-1.39-.25-1.82-1.16-1.88-2.48-.3-5.92-.71-11.83-.98-17.75-.1-2.29-.35-4.66,.98-6.76Z"/><path class="cls-13" d="M153.58,70.04c-2.48-2.87-2.82-7.69-7.43-8.57-6.19-1.18-12.2-3.77-18.72-2.7-1.97,.02-3.9-1.31-5.91-.21l-1.96-.2c-6.55-.23-12.7,1.5-18.78,3.69-1.41,.51-2.19,1.41-2.47,2.83-2.86,2.55-2.61,5.68-2.14,9.13,.35,2.57,1.86,6.13-2.69,7.05-1.47-6.71-2.09-13.37,1.14-19.81,2.28-.79,4.55-1.59,6.83-2.38,1.27,.29,1.92-.35,2.25-1.49l2.86-.5c1.98-.26,3.97-.52,5.95-.78,.72,1.05,1.38,.98,1.98-.11,2.29-.13,4.58-.26,6.88-.39,1.74,.59,3.48,.6,5.22,0,1.96,.13,3.92,.25,5.88,.38,.45,.96,1.2,1.08,2.11,.76,2.92,.7,6.12-.45,8.86,1.37,.73,1.24,1.89,1.01,3.02,.89l4.93,2.22c1.72,2.69,4.53,5.12,2.19,8.82Z"/><path class="cls-15" d="M151.38,61.22c-1.64-.74-3.28-1.48-4.93-2.22-.02-.61-.04-1.21-.06-1.82,11.16-.19,16.39,6.28,13.76,17.14-1.12,4.65,.33,9.07,1.06,13.55,.29,1.78,1.45,3.38,1.06,5.29-2.31-.4-2.66-2.28-2.93-4.08-.9-5.97-2.55-11.8-1.16-18.06,1.26-5.67-1.34-8.81-6.8-9.82Z"/><path class="cls-16" d="M170.36,170.88c-1.09-.17-1.92-.66-1.92-1.87,0-10.92-1.32-21.75-2.03-32.62-.04-.6,.28-1.22,.97-1.87,1.73,10.36,4.36,20.55,4.07,31.16-1.7,1.46-.86,3.44-1.09,5.2Z"/><path class="cls-15" d="M171.45,183.89c-.57-1.32,2.24-3.42-.96-4.13-.05-.63-.11-1.25-.16-1.88,0-.69,0-1.37,0-2.06,.06-.62,.12-1.23,.18-1.85,.96-.04,1.92-.07,2.89-.1,1.43,2.83,1.01,6.06,1.9,9-1.28,.34-2.57,.68-3.85,1.02Z"/><path class="cls-15" d="M170.36,170.88c.23-1.76-.61-3.75,1.09-5.2,2.47,1.52,.49,4.42,1.96,6.26-.98-.05-1.96-.1-2.94-.16-.03-.3-.07-.6-.11-.9Z"/><path class="cls-16" d="M170.47,171.78c.98,.05,1.96,.1,2.94,.16,0,.24,0,.48-.02,.72,0,.41,0,.82-.01,1.22h.02c-.96,.02-1.92,.05-2.89,.09-.01-.73-.03-1.46-.04-2.19Z"/><path class="cls-16" d="M170.33,175.83c0,.69,0,1.37,0,2.06-.72-.16-1.69-.19-1.45-1.24,.08-.36,.95-.55,1.45-.81Z"/><path class="cls-15" d="M173.38,173.89c0-.41,0-.81,.01-1.22,.57,.41,.77,.82-.01,1.22Z"/><path class="cls-12" d="M93.49,81.06c4.55-.93,3.04-4.48,2.69-7.05-.47-3.45-.72-6.57,2.14-9.12-.39,4.57-1.12,9.17,1.7,13.36,.53,.78,.21,1.82-.57,2.16-3.35,1.46-2.59,3.85-2.06,6.62,.45,2.37,.21,4.89-.38,7.39-.8,3.38-1.13,6.93,.41,10.23,.97,2.08,.72,3.97,.52,6.18-.25,2.81-3.01,5.84-.39,8.52,4.09,4.18,2.9,10.65,6.81,14.85,.43,.46,.16,1.61,.16,2.44,.08,6.89,.86,13.38,3,20.24,3.69,11.84,4.77,24.49,6.97,36.8,.55,3.06,.55,6.43,1.94,9.05,1.37,2.58,4.22-.65,6.41,.13,.47,.16,.96,.26,1.44,.36,2.73,.56,4.24-.56,5.21-3.19,1.73-4.69,2.01-9.64,3.01-14.45,1.01-4.88,1.09-10.56,5.44-13.74,4.98-3.65,8.32-9.84,7.05-15.75-1.45-6.77-1.11-7.16,5.46-6.16,2.16,6.14,1.38,9.16-3.12,12.75-.73,.58-1.67,1.55-1.66,2.32,.13,7.95-1.41,15.97,.79,23.85-.32,1.35-.63,2.69-.95,4.04-2.55-.44-2.65-2.51-3.15-4.46-.77-3.02-2.51-3.19-4.71-1.28-1.29,1.11-1.9,2.49-2.35,4.2-1.8,7.01-3.76,13.98-5.91,20.89-.88,2.81-2.64,4.96-5.77,2.12-1.26-1.14-2.36-1.39-4-.83-1.99,.68-3.55-.07-4.14-2.32-1.63-6.21-3.95-12.32-4.81-18.64-2.46-18.09-6.48-35.77-12.02-53.15-.6-1.88-.88-3.88-3.34-3.15-1.78,.53-2.83,1.91-2.54,4.22,.49,3.85-1.18,6.29-5.36,6.44-.02-2.3-.05-4.61-.07-6.91,1.67-1.55,.36-3.35,.43-5.04,2.54-.84,2.12-2.32,.87-3.98,.02-1.31,.04-2.62,.05-3.93,2.74-5.81,3.81-11.78,1.77-18.06,.07-1.31,.13-2.61,.2-3.92,1.23-.24,2.39-.52,.97-2.03l.04-2.94c3.25-2.05,1.9-5.22,1.97-8.05l-.34-7.12c.06-1.29,.12-2.59,.17-3.88Z"/><path class="cls-13" d="M101.51,214.76c0-1.66,0-3.32,0-4.98,1.54-9.28,2.3-18.52-.98-27.65-.59-1.64-1.88-2.22-3.18-2.9-1.35-.7-2.38-1.76-1.26-3.11,3.41-4.09-1.21-6.17-2.2-9.11-.44-1.3-1.92-1.06-2.81,.07-.61,.78-1,1.75-1.68,2.45-1.17,1.21-.5,4.37-3.08,3.79-2.6-.58-1.68-3.25-1.71-5.1-.09-5.47-.05-10.94-.01-16.41,.01-1.57-.51-3.49,1.89-3.96,.42,4.81-.45,9.72,.66,15.03,3.07-2.49,2.39-6.1,4.34-8.26,1.06-1.18,.55-4.28,3.35-3.4,2.23,.71,2.15,2.47,2.06,4.76-.13,3.59-1.08,7.94,3.95,9.88,1.96,.76,2.1,3.31,2.52,5.19,3.45,15.22,6.74,30.47,10.2,45.69,.69,3.03,1.2,6.97,3.78,8.29,2.67,1.37,6.38,.19,9.73,.85,1.48,.29,4.84-2.03,7.34-3.18l.08,.07c.45,2.4-1.47,3.95-2.23,5.9-3.04,7.86-3.14,7.82-11.41,7.04-.49-.05-.99-.02-1.49-.01-2.96,0-4.52-1.39-4.92-4.4-.46-3.43-.96-7.01-3.26-9.73-1.61-1.9-2.09-3.64-1.18-5.84,.74-1.79,.35-3.68-1.21-4.3-1.56-.62-1.62,1.64-2.43,2.55-1.66,1.86-1.98,4.05-1.87,6.46,.16,3.46,.13,6.93-.94,10.29-.01,1.99-.03,3.97-.04,5.96-1,1.44-2.02,1.3-3.03,.01-.73-6.69,1.35-13.26,.85-19.94,1.14-.59,1.27-1.26,.16-2.03Z"/><path class="cls-11" d="M134.42,222.72c-2.5,1.15-5.86,3.47-7.34,3.18-3.35-.66-7.06,.52-9.73-.85-2.58-1.32-3.09-5.27-3.78-8.29-3.46-15.22-6.75-30.47-10.2-45.69-.43-1.87-.57-4.43-2.52-5.19-5.04-1.94-4.09-6.29-3.95-9.88,.08-2.29,.17-4.06-2.06-4.76-2.8-.89-2.29,2.21-3.35,3.4-1.94,2.16-1.27,5.77-4.34,8.26-1.11-5.31-.24-10.22-.66-15.03,.32-.32,.63-.64,.95-.95,4.18-.15,5.85-2.58,5.36-6.44-.29-2.31,.76-3.69,2.54-4.22,2.46-.73,2.74,1.27,3.34,3.15,5.54,17.38,9.56,35.06,12.02,53.15,.86,6.31,3.18,12.42,4.81,18.64,.59,2.25,2.15,3,4.14,2.32,1.65-.56,2.74-.31,4,.83,3.13,2.84,4.89,.69,5.77-2.12,2.15-6.91,4.11-13.88,5.91-20.89,.44-1.71,1.06-3.09,2.35-4.2,2.2-1.9,3.95-1.74,4.71,1.28,.49,1.95,.6,4.02,3.15,4.46,.3,1.1,.73,2.19,.87,3.32,.12,.96,.08,2.09-1.19,2.39-.96,.23-1.38-.58-1.98-1.14-3.83-3.59-4.25-3.52-6.2,1.26-1.55,3.8-2.73,7.76-4.5,11.44-2.29,4.76,.62,8.5,1.9,12.58Z"/><path class="cls-16" d="M93.49,81.06c-.06,1.29-.12,2.59-.17,3.88-3.65,2.65-.69,7.06-2.69,10.15l-.09-.06c-2.16,.37-2.52,1.36-1.04,2.99l-.02,1.96c-2.66,.58-1.88,2.58-1.7,4.26,.17,1.59,.5,3.16,.76,4.73l-.02,.02c-2.72,.73-2.34,2.24-1.01,4-.02,1.65-.04,3.3-.06,4.94-3.26,1.55-2.01,3.8-.95,6.03,0,1.32-.01,2.64-.02,3.96-3.23,1.93-2.22,4.46-.98,7.01-.01,1.32-.03,2.64-.04,3.96-.88,.41-1.79,.76-2.64,1.23-2.93,1.61-4.67,.78-4.19-2.56,1.42-10.07,.96-20.32,3.18-30.34,.99-4.48,2.35-9.2,.75-13.93,.69-.06,1.39-.11,2.08-.17,2.12,.25,3.03-.99,3.31-2.82,.99-6.41,3.23-12.67,1.14-19.38-1.6-5.12,.05-7.5,5.52-9.67-3.22,6.44-2.6,13.1-1.14,19.81Z"/><path class="cls-13" d="M75.25,196.7c-.02-2.65-.03-5.3-.04-7.95,1.85-1.05,1.32-2.56,.81-4.07,.12-1.94,.24-3.88,.37-5.82,1.55-.92,1.55-1.93,.16-3,.04-1.65,.08-3.3,.12-4.95,4.8-1.03,5.38-.41,4.27,4.38-.51,2.18-.86,4.4-1.28,6.6-.38,4.95-.76,9.91-1.14,14.86-1.09-.02-2.17-.03-3.26-.05Z"/><path class="cls-15" d="M76.66,170.9c-.04,1.65-.08,3.3-.12,4.95-.36,.35-.72,.71-1.07,1.06-.96-.03-1.93-.06-2.89-.09,1.24-5.27,1.11-11,4.88-15.87,3.08,3.97-1.34,6.7-.8,9.94Z"/><path class="cls-13" d="M85.47,138.89c.01-1.32,.03-2.64,.04-3.96,.64,0,1.27,0,1.91,0l.36,.03c-.07,1.68,1.24,3.49-.43,5.04-.63-.37-1.25-.74-1.88-1.11Z"/><path class="cls-11" d="M56.7,25.4c-1.33,2.02-1.07,4.72-2.83,6.55-2.42-.82-.24-3.7-2.14-4.76,.33-.56,.67-1.12,1-1.68,.33-.07,.66-.15,1-.22,.99,.04,1.98,.07,2.97,.11Z"/><path class="cls-15" d="M13.62,43.58c-.6,.12-1.2,.24-1.8,.36-.83-1.01-1.99-.58-3.02-.69,.8-3.13,3.53-3.36,6-3.99-.1,.9-.2,1.8-.3,2.71-.59,.38-1.02,.84-.88,1.61Z"/><path class="cls-15" d="M30.57,33.07c-.29,.02-.57,.07-.84,.17-1.39,.22-2.79,.43-4.18,.65,.97-2.39,3-2.69,5.21-2.63-.06,.61-.13,1.21-.19,1.82Z"/><path class="cls-13" d="M8.8,43.25c1.03,.12,2.19-.32,3.02,.69-1.63,.77-3.26,1.55-4.88,2.32,0-.61,0-1.22,.01-1.83l.05-.13c.33-.28,.66-.55,.99-.83,.27-.05,.54-.12,.8-.22Z"/><path class="cls-14" d="M14.5,41.97c.1-.9,.2-1.81,.3-2.71,.28-.07,.56-.13,.85-.18,.7,.05,1.4,.09,2.09,.14,.14,2.36-.97,3.23-3.24,2.74Z"/><path class="cls-15" d="M36.16,29.56c0,.28-.01,.57-.05,.84-.95-.18-1.82-.1-2.42,.79h-.01c-.69-.04-1.38-.09-2.08-.14,.84-2.56,2.79-1.76,4.56-1.49Z"/><path class="cls-13" d="M31.6,31.05c.69,.05,1.38,.1,2.08,.15,0,.32,0,.63-.04,.95-.97,.48-1.85,1.28-3.07,.92,.06-.61,.13-1.21,.19-1.82,.29-.04,.57-.11,.84-.2Z"/><path class="cls-14" d="M52.73,25.51c-.33,.56-.67,1.12-1,1.68-.85-.11-1.71-.21-2.57-.32,.78-1.52,2.01-1.87,3.57-1.35Z"/><path class="cls-15" d="M22.71,35.19c-.55,1.42-1.55,2.08-3.08,1.83,.24-1.94,1.64-1.93,3.08-1.83Z"/><path class="cls-15" d="M17.74,39.23c-.7-.05-1.39-.09-2.09-.14,.23-1.98,1.61-2.02,3.12-1.85-.34,.66-.68,1.33-1.03,1.99Z"/><path class="cls-15" d="M6.95,44.44c0,.61,0,1.22-.01,1.83-.32,.42-.65,.84-.98,1.25-.31-.15-.62-.18-.95-.09-.13-.13-.26-.26-.39-.39,.29-1.3,.7-2.5,2.33-2.6Z"/><path class="cls-14" d="M56.7,25.4c-.99-.04-1.98-.07-2.97-.11,1.21-1.7,3.09-1.02,4.7-1.32l.2,.24c0,.33,0,.66,0,.99-.64,.07-1.28,.13-1.92,.2Z"/><path class="cls-14" d="M80.78,20.82c-.54,1.04-1.13,1.89-2.2,.47,.55-1,1.32-.98,2.2-.47Z"/><path class="cls-14" d="M61.75,23.46c0,.26-.04,.5-.13,.74-1,0-1.99,0-2.99,0l-.2-.24c1.01-.79,2.13-.9,3.32-.5Z"/><path class="cls-14" d="M84.51,20.14c.03,.32,.03,.64,0,.96-.33-.23-.66-.46-.99-.69,.33-.09,.67-.17,1-.26Z"/><path class="cls-15" d="M8,43.47c-.33,.28-.66,.55-.99,.83,.03-.64,.38-.89,.99-.83Z"/><path class="cls-14" d="M195.41,27.06c-3.28,.01-6.34-.76-9.14-2.5,3.35-.27,6.54,.03,9.14,2.5Z"/><path class="cls-14" d="M201.28,28.29c-1.56,1.46-2.53,1.04-3.01-.95,1.14-.13,2.28-.26,3.01,.95Z"/><path class="cls-14" d="M220.91,35.49c-1.55-.11-2.93-.56-3.75-2.03,1.79-.32,3.42-.35,3.75,2.03Z"/><path class="cls-14" d="M208.57,30.99c-1.24,.26-2.07-.14-2.35-1.43,1.31-.39,1.95,.33,2.35,1.43Z"/><path class="cls-14" d="M217.04,33.4c-1.07,0-2.15,0-2.82-1.06,1.15-.21,2.31-.43,2.82,1.06Z"/><path class="cls-14" d="M214.15,32.32c-.65,0-1.3-.01-1.95-.02,.03-.31,.04-.62,.02-.93,.85-.11,1.61-.03,1.92,.95Z"/><path class="cls-13" d="M5.01,47.42c.33-.09,.65-.06,.95,.09-.11,.57-.22,1.14-.34,1.7-.21-.6-.41-1.2-.62-1.8Z"/><path class="cls-7" d="M164.28,81.15c-3.08-3.27-2.76-7.73,1.03-10.33,2.95-2.02,7.23-3.1,5.92-7.89-1.3-4.73-5.86-6.43-9.81-7.47-19.23-5.07-38.68-7.11-58.52-3.48-8.08,1.48-16.25,2.21-23.23,7.12-4.33,3.04-4.24,6.62-.22,10.01,2.07,1.74,6.31,2.57,4.21,6.97-4.53-1.92-9.49-2.82-13.28-6.46-3.93-3.77-4.15-6.37-.62-10.23,3.85-4.2,8.41-6.34,14.07-7.44,13.78-2.68,27.53-4.54,41.63-5.1,13.28-.53,25.64,2.77,38.28,5.27,5.04,1,9.85,2.65,13.92,5.91,5.12,4.11,4.54,7.75-.8,11.57-3.01,2.16-5.98,4-9.5,5.02-3.46,1-2.96,3.93-3.09,6.53Z"/><path class="cls-7" d="M83.66,82.07c.96,.68,.94,1.35-.03,2-1.09-.68-1.07-1.35,.03-2Z"/><path class="cls-15" d="M94.62,61.24c-5.47,2.17-7.13,4.55-5.52,9.67,2.1,6.71-.15,12.96-1.14,19.38-.28,1.84-1.19,3.07-3.31,2.82,1.58-8.27,3.05-16.51,2.01-25.05-.51-4.18,4.6-10.27,9.61-11.1,3.27-.54,6.89-4.25,10.29-.09-.95,.16-1.91,.33-2.87,.49-1.27-.3-2,.24-2.24,1.49-2.28,.79-4.55,1.59-6.83,2.38Z"/><path class="cls-15" d="M143.44,58.11c-2.74-1.81-5.94-.67-8.86-1.36-.05-.52-.1-1.04-.15-1.56,3.84-1.98,7.06-.7,10.03,1.89-.34,.35-.68,.69-1.02,1.04Z"/><path class="cls-15" d="M126.59,55.6c-1.74,.6-3.48,.59-5.22,0,.07-1.85,1.06-2.5,2.86-2.45,1.71,.05,2.25,.98,2.36,2.45Z"/><path class="cls-16" d="M143.44,58.11c.34-.35,.68-.69,1.02-1.04,.65,.04,1.29,.07,1.94,.11,.02,.61,.04,1.21,.06,1.82-1.13,.11-2.29,.35-3.02-.9Z"/><path class="cls-16" d="M134.43,55.18c.05,.52,.1,1.04,.15,1.56-.91,.32-1.66,.2-2.11-.77,.47-.72,1.19-.81,1.96-.8Z"/><path class="cls-16" d="M114.49,55.99c-.6,1.09-1.26,1.16-1.98,.11,.61-.96,1.27-1.02,1.98-.11Z"/><path class="cls-14" d="M146.26,19.49c3.44-.14,6.95-1.11,10.19,.93-.52,2.63-1.39,5.14-4.36,5.74-4.86,.99-5.53,.15-5.83-6.68Z"/><path class="cls-11" d="M194.11,32.86c.08-.19,.13-.39,.14-.6,.4,.1,.79,.21,1.19,.31-.29,.8-.86,.3-1.33,.29Z"/><path class="cls-4" d="M115.55,26.26c-2.69-.11-5.38-.22-8.07-.34-.07,0-.2-.22-.19-.34,0-.15,.11-.3,.17-.44,.33-.33,.65-.65,.98-.98,.06-.3,.13-.6,.21-.89,.63-.31,1.26-.61,1.89-.92l3.84-.02c.41,.92,.82,1.83,1.23,2.75-.05,.35-.09,.7-.14,1.05l.08,.12Z"/><path class="cls-12" d="M114.37,22.33c-1.28,0-2.56,.01-3.84,.01-.64-.03-1.28-.06-1.93-.09,.01-.89,.02-1.78,.03-2.67,1.95-.01,3.9-.02,5.86-.04-.04,.93-.08,1.85-.12,2.78Z"/><path class="cls-3" d="M115.47,26.14c.05-.35,.09-.7,.14-1.05,.59,.34,1.18,.67,1.78,1.01-.64,.01-1.28,.03-1.92,.04Z"/><path class="cls-3" d="M108.61,22.25c.64,.03,1.28,.06,1.93,.09-.63,.31-1.26,.61-1.89,.92-.01-.34-.02-.68-.03-1.01Z"/><path class="cls-3" d="M108.43,24.16c-.33,.33-.65,.65-.98,.98,.33-.33,.65-.65,.98-.98Z"/><path class="cls-13" d="M58.63,24.21c1,0,1.99,0,2.99,0,0,.33,0,.66,0,1-1,0-2,0-3,0,0-.33,0-.66,0-.99Z"/><path class="cls-12" d="M63.6,29.12c-.3-.29-.6-.59-.89-.88,.3,.29,.6,.59,.89,.88Z"/><path class="cls-13" d="M33.69,31.19c.6-.89,1.47-.97,2.42-.79-.39,1.54-1.61,.55-2.42,.79Z"/><path class="cls-16" d="M103.52,236.72c.01-1.99,.03-3.97,.04-5.96,1.11-.13,1.77-.69,2.04-1.82,.24-1.01,.8-1.9,1.99-1.83,1.17,.07,1.5,1.03,1.86,2.01,2.17,5.87,3.99,11.84,5.02,18.01,.62,3.73,2.36,4.59,6.21,4.15,4.96-.57,8.37-3.01,12.08-5.95,4.03-3.19,7.07-8.46,6.19-13.6-.95-5.51,1.46-9.53,6.81-11,1.28-.35,1.7-1.52,2.73-2.01,.49,4.47,1.56,9.3-3.32,12.04-3.76,2.11-3.24,6.28-4.84,9.29-2.45,4.61-4.05,9.97-5.59,15.07-2.31,7.65,2.37,15.33,10.3,19.22,5.29,2.59,10.37,5.71,15.86,7.74,4.18,1.55,4.42,5.24,5.35,8.19,.35,1.1-3.16,3.51-5.04,5.17-.7,.62-1.78,.82-2.68,1.21-.37-1.3-2.74-.6-2.55-2.57,1.63-.85,4.09-.47,4.41-3.24,.31-2.7-1.48-3.39-3.27-4.78-7.87-6.1-17.59-7.7-26.39-11.5-4.1-1.77-8.24-2.98-12.21-.34-3.2,2.13-7.21,2.78-10.01,5.09-3.83,3.17-10.02,2.58-12.27,8.19-.72,1.79-2.92,3.88-1.1,5.14,1.9,1.32,4.19,4.19,7.33,1.9,4.06,1.41,7.64,3.78,12.41,3.54,5.18-.26,10.43,.89,15.65,1.43h.47l.47-.06c2.65-.33,5.3-.66,7.95-1,3.47-1.79,8.07,.58,11.06-2.98,.63-.02,1.25-.05,1.88-.07l1.12,1.19c-3.93,4.51-9.38,3.92-14.52,4.23-1.13,.07-2.32-.4-3.26,.53-4.04,4.04-8.62,2.33-13.12,1.23-.94-.23-1.77-1.08-2.81-.59-6.49,3.07-12-.62-17.85-2.39-4.4-1.33-8.65-2.41-12.84-4.83-3.85-2.22-.44-4.81-2.01-6.62,3.89-1.75,3.88-6.73,7.35-8.85,3.21-1.96,3.65-7.65,10.08-5.61,3.27,1.03,7.85-6.56,8.07-10.88,.34-6.63-.14-13.11-2.82-19.25-1.15-2.64-2.6-5.64-5.04-.72-.19,.38-.79,.57-1.19,.85,0-2.33,0-4.65,0-6.98Zm16.75,31.87c1.57-1.65,4.99-1.09,5.79-4.1,.26-.97-1.49-2.07-1.93-1.58-1.77,2.01-5.36,.64-6.34,3.45-.41,1.18,.87,1.97,2.48,2.23Z"/><path class="cls-14" d="M148.5,218.74c-1.03,.49-1.46,1.66-2.73,2.01-5.35,1.46-7.76,5.48-6.81,11,.89,5.13-2.16,10.41-6.19,13.6-3.71,2.94-7.12,5.38-12.08,5.95-3.86,.44-5.59-.42-6.21-4.15-1.03-6.17-2.85-12.14-5.02-18.01-.36-.98-.7-1.94-1.86-2.01-1.19-.07-1.76,.82-1.99,1.83-.26,1.13-.93,1.69-2.04,1.82,1.07-3.36,1.1-6.83,.94-10.29-.11-2.41,.21-4.6,1.87-6.46,.81-.91,.87-3.17,2.43-2.55,1.56,.62,1.95,2.51,1.21,4.3-.91,2.2-.43,3.94,1.18,5.84,2.3,2.71,2.8,6.29,3.26,9.73,.4,3.01,1.96,4.4,4.92,4.4,.5,0,1-.03,1.49,.01,8.27,.78,8.37,.82,11.41-7.04,.75-1.95,2.68-3.5,2.23-5.9,3.18-1.62,1.96-5.46,3.94-7.79,1.58-1.86,1.91-5.06,5.7-3.63,1.37,.52,2.32-1,2.98-2.11,.79-1.33,1.56-2.52,3.33-2.45-1.25,2.87-2.68,5.71-1.94,9.01v2.9Z"/><path class="cls-14" d="M153.47,296.61c-.37-.4-.75-.79-1.12-1.19-.01-1.46-.55-3.91,.04-4.22,6.88-3.57-.33-4.33-1.24-4.56-9.95-2.49-19.84-5.24-30.37-4.5-4.32,.3-8.04,2.46-12.34,2.49-5.61,.03-8.43,4.91-5.98,9.93-3.14,2.3-5.42-.58-7.33-1.9-1.82-1.26,.38-3.35,1.1-5.14,2.25-5.62,8.44-5.03,12.27-8.19,2.8-2.31,6.82-2.97,10.01-5.09,3.97-2.64,8.11-1.43,12.21,.34,8.8,3.8,18.52,5.4,26.39,11.5,1.79,1.39,3.58,2.08,3.27,4.78-.32,2.77-2.78,2.38-4.41,3.24-.2,1.97,2.18,1.27,2.55,2.57-1.7,1.83-3.36-.74-5.05-.06Z"/><path class="cls-14" d="M158.41,183.85c-1.33,2.11-1.09,4.47-.98,6.76,.27,5.92,.68,11.83,.98,17.75,.07,1.32,.5,2.23,1.89,2.48,.01,1.65,.02,3.3,.04,4.94-1.37,2.06-1.52,4.07,.25,6,.06,.61,.11,1.21,.17,1.82-.06,2-.11,3.99-.16,5.99-1.2,2.93,1.9,6.9-2.23,9.11-.02-.63-.03-1.26-.05-1.9,.18-2.9-.32-5.63-1.97-8.08-.04-2.61-.07-5.22-.11-7.83,.17-.9,.04-1.69-.88-2.14-.01-1.3-.02-2.6-.03-3.9-.23-2.94-.4-5.9-2.89-8.03,1.54-1.63,3.44-3.58-.08-4.75-2.11-.7-4.24-.51-3.96-3.69,.28-3.23-.6-6.98,3.43-8.47,2.48-.92,2.5-2.65,2.62-4.71,.24-4.43-.79-8.94,.81-13.31,.4-1.09,.54-2.42,1.91-2.62,1.57-.23,2.39,1.06,2.98,2.21,1.33,2.57,2.6,5.33-.78,7.34-2.37,1.41-2.04,3.09-.95,5.03Z"/><path class="cls-16" d="M152.42,206.82c2.49,2.13,2.66,5.09,2.89,8.03q-2.92-2.45-6.81,.98c-.74-3.3,.69-6.14,1.94-9.01,.66,0,1.32,0,1.97,0Z"/><path class="cls-16" d="M103.45,245.64c-.63,2.71-1.14,5.43-.95,8.24,.09,1.32-.02,3.11-1.57,3.17-1.99,.08-1.29-1.89-1.33-3.04-.1-2.79,0-5.58,0-8.37,1.28,0,2.57,0,3.85-.01Z"/><path class="cls-14" d="M103.45,245.64c-1.28,0-2.57,0-3.85,.01,.89-2.92,.93-5.92,.9-8.92,1.01,1.29,2.02,1.43,3.03-.01,0,2.33,0,4.65,0,6.98-.03,.65-.05,1.3-.08,1.94Z"/><path class="cls-16" d="M156.33,228.73c1.66,2.45,2.15,5.19,1.97,8.08-.64-.03-1.28-.06-1.92-.09-.35-1.98-.7-3.96-1.05-5.93,.34-.69,.67-1.38,1.01-2.07Z"/><path class="cls-14" d="M101.51,214.76c1.11,.77,.98,1.44-.16,2.03-.32-.67-.63-1.34-.95-2,.37,0,.74-.02,1.11-.02Z"/><path class="cls-16" d="M155.34,218.75c.92,.46,1.05,1.24,.88,2.14-1.11-.38-2.38-.7-.88-2.14Z"/><path class="cls-15" d="M158.42,247.69c2.17,.99,1.02,4.64,3.99,4.99,1.54,2.61,2.13,6.12-.61,7.16-1.73,.66-2.89-3.51-3.12-5.65-.22-2.09-1.71-4.31-.25-6.51Z"/><path class="cls-15" d="M154.31,248.26c-.21,1.24-.84,2.14-2.18,2.22-1.3,.08-1.66-.83-1.64-1.9,.03-1.45,.58-2.69,2.25-2.51,1.03,.11,1.55,1.1,1.58,2.19Z"/><path class="cls-15" d="M156.38,236.72c.64,.03,1.28,.06,1.92,.09,.01,.63,.03,1.27,.05,1.9-.37,0-.73,0-1.1,.01-1.31-.23-2.31-.58-.87-2Z"/><path class="cls-15" d="M157.42,242.7c.83,.44,.98,1.19,.94,2.04-1.26-.25-2.47-.51-.94-2.04Z"/><path class="cls-15" d="M160.33,215.78c-.01-1.65-.02-3.3-.04-4.94,0-3.11,0-6.22,0-9.33l1.27-.26c2.75,4.67,3.76,10.1,5.77,15.09,.31,.76,.27,1.66,.62,2.39,.54,1.15,.87,2.79,2.59,2.57,1.7-.22,1.78-1.73,1.81-3.09,.05-2.49,.07-4.98,.1-7.48,4.21,3.78,1.09,8.59,1.73,12.87,.13,.89-.45,1.9-.73,2.85-.42,1.42,.83,3.88-1.66,3.98-2.31,.09-2.98-1.97-3.53-4.07-.78-2.99-2.03-5.86-3.11-8.77-.65-1.74-2.17-1.83-3.7-1.83l-1.12,.02Z"/><path class="cls-15" d="M172.4,196.81c-2.01-2.83-.68-6.02-.95-9.03,3.51,2.68,1.98,5.88,.95,9.03Z"/><path class="cls-15" d="M160.58,229.6c.05-1.99,.1-3.99,.16-5.99,4.39,1,2.92,3.59,1.66,6.12-.61-.05-1.21-.09-1.82-.14Z"/><path class="cls-16" d="M160.33,215.78l1.12-.02c-.34,2,.7,4.2-.87,6.02-1.77-1.93-1.61-3.94-.25-6Z"/><path class="cls-14" d="M75.25,196.7c1.09,.02,2.17,.03,3.26,.05-.25,1.28-.46,2.57-.76,3.84-.85,3.6-2.1,.8-3.22,.19-.06-1.35-.12-2.7-.18-4.06,.3-.06,.6-.07,.9-.02Z"/><path class="cls-15" d="M76.01,184.68c.51,1.51,1.04,3.03-.81,4.07-2.03-1.81-2.69-3.36,.81-4.07Z"/><path class="cls-16" d="M75.46,176.92c.36-.35,.72-.71,1.07-1.06,1.39,1.08,1.39,2.08-.16,3-.31-.65-.61-1.29-.91-1.94Z"/><path class="cls-3" d="M150.45,149.91c-6.57-1-6.91-.61-5.46,6.16,1.27,5.92-2.07,12.1-7.05,15.75-4.34,3.18-4.42,8.86-5.44,13.74-1,4.82-1.28,9.76-3.01,14.45-.97,2.63-2.48,3.75-5.21,3.19-.49-.1-.98-.2-1.44-.36-2.2-.78-5.04,2.45-6.41-.13-1.39-2.62-1.4-6-1.94-9.05-2.2-12.31-3.28-24.96-6.97-36.8-2.14-6.86-2.93-13.36-3-20.24,0-.83,.27-1.97-.16-2.44-3.91-4.21-2.72-10.68-6.81-14.85-2.62-2.67,.14-5.71,.39-8.52,.2-2.21,.45-4.1-.52-6.18-1.54-3.3-1.21-6.86-.41-10.23,.59-2.5,.84-5.02,.38-7.39-.53-2.77-1.29-5.16,2.06-6.62,.78-.34,1.1-1.38,.57-2.16-2.82-4.18-2.09-8.78-1.7-13.36,.28-1.42,1.05-2.32,2.47-2.83,6.08-2.18,12.23-3.92,18.78-3.69-.02,.6-.04,1.19-.06,1.79-.66,.04-1.32,.07-1.99,.11-5.06-.16-9.56,1.69-13.98,3.86-3.17,1.89-1.86,4.35-1.09,6.96,1.12,3.79,4.57,7.04,3.87,11.09-.89,5.15-1.04,10.51-3.43,15.4-1.22,2.49-.82,4.95-.13,7.92,1.13,4.82,4.32,9.75,2.54,14.79-1.51,4.28-.92,8.02,.48,11.89,.77,2.11,1.16,4.33,.66,6.36-2,8.17,2.89,14.8,5.02,21.93,.86,2.87,.44,5.76,1.65,8.55,2.81,6.5,5.81,12.67,11.5,17.28,2.22,1.8,3.36,1.48,3.74-.96,.88-5.69,4.05-10.66,4.4-16.64,.23-3.86,.73-8.78,5.83-10.63,1.05-.38,1.62-1.58,1.83-2.82,.79-4.83,1.15-9.69,1.5-14.56,.24-3.38-3.31-10.57,5.41-10.07,.96,.05,1-1.15,1.07-1.97,.12-1.28-.29-2.71,1.02-3.66,2.21,5.55,.38,11.36,1.06,17.01,0,2.64-.01,5.29-.02,7.93Z"/><path class="cls-12" d="M150.47,141.98c-.68-5.65,1.15-11.45-1.06-17.01,0-1,.01-1.99,.02-2.99,1.92-.13,2.96-1.08,2.9-3.07,0-.95,0-1.9,0-2.85,.48-4.38-.99-9.06,2.04-13.04,2.25,5.58,1.55,11.54,.74,17.03-.99,6.65-2.44,13.24-2.75,20-.05,1.2-.82,1.72-1.89,1.93Z"/><path class="cls-12" d="M154.38,98.06c-2.11-.45-2.61-1.4-.94-3.02,1.15,.75,.95,1.91,.94,3.02Z"/><path class="cls-6" d="M117.51,60.26c.66-.04,1.32-.07,1.99-.11,2.39,1.66,1.75-.55,2.02-1.59,2.01-1.11,3.94,.23,5.91,.21,1.07,2.07,3.07,2.2,5.04,2.4,.91,2.27,4.99,3.86,2.23,6.85-2.51,2.73-2.78,5.84-2.13,8.8,2.19,10.01,2.01,20.15,1.53,30.19-.49,10.27-2.41,20.46-3.34,30.72-.66,7.23-2.66,14.31-2.35,21.65,.05,1.32,1.25,3.87-1.44,3.84-1.72-.02-2.51-1.97-2.46-3.81,.14-4.89-1.75-9.26-3.1-13.84-3.24-10.98-7.36-21.74-7.99-33.43-.48-9-4.05-18.03,.16-26.9,2.22-4.67,.37-9.75-1.02-13.02-2.92-6.88,.03-9.36,4.97-11.97Z"/><path class="cls-4" d="M152.33,116.06c0,.95,0,1.9,0,2.85-1.84,.19-2.86,1.17-2.9,3.07,0,1-.01,1.99-.02,2.99-1.31,.95-.9,2.38-1.02,3.66-.08,.82-.12,2.03-1.07,1.97-8.73-.49-5.17,6.69-5.41,10.07-.35,4.87-.71,9.73-1.5,14.56-.2,1.24-.77,2.44-1.83,2.82-5.1,1.84-5.6,6.76-5.83,10.63-.35,5.98-3.52,10.95-4.4,16.64-.38,2.44-1.52,2.76-3.74,.96-5.69-4.61-8.69-10.79-11.5-17.28-1.21-2.79-.79-5.69-1.65-8.55-2.13-7.13-7.02-13.76-5.02-21.93,.49-2.03,.1-4.25-.66-6.36-1.41-3.87-2-7.61-.48-11.89,1.78-5.03-1.41-9.96-2.54-14.79-.69-2.97-1.09-5.43,.13-7.92,2.39-4.89,2.54-10.25,3.43-15.4,.7-4.05-2.74-7.3-3.87-11.09-.77-2.61-2.08-5.06,1.09-6.96,.14,1.94-.65,4.25,1.23,5.61,5.25,3.8,5.21,9.5,4.6,14.73-1.71,14.51-2.19,29.03-1.86,43.6,.05,2.17-.11,4.39,1.21,6.24,3.46,4.86,3.55,10.51,3.73,16.08,.09,2.64,.49,4.82,2.61,6.62,2.9,2.47,4.07,5.14,2.06,9.14-1.36,2.7-1.87,7.04,1.96,8.02,2.5,.64,4.84-.08,6.16,3.09,.46,1.11,2.46,.87,3.06-.82,.49-1.4,.94-2.86,1.09-4.32,1.08-10.99,1.98-21.99,3.17-32.97,.31-2.91-.37-6.99,3.42-7.93,3.81-.95,3.99-3.31,3.27-5.93-.85-3.13-.77-6.23-.76-9.37,.03-11.72,.17-23.4-1.9-35.04-1.28-7.22-.22-8.64,6.08-11.99,2.1-1.12,1.69-3,1.79-4.77,5.85,1.98,5.78,2.3,2.46,7.46-1.58,2.46-5.24,5.23-.8,8.7,.77,.6,.27,2.84,.33,4.32,.05,1.32-.28,3.28,.99,3.62,5.38,1.45,2.59,4.48,2.06,7.55-.94,5.44,.46,11.02-.59,16.57-.22,1.18,1.32,3.36,3.44,3.73Z"/><path class="cls-5" d="M144.44,64.11c-.1,1.78,.31,3.66-1.79,4.77-6.29,3.35-7.36,4.77-6.08,11.99,2.07,11.64,1.93,23.32,1.9,35.04,0,3.13-.09,6.23,.76,9.37,.71,2.61,.54,4.98-3.27,5.93-3.79,.95-3.1,5.02-3.42,7.93-1.18,10.98-2.09,21.98-3.17,32.97-.14,1.46-.59,2.93-1.09,4.32-.6,1.69-2.59,1.93-3.06,.82-1.32-3.17-3.65-2.44-6.16-3.09-3.84-.98-3.32-5.33-1.96-8.02,2.01-4,.84-6.67-2.06-9.14-2.12-1.8-2.52-3.98-2.61-6.62-.18-5.57-.27-11.22-3.73-16.08-1.32-1.85-1.17-4.07-1.21-6.24-.33-14.58,.15-29.09,1.86-43.6,.62-5.23,.66-10.93-4.6-14.73-1.88-1.36-1.09-3.67-1.23-5.61,4.42-2.17,8.92-4.02,13.98-3.86-4.93,2.61-7.89,5.1-4.97,11.97,1.39,3.28,3.24,8.35,1.02,13.02-4.21,8.87-.64,17.9-.16,26.9,.62,11.69,4.74,22.45,7.99,33.43,1.35,4.58,3.25,8.95,3.1,13.84-.05,1.84,.74,3.79,2.46,3.81,2.68,.03,1.49-2.52,1.44-3.84-.3-7.35,1.69-14.42,2.35-21.65,.94-10.26,2.86-20.45,3.34-30.72,.48-10.05,.66-20.18-1.53-30.19-.65-2.96-.38-6.07,2.13-8.8,2.75-3-1.32-4.59-2.23-6.85,4.22,.05,8.05,1.68,11.98,2.93Z"/><path class="cls-5" d="M121.52,58.57c-.27,1.04,.37,3.24-2.02,1.59,.02-.6,.04-1.19,.06-1.79,.65,.07,1.31,.14,1.96,.2Z"/><path class="cls-16" d="M101.45,58.86c.25-1.25,.97-1.78,2.24-1.49-.32,1.14-.98,1.78-2.24,1.49Z"/><path class="cls-11" d="M90.47,108.99c2.03,6.28,.97,12.25-1.78,18.06-.08-1.04-.15-2.09-.23-3.13,.02-1.64,.04-3.29,.05-4.93,1.59-1.97,1.49-3.97,.13-6l-.13-3.99,.02-.02c.64,0,1.29,.01,1.93,.02Z"/><path class="cls-14" d="M90.47,108.99c-.64,0-1.29-.01-1.93-.02-.26-1.58-.6-3.15-.77-4.73-.18-1.68-.95-3.68,1.7-4.26,.14,1.08-.14,2.3,1.01,3.05,.06,.68,.13,1.36,.19,2.05-.07,1.31-.13,2.61-.2,3.92Z"/><path class="cls-13" d="M90.62,95.09c2-3.09-.96-7.5,2.69-10.15,.11,2.37,.23,4.75,.34,7.12-1.41,.61-.89,3.15-3.03,3.03Z"/><path class="cls-11" d="M90.62,95.09c2.14,.12,1.61-2.42,3.03-3.03-.08,2.82,1.28,6-1.98,8.05-.35-.69-.69-1.39-1.04-2.08l-.11-2.99,.09,.06Z"/><path class="cls-13" d="M88.47,123.92c.08,1.04,.15,2.09,.23,3.13-.02,1.31-.03,2.62-.05,3.93-.38-.01-.76-.02-1.14-.03-1.15-.73-.87-1.95-1.02-3.03,0-1.32,.01-2.64,.02-3.96,.65-.01,1.31-.03,1.96-.04Z"/><path class="cls-13" d="M90.64,98.02c.35,.69,.69,1.39,1.04,2.08-.01,.98-.03,1.96-.04,2.94-.38,0-.77,0-1.15-.01-1.14-.75-.86-1.97-1.01-3.05,0-.65,.01-1.31,.02-1.96,.38,0,.76,0,1.14,0Z"/><path class="cls-11" d="M87.51,130.95c.38,.01,.76,.02,1.14,.03,1.25,1.67,1.67,3.15-.87,3.98l-.36-.03c.03-1.33,.06-2.66,.09-3.99Z"/><path class="cls-11" d="M90.49,103.03c.38,0,.77,0,1.15,.01,1.43,1.51,.27,1.79-.96,2.03-.06-.68-.12-1.36-.19-2.05Z"/><path class="cls-14" d="M87.51,130.95c-.03,1.33-.06,2.66-.09,3.99-.64,0-1.27,0-1.91,0-1.24-2.56-2.25-5.08,.98-7.02,.14,1.07-.14,2.29,1.02,3.03Z"/><path class="cls-14" d="M88.47,123.92c-.65,.01-1.31,.03-1.96,.04-1.07-2.23-2.32-4.48,.95-6.03,.36,.35,.71,.7,1.07,1.05-.02,1.64-.04,3.29-.05,4.93Z"/><path class="cls-13" d="M88.52,118.99c-.36-.35-.71-.7-1.07-1.05,.02-1.65,.04-3.3,.06-4.94,.38,0,.76,0,1.14,0,1.36,2.03,1.46,4.04-.13,6Z"/><path class="cls-14" d="M88.65,112.99c-.38,0-.76,0-1.14,0-1.33-1.75-1.71-3.26,1.01-4,.04,1.33,.09,2.66,.13,3.99Z"/><path class="cls-14" d="M90.64,98.02c-.38,0-.76,0-1.14,0-1.48-1.63-1.12-2.62,1.04-2.99,.04,1,.07,1.99,.11,2.99Z"/><path class="cls-13" d="M102.46,294.57c-2.45-5.02,.37-9.9,5.98-9.93,4.3-.02,8.02-2.19,12.34-2.49,10.53-.74,20.42,2.01,30.37,4.5,.91,.23,8.13,.99,1.24,4.56-.58,.3-.05,2.76-.04,4.22-.63,.02-1.25,.04-1.88,.07-.21-.43-.41-.86-.62-1.28-2.47,1.53-5.03,1.24-7.8,.85-1.74-.24-2.82,1.43-2.64,3.41-2.65,.33-5.3,.66-7.95,1-.35-.51-.66-.48-.94,.06-5.22-.54-10.47-1.68-15.65-1.43-4.77,.24-8.36-2.13-12.41-3.54Zm8.02-5.93c-2.49,1.82-2.65,2.72-1.7,2.7,4.99-.1,7.94,5.22,14.02,3.85,5.88-1.32,12.44,.51,18.66-1.5,2.19-.71,2.89-1.91,3.3-3.74,.43-1.93-.98-3.07-2.35-3.16-7.55-.5-15.02-3.55-22.53-1.95-3.06,.65-7.18,.2-9.33,3.74l-.06,.06Z"/><path class="cls-14" d="M120.27,268.59c-1.61-.26-2.89-1.05-2.48-2.23,.98-2.81,4.58-1.44,6.34-3.45,.43-.49,2.18,.61,1.93,1.58-.8,3.01-4.22,2.45-5.79,4.1Z"/><path class="cls-14" d="M139.42,298.48c-.18-1.98,.91-3.66,2.64-3.41,2.77,.39,5.32,.68,7.8-.85,.21,.43,.41,.86,.62,1.28-2.99,3.56-7.59,1.19-11.06,2.98Z"/><path class="cls-14" d="M130.52,299.53c.28-.54,.59-.57,.94-.06l-.47,.06h-.47Z"/><path class="cls-3" d="M149.43,121.98c.04-1.9,1.06-2.88,2.9-3.07,.06,1.99-.99,2.94-2.9,3.07Z"/><path class="cls-11" d="M110.55,288.57c2.14-3.54,6.27-3.08,9.33-3.74,7.51-1.61,14.97,1.45,22.53,1.95,1.38,.09,2.79,1.23,2.35,3.16-.41,1.83-1.11,3.03-3.3,3.74-6.21,2.01-12.77,.18-18.66,1.5-6.07,1.37-9.02-3.95-14.02-3.85-.95,.02-.79-.87,1.7-2.7l.43,.19-.37-.25Zm6.92,.66c3.78,4.2,9.5,.47,13.42,3.71,.78-2.08,4.47-1.7,4.2-4.09-.24-2.1-2.73-1.28-4.22-1.23-4.55,.15-9.44-2.61-13.4,1.61Z"/><path class="cls-12" d="M117.47,289.23c3.95-4.21,8.84-1.45,13.4-1.61,1.49-.05,3.98-.86,4.22,1.23,.27,2.39-3.42,2.01-4.2,4.09-3.91-3.25-9.63,.48-13.42-3.71Z"/><path class="cls-13" d="M110.55,288.57l.37,.25-.43-.19,.06-.06Z"/></g></g></svg>