<?xml version="1.0" encoding="UTF-8"?><svg id="Layer_2" xmlns="http://www.w3.org/2000/svg" viewBox="0 0 308.39 430.3"><defs><style>.cls-1{fill:#fff;}</style></defs><g id="Layer_1-2"><g id="xPxNOf.tif"><g><path d="M154.59,429.78c-17.29,2.7-29.25-5.15-36.65-19.88-6.18-12.3-15.3-21.64-25-31.02-16.97-16.41-28.45-36.64-37.52-58.31-1.17-2.81-2.97-5.58-5.13-7.71-12.81-12.63-23.2-26.86-30.27-43.5-5.82-13.7-6.45-27.63-2.99-41.98,.57-2.36,.46-5.27-.4-7.53-3.04-8.02-3.87-16.04-2.03-24.45,.41-1.88-.18-4.25-1.01-6.07C3.61,167.48-2.05,144.78,.69,120.63c3.37-29.67,17.74-53.73,39.62-73.33C70.57,20.2,106.12,4.46,146.57,.45c18.85-1.87,37.1,2.32,54.81,8.35,32.91,11.2,61.78,28.68,83.35,56.56,24.08,31.14,29.2,65.8,18.01,103.2-.76,2.55-1.47,5.13-2.5,7.57-3.99,9.4-8.66,18.52-5.55,29.41,.75,2.6-.17,6.09-1.31,8.74-2.67,6.22-2.46,12.12-1.03,18.7,3.95,18.1-1.08,34.83-10.88,49.83-6.95,10.63-15.67,20.11-23.52,30.16-1.8,2.31-3.74,4.68-4.84,7.34-11.57,27.75-27.56,52.26-51.28,71.27-1.6,1.28-2.69,3.29-3.8,5.09-4.07,6.65-7.87,13.47-12.1,20.02-6.26,9.7-15.51,13.6-26.84,13.1-1.49-.07-2.99,0-4.49,0ZM60.91,198.07l.15,.82c-1.2,.33-2.4,.66-3.6,.98-28.44,7.57-41.76,30.22-33.97,58.71,4.51,16.51,13.54,30.71,25.39,42.91,7.97,8.2,16.82,15.55,25.1,23.46,2.86,2.74,5.19,6.04,7.75,9.09l-.58,.4c-5.38-4.02-10.77-8.04-16.15-12.06-.31,.39-.61,.77-.92,1.16,8.72,19.68,20.03,37.62,36.25,53.44-7.2-11.53-13.87-22.21-20.55-32.89l.95-.55c6.25,8.25,12.5,16.5,18.76,24.75l1.2-.8c-1.93-3.17-3.87-6.34-6.31-10.34,4.11,1.59,4.82,6.49,9.88,5.96,6.86,16.79,11.91,35.71,25.53,50.38-3.03-7-6.06-14-9.09-21l.45-.1c5.94,9.39,11.89,18.78,17.83,28.17,.46-.28,.92-.56,1.39-.85-1.6-3.29-3.19-6.59-4.79-9.88,12.23,16.52,22.52,19.93,37.18,.14-1.62,3.26-3.23,6.52-4.85,9.78l1.08,.66c3.19-4.55,6.56-8.99,9.52-13.68,3-4.74,5.6-9.72,8.38-14.6l.91,.48c-3.5,7.69-7,15.38-10.49,23.08,14.32-15.22,19.7-34.99,26.94-52.88,4.96,.78,5.71-4.16,9.47-5.57-2.02,3.59-3.63,6.47-5.25,9.35,.42,.26,.83,.52,1.25,.79,6.02-8.02,12.03-16.05,18.05-24.07l1.02,.64c-6.8,10.78-13.6,21.56-20.22,32.05,11.47-8.84,32.02-39.45,35.66-54.22-6.26,4.67-11.63,8.66-16.99,12.66-.36-.42-.73-.85-1.09-1.27,6.97-6.54,13.72-13.35,20.97-19.58,17.25-14.82,30.95-32.18,37.54-54.15,7.24-24.1-1.76-45.77-22.51-55.76-4.59-2.21-9.68-3.37-15.78-5.44,3.92,.2,6.56,.26,9.2,.48,2.81,.24,5.61,.84,8.42,.89,6.29,.11,10.32-3.72,9.3-9.53-1.79-10.14-.31-19.88,2.49-29.53,5.05-17.45,10.37-34.84,4.16-53.29,1.53,2.5,2.66,5.04,3.39,7.68,2.9,10.48,3.16,21.25,.64,31.63-4.78,19.66-5.68,39.01,.93,58.4,.81,2.37,.87,4.99,1.29,7.49l1.97-.22c-.4-5.52,.08-11.29-1.38-16.52-4.1-14.73,.12-28.15,5.1-41.6-.72,8.64-1.44,17.28-2.16,25.93l1.7,.2c1.15-3.08,2.39-6.13,3.43-9.24,12.98-38.8,7.86-74.45-18.97-106.05-19.54-23.01-44.45-38.26-72.59-48.42-18.58-6.71-37.68-11.32-57.62-9.19-40.19,4.29-75.18,20.42-104.38,48.29C17.34,78.46,4.69,106.33,7.07,140.03c.99,13.98,4.55,27.32,10,40.15l1.65-.19c-.72-8.56-1.43-17.13-2.18-26.09,6.76,14.16,7.99,27.68,4.84,42.6-1.07,5.09-.7,10.49-.98,15.75l1.54,.09c1.68-7.55,3.2-15.13,5.08-22.63,2.23-8.89,1.95-17.63,.41-26.65-2.01-11.75-3.43-23.65-4.16-35.55-.42-6.92,1.22-13.89,4.14-18.92-.37,7.48-1.63,16.07-.98,24.51,.61,7.86,3.03,15.63,5.06,23.32,2.69,10.15,5.6,20.23,4,30.9-1.36,9.04,2.08,12.91,11.13,12.21,4.77-.37,9.52-.97,14.28-1.47Z"/><path class="cls-1" d="M60.91,198.07c-4.76,.5-9.51,1.1-14.28,1.47-9.04,.69-12.48-3.17-11.13-12.21,1.6-10.68-1.31-20.75-4-30.9-2.04-7.7-4.45-15.46-5.06-23.32-.65-8.44,.61-17.03,.98-24.51-2.92,5.02-4.56,12-4.14,18.92,.72,11.9,2.15,23.8,4.16,35.55,1.54,9.03,1.82,17.76-.41,26.65-1.88,7.49-3.4,15.08-5.08,22.63l-1.54-.09c.29-5.26-.09-10.66,.98-15.75,3.15-14.92,1.92-28.44-4.84-42.6,.75,8.96,1.46,17.52,2.18,26.09l-1.65,.19c-5.45-12.83-9.01-26.17-10-40.15-2.38-33.7,10.28-61.57,34.21-84.4C70.48,27.76,105.46,11.63,145.65,7.34c19.94-2.13,39.04,2.48,57.62,9.19,28.14,10.16,53.05,25.41,72.59,48.42,26.83,31.6,31.95,67.25,18.97,106.05-1.04,3.11-2.28,6.16-3.43,9.24l-1.7-.2c.72-8.64,1.44-17.28,2.16-25.93-4.98,13.46-9.2,26.87-5.1,41.6,1.46,5.23,.98,11,1.38,16.52l-1.97,.22c-.41-2.5-.48-5.13-1.29-7.49-6.61-19.39-5.72-38.74-.93-58.4,2.53-10.38,2.26-21.15-.64-31.63-.73-2.65-1.86-5.19-3.39-7.68,6.21,18.45,.9,35.85-4.16,53.29-2.8,9.65-4.27,19.39-2.49,29.53,1.02,5.81-3.01,9.63-9.3,9.53-2.81-.05-5.6-.66-8.42-.89-2.63-.22-5.28-.29-9.2-.48,6.1,2.06,11.2,3.23,15.78,5.44,20.74,9.99,29.74,31.65,22.51,55.76-6.6,21.97-20.3,39.33-37.54,54.15-7.25,6.23-13.99,13.04-20.97,19.58,.36,.42,.73,.85,1.09,1.27,5.37-4,10.73-7.99,16.99-12.66-3.64,14.77-24.19,45.39-35.66,54.22,6.62-10.49,13.42-21.27,20.22-32.05l-1.02-.64c-6.02,8.02-12.03,16.05-18.05,24.07-.42-.26-.83-.52-1.25-.79,1.62-2.88,3.23-5.76,5.25-9.35-3.76,1.41-4.51,6.35-9.47,5.57-7.24,17.89-12.62,37.67-26.94,52.88,3.5-7.69,7-15.38,10.49-23.08l-.91-.48c-2.78,4.88-5.38,9.86-8.38,14.6-2.97,4.69-6.33,9.13-9.52,13.68l-1.08-.66c1.62-3.26,3.23-6.52,4.85-9.78-14.66,19.8-24.95,16.39-37.18-.14,1.6,3.29,3.19,6.59,4.79,9.88-.46,.28-.92,.56-1.39,.85-5.94-9.39-11.89-18.78-17.83-28.17l-.45,.1c3.03,7,6.06,14,9.09,21-13.63-14.67-18.67-33.59-25.53-50.38-5.06,.53-5.77-4.37-9.88-5.96,2.44,4,4.37,7.17,6.31,10.34l-1.2,.8c-6.25-8.25-12.5-16.5-18.76-24.75l-.95,.55c6.67,10.68,13.35,21.36,20.55,32.89-16.22-15.82-27.53-33.75-36.25-53.44,.31-.39,.61-.77,.92-1.16,5.38,4.02,10.77,8.04,16.15,12.06l.58-.4c-2.57-3.04-4.89-6.35-7.75-9.09-8.28-7.92-17.13-15.26-25.1-23.46-11.85-12.2-20.88-26.4-25.39-42.91-7.79-28.49,5.52-51.14,33.97-58.71,1.2-.32,2.4-.65,3.6-.98l-.15-.82Zm213.75,58.99c.57-1.87,1.3-3.71,1.69-5.62,2.54-12.2-.63-18.43-12.71-20.94-10.14-2.11-20.74-3.46-31.05-3.04-38.34,1.55-65,33.11-60.77,71.29,.54,4.87,2.65,9.56,4.04,14.34l1.23-.37c-.15-1.9-.31-3.79-.53-6.59,14.88,8.7,29.94,9.98,45.8,5.97-7.47-.5-14.73-.98-21.99-1.46-.01-.51-.03-1.02-.04-1.52,19.12,.51,35.61-5.77,49.4-18.85,13.77-13.06,21.3-28.85,20.07-48.97,5.49,4.81,4.73,10.24,4.87,15.76Zm-240.27,1.13c-.7-11.33-.22-13.11,4.27-16.09-1.31,19.66,6.46,35.38,20.3,48.44,13.76,12.99,30.29,19.03,49.31,18.63l-.14,1.55c-7.24,.46-14.48,.93-21.72,1.39,7.64,1.29,15.46,2.45,23.03,1.52,7.52-.92,14.78-3.94,22.33-6.09-.14,1.53-.32,3.41-.49,5.28,2.39-3.71,4.43-7.64,5-11.76,2.25-16.37-.54-31.97-9.68-45.85-20.37-30.91-62.15-33.32-88.61-22.3-2.28,.95-4.39,3.69-5.38,6.1-2.54,6.17-1.29,12.29,1.79,19.19Zm177.83-75.14l.02-.95c-4.4,0-8.92-.65-13.18,.12-12.23,2.23-24.41,4.82-36.5,7.73-5.85,1.41-11.4,1.47-17.16-.13-7.68-2.13-15.39-4.19-23.18-5.89-8.54-1.87-17.2-2.82-27.19-.81,7.24,1.19,13.34,1.72,19.18,3.26,9.63,2.54,19.14,5.57,28.59,8.71,7.56,2.51,14.92,2.62,22.47,.09,8.03-2.69,16.09-5.38,24.28-7.51,7.45-1.93,15.1-3.11,22.67-4.62Zm61.63,45.8c-2.33-5.52-15.72-10.64-30.49-11.54-27.63-1.68-50.17,12.45-57.29,24.94,27.01-23.17,56.67-24.67,87.77-13.41Zm-239.43,.03c31.57-11.32,61.25-9.69,88.65,14.13-16.53-26.69-72.84-34.93-88.65-14.13Zm149.38-57.63c-19.82,5.55-39.6,5.4-59.38-.02,19.78,10.7,39.6,10.75,59.38,.02Zm-52.88,203.06c6.76,1.01,13.13,2.06,19.52,2.86,2.41,.3,4.92,.28,7.33-.02,6.24-.78,12.44-1.8,19.17-2.79-.17-.93-.44-2.37-.76-4.07-5.21,3.6-5.16,2.74-11.03,1.93-7.2-1-14.64-.34-21.97-.4-.16,0-.32,.09-.47,.16-3.84,1.98-7.35,1.82-10.7-2.3-.52,2.17-.87,3.69-1.1,4.64ZM170.45,55.95c.95,7.6-1.54,10.85-7.94,11.27-5.4,.36-10.74,1.4-16.13,2.04-2.63,.31-5.3,.69-7.92,.52-4.66-.31-6.49-2.99-5.22-7.51,.62-2.2,1.79-4.25,2.99-7.01-4.95,4.43-6.77,9.35-4.99,13.19,2.16,4.64,6.53,4.55,10.72,4.58,1.49,.01,2.98-.23,4.46-.45,5.86-.9,11.7-1.88,17.57-2.74,7.25-1.06,10.13-7.19,6.46-13.89Zm33.85,148.85c-14.16,.74-31.79,17.33-32.14,30.89,4.27-5.69,8.23-12.59,13.76-17.87,5.64-5.39,12.81-9.17,18.38-13.02Zm-67.87,33.17c-.63-13.38-16.34-33.04-35-33.06,16.94,5.68,27.39,17.16,35,33.06Zm-108.14,22.18c4.18,19.01,15.41,33.3,30.15,45.24-12.02-13.76-22.98-28.24-30.15-45.24Zm250.6,4.31c-8.86,12.77-18.73,26.99-27.96,40.29,12.18-8.77,27.43-31.37,27.96-40.29Zm-55.76-193.44c-1.89,3.9-2.47,6.83-4.25,8.38-3.07,2.68-6.7,4.98-10.46,6.54-2.56,1.07-6.1,1.51-8.57,.58-2.28-.86-3.72-3.94-5.29-5.76-1.1,5.49,2.53,9.71,9.24,9.46,7.9-.29,13.67-4.86,18.29-10.65,1.33-1.67,.67-4.94,1.04-8.55Zm-3.52-30.32c-4.51,.79-5.72,2.01-5.9,5.28-.42,7.89,12.12,18.78,19.96,17.33,3.83-.71,4.68-2.74,2.55-6.79,.29,4.63-2.87,5.29-5.33,3.73-4.78-3.03-9.3-6.66-13.27-10.69-2.65-2.69-2.71-6.28,2-8.86Zm-62.55,57.98c.83,1.61,1.32,3.58,2.55,4.77,4.71,4.55,16.89,3.08,20.77-2.3,2.65-3.68,1.67-7.55-1.24-9.15-.27,2.15,.29,5.44-1.09,7.29-4.08,5.47-16.23,4.58-20.99-.62Zm-9.12,230.67c-3.6,2.28-6.95,4.08-9.84,6.44-.79,.64-.82,3.35-.12,4.38,.68,1.01,2.86,1.7,4.17,1.45,3.88-.75,6.88-6.49,5.79-12.27Zm12.48,.13c-1.07,5.53,2,11.45,5.78,12.16,1.33,.25,3.7-.45,4.18-1.42,.63-1.29,.52-4.04-.4-4.79-2.77-2.27-6.09-3.87-9.55-5.95ZM69.11,69.59l-.77,1.04c1.78,1.2,3.4,3,5.36,3.49,4.73,1.19,12.36-2.49,14.82-7.12,1-1.88,.94-4.33,1.36-6.52l-1.35-.18c-2.21,8.86-13.32,14.18-19.42,9.3Zm98.59,315.4h-27.17c5.48,3.89,22.19,3.81,27.17,0ZM253.96,87.16c-.29-.49-.58-.97-.88-1.46-6.24,3.14-12.06,.07-12.77-6.47-.7,1.81-1.69,4.59-.85,5.36,2.51,2.29,5.57,4.35,8.78,5.34,1.48,.46,3.79-1.77,5.72-2.78Zm-150.84-.09c-3.07,4.7-2.3,8.75,1.57,10.85,3.92,2.13,8.92,.91,10.56-2.59-8.24,1.92-12.03-.42-12.13-8.26Zm12.01-49.14c1.11,4.06,3.2,4.75,9.75,3.22,6.32-1.47,8.53-3.84,7.7-8.28-2.6,5.79-12.52,8.66-17.44,5.06Zm23.06,289.75c-.41-.25-.81-.51-1.22-.76-4.25,6.41-10,12.01-11.12,21.32,4.48-7.47,8.41-14.01,12.33-20.55Zm33.68-1.09l-1.68,.96c3.95,6.61,7.9,13.22,11.85,19.83,.5-.28,.99-.56,1.49-.84-3.88-6.65-7.77-13.3-11.65-19.95ZM83.21,96.53c-5.58,3.51-8.35,2.54-11.01-3.3-1.75,3.87-.65,6.84,3.02,8.13,3.77,1.33,6.5-.11,7.99-4.84Zm117.41-63.06c-8.58-2.13-12.83-5.18-12.93-9.05-.9,1.24-1.9,2.88-1.5,4.02,1.2,3.37,10.83,6.52,14.42,5.03Zm-119.67,6.4c4.58,2.32,8.76,1.55,11.79-2.36,1.16-1.5,1.23-3.85,1.79-5.81l-1.45-.32c-.6,5.05-4.17,7.69-12.13,8.49Zm79.47-20.57c-2.15,1.43-3.73,3.18-5.57,3.53-2.19,.42-4.62-.37-6.79-.62,1.65,3.49,5.07,4.5,9.52,2.43,2.68-1.25,4.29-3,2.83-5.34Zm6.99,117.1l-1.06,1.64c1.53,1.37,2.93,3.65,4.63,3.91,3.28,.5,5.44-1.43,5.67-5.98-3.29,4.1-6.19,5.54-9.24,.43Zm44.84-22.94l-1.15-2.03c-2.45,4.99-5.56,3.71-9.13,1.81,1.52,1.84,3.39,3.79,5.14,3.69,1.77-.1,3.43-2.23,5.14-3.47Zm-64.97,6.36l-.78-1.77c-3.3,3.32-5.75,1.56-8.49-.81,1.1,2.21,2.5,4.33,4.34,4.83,1.35,.36,3.27-1.42,4.93-2.24Zm-30.13-55.81l-.74-2.09c-3.32,4.43-5.7,1.37-8.6-.24,1.04,2.07,2.34,4.33,4.02,4.64,1.57,.3,3.53-1.46,5.32-2.31Zm79.36-6.35l-1.11-1.45c-2.45,4.4-5.51,4.29-9.13,.75,.58,4.23,2.9,5.53,5.68,4.7,1.76-.53,3.05-2.62,4.55-4Z"/><path d="M274.66,257.06c-.14-5.52,.62-10.95-4.87-15.76,1.23,20.12-6.29,35.91-20.07,48.97-13.79,13.08-30.29,19.36-49.4,18.85,.01,.51,.03,1.02,.04,1.52,7.26,.48,14.52,.96,21.99,1.46-15.86,4-30.92,2.73-45.8-5.97,.23,2.79,.38,4.69,.53,6.59l-1.23,.37c-1.38-4.78-3.5-9.47-4.04-14.34-4.22-38.18,22.44-69.75,60.77-71.29,10.31-.42,20.91,.94,31.05,3.04,12.09,2.51,15.25,8.74,12.71,20.94-.4,1.91-1.12,3.75-1.69,5.62Zm-57.62-15.05c-7.87,1.3-13.95,3.91-18.38,9.66-4.33,5.62-2.09,11.42,4.94,12.29,7.35,.91,13.96-1.6,18.65-7.24,1.93-2.32,3.43-6.68,2.54-9.19-.86-2.45-5.04-3.72-7.76-5.51Zm-8.09,58.59c16.4,.11,41.03-15.25,44.5-27.89-6.3,5.01-12.85,11.2-20.34,15.91-7.58,4.77-16.09,8.06-24.16,11.99Zm26.77-64.26c-1.93,2.54-3.9,4-3.8,5.3,.1,1.38,2.15,3.59,3.39,3.62,1.31,.04,3.53-1.93,3.77-3.3,.22-1.27-1.63-2.91-3.36-5.63Zm-58.05,55.4c-.18,6.09,3.57,8.95,9.15,7.08-2.87-2.22-6-4.65-9.15-7.08Z"/><path d="M34.39,258.2c-3.08-6.89-4.33-13.02-1.79-19.19,.99-2.4,3.1-5.14,5.38-6.1,26.46-11.03,68.24-8.62,88.61,22.3,9.14,13.88,11.93,29.48,9.68,45.85-.57,4.13-2.61,8.05-5,11.76,.17-1.87,.35-3.74,.49-5.28-7.55,2.15-14.81,5.17-22.33,6.09-7.56,.92-15.39-.24-23.03-1.52,7.24-.46,14.48-.93,21.72-1.39l.14-1.55c-19.02,.41-35.55-5.63-49.31-18.63-13.84-13.06-21.61-28.78-20.3-48.44-4.49,2.99-4.97,4.76-4.27,16.09Zm36.15-22.28l-.49,.79c-2.25,.46-4.9,.34-6.67,1.53-2.54,1.71-6.13,4.34-6.17,6.63-.04,2.7,2.64,6.4,5.19,7.99,6.2,3.87,13.23,4.14,20.01,1.22,5.93-2.56,6.88-9.02,1.52-12.54-3.98-2.61-8.9-3.8-13.4-5.62Zm-15.89,35.91c7.87,17.82,34.38,30.69,47.93,28.58-19.23-5.42-35.2-14.34-47.93-28.58Zm49.44-22.54c-2.68-1.79-4.28-3.69-5.59-3.51-1.39,.19-3.49,2.37-3.48,3.66,.01,1.27,2.2,3.37,3.6,3.52,1.31,.14,2.85-1.8,5.47-3.67Zm26.57,42.38c-3.03,2.39-6.26,4.93-9.46,7.45,6.88,.81,9.82-1.66,9.46-7.45Z"/><path d="M212.22,183.06c-7.56,1.51-15.21,2.68-22.67,4.62-8.19,2.13-16.24,4.82-24.28,7.51-7.55,2.53-14.92,2.42-22.47-.09-9.45-3.14-18.97-6.17-28.59-8.71-5.84-1.54-11.94-2.07-19.18-3.26,9.99-2.02,18.65-1.06,27.19,.81,7.78,1.7,15.5,3.76,23.18,5.89,5.76,1.6,11.31,1.54,17.16,.13,12.09-2.91,24.27-5.5,36.5-7.73,4.26-.78,8.78-.12,13.18-.12l-.02,.95Z"/><path d="M273.85,228.85c-31.1-11.26-60.76-9.76-87.77,13.41,7.12-12.5,29.65-26.62,57.29-24.94,14.76,.9,28.15,6.01,30.49,11.54Z"/><path d="M34.43,228.88c15.81-20.8,72.12-12.56,88.65,14.13-27.4-23.82-57.08-25.44-88.65-14.13Z"/><path d="M183.81,171.25c-19.79,10.73-39.6,10.67-59.38-.02,19.78,5.42,39.56,5.57,59.38,.02Z"/><path d="M130.93,374.31c.22-.95,.58-2.46,1.1-4.64,3.34,4.12,6.86,4.28,10.7,2.3,.15-.08,.31-.16,.47-.16,7.33,.05,14.76-.6,21.97,.4,5.87,.81,5.82,1.68,11.03-1.93,.32,1.7,.58,3.14,.76,4.07-6.72,1-12.93,2.01-19.17,2.79-2.41,.3-4.92,.33-7.33,.02-6.4-.8-12.76-1.85-19.52-2.86Z"/><path d="M170.45,55.95c3.67,6.7,.8,12.83-6.46,13.89-5.86,.86-11.71,1.84-17.57,2.74-1.48,.23-2.97,.46-4.46,.45-4.19-.03-8.57,.06-10.72-4.58-1.78-3.83,.04-8.76,4.99-13.19-1.2,2.75-2.37,4.8-2.99,7.01-1.27,4.52,.56,7.2,5.22,7.51,2.62,.17,5.29-.21,7.92-.52,5.38-.64,10.73-1.68,16.13-2.04,6.4-.43,8.89-3.68,7.94-11.27Z"/><path d="M204.3,204.81c-5.57,3.85-12.74,7.63-18.38,13.02-5.52,5.28-9.49,12.18-13.76,17.87,.35-13.56,17.97-30.15,32.14-30.89Z"/><path d="M136.43,237.98c-7.61-15.9-18.06-27.37-35-33.06,18.66,.02,34.37,19.67,35,33.06Z"/><path d="M28.29,260.16c7.17,17.01,18.13,31.48,30.15,45.24-14.75-11.94-25.97-26.23-30.15-45.24Z"/><path d="M278.89,264.47c-.53,8.92-15.78,31.52-27.96,40.29,9.23-13.3,19.1-27.52,27.96-40.29Z"/><path d="M223.13,71.04c-.36,3.62,.3,6.88-1.04,8.55-4.62,5.79-10.39,10.35-18.29,10.65-6.71,.25-10.34-3.96-9.24-9.46,1.56,1.81,3,4.89,5.29,5.76,2.47,.94,6.01,.49,8.57-.58,3.76-1.57,7.39-3.86,10.46-6.54,1.78-1.55,2.36-4.48,4.25-8.38Z"/><path d="M219.61,40.72c-4.71,2.58-4.65,6.18-2,8.86,3.97,4.03,8.5,7.66,13.27,10.69,2.47,1.56,5.63,.9,5.33-3.73,2.13,4.06,1.28,6.09-2.55,6.79-7.84,1.45-20.38-9.44-19.96-17.33,.18-3.27,1.39-4.49,5.9-5.28Z"/><path d="M157.06,98.7c4.76,5.2,16.91,6.08,20.99,.62,1.38-1.85,.82-5.15,1.09-7.29,2.92,1.6,3.89,5.47,1.24,9.15-3.88,5.38-16.06,6.85-20.77,2.3-1.23-1.19-1.72-3.16-2.55-4.77Z"/><path d="M147.95,329.36c1.09,5.78-1.91,11.52-5.79,12.27-1.31,.25-3.49-.44-4.17-1.45-.7-1.03-.67-3.74,.12-4.38,2.9-2.36,6.24-4.16,9.84-6.44Z"/><path d="M160.43,329.5c3.46,2.08,6.77,3.68,9.55,5.95,.92,.75,1.03,3.5,.4,4.79-.47,.97-2.85,1.67-4.18,1.42-3.78-.71-6.84-6.64-5.78-12.16Z"/><path d="M69.11,69.59c6.1,4.88,17.21-.44,19.42-9.3l1.35,.18c-.42,2.19-.36,4.64-1.36,6.52-2.46,4.63-10.09,8.31-14.82,7.12-1.95-.49-3.58-2.29-5.36-3.49l.77-1.04Z"/><path d="M167.71,384.98c-4.98,3.81-21.69,3.89-27.17,0h27.17Z"/><path d="M253.96,87.16c-1.93,1.01-4.24,3.24-5.72,2.78-3.2-1-6.26-3.05-8.78-5.34-.84-.77,.15-3.55,.85-5.36,.71,6.54,6.53,9.61,12.77,6.47,.29,.49,.58,.97,.88,1.46Z"/><path d="M103.12,87.07c.1,7.84,3.9,10.19,12.13,8.26-1.65,3.5-6.64,4.72-10.56,2.59-3.87-2.1-4.64-6.15-1.57-10.85Z"/><path d="M115.12,37.93c4.93,3.61,14.84,.73,17.44-5.06,.83,4.44-1.37,6.8-7.7,8.28-6.55,1.53-8.64,.84-9.75-3.22Z"/><path d="M138.19,327.67c-3.93,6.54-7.85,13.09-12.33,20.55,1.11-9.31,6.87-14.91,11.12-21.32,.41,.25,.81,.51,1.22,.76Z"/><path d="M171.87,326.59c3.88,6.65,7.77,13.3,11.65,19.95-.5,.28-.99,.56-1.49,.84-3.95-6.61-7.9-13.22-11.85-19.83l1.68-.96Z"/><path d="M83.21,96.53c-1.49,4.72-4.22,6.17-7.99,4.84-3.66-1.3-4.76-4.26-3.02-8.13,2.66,5.84,5.43,6.81,11.01,3.3Z"/><path d="M200.62,33.47c-3.59,1.49-13.22-1.66-14.42-5.03-.41-1.14,.59-2.78,1.5-4.02,.09,3.86,4.34,6.91,12.93,9.05Z"/><path d="M80.94,39.87c7.96-.8,11.54-3.44,12.13-8.49l1.45,.32c-.56,1.96-.63,4.31-1.79,5.81-3.03,3.91-7.22,4.68-11.79,2.36Z"/><path d="M160.41,19.29c1.46,2.34-.15,4.09-2.83,5.34-4.45,2.07-7.88,1.06-9.52-2.43,2.17,.25,4.59,1.04,6.79,.62,1.84-.35,3.42-2.1,5.57-3.53Z"/><path d="M167.41,136.4c3.05,5.12,5.95,3.67,9.24-.43-.23,4.55-2.39,6.47-5.67,5.98-1.7-.26-3.1-2.54-4.63-3.91l1.06-1.64Z"/><path d="M212.24,113.46c-1.71,1.24-3.37,3.37-5.14,3.47-1.76,.1-3.63-1.85-5.14-3.69,3.58,1.9,6.68,3.18,9.13-1.81l1.15,2.03Z"/><path d="M147.27,119.82c-1.66,.83-3.59,2.61-4.93,2.24-1.84-.49-3.24-2.62-4.34-4.83,2.74,2.38,5.19,4.13,8.49,.81l.78,1.77Z"/><path d="M117.15,64.01c-1.79,.85-3.75,2.6-5.32,2.31-1.67-.31-2.98-2.57-4.02-4.64,2.9,1.62,5.27,4.67,8.6,.24l.74,2.09Z"/><path d="M196.51,57.66c-1.5,1.39-2.79,3.48-4.55,4-2.78,.83-5.1-.47-5.68-4.7,3.62,3.53,6.68,3.65,9.13-.75l1.11,1.45Z"/><path class="cls-1" d="M217.04,242.01c2.72,1.79,6.9,3.07,7.76,5.51,.89,2.52-.61,6.87-2.54,9.19-4.69,5.64-11.3,8.14-18.65,7.24-7.03-.87-9.27-6.66-4.94-12.29,4.43-5.75,10.51-8.36,18.38-9.66Z"/><path class="cls-1" d="M208.96,300.6c8.07-3.92,16.58-7.22,24.16-11.99,7.49-4.71,14.04-10.9,20.34-15.91-3.47,12.64-28.1,28-44.5,27.89Z"/><path class="cls-1" d="M235.73,236.33c1.73,2.71,3.59,4.35,3.36,5.63-.24,1.37-2.46,3.33-3.77,3.3-1.25-.03-3.29-2.25-3.39-3.62-.1-1.3,1.87-2.76,3.8-5.3Z"/><path class="cls-1" d="M177.68,291.73c3.15,2.44,6.28,4.86,9.15,7.08-5.58,1.87-9.33-.99-9.15-7.08Z"/><path class="cls-1" d="M70.54,235.92c4.5,1.82,9.42,3.01,13.4,5.62,5.36,3.52,4.41,9.98-1.52,12.54-6.78,2.92-13.81,2.66-20.01-1.22-2.55-1.59-5.23-5.29-5.19-7.99,.03-2.29,3.63-4.92,6.17-6.63,1.77-1.19,4.41-1.07,6.67-1.53l.49-.79Z"/><path class="cls-1" d="M54.64,271.83c12.73,14.24,28.71,23.16,47.93,28.58-13.56,2.12-40.06-10.76-47.93-28.58Z"/><path class="cls-1" d="M104.09,249.29c-2.62,1.87-4.16,3.81-5.47,3.67-1.4-.15-3.58-2.25-3.6-3.52-.01-1.29,2.08-3.46,3.48-3.66,1.31-.18,2.91,1.72,5.59,3.51Z"/><path class="cls-1" d="M130.65,291.67c.36,5.79-2.58,8.26-9.46,7.45,3.2-2.52,6.43-5.07,9.46-7.45Z"/></g></g></g></svg>