<?xml version="1.0" encoding="UTF-8"?><svg id="Layer_2" xmlns="http://www.w3.org/2000/svg" viewBox="0 0 382.97 416.93"><defs><style>.cls-1{fill:#04080c;}.cls-2{fill:#010101;}.cls-3{fill:#6b9fb6;}.cls-4{fill:#133c5d;}.cls-5{fill:#1e577f;}.cls-6{fill:#0f2e4c;}.cls-7{fill:#1a4968;}.cls-8{fill:#3e677f;}.cls-9{fill:#537186;}.cls-10{fill:#637b91;}.cls-11{fill:#2c5670;}.cls-12{fill:#344e65;}.cls-13{fill:#5790a6;}.cls-14{fill:#4b788d;}.cls-15{fill:#498aa2;}.cls-16{fill:#307694;}</style></defs><g id="Layer_2-2"><g><path class="cls-3" d="M178.61,56.66c-.13-7.13,.13-14.03-4.01-20.74-4.58-7.42,.73-27.26,7.58-32.21,5.52-3.99,11.43-5.06,17.69-1.77,6.2,3.26,9.92,7.94,9.44,15.47-.2,3.19,0,6.29,1.66,9.63,2.34,4.71,.51,9.69-3.39,13.53-2.08-2.66-1.06-5.93-1.76-8.86,.07-.73,.15-1.47,.22-2.2l-.89-4.75-.39-4.17c.46-2.55,4.79-5.41,1.42-7.31-2.93-1.64-3.74,2.37-4.28,4.92-5.34,.67-10.68,1.5-16.04,1.96-4.75,.41-5.05,2.5-2.77,5.98-.06,1.4-.12,2.79-.18,4.19-1.6,.26-2.69,1-2.64,2.81-1.1,1.84-.61,2.87,1.55,3.05,1.9,9.56,6.01,12.85,12.86,10.3,3.13-.13,5.58-1.52,7.46-3.98,6.21,.46,3.29,5.05,3.69,8.14-.7,.04-1.4,.08-2.1,.12-.62-.09-1.24-.18-1.86-.27-1.08-.65-2.08-.44-3.03,.28-3.75,0-7.5-.01-11.25-.02-10.04-3.77-5.28,4.17-6.09,7.7l-2.9-1.8Z"/><path class="cls-10" d="M78.93,366.69c4.44-7.14,5.15-15.62,8.32-23.21,1.62,1.27,.22,4.41,3,5.07,2.68-3.36,4.65-6.81,4.11-11.18,3.67-.02,3.84-3.32,4.76-5.53,5.23-12.69,10.23-25.47,15.34-38.21,1.46-3.65,2.14-7.39,1.6-11.31,1.01-1.46,2.02-2.91,3.02-4.37l.09-.16,1.65-1.61,5.67-1.52c.46,.02,.91,0,1.37-.07,.03,1.79-.34,3.31-2.14,4.24-3.91,2.03-.04,2.63,.75,3.8l-.05,.68c-3.73,1.97-7.04,4.28-7.22,9.08-.05,.43-.06,.86-.02,1.3l-.56,2.83c-3.94,3.61-5.35,8.47-6.6,13.41l-.38,2.67c-3.98,7.37-8.7,14.47-8.55,23.36v.04c-4.3,3.17-5.61,7.71-5.93,12.73-5.15,5.27-4.57,14.81-13.09,17.57-1.43,.26-2.86,.53-4.29,.79-.34-.02-.62-.15-.85-.4Z"/><path class="cls-15" d="M251.3,318.55c-3.29-4.07-2.68-9.02-3.25-13.75-1.42-11.68-9.85-19.94-14.57-31.06-4.42,13.12,1.6,24.46,1.76,36.15-.95,.5-1.9,1.01-2.86,1.51-.37-.06-.74-.09-1.11-.09-.29-2.6-.57-5.19-.86-7.79l-1.14,.07-1.06,3.36c-.7-.07-1.39-.15-2.09-.22,.22-3.98,.44-7.97,.66-11.95-.44-4.24,3.92-8.01,1.22-12.47,1.22-8.29,3.36-16.68-2.83-24.1l.21-2.4,.67-.21,.71,.02c2.12,3.88,4.53,3.22,7.09,.47-.01,7.44,.19,14.82,6.52,20.22,3.37,3.26,4.36,7.87,6.67,11.73,2.1,6.23,4.19,12.46,6.29,18.69l.15,4.35c-.88,2.19,.92,3.94,.99,5.98-1.06,.5-2.11,1-3.17,1.5Z"/><path class="cls-14" d="M278.04,306.31c5.11,10.52,7.77,21.83,10.17,33.13,3.23,15.17,8.37,29.05,21.33,38.74-1.08,1.08-2.17,2.15-3.25,3.23-2.8-.63-5.6-1.27-8.4-1.9,1.28-1.38,3.74-2.71,.14-4.25-.96-4.92-1.93-9.82-8.95-7.45-1.33-3.53-3.94-3.78-7.05-2.76-.52-.5-1.05-.99-1.57-1.49l.03,.03-.02-7.14c-.34-.48-.68-.96-1.02-1.44-.14-.97-.29-1.94-.43-2.91,4.26-2.49-.2-7.52,3.01-10.31,.42,.51,.83,1.02,1.25,1.52,1.04,2.87,2.07,5.73,3.11,8.6-4.23,3.18-.86,4.94,1.46,6.92v-4.18c1.05-.94,1.14-1.85-.08-2.72l.04,.02c.34-3.14-.33-6.04-2.09-8.68-3.5-11.66-7-23.32-10.49-34.97l2.82-1.99Z"/><path class="cls-3" d="M181.42,394.2c-.44,5.97,2.01,12.1-.92,17.94-7.1-5.24-14.55,.99-21.76-.65-.44-1.43-.62-2.85,.27-4.2,.58-.11,1.17-.22,1.75-.33-.89-5.7,3.59-10.18,3.56-15.69,2.1-3.15,3.02-7.7,8.34-7.06,6.22,.43,7.58,5.13,8.76,9.98Z"/><path class="cls-3" d="M78.93,366.69c.23,.25,.51,.38,.84,.39,1.86,4.27,4.99,7.12,9.9,8.55,.2-2.16,.39-4.25,.58-6.34,.9-.27,1.8-.53,2.7-.8,.18,.4,.45,.71,.81,.94-.72,3.28-.6,6.5-.06,9.85,.68,4.22-.56,7.6-5.75,7.78-1.53,.47-2.96,1.07-3.61,2.7l-.15,.26c-5.16,.13-10.32,.35-15.48,.37-2.98,.02-6.01-.22-4.87-4.65l.53-.27c.3-.36,.6-.73,.9-1.09,6.79-4.17,12.83-8.91,13.63-17.7Z"/><path class="cls-3" d="M231.12,106.12c-3.99,12.28-7.11,24.75-8.65,37.6-.55,.1-1.1,.21-1.65,.31-2.73-5.45,.99-12.72-4.91-17.27,.26-1.48,.53-2.95,.79-4.43,.94-.77,1.11-1.78,.94-2.91-.97-3.4,4.89-7.64-1.29-10.39,.31-1.53,2.73-2.27,1.64-4.33-.5-.48-1-.96-1.5-1.44v-.02c.07-.91,.13-1.83,.19-2.74,.5-.48,1-.96,1.5-1.44,4.41,2.11,6.71-1.45,9.56-3.54l2.35,.37c-1.51,3.59-4.02,7.28,1.01,10.23Z"/><path class="cls-8" d="M50.7,78.39c4.35,.17,8.69,.34,13.04,.52-1.52,.92-3.05,1.84-4.57,2.76-5.67,1.24-11.9-2.2-17.2,2.07-6.68-1.1-6.12,4.79-8.04,8.31-.22,.41-.66,.69-1,1.03l-1.3,2.11-1.3,.86c-.44-.24-.87-.49-1.31-.73-.25-1.89-1.27-3.12-3.09-3.68,.07-3.13-.65-5.65-4.46-5.8-.04-8.69-5.33-2.45-8.27-2.91-.19-.42-.33-.86-.44-1.3,.99-1.43,1.99-2.86,2.98-4.29,2.65-.98,5.44-3.02,7.92-2.7,4.15,.54,8.13,2.27,12.4,.7,.48,.2,.96,.4,1.44,.6,3.92,3.39,8.61,2.65,13.2,2.46Z"/><path class="cls-7" d="M93.03,51.17c5.97,5.25,13.25,4.14,20.29,4.19,10.03,6.7,20.95,9.84,33.05,8.21,1.56,2.06-.69,3.27-1.1,4.89-1.01-.05-2.02-.09-3.02-.14l-9.87,.02c-2.95-4.09-6.02,1.49-9-.11-5.82-6.3-13.57-5.31-20.99-5.58l-2.26-.3c-3.33-1.93-6.65-3.87-9.98-5.8,.96-1.8,1.93-3.59,2.89-5.39Z"/><path class="cls-15" d="M227,170.07c3.04,2.82,3.37,6.77,4.09,10.44,1.95,9.96,6.91,18.62,11.37,27.52-.64-.02-1.28-.04-1.92-.06-2.69,.12-4.51-1.7-6.59-2.95l.04,.09c-.18-1.09-.52-1.97-1.91-1.52l-3.4-10.31c-1.15-2.61-2.29-5.21-3.44-7.82-.65-3.42-3.45-3.56-6.07-3.98,.14-4.02,3.13-7.97,.29-12.06,0-1.15-.01-2.3-.02-3.45,.91-1.01,1.83-2.02,2.74-3.03l.1,.05c.52,1.32,1.05,2.64,1.57,3.96,1.05,1.04,2.1,2.08,3.15,3.12Z"/><path class="cls-13" d="M240.54,207.97c.64,.02,1.28,.04,1.92,.06,6.68,11.76,12.17,23.8,13.59,37.62,1.06,10.34,3.78,20.52,5.77,30.77l-.49-.11c-1.84,.01-3.67,.02-5.51,.04l-1.38-4.59c1.89-2.44,1.45-4.82-.19-7.17-1.34-6.61-.05-13.26-.35-19.89l-1-1.83c-1.57-3.72-1.48-8.19-4.99-11.03l-.54-2.02c-.12-3.77-2.59-6.64-3.75-9.98-1.34-3.83-5.24-7.1-3.06-11.85Z"/><path class="cls-16" d="M183.29,276.36c-.15,.97-.3,1.94-.45,2.91-.89,.02-1.79,.03-2.68,.05-.1-.97-.19-1.94-.29-2.91-.07-3.09-.14-6.17-.22-9.26-.02-2.25-.03-4.5-.05-6.74l.42-4.45c.02-1.44,.04-2.88,.07-4.32,0-2.44-.02-4.88-.02-7.32,.04-1.93,.08-3.86,.12-5.79,.08-3.91,2.3-8.11-1.57-11.48,.87-1.87,2.37-2.84,4.38-3.1h0c-2.54-9.26-4.69,.96-7.05,.14,1.02-6.08,4.3-10.5,9.77-13.32,.78,2.54-3.79,4.79-.97,6.99,3.39,2.63,2.33,5.83,2.43,9.01-2.43,1.32-4.28,3-3.74,6.13,.14,3.29,.29,6.58,.43,9.86-.23,.52-.47,1.03-.7,1.55,.22,2.16-.78,4.54,1.2,6.37,.05,4.47,.1,8.94,.14,13.42,.43,4.17-2.47,8.01-1.22,12.27Z"/><path class="cls-3" d="M162.65,135.21c-2.28-10.51-5.79-20.62-10.1-30.46,2.76-2.28,2.95,2.53,5.18,1.9,1.17-3.26-.52-6.03-1.55-8.84-1.06-2.89-2.25-5.71-2.08-8.87,1.39,1.59,2.78,3.18,4.17,4.77,.91,1.84,1.83,3.68,2.74,5.52,4.79,3.89,6.63,8.43,3.16,14.16-1.25,3.49-.53,6.54,2.03,9.18-.05,1.23-.1,2.46-.15,3.69l-1.58,3.46,.72,5.46-2.55,.04Z"/><path class="cls-8" d="M24.43,29.6c9.55-4.59,15.62,1.43,21.79,7.14-1.47,4.11-2.94,8.21-4.42,12.32-3.95-.11,.84,3.04-1.34,3.6l-7.35-1.78c0-1.93-.78-5.01,.11-5.61,5.26-3.55,.97-4.6-1.3-6.27,2.08-1.33,4.72-2.4,.56-4.71-2.83-1.57-5.66-2.51-8.85-2.46l.79-2.21Z"/><path class="cls-13" d="M127.93,240.61c3.81-16.49,10.01-31.91,20.27-45.53,.56,.97,1.13,1.94,1.69,2.91-.16,1.18-.33,2.37-.49,3.55l-1.56,2.02c-.47,.85-.93,1.7-1.4,2.55-2.38,1.86-3.46,4.59-4.47,7.24-3.91,10.28-7.68,20.61-11.5,30.92l-3.24-.05c.2-1,.41-2,.61-3l.08-.6Z"/><path class="cls-11" d="M367.9,43.62c-.71,4.14-4.35,3.05-6.9,3.75-3.95,1.08-7.97,1.9-11.96,2.82-2.97-2.18-5.94-4.36-8.91-6.54,1.59-3.21-.9-4.34-2.91-5.72l1.34-3.16-.02,.06c1.37,.07,2.73,.14,4.1,.21,.95,1.77,1.89,3.54,2.84,5.31-.41,.93-.06,1.09,.77,.76l5.52-1.79,1.89-.09c6.6-.02,13.19-.05,19.79-.07-.22,2.79-2.48,2.53-4.33,2.9-5.16-.31-10.27-.2-15.18,2.09,4.66-.55,9.29-.82,13.94-.53Z"/><path class="cls-7" d="M283.42,74.04c1.69,.42,2.23,1.9,2.96,3.21,2.6,1.58,5.5,.83,8.27,1.09,2.26,.21,4.98-.31,5.21,3.21-3.27,2.68-4.39,5.27,1.24,5.52,7.63,.34,15.29,.03,22.94,0,2.49,.17,4.98,.35,7.48,.52l-.16,3.86c-2.43,.04-4.87,.07-7.3,.11-7.6-2.86-15.45-.46-23.16-1.13-3.95-.82-8.42,.87-11.84-2.49,4.6-7.34-2.71-6.28-5.79-8.21l.14-5.69Z"/><path class="cls-12" d="M382.97,85.65c-1.38,8.8-8.61,9.32-14.89,9.25-10.08-.11-20.23-1.04-29.94-4.4,3.66-3.48,7.51,.25,11.26-.28,.37-.08,.73-.14,1.1-.2l-.27,.1c.82,.96,1.71,1.09,2.69,.23,2.68,.97,4.6,.09,6.13-2.25,2.54-3.87,5.95-4.59,10-2.44-1.15,1.06-3.22,1.05-3.82,4.3,4.23-1.17,8.64,2.96,11.97-2.54,1.92-.59,3.84-1.18,5.76-1.77Z"/><path class="cls-8" d="M382.97,85.65c-1.92,.59-3.84,1.18-5.75,1.77-3.16,1.45-5.57-.58-8.16-1.76-4.06-2.15-7.47-1.43-10,2.44-1.53,2.34-3.45,3.22-6.13,2.25-.9-.08-1.79-.15-2.69-.23l.27-.1c4.37-2.44-1.37-4.72-.11-7.11,1.77-3.21,.04-5.54-1.98-7.78,2.28-2.21,4.11,1.05,6.25,.52,2.2,.53,4.41,1.06,6.61,1.58,0,6.95,5.82,1.93,8.21,3.99,4.28,1.02,8.56,2.03,12.84,3.05,.22,.46,.44,.92,.65,1.38Z"/><path class="cls-13" d="M206.12,340.81c-5.31-7.69-2.5-15.51-.28-23.28,1.59-5.54,3.39-11.02,5.1-16.53,1.01-1.42,1.06-2.84,.04-4.27-.4-1.91-.81-3.81-1.21-5.72,6.58-1.44,1.63-7.07,3.69-10.15,.87-.03,1.75-.06,2.63-.09,.62,2.94,1.24,5.88,1.86,8.81,.03,.51,.06,1.03,.1,1.54-5.78,4.1-4.23,10.17-4.26,15.82-4.84,10.04-8.84,20.27-7.06,31.79l-.6,2.07Z"/><path class="cls-8" d="M241.19,61.08c6.67,.6,12.69-1.49,18.72-4.08,5.6-2.4,11.55-3.67,17.69-2.19,6.8,1.63,11.56-3.63,17.46-5.01-.72,.86-1.44,1.71-2.16,2.57-.79,.85-1.59,1.7-2.38,2.56-4.31,1.56-8.63,3.12-12.95,4.67-3.07,.81-5.56-5.57-8.96-.71-4.67,1.34-9.34,2.69-14.01,4.03-3.86,1.14-7.73,1.62-11.61,.08l-1.8-1.9Z"/><path class="cls-14" d="M223.26,366.38c-1.2,2.63-.13,5.95-2.51,8.22,.38-1.97-.73-3.04-2.32-3.8-.13-3.43-.34-6.86,.78-10.19,1.53-.42,2.53-1.4,3.09-2.86,2.3-1.76,2.47-4.45,3.08-6.96,1.79-7.35,3.64-14.68,5.47-22.01l1.9,.08c.09,12.8-4.56,24.52-8.3,36.45-.39,.36-.79,.72-1.18,1.08Z"/><path class="cls-14" d="M93.03,51.17c-.96,1.8-1.93,3.59-2.89,5.39-.58,.58-1.16,1.16-1.74,1.75-9.83-4.92-20.29-8.18-30.71-11.56l1.69-1.5,1.48-1.6c10.44,3.71,21.43,5.09,32.17,7.52Z"/><path class="cls-11" d="M23.64,31.81c3.2-.05,6.03,.9,8.85,2.46,4.17,2.31,1.52,3.38-.56,4.71-4.72,.84-5.28,1.4-4.59,2.09,2.86,2.82-.81,5.43,.09,8.06-1.92,.06-3.84,.12-5.76,.18,.1-.23,.14-.47,.12-.71l-2.9-2.11c.35-1.77,.39-3.42-1.61-4.3l3.38-3.91c-2.35-.81-5.51-.01-6.33-3.19,1.62-.33,3.46-.03,4.65-1.61,1.55-.55,3.1-1.11,4.65-1.66Z"/><path class="cls-11" d="M321.19,388.38c-12.88,4.31-25.92,4.36-39.07,1.45,4.99-.78,.37-3.92,1.4-5.68q6.18,1.04,7.11-1.6c1.12-1.53,2.6-2.39,4.51-2.45,.05,3.41,2.2,4.73,5.07,6.06,6.86,3.16,13.98,2.18,21.07,2.1l-.09,.12Z"/><path class="cls-14" d="M59.17,81.66c1.52-.92,3.05-1.84,4.57-2.76l1.48-.56c5.29,.17,10.5-.21,15.38-2.55,2.65,.91,5.28,.23,7.92-.06,.96,.02,1.93,.05,2.89,.07l4.14,.41c1.92,.21,3.84,.43,5.77,.64,1.17,.51,2.37,1.2,.34,2.02-3.31,1.34-6.84,.56-10.28,.68l-11.52,.63,.07,.9,2.79,.42v2.18l-2.48,.4c-3.93-1.33-7.96-1.13-12-.88-2.97-.18-5.94-.35-8.91-.53-.03-.34-.08-.68-.14-1.02Z"/><path class="cls-1" d="M91.44,94.84c-.44,.19-.89,.55-1.33,.53-12.02-.52-23.58,3.48-35.56,3.62-5.31,.06-9.97-1.03-14.06-4.41,.49-.48,.97-.97,1.46-1.45,4.87-.07,9.74-.14,14.61-.2,11.59,1.31,23.2,2.19,34.88,1.92Z"/><path class="cls-3" d="M205.96,396.05c-3.1-3.36,.97-6.16,.72-9.3,2.2-4.71,1.14-9.64,.95-14.51l.14,.1c1.06-.08,2.13-.16,3.19-.24,.9,3.03,1.8,6.06,2.71,9.09-.48,.34-.96,.68-1.44,1.01-.52-.02-1.03-.04-1.55-.06-.09,.61-.17,1.21-.26,1.82-2.45,5.87,1.95,6.54,5.8,7.64,1.02,.24,2.04,.49,3.06,.73,1.25,2.25-.12,3.25-1.99,3.25-4.63,.01-4.06,2.76-3.33,5.74-1.04,.63-2.09,1.27-3.13,1.9l.11-.1c-.97-.12-1.94-.23-2.9-.35l-.08-.16c1.1-2.72-.8-4.53-1.98-6.56Z"/><path class="cls-8" d="M181.42,394.2c-1.18-4.85-2.54-9.55-8.76-9.98,1.38-3.45,1.47-6.91,.16-10.4,.03-6.35,.06-12.7,.09-19.04l2.48,.17c.84,4.84-1.82,10.45,3.14,14.4,1.55,8.22,4.08,16.32,2.9,24.86Z"/><path class="cls-12" d="M348.41,75.12c2.02,2.25,3.75,4.57,1.98,7.79-2.71,.48-4.55,2.12-5.91,4.41-1.21-.45-2.42-.91-3.63-1.36-.79-.59-1.57-1.18-2.35-1.77-1.91-4.12-5.8-2.11-8.8-2.85-.73-1.37-2.9-1.46-3.03-3.38,7.25-.94,14.49-1.89,21.74-2.83Z"/><path class="cls-11" d="M282.26,91.83c-14.45,4.6-29.24,5.24-44.2,3.65,.1-1.75,.21-3.5,.31-5.25v.03c.52,.12,1.04,.23,1.57,.35,4.21,3.73,9.17,2.16,13.87,1.77,7.93-.65,15.73-2.84,23.78-2.19l4.67,1.63Z"/><path class="cls-3" d="M209.31,287.83c-.75-3.88-1.49-7.76-2.24-11.63-.19-1.07-.38-2.14-.57-3.21-.15-1.79-.3-3.58-.45-5.36,.48-3-1.44-5.46-1.89-8.24-.95-5.89-4.66-11.42-2.31-17.74,.48-.07,.96-.09,1.44-.08,.28,3.48,.39,7.05,4.3,8.76l.36,2.63c-1.06,1.27-.87,2.36,.5,3.26,.36,.88,.72,1.77,1.08,2.65-.1,1.9-.2,3.8-.31,5.7-.11,.19-.32,.39-.3,.56,.07,.4,.24,.78,.38,1.17,.22,.35,.43,.71,.64,1.07-1.32,3.17,.3,5.49,2.23,7.71,0,1.82,0,3.65,0,5.47-.96,2.43-1.92,4.85-2.88,7.28Z"/><path class="cls-15" d="M126.41,283.32l.05-.68c6.12,.42,9.12-4.31,12.88-7.78l1.89,1.73c-5.45,9.43-14.26,16.69-17.72,27.41-.93,.01-1.87,.02-2.8,.03l.31-4.28c2.3-3.36,3.2-7.63,6.68-10.21,4.02-2.99,1.45-4.62-1.28-6.21Z"/><path class="cls-13" d="M120.71,304.03c.93-.01,1.87-.02,2.8-.03-1.4,8.57-4,16.62-9.83,23.34-2.63,3.03-5.15,6.15-6.5,10.02-1.08-.04-2.15-.08-3.23-.12l-.86-1.23v-.04c2.94-4.24,5.87-8.47,8.81-12.71,4.9-5.51,6.01-12.76,8.81-19.22Z"/><path class="cls-14" d="M292.9,52.35c.72-.86,1.44-1.71,2.16-2.57,9.23-2.37,18.75-3.58,27.7-7.03-.12,1.17-.25,2.33-.37,3.5-7.64,2.99-15.28,5.98-22.93,8.97-.98-3.7-4.57-1.47-6.56-2.88Z"/><path class="cls-1" d="M33.12,50.87c2.45,.59,4.9,1.19,7.35,1.78,4.67,2.11,9.72-.26,14.44,1.22,2.31,4.06,6.61,4.39,10.46,5.58,.29,.36,.5,.76,.63,1.2-13.5,2.67-24.93-2.27-35.67-9.74,.93-.02,1.86-.03,2.79-.05Z"/><path class="cls-1" d="M87.55,69.34c-3.64,3.72-7.98,4.23-12.58,2.35-2.3-.94-4.35-1.82-6.82-.55-2.33,1.2-4.58,.29-5.42-1.88-1.01-2.58,1.92-2.08,3.16-2.81,2.01-1.17,2.06-3.07,2.25-4.98l-.05-.69c6.04,3.88,12.97,5.72,19.47,8.56Z"/><path class="cls-14" d="M213.94,401.31c-.73-2.97-1.3-5.72,3.33-5.74,1.87,0,3.24-1,1.99-3.25,.1-1.82,.1-3.66,1.3-5.21l.46-.29c1.57,3.64,6.62,4.25,7.46,8.54-6.23,.55-1.51,6.87-4.75,9-1.85,1.35-3.77,2.19-5.96,.7-.51-.67-1.01-1.33-1.52-2,.03-1.65-1.23-1.58-2.31-1.75Z"/><path class="cls-7" d="M101.53,293.78c1.81-2.01,3.62-4.03,5.43-6.04,.68,.55,1.36,1.09,2.04,1.64-.06,.5-.12,1.01-.17,1.51-3.32,9.27-6.64,18.54-9.96,27.81-.06,1.42-.11,2.84-.17,4.26l.04-.06c-1.37,.92-2.74,1.84-4.11,2.76,1.86-8.33,2.36-16.98,6.59-24.78,.87-1.61,3.16-4.65,.31-7.09Z"/><path class="cls-12" d="M361.28,77.23c-2.2-.53-4.41-1.06-6.61-1.58,.82-3.32,2.81-4.96,6.31-4.25,7.28,1.47,14.72,2.46,21.12,6.72-4.23,.64-8.46,1.29-12.7,1.93-2.48-1.6-5.23-2.4-8.12-2.81Z"/><path class="cls-14" d="M94.64,325.65c1.37-.92,2.74-1.84,4.11-2.76,.29,5.36-3.74,9.4-4.39,14.47,.54,4.38-1.43,7.83-4.11,11.18-2.78-.66-1.38-3.8-3-5.07-.49-5.19,1.12-10,2.65-14.84,3.17,1.53,3.43-1.57,4.74-2.99Z"/><path class="cls-1" d="M201.86,241.65c-2.35,6.32,1.36,11.85,2.31,17.74,.45,2.78,2.37,5.24,1.89,8.24-6.76-4.4-5.08-12.04-6.97-18.29-.78-2.58,1.43-6.74-4.08-6.51-1.53,.06-1.74-1.98-.82-2.74,3.57-2.93,1.91-6.57,1.75-10.03,.22-.21,.45-.41,.68-.6,1.21,1.34,2.43,2.68,3.64,4.02-.91,3.01,2.56,5.16,1.6,8.18Z"/><path class="cls-1" d="M188.83,234.18c.84,9.23,5.46,17.71,5.31,27.15-.02,1.47,1.92,3.47-.79,4.02-2.11,.42-2.73-1.6-2.88-3.31-.27-3.09-.94-5.74-4.69-6.08-.05-2.9-.1-5.8-.15-8.7,1.34-4.2,2.65-8.39,1.93-12.9,.42-.09,.84-.15,1.27-.17Z"/><path class="cls-13" d="M162.65,135.21c.85-.01,1.7-.03,2.54-.04,2.87,3.33-.36,7.13,.81,10.6-.09,1.82-.18,3.63-.28,5.45-1.27,1.3-1.46,2.77-.64,4.38l3.35,.21c.11,.99,.21,1.98,.32,2.97-.7,2.95-1.4,5.91-2.1,8.86h-.02l-1.24,1c-1.16,.64-2.31,1.28-3.47,1.92,.62-6.44,2.23-12.91-.63-19.23l1.37-16.12Z"/><path class="cls-13" d="M158.73,411.49c7.21,1.64,14.66-4.58,21.76,.65-4.29,6.66-16.04,6.31-21.76-.65Z"/><path class="cls-3" d="M159.45,64.24c.58,.41,1.16,.83,1.74,1.24,2.87,.42,5.74,.84,8.61,1.26,2.41,.71,4.82,1.42,7.23,2.12,.08,1.3,.15,2.6,.23,3.9-3.23,.31-6.42-2.57-10-.5,1.26,2.15,4.21,2.2,4.15,4.84l-2.88-.02c-.73-1.19-1.89-1.25-3.11-1.17-5.5,.72-4.37-6.37-8.53-7.24-.88-2.49-3.33-5.89,2.58-4.45Z"/><path class="cls-13" d="M94.64,325.65c-1.32,1.42-1.58,4.51-4.74,2.99,2-12.25,4.7-24.26,11.64-34.86,2.86,2.44,.57,5.48-.31,7.09-4.24,7.81-4.73,16.45-6.59,24.78Z"/><path class="cls-11" d="M21.47,85.83c3.8,.15,4.53,2.67,4.46,5.8-.52,.01-1.04,.03-1.57,.04-3.91,1.11-8.14,1.36-11.41,4.2l-.65,.04h-.66c-1.22-1.54-2.75-1.25-4.32-.73-.99-.69-1.97-1.38-2.96-2.07,1.23-.92,2.47-1.85,3.7-2.77,4.06-2.71,7.91-6.06,13.4-4.51Z"/><path class="cls-11" d="M143.86,95.79c-10.81,2.36-21.51,.44-32.24-.75-1.43-.64-2.86-1.29-4.29-1.93,1.49-.5,2.98-.99,4.48-1.49,10.68,.26,21.29,2.12,32.01,1.53l.04,2.65Z"/><path class="cls-3" d="M223.73,404.36c3.24-2.12-1.48-8.45,4.75-9,4.54,3.78,8.23,8.7,14.21,10.53-3.65,.94-1.97,5.91-5.33,7.07-.58-.4-1.16-.81-1.74-1.21-2.99-4.04-5.8-8.34-11.89-7.39Z"/><path class="cls-14" d="M172.81,373.82c1.31,3.49,1.22,6.95-.16,10.4-5.32-.64-6.24,3.91-8.34,7.06,.96-7.29,1.67-14.58-.19-21.85,1.03-.02,2.06-.05,3.1-.07,.83-.09,1.65-.18,2.48-.27,.27,2.08,1.01,3.85,3.11,4.74Z"/><path class="cls-3" d="M306.29,381.41c1.08-1.08,2.17-2.15,3.25-3.23,7.77,2.68,15.53,5.36,25.24,8.71-5.77,2.1-9.71,1.55-13.6,1.48l.09-.12c-2.57-2.65-5.9-2.86-9.28-2.79-2.95,.07-5.24-.69-5.71-4.06Z"/><path class="cls-8" d="M91.44,94.84c-11.68,.27-23.29-.6-34.88-1.92,0-.51-.01-1.02-.02-1.52,15.55,.47,31.08,.43,46.58-1.24,.39,.09,.78,.14,1.17,.17l.15,2.62c-3.39,.58-7.03-.79-10.21,1.35l-2.79,.53Z"/><path class="cls-13" d="M161.35,359.14c-4.38-12.19-6.65-24.79-7.45-37.69,.99,.51,1.98,1.02,2.97,1.53,.06,.4,.08,.81,.08,1.22-.22,2.14-.04,4.2,1.15,6.07,.73,3.89,1.23,7.85,3.31,11.34-.08,.58-.16,1.16-.24,1.74-.8,5.28,1.73,10.51,.18,15.8Z"/><path class="cls-13" d="M178.52,369.34c-4.96-3.95-2.3-9.55-3.14-14.4,.08-4.94,.15-9.87,.23-14.81l1.54-2.77c2.84-6.67,.9-13.73,1.64-20.57,2.6,5.57,3.29,11.46,1.78,17.33-2.99,11.64-4.48,23.3-2.06,35.22Z"/><path class="cls-13" d="M141.23,276.59c-.63-.58-1.26-1.15-1.89-1.73,1.94-5.19,6.57-9.29,6.23-15.41,2.02-2.59,4.04-5.18,6.06-7.77,1.78,.19,3.09,1.02,3.75,2.74-3.22-.25-3.01,2.09-3.14,4.17-3.39,6.17-5.78,12.95-11.01,17.99Z"/><path class="cls-13" d="M180.16,279.31c.89-.02,1.79-.03,2.68-.05-1.05,7.47-1.5,15.09-5.38,21.87-.99-.03-1.98-.07-2.96-.1l-.5,.18c1.7-2.45,1.64-4.63-.97-6.43-.11-.89-.23-1.78-.34-2.67,2.67-1.66,4.97-3.54,4.51-7.17,.47-.91,.93-1.83,1.4-2.74,.52-.96,1.05-1.93,1.57-2.89Z"/><path class="cls-10" d="M66,60.65c-.13-.44-.34-.84-.63-1.2,1-1.5,1.99-2.99,2.99-4.49,6.73,.82,12.92,4.88,20.05,3.34,.58-.58,1.16-1.16,1.74-1.75,3.33,1.93,6.65,3.87,9.98,5.8-2.01,.07-4.01,.14-6.01,.21-1.28,.39-2.55,.77-3.83,1.16-5.75-1.46-11.17-4.42-17.38-3.83-1.8-.77-3.47-.9-4.81,.87l.05,.69c-.71-.27-1.43-.54-2.14-.81Z"/><path class="cls-16" d="M154.1,88.94c-.17,3.16,1.02,5.98,2.08,8.87,1.03,2.81,2.73,5.58,1.55,8.84-2.23,.63-2.42-4.18-5.18-1.9-1.52-2.85-3.04-5.7-4.55-8.55,.04-.48,.05-.96,.02-1.45,1.26-1.35,1.56-3.04,1.63-4.8,.93-1.88,1.86-3.76,2.79-5.64,.4-.03,.8-.06,1.2-.09,.15,1.57,.31,3.14,.46,4.71Z"/><path class="cls-15" d="M203.74,50.77c.7-.04,1.4-.08,2.09-.12,.25,1.43,.49,2.87,.73,4.3,2.59,4.48,8.37,4.69,11.45,8.52-.77,.69-1.54,1.39-2.32,2.08-4.38-2.9-9.07-2.96-13.93-1.58-1.52-4.73,1.4-8.79,1.96-13.2Z"/><path class="cls-13" d="M155.43,180.38c1.44-4.84,2.87-9.68,4.31-14.52,.27,2.09,.15,4.3,1.7,6.03-.07,1.86-.13,3.72-.19,5.57l-.03-.03c1.84,.04,3.68,.09,5.52,.13l.11,.27c-2.6,4.4-5.93,8.15-9.9,11.36-.21-2.98,.33-6.1-1.51-8.81Z"/><path class="cls-4" d="M340.13,43.65c2.97,2.18,5.94,4.35,8.91,6.54-4.21,3.59-8.83,0-13.2,.77-1.52-1.04-3.04-2.07-4.56-3.11,.04-.89,.08-1.77,.12-2.66,2.32-3.84,5.63-2.11,8.73-1.54Z"/><path class="cls-8" d="M342.66,35.04c-1.37-.07-2.73-.14-4.1-.21,6.83-7.46,13.74-9.76,20.53-6.84,.42,.8,.83,1.6,1.25,2.39-2.95,1.05-5.89,2.1-8.84,3.14-3.08-.3-6.05,.09-8.84,1.51Z"/><path class="cls-15" d="M161.35,359.14c1.55-5.28-.98-10.52-.18-15.8,2.37,2.52-.07,7.89,5.16,8.73,.22,1.52,.75,2.84,2.17,3.63l-.06-.1c-2.44,4.41-1.42,9.12-1.22,13.76-1.03,.02-2.06,.05-3.1,.07-2.39-3.04-1.79-6.88-2.78-10.3Z"/><path class="cls-12" d="M340.13,43.65c-3.1-.58-6.41-2.31-8.73,1.53-3.01,.36-6.01,.72-9.02,1.08,.12-1.17,.25-2.33,.37-3.5,4.72-2.27,9.45-4.53,14.17-6.8,.1,.66,.2,1.31,.3,1.97,2.01,1.38,4.5,2.51,2.91,5.72Z"/><path class="cls-14" d="M146.37,63.57c-12.1,1.64-23.02-1.51-33.05-8.21,1.89,.18,3.79,.35,5.68,.53,1.27,.33,2.55,.66,3.82,.99,6.17,1.1,11.3,6.34,18.19,4.57,1.78,.71,3.57,1.41,5.35,2.12Z"/><path class="cls-13" d="M223.73,404.36c6.09-.95,8.9,3.36,11.89,7.39-7.58,2.12-13.18-1.06-17.85-6.7,2.19,1.5,4.11,.66,5.96-.69Z"/><path class="cls-15" d="M127.25,244.21c1.08,.02,2.16,.03,3.24,.05-.04,1.96-.08,3.91-.13,5.87l-.95,2.96c-1.89,1.47-1.74,3.79-2.39,5.77-2.16,1.99-4.32,3.98-6.47,5.96l-1.26-2.32c4.82-5.15,5.34-12.18,7.97-18.29Z"/><path class="cls-8" d="M321.04,57.96c-6.45,3.63-13.12,6.77-20.22,8.94l-1.49,.54c-1.39,.16-2.78,.31-4.17,.47-.01-.77-.02-1.53-.03-2.3,.11-.42,.22-.84,.33-1.26,4.61-.78,9.2-1.6,13.02-4.6,3.18,.1,6.01-.81,8.47-2.85,1.37,.35,2.73,.71,4.1,1.06Z"/><path class="cls-15" d="M326.67,77.96c.13,1.92,2.29,2.01,3.03,3.38-8.64,.28-17.34-.57-25.89,1.32-.05-.86-.1-1.71-.15-2.57,.02-1.47,.04-2.93,.06-4.4,1.45,.14,2.9,.28,4.35,.42,5.17,2.64,10.59,2.86,16.16,1.68l2.44,.17Z"/><path class="cls-15" d="M146.37,63.57c-1.78-.71-3.57-1.41-5.35-2.12,6.25,.23,13-2.83,18.44,2.79-5.9-1.44-3.46,1.96-2.57,4.45-.48,1.31-1.37,2.16-2.75,2.46-1.79-4.72-6.36-.27-8.86-2.68,.41-1.62,2.66-2.83,1.1-4.89Z"/><path class="cls-12" d="M60.86,43.65c-.49,.53-.99,1.07-1.48,1.6-4.3,.19-8.58-7.02-12.9-.04l3.12,1.2-.57,1.58c-2.26,1.37-4.71,1.46-7.23,1.06,1.47-4.11,2.94-8.21,4.42-12.32,5.03,1.98,10.3,3.46,14.64,6.91Z"/><path class="cls-13" d="M278.04,306.31c-.94,.66-1.88,1.33-2.82,1.99-3.47-4.89-4.18-11.22-8.27-15.78-.23-2.69-2.66-4.78-2.13-7.69,1.31,.64,2.61,1.28,3.92,1.92,3.1,6.52,6.2,13.04,9.3,19.57Z"/><path class="cls-13" d="M63.87,385.74c-1.14,4.43,1.89,4.66,4.87,4.65,5.16-.03,10.32-.24,15.48-.37-5.92,4.48-12.69,3.45-19.16,2.34-4.53-.78-5.43-3.57-1.18-6.61Z"/><path class="cls-12" d="M21.47,85.83c-5.49-1.55-9.34,1.79-13.4,4.51-2.19,.02-4.38-.04-6.35-1.2,2.26-4.96,7.94-3.62,11.48-6.21,2.93,.46,8.23-5.78,8.27,2.91Z"/><path class="cls-11" d="M92.96,368.5c-.9,.27-1.8,.53-2.71,.79-2.06-1-4.13-2-6.19-2.99,8.52-2.76,7.94-12.3,13.09-17.56-.44,3-.89,5.99-1.33,8.99,.18,3.06-.48,5.98-1.52,8.83-.45,.65-.9,1.3-1.34,1.95Z"/><path class="cls-16" d="M231.12,106.12c-5.03-2.95-2.52-6.64-1.02-10.23,1.87-2.5,2.44-5.41,2.63-8.45,.91-1.06,1.83-2.13,2.74-3.19,1.01,1.26,2.01,2.52,3.02,3.78-.04,.74-.09,1.48-.13,2.22v-.03c-5.3,2.54-5.09,7.63-5.68,12.34,.62,1.68-.77,2.48-1.55,3.55Z"/><path class="cls-1" d="M36.06,75.33c-4.26,1.56-8.24-.17-12.4-.7-2.48-.32-5.27,1.72-7.92,2.7-1.94-.23-3.88-.46-5.82-.69,.4-1.73,1.19-3.46,3.09-3.49,7.75-.13,15.74-2.46,23.04,2.18Z"/><path class="cls-14" d="M265.92,343.25c-2.67-6.18-9.21-9.56-11.59-15.95,1.62-.04,3.25-.08,4.87-.13,3.62,5.03,7.1,10.15,9.31,16.01-.86,.03-1.72,.05-2.59,.08Z"/><path class="cls-3" d="M174.49,301.04c.99,.03,1.98,.07,2.96,.1-1.48,5.39,2.29,10.32,1.34,15.66-.74,6.84,1.19,13.9-1.64,20.57,.43-7.93,1.08-15.92-1.45-23.6-1.4-4.23-1.95-8.38-1.21-12.73Z"/><path class="cls-16" d="M156.87,322.97c-.99-.51-1.98-1.02-2.97-1.53-.76-2.17-.72-4.38-.27-6.6,0,.01,0,.11,0,.11,.95-6.29-.22-13.11,4.61-18.43,.46,.55,.92,1.09,1.38,1.64,.09,.49,.18,.98,.26,1.47-.52,1.93-1.03,3.87-1.55,5.8-1.34,5.78-1.36,11.66-1.47,17.54Z"/><path class="cls-1" d="M195.94,230.04c-2.75-.48-4.91,.46-6.53,2.7-.23-1.03-.45-2.06-.68-3.09,2.51-2.78,1.86-6.09,1.6-9.34-.14-1.68-.12-3.76,1.65-4.23,2.58-.69,2.71,1.83,3.34,3.48,.43,3.29,.87,6.59,1.3,9.89-.23,.2-.46,.4-.68,.6Z"/><path class="cls-11" d="M295.13,65.61c0,.77,.02,1.53,.03,2.3-2.02,1.87-4.54,1.88-7.09,2.22-2.11,.28-5.6-.31-4.64,3.92-.05,1.9-.1,3.79-.14,5.69-.91,.13-1.81,.25-2.72,.38-1.79-3.44,.32-6.99-.32-10.47l1.59-1.27c.55-.89,1.11-1.79,1.66-2.68,.94,0,1.88,0,2.83,0,2.95,1.85,5.87,.17,8.8-.09Z"/><path class="cls-1" d="M268.74,286.74c-1.31-.64-2.61-1.28-3.92-1.92,.3-2.44-1.35-3.49-3.16-4.43l-.35-4.1,.49,.11c2.99,.3,6.29,3.22,8.46-1.79,3.15,5.11-1.51,8.25-1.53,12.13Z"/><path class="cls-6" d="M152.24,258.6c.13-2.08-.08-4.42,3.14-4.17,.47,1.54,.94,3.08,1.42,4.63,.01,5.01-.23,10.03,.11,15.02,.42,6.06-1.78,12.3,1.23,18.18,1.06,.41,2.44,.22,3.01,1.57l.03-.08c-1.33,.08-2.47,.49-3.15,1.74-3.63-1.07-2.69-4.14-2.69-6.59-.02-7.2,.25-14.4,.25-21.59,0-3.26,.68-6.93-3.35-8.69Z"/><path class="cls-7" d="M321.04,57.96c-1.37-.35-2.73-.71-4.1-1.07-.21-.29-.41-.57-.62-.86l1.95-2.29-.05,.04c1.75,.3,3.34,.1,4.46-1.49l-.1,.05c1.21,0,2.26-.33,2.92-1.45,1.1-2.59,4.13-1.5,5.78-3.05,1.52,1.04,3.04,2.07,4.56,3.11-4.48,3.29-10.47,3.38-14.8,7Z"/><path class="cls-4" d="M33.12,50.87c-.93,.02-1.86,.03-2.79,.05-.96-.59-1.93-1.19-2.89-1.78-.9-2.64,2.77-5.24-.09-8.06-.69-.68-.14-1.25,4.59-2.09,2.27,1.66,6.56,2.72,1.3,6.27-.89,.6-.12,3.68-.11,5.61Z"/><path class="cls-3" d="M215.72,65.55c.77-.69,1.54-1.39,2.31-2.08,.45,.22,.9,.44,1.36,.66,2.44,2.19,5.42,1.3,8.21,1.43-2.37,3.56-7.75,1.7-9.96,5.54l-3.1-1.03c-4.28,.72-8.52,1.78-12.91,1.35,3.81-4.08,10.15-2.09,14.08-5.86Z"/><path class="cls-14" d="M169.79,66.74c-2.87-.42-5.74-.84-8.61-1.26,6.55-1.48,11.45-6.2,17.43-8.82,.97,.6,1.94,1.2,2.91,1.79-3.42,3.45-9.4,3.27-11.73,8.28Z"/><path class="cls-3" d="M155.43,180.38c1.84,2.71,1.29,5.82,1.51,8.81-.9,1.13-1.79,2.25-2.69,3.38-2.55,.92-2.78,3.71-4.35,5.42-.56-.97-1.13-1.94-1.69-2.91l7.23-14.7Z"/><path class="cls-13" d="M237.36,412.96c3.37-1.16,1.68-6.13,5.33-7.07,4.03,.5,5.78,3.44,3.88,6.38-2.06,3.19-5.91,3.28-9.21,.69Z"/><path class="cls-1" d="M101.31,76.85c-1.92-.21-3.84-.43-5.76-.64-.2-1.55,.26-3.74-2.15-3.7-1.8,.03-1.71,1.94-2,3.29-.96-.02-1.93-.05-2.89-.07-.02-2.1-.03-4.21-.05-6.31,.37-.36,.73-.73,1.1-1.09,4.06,.94,8.12,1.87,12.19,2.81-.15,1.91-.29,3.81-.44,5.72Z"/><path class="cls-1" d="M17.29,42.18c2,.88,1.97,2.54,1.61,4.3,.45,1.41,1.15,2.48,2.9,2.11,.02,.25-.02,.49-.12,.71-5.12,4.16-7.92,2.64-10.27-5.6,1.96-.51,3.92-1.02,5.88-1.53Z"/><path class="cls-14" d="M89.56,68.33c-.37,.36-.73,.73-1.1,1.09l-.44-.2-.47,.11c-6.5-2.84-13.43-4.68-19.47-8.57,1.34-1.77,3.01-1.64,4.81-.87,4.47,3.73,10.1,4.37,15.43,5.83l1.23,2.6Z"/><path class="cls-4" d="M373.47,39.16c-6.6,.02-13.19,.05-19.79,.07,.01-.5,.03-.99,.05-1.49l.81-1.28c6.95,1.04,13.67-1.06,20.51-1.48-.52,1.39-1.05,2.78-1.57,4.17Z"/><path class="cls-8" d="M95.82,357.72c.44-2.99,.89-5.99,1.33-8.99,.32-5.02,1.63-9.57,5.93-12.73,.29,.41,.57,.82,.85,1.23-.97,3.9-5.79,6.89-2.74,11.73-1.42,3.15-1.32,7.23-5.37,8.76Z"/><path class="cls-16" d="M300.9,90.43c7.7,.67,15.56-1.73,23.16,1.13-7.57,2.68-15.4,1.36-23.13,1.55,0-.89-.02-1.78-.02-2.68Z"/><path class="cls-8" d="M300.9,90.43c0,.89,.01,1.78,.02,2.68-6.34,1.3-12.36-2.08-18.66-1.28-1.56-.54-3.12-1.09-4.67-1.63,1.36-.19,2.71-.37,4.07-.56,1.6,.05,2.68-.76,3.44-2.1,1.32,.13,2.65,.27,3.97,.4,3.41,3.36,7.89,1.67,11.84,2.49Z"/><path class="cls-16" d="M206.57,54.95c-.24-1.43-.49-2.87-.73-4.3-.4-3.09,2.52-7.69-3.69-8.15-1.65-4.58,.03-8.02,3.68-10.8,.7,2.93-.32,6.21,1.76,8.86,.27,4.84-.1,9.63-1.01,14.38Z"/><path class="cls-13" d="M222.19,162.94c-.91,1.01-1.83,2.02-2.74,3.03-.08-.34-.11-.69-.09-1.04,0-2.55-.02-5.09-.02-7.64,2.86-4.16,.64-8.89,1.5-13.27,.55-.1,1.1-.2,1.65-.31,3.11,1.9,.31,5.11,1.65,7.4-.65,3.94-1.29,7.88-1.94,11.82Z"/><path class="cls-14" d="M303.72,75.69c-.02,1.47-.04,2.93-.06,4.4-1.26,.49-2.53,.98-3.79,1.47-.23-3.52-2.96-3-5.21-3.21-2.77-.26-5.67,.49-8.27-1.09,5.64-2.03,11.41-2.73,17.34-1.57Z"/><path class="cls-8" d="M206.12,340.81c.2-.69,.4-1.38,.6-2.07,4.34,2.94,2.41,7.33,2.6,11.23-2.82,5.86-.3,12.21-1.71,18.2l-1.49-27.37Z"/><path class="cls-11" d="M280.47,356.46c0,2.38,.01,4.76,.02,7.14-.47,.92-.93,1.84-1.4,2.76-.99-1.88-1.99-3.75-2.98-5.63,1.35-2.15,.16-3.36-1.62-4.34l.05,.07c-.33-1.63-.66-3.27-.99-4.9,1.63-.16,2.48-1.23,3.05-2.63,.8,1.06,1.61,2.11,2.41,3.17,.14,.97,.29,1.94,.43,2.91,.34,.48,.68,.96,1.02,1.45Z"/><path class="cls-12" d="M360.33,30.39c-.42-.8-.83-1.6-1.25-2.39,1.75-.66,3.46-1.45,5.26-1.93,1.53-.41,3.46-1.7,4.67-.36,1.72,1.92-1.25,3.12-1.48,4.85-2.4-.06-4.8-.12-7.2-.18Z"/><path class="cls-15" d="M282.03,365.06c3.11-1.02,5.72-.77,7.05,2.76-.22,.23-.43,.47-.61,.74-.7,.35-1.4,.7-2.1,1.04-.95,.98-1.91,1.95-2.86,2.93-.53-.05-1.05-.11-1.58-.16-.52-1.38-1.04-2.76-1.56-4.14,.04-1.05,.07-2.09,.11-3.14,.52,0,1.03-.02,1.55-.02Z"/><path class="cls-13" d="M232.75,328.85c-.63-.03-1.27-.05-1.9-.08,.33-1.9,.67-3.8,1-5.7l.55-11.67c.95-.51,1.9-1.01,2.86-1.52,.71,6.52,0,12.86-2.5,18.96Z"/><path class="cls-15" d="M227.61,65.56c-2.8-.13-5.78,.75-8.22-1.43,2.05,.39,4.09,1.32,6.03-.52,3.28-3.11,7.27-3.17,11.4-2.37,.06,.53,.12,1.06,.18,1.59-.3,.02-.59,0-.89-.05-2.95,.55-5.03,3.8-8.5,2.77Z"/><path class="cls-6" d="M340.85,85.96c1.21,.45,2.42,.91,3.63,1.36,1.93,.47,3.61,1.36,4.92,2.9-3.75,.53-7.6-3.21-11.26,.28-2.17,.87-4.43,1.26-6.78,.97,.05-1.29,.11-2.57,.16-3.86,3.12-.49,6.46,.26,9.33-1.64Z"/><path class="cls-12" d="M375.05,34.98c-6.84,.42-13.56,2.52-20.51,1.48,4.05-5.5,10.33-1.58,15.2-3.6,2.01,.11,4.26-.39,5.31,2.12Z"/><path class="cls-12" d="M23.64,31.81c-1.55,.55-3.1,1.11-4.65,1.66-.92-1.94-5.12-3.25-2.88-5.45,2.37-2.33,5.74-.26,8.32,1.58-.26,.74-.53,1.47-.79,2.21Z"/><path class="cls-1" d="M369.4,80.04c4.23-.64,8.46-1.29,12.7-1.93,.07,2.05,.15,4.1,.22,6.16-4.28-1.02-8.56-2.03-12.84-3.05-.01-.39-.04-.79-.08-1.18Z"/><path class="cls-6" d="M369.74,32.86c-4.87,2.02-11.15-1.89-15.2,3.6-.27,.43-.54,.85-.82,1.28-.64-.48-1.28-.97-1.92-1.45l-.31-2.75c2.95-1.05,5.89-2.1,8.84-3.14,2.4,.06,4.8,.12,7.2,.18,.74,.77,1.47,1.53,2.21,2.3Z"/><path class="cls-6" d="M17.29,42.18c-1.96,.51-3.92,1.02-5.88,1.53-.42-.98-.85-1.96-1.27-2.95,.4-1.52,.79-3.05,1.19-4.57,1.01-.37,2.01-.74,3.01-1.12,.82,3.18,3.98,2.38,6.33,3.19l-3.38,3.91Z"/><path class="cls-1" d="M50.7,78.39c-4.59,.2-9.28,.94-13.2-2.46,5.43-4.71,9.21-.58,13.2,2.46Z"/><path class="cls-8" d="M273.56,351.56c.33,1.63,.66,3.27,.99,4.9-4.49-3.35-6.25-8.48-8.62-13.22,.86-.03,1.72-.05,2.58-.08,2.28,2.44,3.78,5.34,5.05,8.39Z"/><path class="cls-14" d="M281.93,372.36c.53,.05,1.05,.11,1.58,.16,0,3.88,0,7.75,.01,11.63-1.03,1.75,3.59,4.9-1.4,5.68-3.07-5.79,.57-11.65-.19-17.46Z"/><path class="cls-13" d="M107.36,283.63c1.29-4.64,5.62-7.32,7.47-11.59,.94,.92,1.88,1.84,2.82,2.77,.55,.48,1.1,.96,1.66,1.43l-.15,1.54-.09,.16c-4.69-.6-7.29,1.87-8.8,5.97-.97-.09-1.94-.19-2.91-.28Z"/><path class="cls-1" d="M94.23,94.31c3.18-2.14,6.82-.78,10.21-1.35l2.89,.15c1.43,.64,2.86,1.29,4.29,1.93-5.86,1.24-11.7,2.04-17.39-.73Z"/><path class="cls-3" d="M222.19,162.94c.65-3.94,1.29-7.88,1.94-11.82,2.06,6.15,2.19,12.59,2.88,18.95-1.05-1.04-2.1-2.08-3.15-3.12-.52-1.32-1.05-2.64-1.57-3.96l-.1-.05Z"/><path class="cls-13" d="M207.61,368.17c1.41-5.99-1.11-12.35,1.71-18.2,.1,2.5,.2,4.99,.3,7.48-.92,5.01,1.77,9.68,1.34,14.64l-3.19,.24-.15-4.16Z"/><path class="cls-8" d="M218.43,370.8c1.59,.77,2.7,1.83,2.32,3.8-.07,3.12-.15,6.24-.22,9.35-.6-.03-1.2-.06-1.8-.09-.29-.95-.58-1.89-.87-2.84-.47-2.33-.95-4.65-1.42-6.98,.66-1.08,1.33-2.17,1.99-3.25Z"/><path class="cls-12" d="M9.93,76.64c1.94,.23,3.88,.46,5.82,.69-1,1.43-1.99,2.86-2.98,4.29-2.72-.12-5.45-.23-8.17-.35,.06-1.31,.12-2.62,.17-3.93l5.16-.7Z"/><path class="cls-16" d="M259.2,327.17c-1.62,.04-3.25,.08-4.87,.13-1.01-2.91-2.02-5.82-3.03-8.74,1.06-.5,2.11-1,3.16-1.5h1.28c1.15,3.37,2.31,6.74,3.46,10.11Z"/><path class="cls-8" d="M12.95,95.87c3.27-2.85,7.5-3.09,11.41-4.2,0,1.18-.01,2.35-.02,3.53-.91,.35-1.82,.7-2.73,1.05-2.41,.44-4.83,.89-7.24,1.33l-1.42-1.71Z"/><path class="cls-15" d="M232.68,102.57c.6-4.71,.38-9.8,5.69-12.34-.1,1.75-.21,3.5-.31,5.25-1.99,2.21-1.43,6.36-5.38,7.09Z"/><path class="cls-3" d="M161.44,171.89c-1.55-1.73-1.43-3.94-1.7-6.03,1.56-4.73,.93-9.69,1.55-14.52,2.87,6.32,1.26,12.79,.63,19.23-.17,.44-.33,.88-.48,1.33Z"/><path class="cls-15" d="M101.19,348.96c-3.04-4.83,1.78-7.83,2.74-11.73,1.08,.04,2.16,.08,3.24,.11l-5.98,11.61Z"/><path class="cls-14" d="M117.65,274.81c-.94-.92-1.88-1.84-2.82-2.77,.74-3.52,2.67-6.49,4.44-9.53,.42,.77,.84,1.54,1.26,2.31-.96,3.33-1.93,6.66-2.89,9.98Z"/><path class="cls-4" d="M367.9,43.62c-4.64-.29-9.28-.02-13.94,.53,4.91-2.29,10.02-2.4,15.18-2.09-.42,.52-.83,1.04-1.25,1.56Z"/><path class="cls-1" d="M80.59,75.8c-4.88,2.33-10.08,2.72-15.38,2.55,4.44-4.99,10.23-1.85,15.38-2.55Z"/><path class="cls-12" d="M324.23,77.79c-5.57,1.18-10.99,.96-16.16-1.68,5.49-.38,10.86,.36,16.16,1.68Z"/><path class="cls-1" d="M183.29,276.36c-1.25-4.25,1.65-8.1,1.22-12.27,.33-.48,.65-.96,.98-1.44,.05,4.69,2.43,9.76-2.2,13.71Z"/><path class="cls-13" d="M188.73,229.65c.23,1.03,.45,2.06,.68,3.09-.19,.48-.38,.96-.57,1.44-.43,.03-.85,.09-1.27,.17-1.37-.49-2.75-.97-4.13-1.46-.55-3.14,1.31-4.81,3.74-6.14,.52,.96,1.03,1.93,1.55,2.89Z"/><path class="cls-15" d="M209.31,287.83c.96-2.43,1.92-4.85,2.88-7.28,.42,.11,.84,.21,1.27,.32-2.07,3.08,2.88,8.71-3.69,10.15-.15-1.06-.3-2.12-.45-3.18Z"/><path class="cls-1" d="M11.33,36.2c-.4,1.52-.79,3.05-1.19,4.57-1.6-.75-3.14-1.69-2.36-3.76,.67-1.79,2.14-1.51,3.55-.81Z"/><path class="cls-13" d="M205.96,396.05c1.18,2.03,3.09,3.84,1.98,6.56-2.17-1.73-3.46-3.73-1.98-6.56Z"/><path class="cls-1" d="M4.76,77.34c-.06,1.31-.12,2.62-.17,3.93-1.76-.22-4.65,.83-4.59-1.91,.06-2.38,2.88-1.91,4.76-2.02Z"/><path class="cls-13" d="M185.49,262.65c-.33,.48-.65,.96-.98,1.44-.05-4.47-.1-8.94-.14-13.41,.42-1.14,.84-2.29,1.26-3.43,.05,2.9,.1,5.8,.15,8.7-.1,2.24-.19,4.47-.29,6.71Z"/><path class="cls-1" d="M30.33,96.04c.43-.29,.87-.57,1.3-.86,2-.01,4.01-.02,6.01-.04-1.87,4.91-4.36,4.83-7.31,.9Z"/><path class="cls-12" d="M37.64,95.14c-2,.01-4.01,.03-6.01,.04,.43-.7,.87-1.41,1.31-2.11,3.02-.51,6.04-1.02,9.06-1.52l-.04,1.58c-.49,.48-.97,.97-1.46,1.45-.95,.19-1.9,.37-2.86,.56Z"/><path class="cls-8" d="M207.62,372.24c.19,4.87,1.25,9.8-.95,14.51,.32-4.84,.63-9.67,.95-14.51Z"/><path class="cls-12" d="M24.34,95.2c0-1.18,.01-2.35,.02-3.53,.52-.01,1.04-.03,1.56-.04,1.82,.56,2.85,1.79,3.09,3.68-1.56-.04-3.12-.07-4.67-.11Z"/><path class="cls-13" d="M213.94,401.31c1.09,.17,2.35,.1,2.31,1.75-1.79,.81-3.61,.91-5.44,.15,1.04-.63,2.08-1.27,3.13-1.9Z"/><path class="cls-1" d="M14.37,97.58c2.41-.44,4.83-.89,7.24-1.33-1.9,3.26-4.46,2.87-7.24,1.33Z"/><path class="cls-4" d="M218.73,383.86c.6,.03,1.2,.06,1.79,.09,1.81,.67,3.26,1.41,.49,2.87l-.46,.29c-.65-1.16-1.76-1.4-2.94-1.49-.47-.47-.95-.95-1.42-1.42,.85-.12,1.69-.23,2.54-.35Z"/><path class="cls-1" d="M1.72,89.14c1.97,1.16,4.15,1.22,6.35,1.2-1.23,.92-2.47,1.85-3.7,2.77-1.79-.72-2.67-2.04-2.64-3.97Z"/><path class="cls-8" d="M107.36,283.63c.97,.09,1.94,.19,2.91,.28,0,1.92-.12,3.81-1.27,5.46-.68-.54-1.36-1.09-2.04-1.63,.13-1.37,.26-2.74,.39-4.1Z"/><path class="cls-8" d="M158.03,295.48c.67-1.26,1.82-1.67,3.15-1.74-.52,1.48-1.04,2.95-1.56,4.43-.46-.55-.92-1.09-1.38-1.64,.02-.37-.05-.72-.21-1.05Z"/><path class="cls-8" d="M274.49,356.4c1.78,.99,2.97,2.19,1.62,4.34-1.02-1.27-2.29-2.44-1.62-4.34Z"/><path class="cls-16" d="M143.86,95.79c-.01-.88-.02-1.77-.04-2.65,.9-.09,1.8-.17,2.71-.26,.09,.38,.13,.76,.14,1.15l-.1,1.49c-.9,.09-1.8,.18-2.71,.28Z"/><path class="cls-1" d="M54.91,73.82c.15,.07,.39,.12,.43,.23,.04,.11-.12,.3-.19,.45-.15-.07-.4-.12-.44-.23-.04-.12,.12-.3,.19-.46Z"/><path class="cls-16" d="M236.99,62.84c-.06-.53-.12-1.06-.19-1.59,1.46-.06,2.92-.11,4.38-.17,.6,.63,1.2,1.27,1.79,1.9-2-.05-3.99-.09-5.99-.14Z"/><path class="cls-14" d="M280.48,365.08c-.04,1.05-.07,2.09-.11,3.14-.43-.62-.86-1.24-1.28-1.85,.47-.92,.93-1.84,1.4-2.76l-.03-.03c0,.5,.01,1.01,.02,1.51Z"/><path class="cls-13" d="M84.35,389.76c.66-1.63,2.08-2.23,3.61-2.7-1.2,.9-2.41,1.8-3.61,2.7Z"/><path class="cls-1" d="M7.32,95.17c1.57-.52,3.1-.8,4.32,.73-1.44-.24-2.88-.48-4.32-.73Z"/><path class="cls-7" d="M122.82,56.88c-1.27-.33-2.55-.66-3.82-.99,1.45-.35,2.71,.04,3.82,.99Z"/><path class="cls-15" d="M210.97,296.73c1.03,1.43,.97,2.86-.04,4.27,.01-1.42,.02-2.85,.04-4.27Z"/><path class="cls-1" d="M206.5,272.99c.19,1.07,.38,2.14,.57,3.21-.19-1.07-.38-2.14-.57-3.21Z"/><path class="cls-13" d="M160.75,406.96c-.58,.11-1.17,.22-1.75,.33,.58-.11,1.17-.22,1.75-.33Z"/><path class="cls-13" d="M208.02,402.77c.97,.12,1.94,.23,2.9,.35-1.2,1.78-2.1,1.17-2.9-.35Z"/><path class="cls-8" d="M337.23,37.93c-.1-.66-.2-1.31-.3-1.97,.55-.4,1.1-.79,1.65-1.19-.45,1.05-.9,2.11-1.34,3.16Z"/><path class="cls-13" d="M92.96,368.5c.45-.65,.9-1.3,1.34-1.95-.18,.96-.35,1.93-.53,2.89-.37-.23-.64-.55-.81-.94Z"/><path class="cls-8" d="M223.26,366.38c.39-.36,.79-.72,1.18-1.08-.39,.36-.79,.72-1.18,1.08Z"/><polygon class="cls-15" points="127.93 240.61 127.86 241.21 127.57 240.87 127.93 240.61"/><path class="cls-13" d="M65.3,384.38c-.3,.36-.6,.73-.9,1.09,.3-.36,.6-.73,.9-1.09Z"/><path class="cls-13" d="M153.64,314.95s0-.1,0-.11,0,.11,0,.11Z"/><path class="cls-11" d="M146.56,95.52c.03-.5,.07-.99,.1-1.49,.45,.24,.9,.48,1.35,.72,.03,.48,.03,.97-.02,1.45-.48-.23-.96-.45-1.43-.68Z"/><path class="cls-7" d="M299.33,67.44l1.49-.54-1.49,.54Z"/><path class="cls-16" d="M169.79,66.74c2.32-5.01,8.31-4.83,11.73-8.28,.81-3.52-3.95-11.46,6.08-7.69-.4,1.54-.79,3.09-1.19,4.63-3.79,3.88-1.13,8.86-2.23,13.19l-7.16,.28-7.23-2.13Z"/><path class="cls-8" d="M186.42,55.4c.39-1.54,.79-3.09,1.18-4.63,3.75,0,7.5,.01,11.25,.02,0,1.43,0,2.86,0,4.29l.1,2.97c-.46,.53-.92,1.07-1.38,1.6-.07,.85-.13,1.69-.19,2.54-.42,.13-.83,.25-1.25,.38l-2.79-.48c-1.21-3.36-6.75-2.24-6.92-6.68Z"/><path class="cls-12" d="M183.09,26.14c-2.28-3.48-1.97-5.57,2.77-5.98,5.36-.46,10.69-1.29,16.04-1.96,.95,.8,1.91,1.59,2.86,2.38,.13,1.39,.26,2.78,.39,4.17-1.09,.37-2.18,.75-3.27,1.12-2.34-.51-4.74-.72-6.79-2.28-3.35-2.55-5.27-.94-6.43,2.46l-5.59,.08Z"/><path class="cls-11" d="M205.82,31.71c-3.64,2.78-5.33,6.22-3.68,10.8-1.88,2.47-4.34,3.85-7.46,3.98-.03-.51-.05-1.02-.08-1.53,.7-1.37,1.41-2.75,2.11-4.13,.88-2.56,1.54-5.11-.22-7.58-.05-1.31-.1-2.62-.15-3.93,1.85-.25,3.7-.5,5.55-.75l4.15,.94c-.07,.73-.15,1.47-.22,2.2Z"/><path class="cls-8" d="M194.6,44.96c.03,.51,.05,1.02,.08,1.53-6.85,2.55-10.96-.74-12.86-10.3,.46-.46,.91-.93,1.37-1.39l2.81-1.15c.75,1.9,1.51,3.81,2.26,5.71-.07,4.33,2.33,5.87,6.33,5.6Z"/><path class="cls-14" d="M196.34,29.32c.05,1.31,.1,2.62,.15,3.93-3.14-.01-6.27-.03-9.4-.05-.07-2.88-2.37-2.51-4.17-2.87,.06-1.4,.12-2.79,.18-4.19,1.86-.03,3.72-.05,5.59-.08,2.77,.59,5.46,1.35,7.67,3.26Z"/><path class="cls-15" d="M204.76,20.6c-.95-.79-1.91-1.59-2.86-2.38,.54-2.55,1.36-6.57,4.28-4.92,3.37,1.89-.96,4.76-1.42,7.31Z"/><path class="cls-5" d="M198.96,58.04c-.03-.99-.07-1.98-.1-2.97,1.01-1.52,2.01-3.04,3.02-4.57,.62,.09,1.24,.18,1.86,.27-.56,4.41-3.49,8.48-1.96,13.2-.5,0-1,0-1.5,0-.97-.6-1.94-1.2-2.9-1.8,.07-.85,.13-1.69,.2-2.54,.46-.53,.92-1.07,1.38-1.6Z"/><path class="cls-4" d="M182.91,30.33c1.8,.36,4.11-.01,4.17,2.87-.37,.11-.73,.26-1.08,.44-.94,.38-1.88,.77-2.81,1.15-.97-.55-1.95-1.1-2.92-1.65-.05-1.81,1.04-2.55,2.64-2.81Z"/><path class="cls-15" d="M206.04,29.51c-1.38-.31-2.77-.63-4.15-.94,0-.9,0-1.79,0-2.69,1.09-.37,2.18-.75,3.27-1.12,.3,1.58,.59,3.17,.89,4.75Z"/><path class="cls-15" d="M201.88,50.5c-1.01,1.52-2.01,3.05-3.02,4.57,0-1.43,0-2.86,0-4.29,.95-.72,1.95-.93,3.03-.28Z"/><path class="cls-16" d="M180.27,33.14c.97,.55,1.95,1.1,2.92,1.65-.46,.46-.92,.93-1.37,1.39-2.16-.18-2.65-1.21-1.55-3.05Z"/><path class="cls-6" d="M94.35,337.36c.65-5.07,4.69-9.11,4.39-14.47l-.05,.06c.59-.89,1.18-1.77,1.78-2.66,3.73-9.81,7.47-19.62,11.2-29.44l4.37-8.54c.54,3.92-.14,7.66-1.6,11.31-5.1,12.74-10.1,25.52-15.34,38.21-.91,2.21-1.08,5.51-4.76,5.53Z"/><path class="cls-11" d="M145.57,259.45c.34,6.11-4.29,10.21-6.23,15.4-3.76,3.47-6.77,8.2-12.88,7.78-.78-1.17-4.65-1.77-.75-3.8,1.8-.94,2.16-2.46,2.14-4.24l.04-.69c1.06-.14,2.12-.29,3.18-.43,1.29-.47,2.58-.93,3.87-1.4,5.8-2.41,5-9.32,8.89-13.04,.58,.14,1.17,.28,1.75,.41Z"/><path class="cls-3" d="M131.07,273.48c-1.06,.14-2.12,.29-3.18,.43-.47,.25-.94,.5-1.41,.76-1.89,.51-3.78,1.01-5.67,1.52l-.27,.02c-.64-7.5,6.34-11.09,8.73-17.03,.44-.55,.88-1.1,1.33-1.65,2.26,4.36-.95,8.88,.39,13.27,.03,.9,.05,1.79,.08,2.69Z"/><path class="cls-5" d="M120.71,304.03c-2.81,6.47-3.91,13.72-8.81,19.22-2.43-3.49,.45-7.12-.26-10.65,.13-.89,.25-1.78,.37-2.67,3.98-2.32,4.86-6.69,6.82-10.35,.73,.05,1.45,.11,2.18,.16l-.31,4.28Z"/><path class="cls-11" d="M121.01,299.74c-.73-.05-1.45-.11-2.18-.16-.07-1.02-.15-2.04-.22-3.06,.19-.94,.38-1.88,.56-2.82,.34-.43,.35-.86,.02-1.3,.18-4.8,3.49-7.1,7.22-9.08,2.74,1.59,5.31,3.23,1.28,6.21-3.48,2.58-4.38,6.86-6.68,10.21Z"/><path class="cls-8" d="M111.64,312.6c.71,3.53-2.17,7.16,.26,10.65-2.94,4.24-5.87,8.47-8.81,12.71-.15-8.88,4.57-15.99,8.55-23.36Z"/><path class="cls-13" d="M84.06,366.3c2.06,.99,4.12,1.99,6.19,2.99-.19,2.09-.38,4.18-.58,6.34-4.91-1.43-8.04-4.28-9.9-8.55,1.43-.26,2.86-.52,4.29-.78Z"/><path class="cls-14" d="M116.05,282.31c-1.46,2.85-2.91,5.7-4.37,8.54-.95,0-1.9,.02-2.85,.03,.06-.5,.11-1.01,.17-1.51,1.15-1.65,1.27-3.55,1.27-5.46,1.51-4.09,4.11-6.57,8.8-5.97-1.01,1.46-2.02,2.91-3.02,4.37Z"/><path class="cls-8" d="M118.61,296.52c.08,1.02,.15,2.04,.22,3.06-1.97,3.65-2.85,8.02-6.83,10.35,1.25-4.94,2.66-9.8,6.6-13.41Z"/><path class="cls-8" d="M126.48,274.66c.47-.25,.94-.5,1.41-.76l-.04,.69c-.45,.06-.91,.08-1.36,.07Z"/><path class="cls-14" d="M119.16,277.79c.05-.51,.1-1.03,.14-1.54,.41,0,.83-.02,1.24-.04l.27-.02c-.55,.53-1.1,1.07-1.65,1.61Z"/><path class="cls-8" d="M119.19,292.4c.33,.44,.32,.87-.02,1.3-.04-.43-.03-.87,.02-1.3Z"/><path class="cls-10" d="M247.04,288.04c-2.31-3.86-3.3-8.47-6.67-11.73-.03-1-.06-2-.08-3,1.21-1.76,2.42-3.52,.85-5.7-.01-1.41-.03-2.83-.04-4.24-2.41-5.1,1.07-11.75-4.21-16.1l-.03-.05c-.38-.94-.77-1.88-1.15-2.82-.06-.99-.11-1.98-.17-2.97,.88-1.47,.23-2.37-1.13-3.01-.1-.93-.2-1.87-.31-2.8,1.06-1.34,2.11-2.68,3.17-4.02,.34,.14,.42,.36,.24,.68-.25,1.63,.48,2.71,1.94,3.35,.26,1.17,.52,2.34,.79,3.51-.48,3.38,.04,6.35,3.38,8.16,1.57,2.45,3.14,4.91,4.7,7.36-2.42,4.52-.35,7.82,2.94,10.77,.95,1.81,1.9,3.62,2.85,5.44-3.16-.44-5.56,.63-6.96,3.59-.57,1.2-.59,2.61,.81,2.95,5.43,1.31,3.92,6.29,5.37,9.7l-6.27,.93Z"/><path class="cls-6" d="M259.2,327.17c-1.15-3.37-2.31-6.74-3.46-10.11,.1-2.32-.06-4.54-2.26-5.98-.05-1.45-.1-2.9-.15-4.35,1.46-2.46,.27-6.75,4.86-7.06l.76,2.63c-.08,1.57,.6,2.73,1.92,3.53,5.24,14.37,10.49,28.74,15.73,43.11-.57,1.4-1.42,2.47-3.05,2.63-1.27-3.05-2.77-5.95-5.05-8.39-2.2-5.86-5.68-10.97-9.3-16Z"/><path class="cls-5" d="M234.1,235.62c.1,.93,.2,1.87,.3,2.8,.38,1,.75,2,1.13,3.01,.06,.99,.11,1.98,.16,2.97,.38,.94,.77,1.88,1.15,2.82l.03,.05c-.07,2.44-.15,4.88-.22,7.31-4.71-5.83-5.6-5.73-9.89,1.04l-.71-.02-.67,.21-.1,.16c-.84-5.44-4.71-9.3-7.23-13.87-1.19-4.83-6.64-7.2-7.2-12.4,3.32,1.98,6.45,3.53,5.9-2.76,2.19,0,4.38,.01,6.57,.02,.1,1.41,.15,2.82,.31,4.22,.29,2.5-.37,6.38,2.27,6.84,3.56,.61,1.81-3.97,3.41-5.73,.62-.68,1.06-1.54,1.58-2.32,.54,2.18,1.59,4.07,3.19,5.65Z"/><path class="cls-10" d="M213.46,280.87c-.42-.1-.85-.21-1.27-.32,0-1.83,0-3.65,0-5.47,1.87-2.15,1.65-4.75,1.6-7.31,.93-5.9,1.85-11.79,2.78-17.69,2.91,1.97,5.82,3.93,8.73,5.9l.1-.16c-.07,.8-.14,1.6-.21,2.4-.7,.32-1.39,.63-2.09,.94l.05,.72c.52,6.08,1.04,12.15,1.57,18.23-3.59-1.42-6.7-1.3-8.62,2.67-.87,.03-1.75,.06-2.62,.09Z"/><path class="cls-7" d="M231.84,323.07c-.33,1.9-.66,3.8-1,5.7-1.83,7.34-3.68,14.67-5.47,22.02-.61,2.52-.79,5.2-3.08,6.96-3.6-4.12,1.22-9.17-1.47-13.4l1.34-2.21c2.79-11.59,4.5-23.37,6.06-35.18l1.06-3.36,1.14-.07c.29,2.6,.57,5.19,.86,7.78-.03,3.93-.72,7.89,.56,11.75Z"/><path class="cls-7" d="M258.19,299.67c-4.58,.32-3.39,4.6-4.86,7.06-2.1-6.23-4.19-12.46-6.29-18.69,2.09-.31,4.18-.62,6.27-.93,.73-.02,1.47-.04,2.21-.06,.02,.4,.08,.79,.2,1.17,.87,1.74,1.74,3.49,2.6,5.23-.04,2.07-.09,4.14-.13,6.21Z"/><path class="cls-7" d="M224.7,278.1c-.52-6.08-1.04-12.15-1.56-18.22,.05-.24,.03-.48-.05-.72,.7-.31,1.39-.63,2.09-.94,6.19,7.42,4.04,15.81,2.83,24.1-.34-.16-.71-.26-1.09-.3-.38-.17-.79-.26-1.2-.27l-1.01-3.64Z"/><path class="cls-8" d="M228.22,306.96c-1.55,11.81-3.26,23.59-6.05,35.18-2.21-2.85-1.01-5.95-.64-8.98,1.07-8.77,3.83-17.31,3.69-26.25,.3-.08,.6-.13,.91-.16,.7,.07,1.39,.15,2.09,.22Z"/><path class="cls-8" d="M240.28,273.31c.03,1,.05,2,.08,3-6.33-5.4-6.53-12.77-6.52-20.22,1-.06,2-.12,3-.19,.17,3.2-.25,6.72,4.24,7.47,.01,1.41,.03,2.83,.04,4.24-1.19,1.76-1.32,3.68-.85,5.7Z"/><path class="cls-9" d="M226.92,282.02c.38,.04,.74,.14,1.09,.3,2.7,4.46-1.66,8.23-1.22,12.47-1.56-.02-3.11-.05-4.66-.07,.13-2.39,.23-4.78-1.33-6.85,.27-2.58,1.59-4.22,4.19-4.74l1.93-1.11Z"/><path class="cls-16" d="M236.85,255.91c-1,.06-2,.12-3,.19-2.55,2.75-4.97,3.42-7.09-.47,4.29-6.77,5.19-6.87,9.89-1.04,.08,.44,.14,.88,.19,1.32Z"/><path class="cls-4" d="M222.12,294.72c1.56,.03,3.11,.05,4.67,.07-.22,3.98-.44,7.96-.66,11.95-.31,.03-.61,.09-.91,.16-.96,.47-1.92,.94-2.88,1.41,.14-4.34-1.57-8.67,0-13.01l-.23-.59Z"/><path class="cls-14" d="M231.84,323.07c-1.28-3.87-.59-7.83-.56-11.75,.37,0,.74,.03,1.11,.09-.18,3.89-.37,7.78-.55,11.67Z"/><path class="cls-7" d="M253.48,311.08c2.21,1.44,2.36,3.66,2.26,5.98h-1.28c-.06-2.04-1.87-3.79-.99-5.98Z"/><path class="cls-9" d="M258.19,299.67c.04-2.07,.09-4.14,.14-6.2,2.5,1.6,4.99,3.19,7.48,4.78l.4,2.8c.37,.52,.73,1.04,1.1,1.56,4.11,13.37,9.03,26.43,14.73,39.19-3.21,2.79,1.25,7.83-3.01,10.31-.8-1.05-1.61-2.11-2.41-3.17-5.24-14.37-10.49-28.74-15.73-43.11,.23-1.66-.54-2.76-1.93-3.53l-.76-2.63Z"/><path class="cls-4" d="M266.2,301.04c-.13-.93-.27-1.87-.4-2.8,.09-1.88,.18-3.76,.27-5.64,.3,.01,.59-.02,.88-.09,4.09,4.56,4.8,10.89,8.27,15.78,3.5,11.66,7,23.32,10.49,34.97-.82,.01-1.62,.03-2.43,.05l-1.25-1.52c-5.71-12.77-10.63-25.83-14.73-39.19-.37-.52-.73-1.04-1.1-1.56Z"/><path class="cls-4" d="M306.29,381.41c.47,3.37,2.76,4.12,5.71,4.06,3.38-.08,6.7,.13,9.28,2.79-7.1,.08-14.21,1.05-21.07-2.1-2.87-1.32-5.02-2.65-5.07-6.06,.92-.2,1.84-.39,2.75-.59,2.8,.63,5.6,1.27,8.4,1.9Z"/><path class="cls-3" d="M297.89,379.51c-.92,.2-1.84,.39-2.75,.59-1.91,.06-3.39,.92-4.51,2.45-9.16-3.32-1.84-6.52,.07-9.77,.85,.37,1.7,.74,2.56,1.12h.42l.72,1.81,.34,.37c1.35,.78,2.3,.34,2.95-.98l.34,.17c3.61,1.53,1.14,2.87-.14,4.25Z"/><path class="cls-6" d="M288.47,368.55c.18-.26,.39-.51,.61-.73,7.02-2.37,7.99,2.53,8.95,7.45l-.34-.17c-.98,.33-1.97,.65-2.95,.98l-.34-.37c-.24-.6-.48-1.2-.72-1.81h-.42c.14-2.95-2.14-2.89-4.06-3.26l-.73-2.08Z"/><path class="cls-8" d="M287.85,354.65v4.18c-2.32-1.98-5.69-3.74-1.46-6.92,.47,0,.94,0,1.41,.04l-.04-.02c.03,.91,.05,1.81,.08,2.72Z"/><path class="cls-7" d="M287.8,351.95c-.47-.03-.94-.04-1.41-.04-1.04-2.87-2.07-5.73-3.11-8.6,.81-.02,1.62-.03,2.43-.05,1.76,2.64,2.44,5.54,2.09,8.68Z"/><path class="cls-7" d="M287.85,354.65c-.03-.91-.05-1.81-.08-2.72,1.22,.87,1.13,1.78,.08,2.72Z"/><path class="cls-11" d="M280.48,365.08c0-.5-.01-1.01-.02-1.51,.52,.5,1.05,.99,1.57,1.49-.52,0-1.03,.02-1.55,.02Z"/><path class="cls-9" d="M280.47,356.46c-.34-.48-.68-.97-1.02-1.45,.34,.48,.68,.96,1.02,1.45Z"/><path class="cls-5" d="M220.83,144.02c-.86,4.38,1.36,9.12-1.5,13.27-.93-.1-1.87-.19-2.8-.29l.03,.03c-2.68-5.11-6.76-1.84-10.31-1.73-.55-2.84-1.24-5.66-1.6-8.52-.77-6.14,.33-11.98,3.31-17.43l.56-.02c2.39,2.7,2.51-.95,3.78-1.36,1.21-.41,2.42-.82,3.62-1.23,5.9,4.54,2.18,11.82,4.91,17.27Z"/><path class="cls-14" d="M227.76,95.52c-2.85,2.1-5.15,5.65-9.56,3.54-5.88-4.61-13.01-2.4-19.52-3.54-.36-.33-.73-.66-1.09-.99,.03-.54,.06-1.08,.1-1.63,5.07,.06,10.11,2.15,16.48,.51-5.38-3.77-10.62-2.56-15.32-3.62l.05-2.36c2.55,.33,5.09,.7,7.65,.98,2.03,.23,5.03,1.25,5.69-.99,1.04-3.55-3.02-2.47-4.67-3.68l-.41-.34c1.66-.64,3.31-1.29,4.97-1.93,1.42,.03,2.84,.07,4.25,.1,3.48,7.04,9.24,9.41,14.51,5.98-1.04,2.65-2.08,5.31-3.12,7.96Z"/><path class="cls-8" d="M216.71,100.5l-.19,2.74c-3.64,.83-9.86-2.25-8.75,5.77,2.55,3.4,3.34,6.81,.03,10.22-.99,.59-1.98,1.19-2.97,1.78-2.11-.33-4.57-.49-1.48-3.21,.09-.15,.3-.33,.26-.45-.09-.31-.28-.59-.43-.88-1.39-1.68-5.79-.79-4.08-5.26,.65-1.7-1.66-1.83-2.99-2.17,.25-3.43,4.47-5.75,2.71-9.73,2.74-1.36,3.28,1.29,4.59,2.53,.32,.72,.37,1.73,1.55,1.48,.04,0-.13-1.02-.2-1.57,3.65-3.53,7.97-.84,11.95-1.26Z"/><path class="cls-14" d="M207.8,119.23c3.31-3.42,2.52-6.82-.03-10.22,2.87,.96,5.74,.41,8.6,.02,6.18,2.75,.31,7,1.29,10.39-3.29-.06-6.58-.13-9.87-.19Z"/><path class="cls-8" d="M215.92,126.76c-1.21,.41-2.42,.82-3.62,1.23-2-1.61-3-.42-3.78,1.36l-.56,.02c-2.79-2.27-7.57-1.26-9.14-5.53,.17-.17,.34-.35,.51-.52,2.05-.18,4.25,.6,6.07-1,3.77,0,7.55,.01,11.32,.02-.26,1.48-.53,2.95-.79,4.43Z"/><path class="cls-7" d="M203.41,101.84c-1.31-1.24-1.84-3.89-4.59-2.54-.04-1.27-.09-2.53-.14-3.79,6.51,1.15,13.64-1.06,19.52,3.55-.5,.48-1,.96-1.5,1.44-3.98,.42-8.29-2.27-11.95,1.26-.45,.02-.9,.05-1.35,.09Z"/><path class="cls-11" d="M216.37,109.03c-2.87,.4-5.74,.94-8.6-.02-1.1-8.02,5.11-4.95,8.75-5.77v.02c.5,.48,1,.96,1.5,1.44,1.09,2.06-1.33,2.8-1.64,4.33Z"/><path class="cls-11" d="M216.72,122.33c-3.77,0-7.55-.01-11.33-.02-.29-.39-.48-.82-.56-1.29,.99-.59,1.98-1.19,2.97-1.78,3.29,.06,6.58,.13,9.87,.19,.17,1.13,0,2.14-.94,2.91Z"/><path class="cls-13" d="M227.76,95.52c1.04-2.65,2.08-5.31,3.13-7.97,.32-.3,.67-.54,1.05-.74,.26,.22,.53,.43,.79,.64-.18,3.03-.76,5.94-2.63,8.44-.78-.13-1.56-.25-2.34-.38Z"/><path class="cls-8" d="M218.02,104.7c-.5-.48-1-.96-1.5-1.44,.5,.48,1,.96,1.5,1.44Z"/><path class="cls-4" d="M42,91.54c-3.02,.51-6.04,1.02-9.06,1.52,.34-.34,.78-.63,1-1.03,1.91-3.52,1.35-9.4,8.04-8.31,1.94-.06,3.87-.13,5.81-.19,0,.72-.01,1.44-.02,2.16-1.99,1.14-1.5,2.34,.3,2.71,2.74,.56,5.59,.64,8.39,.92v.55c-4.81,.54-9.81-.44-14.45,1.67Z"/><path class="cls-3" d="M47.77,83.54c-1.94,.06-3.87,.13-5.81,.19,5.3-4.27,11.53-.83,17.2-2.07,.06,.34,.11,.68,.14,1.02l.05,.32-5.6,.1c-1.99,.15-3.99,.29-5.98,.44Z"/><path class="cls-6" d="M94.1,62.57c2-.07,4.01-.14,6.01-.21,.76,.1,1.51,.2,2.26,.3,6.65,3.15,13.37,6.07,20.99,5.58,2.98,1.6,6.05-3.98,9,.11,1.61,4.11,5.25,2.59,8.21,2.95,.76,1.44,2.19,1.06,3.41,1.26-1.72,4.28-5.64,2.79-8.78,3.36-6.81-4.6-14.28-4.96-22.05-3.48-1.91,.04-3.82,.08-5.73,.11-.2-1.92-.87-3.52-2.85-4.25-3.53-1.84-8.48-1.09-10.48-5.73Z"/><path class="cls-10" d="M123.37,68.23c-7.62,.5-14.34-2.42-20.99-5.58,7.42,.26,15.17-.72,20.99,5.58Z"/><path class="cls-3" d="M143.99,72.56c-1.22-.2-2.65,.18-3.41-1.26,.56-.99,1.11-1.98,1.66-2.97,1.01,.05,2.01,.09,3.02,.14,2.49,2.42,7.06-2.04,8.85,2.68-1.51,1.03-3.02,2.05-4.52,3.08-1.87-.56-3.73-1.11-5.6-1.67Z"/><path class="cls-15" d="M142.24,68.33c-.55,.99-1.11,1.98-1.66,2.97-2.96-.36-6.6,1.15-8.21-2.96,3.29,0,6.58-.01,9.87-.02Z"/><path class="cls-9" d="M219.36,164.93c-.02,.35,.01,.69,.09,1.04,0,1.15,.01,2.3,.02,3.45-1.44,1.25-2.88,2.5-4.32,3.75-3.41,.93-7.19-.79-10.41,1.45-1.76-1.83-2.66-4.76-5.91-4.73-.02-1.69-.04-3.38-.07-5.07,1.1-1.15,2.21-2.3,3.31-3.45,1.92-.44,4.26,2.54,5.77-.45,1.92-3.79,5.43-3.48,8.73-3.89l-.03-.03c-.23,3.06,1.35,5.48,2.83,7.93Z"/><path class="cls-8" d="M228.68,193.28c1.13,3.44,2.27,6.88,3.4,10.31,.64,.51,1.27,1.01,1.91,1.52l-.04-.09c-.16,2.91-.27,5.81,1.27,8.47-1.88,2.03-.03,4.2-.23,6.29-1.74,.43-3.48,.86-5.22,1.29-4.21-6.09-4.14-13.39-5.71-20.23,1.55-2.52,3.09-5.04,4.64-7.56Z"/><path class="cls-12" d="M228.68,193.28c-1.55,2.52-3.09,5.04-4.64,7.56-1.49-1.25-2.81-2.76-4.9-3.05-.78,0-1.55,0-2.33,0-.12-.46-.22-.91-.31-1.38,.02-.5,.04-1,.06-1.51,1.41-.54,1.18-1.09,.01-1.65l.24-3.85,1.42-.37c2.6-.68,5.19-1.36,7.01-3.58,1.15,2.61,2.29,5.21,3.44,7.82Z"/><path class="cls-7" d="M235.22,213.49c-1.54-2.66-1.43-5.56-1.27-8.47,2.08,1.25,3.9,3.07,6.59,2.95-2.18,4.75,1.72,8.02,3.06,11.85,1.17,3.34,3.63,6.22,3.75,9.98-6.38-3.71-6.42-12.12-12.13-16.32Z"/><path class="cls-9" d="M225.25,185.46c-1.81,2.21-4.41,2.9-7.01,3.58-1.2-3.02-4.23-4.15-6.39-6.18,.81-1.36,1.63-2.71,2.44-4.07l4.89,2.68c2.62,.42,5.42,.57,6.07,3.98Z"/><path class="cls-4" d="M219.18,181.48c-1.63-.89-3.26-1.79-4.89-2.68,.28-1.87,.57-3.75,.85-5.62,1.44-1.25,2.88-2.5,4.32-3.76,2.84,4.09-.15,8.04-.29,12.06Z"/><path class="cls-13" d="M222.29,162.99c.52,1.32,1.05,2.64,1.57,3.96-.52-1.32-1.05-2.64-1.57-3.96Z"/><path class="cls-7" d="M233.99,205.11c-.64-.51-1.27-1.01-1.91-1.52,1.39-.45,1.73,.43,1.91,1.52Z"/><path class="cls-6" d="M235.22,213.49c5.71,4.2,5.75,12.61,12.13,16.32,.18,.67,.37,1.35,.54,2.02-1.16,5.46-1.29,10.86,.94,16.12,.98,2.32,1.24,4.6-.52,6.71-1.57-2.45-3.14-4.91-4.7-7.36-.02-3.18-.93-5.99-3.38-8.16-.26-1.17-.52-2.34-.79-3.51,0-1.49-.5-2.69-1.94-3.35,.18-.32,.1-.55-.24-.67-.76-3.94-1.53-7.88-2.29-11.83,.2-2.09-1.64-4.26,.23-6.29Z"/><path class="cls-7" d="M248.31,254.67c1.75-2.12,1.5-4.39,.52-6.71-2.23-5.26-2.1-10.66-.94-16.12,3.51,2.84,3.42,7.31,5,11.03,.33,.61,.66,1.22,1,1.83,.3,6.63-.99,13.28,.35,19.89-.99,.29-1.99,.58-2.99,.87-3.29-2.96-5.36-6.26-2.94-10.78Z"/><path class="cls-3" d="M255.52,287.05c-.74,.02-1.48,.04-2.21,.06-1.44-3.41,.07-8.4-5.36-9.7-1.4-.34-1.38-1.74-.81-2.95,1.4-2.96,3.8-4.03,6.96-3.59,.1,.29,.21,.59,.33,.88,.46,1.53,.92,3.06,1.38,4.59,.12,3.58,1.86,7.2-.29,10.72Z"/><path class="cls-10" d="M255.52,287.05c2.16-3.52,.41-7.14,.29-10.72,1.84-.01,3.67-.02,5.51-.04,.12,1.37,.23,2.73,.35,4.1-.51,2.12-1.03,4.24-1.54,6.36-1.47,.49-2.94,.98-4.42,1.47-.11-.38-.18-.77-.2-1.17Z"/><path class="cls-16" d="M254.43,271.75c-.12-.29-.23-.58-.33-.88-.95-1.81-1.9-3.63-2.85-5.44,1-.28,1.99-.57,2.99-.86,1.64,2.35,2.08,4.73,.19,7.17Z"/><path class="cls-16" d="M253.89,244.69c-.33-.61-.66-1.22-1-1.83,.33,.61,.66,1.22,1,1.83Z"/><path class="cls-3" d="M188.73,229.65c-.52-.96-1.03-1.93-1.55-2.89-.11-3.17,.95-6.37-2.43-9.01-2.83-2.2,1.75-4.45,.97-6.99,1.54-1.57,1.37-3.54,1.32-5.49,.71-1.82,1.42-3.64,2.13-5.46,.91-.63,1.83-1.26,2.74-1.89,1.44,1.47,2.43,3.53,4.84,3.76,5.72,.54,2.89,3.6,1.8,6.14-2.57,1.44-1.94,3.6-1.13,5.64,1.09,2.72,.17,4.6-2.09,6.1-.64-1.66-.77-4.18-3.34-3.49-1.77,.48-1.79,2.55-1.65,4.23,.27,3.26,.92,6.57-1.6,9.34Z"/><path class="cls-6" d="M180.18,238.53c-.04,1.93-.08,3.86-.12,5.79-6.08,2.46-4.68,4.89,.02,7.32-.02,1.44-.04,2.88-.07,4.32-2.5,1.26-2.83,2.73-.42,4.45,.02,2.25,.03,4.5,.05,6.75-.37,.12-.73,.26-1.09,.41l-4.25,.16c-2.12-10.54-2.68-21.22-2.98-31.93,1.39-1.56,2.78-3.12,4.18-4.68,3.47,1.27,.72,6.45,4.67,7.42Z"/><path class="cls-5" d="M187.03,205.27c.04,1.95,.22,3.93-1.32,5.49-5.47,2.82-8.75,7.24-9.77,13.32l-.11,.03c-4.78,.14-6.41-2.55-6.19-6.9,5.33-1.14,10.46-5.95,8.86-9.54-3.12-6.99,2.07-7.8,4.95-10.68l1.55,.56c-.17,2.8-.98,5.77,2.04,7.73Z"/><path class="cls-3" d="M175.51,231.11c-1.39,1.56-2.78,3.12-4.18,4.68-1.85,2.8-3.7,5.61-5.56,8.42-2.32-.5-4.19,.4-5.89,1.86,0-2.27-.02-4.55-.03-6.82,1.98-1.46,3.04-3.49,3.62-5.82,6.09-.49,10.35-3.4,12.34-9.32l.11-.03c2.37,.83,4.52-9.4,7.05-.14h0c-2.01,.27-3.51,1.23-4.38,3.1-1.03,1.35-2.07,2.71-3.1,4.06Z"/><path class="cls-4" d="M174.32,267.72c1.42-.05,2.83-.11,4.25-.16,.32,2.97-.07,6.04,1.31,8.85,.1,.97,.19,1.94,.29,2.91-.52,.96-1.05,1.93-1.57,2.89-8.05-2.88-3.19-9.56-4.27-14.49Z"/><path class="cls-3" d="M185.63,247.25c-.42,1.15-.84,2.29-1.26,3.43-1.98-1.83-.98-4.22-1.2-6.37,.23-.52,.47-1.03,.7-1.55-.14-3.29-.29-6.58-.43-9.86,1.38,.49,2.75,.97,4.13,1.46,.72,4.51-.6,8.7-1.94,12.9Z"/><path class="cls-4" d="M175.51,231.11c1.03-1.35,2.07-2.71,3.1-4.06,3.86,3.37,1.64,7.58,1.56,11.49-3.95-.97-1.2-6.15-4.67-7.42Z"/><path class="cls-4" d="M180.09,251.64c-4.7-2.42-6.1-4.86-.02-7.32,0,2.44,.02,4.88,.02,7.32Z"/><path class="cls-5" d="M179.87,276.41c-1.38-2.81-.98-5.88-1.31-8.85,.36-.15,.72-.28,1.09-.41,.07,3.08,.14,6.17,.21,9.25Z"/><path class="cls-4" d="M179.6,260.41c-2.41-1.72-2.08-3.19,.42-4.45-.14,1.48-.28,2.97-.42,4.45Z"/><path class="cls-13" d="M183.86,242.75c-.23,.52-.47,1.04-.7,1.55,.23-.52,.47-1.04,.7-1.55Z"/><path class="cls-13" d="M183,223.94h0Z"/><path class="cls-14" d="M164.18,113.39c3.47-5.73,1.63-10.27-3.16-14.16,2.61-4.05,4.95-9.21,10.14-2.43-.31,.97-.6,1.93-.9,2.91-.58,1.68-1.16,3.36-1.74,5.04,2.78,1.82,3.27,4.94,4.34,7.72l-.02,2.42-8.65-1.5Z"/><path class="cls-8" d="M171.17,96.8c-5.2-6.79-7.54-1.62-10.15,2.43-.91-1.84-1.83-3.68-2.75-5.52,.99-1.69,1.99-3.38,2.98-5.06,2.8-1.35,5.61-2.71,8.41-4.06,1.19,.05,2.39,.09,3.58,.14,2.02,4.49,.73,8.41-2.08,12.08Z"/><path class="cls-16" d="M166.01,145.77c-1.17-3.46,2.06-7.27-.81-10.6-.23-1.82-.47-3.63-.71-5.45,2.4,.18,4.8,.37,7.2,.55,0,0-.2-.03-.2-.03-.4,.59-.8,1.18-1.21,1.77-.16,.64-.31,1.27-.47,1.91,.11,2.95,.21,5.9,.32,8.84l-.1,2.66-4.02,.35Z"/><path class="cls-13" d="M164.18,113.39c2.88,.5,5.77,1,8.65,1.5l.04,.04c.12,2.69,4.35,1.31,4.21,4.25-2.39,3.17-7.37-2.03-9.23,2.86l-1.64,.54c-2.56-2.64-3.28-5.69-2.03-9.18Z"/><path class="cls-10" d="M166.21,122.57c.55-.18,1.1-.36,1.64-.54,2.55,.34,4.95,1.39,7.69,.87,2.95-.56,2.31,1.34,1.6,3.02-1.83,.18-3.68,.33-4.75,2.18-2.11-.61-4.22-1.23-6.33-1.84,.05-1.23,.1-2.46,.15-3.69Z"/><path class="cls-5" d="M161.25,88.64c-.99,1.69-1.99,3.37-2.98,5.06-1.39-1.59-2.78-3.18-4.17-4.77-.15-1.57-.31-3.14-.46-4.71-.06-.53-.13-1.06-.19-1.59l.13-.69c5.02-.59,4.86,4.76,7.68,6.69Z"/><path class="cls-13" d="M166.06,126.25c2.11,.61,4.22,1.23,6.32,1.84-.24,.72-.47,1.45-.71,2.17-2.4-.18-4.8-.37-7.2-.55,.53-1.15,1.05-2.31,1.58-3.46Z"/><path class="cls-4" d="M41.81,49.05c2.52,.4,4.97,.3,7.23-1.06,2.99,.94,6.43,.49,8.92,2.93h0l-.06,1.53c-1,.47-1.99,.94-2.99,1.41-4.72-1.48-9.77,.89-14.44-1.22,2.18-.55-2.61-3.7,1.34-3.6Z"/><path class="cls-5" d="M130.36,250.13c.04-1.96,.08-3.91,.13-5.87,3.82-10.31,7.59-20.64,11.5-30.92,1.01-2.66,2.08-5.38,4.47-7.24,.86,4.67-4.41,8.67-1.47,13.55-.86,4.47-2,8.85-4.27,12.85-7.09,3.74-5.84,12.37-10.35,17.62Z"/><path class="cls-7" d="M144.98,219.66c-2.93-4.89,2.34-8.89,1.47-13.55,.47-.85,.93-1.7,1.4-2.55,.52-.67,1.04-1.35,1.55-2.02,.16-1.18,.33-2.37,.49-3.55,1.57-1.71,1.8-4.5,4.35-5.42-.04,2.25-.08,4.5-.11,6.75-3.05,6.78-6.1,13.57-9.15,20.35Z"/><path class="cls-5" d="M149.41,201.53c-.52,.67-1.04,1.35-1.55,2.02,.52-.67,1.04-1.35,1.55-2.02Z"/><path class="cls-14" d="M351.49,33.53c.1,.92,.21,1.84,.31,2.75,0,1.01,0,2.03-.01,3.04-1.84,.6-3.68,1.2-5.52,1.79-.26-.26-.52-.51-.78-.77-.95-1.77-1.89-3.54-2.84-5.31,2.78-1.42,5.75-1.81,8.83-1.51Z"/><path class="cls-8" d="M351.79,39.32c0-1.01,0-2.03,.01-3.04,.64,.48,1.28,.97,1.92,1.45-.02,.5-.03,.99-.05,1.49-.63,.03-1.26,.06-1.89,.09Z"/><path class="cls-14" d="M346.27,41.12c-.83,.33-1.18,.17-.77-.76,.26,.25,.52,.51,.77,.76Z"/><path class="cls-6" d="M281.66,89.64c-1.36,.19-2.71,.37-4.07,.56-8.06-.65-15.85,1.54-23.78,2.19-4.69,.38-9.65,1.95-13.87-1.78,.89-.19,1.77-.38,2.66-.58,6.74-2.26,14.51-2.4,19.03-9.24,.47,0,.68-.24,.63-.72,4.97,2.67,10.57,1.6,15.82,2.62,1.75,.34,2.4-1.1,2.44-2.71l.04,.13c.91-.12,1.81-.25,2.72-.38,3.07,1.93,10.38,.87,5.78,8.21-1.32-.13-2.65-.26-3.97-.4-1.55,.04-2.61,.88-3.44,2.1Z"/><path class="cls-10" d="M299.87,81.55c1.26-.49,2.53-.98,3.79-1.47,.05,.86,.1,1.71,.15,2.57-.33,.31-.68,.61-.96,.96-.04,.05,.2,.49,.38,.55,6.8,2.15,13.88,1.32,20.83,1.97-.01,.31-.02,.63,0,.94-7.65,.03-15.31,.34-22.94,0-5.63-.25-4.5-2.84-1.24-5.52Z"/><path class="cls-9" d="M324.04,87.07c0-.31,0-.63,0-.94,4.81-.65,9.63-1.3,14.44-1.95,.78,.59,1.57,1.18,2.35,1.77-2.87,1.89-6.21,1.15-9.33,1.64-2.49-.17-4.98-.35-7.48-.52Z"/><path class="cls-14" d="M369.06,85.66c2.59,1.18,5,3.21,8.16,1.76-3.34,5.5-7.74,1.37-11.97,2.54,.59-3.25,2.66-3.25,3.82-4.3Z"/><path class="cls-11" d="M349.4,90.22c-1.31-1.53-2.99-2.43-4.92-2.9,1.36-2.29,3.2-3.94,5.91-4.41-1.26,2.39,4.48,4.67,.11,7.11-.37,.06-.73,.12-1.1,.2Z"/><path class="cls-6" d="M350.23,90.12c.9,.08,1.8,.15,2.69,.23-.98,.86-1.87,.74-2.69-.23Z"/><path class="cls-4" d="M369.4,80.04c.04,.39,.07,.79,.08,1.18-2.38-2.06-8.21,2.96-8.21-3.99,2.89,.42,5.65,1.22,8.13,2.82Z"/><path class="cls-9" d="M216.44,374.05c.47,2.33,.95,4.65,1.43,6.98-1.4,.05-2.81,.11-4.21,.16-.9-3.03-1.81-6.06-2.71-9.09,.44-4.96-2.25-9.64-1.33-14.65,3.73-4.54,2.8-10.28,3.11-15.34,.72-11.69,4.23-23.36,1.06-35.16,.03-5.65-1.52-11.72,4.26-15.82,.47,1.28,.93,2.57,1.4,3.85-1.86,1.59-3.23,3.43-2.97,6.06,.43,3.5-1.28,7.56,2.65,10.14,.5,.07,.99,.14,1.49,.22-1.65,11.87-3.45,23.72-4.91,35.61-1.11,9.02-1.79,18.09,.74,27.04Z"/><path class="cls-7" d="M213.78,306.95c3.18,11.81-.34,23.48-1.06,35.16-.31,5.06,.62,10.8-3.11,15.34-.1-2.49-.2-4.98-.3-7.48-.19-3.91,1.75-8.3-2.6-11.24-1.77-11.51,2.22-21.74,7.06-31.78Z"/><path class="cls-3" d="M224.98,283.14c-2.6,.51-3.93,2.16-4.19,4.74-.95,.57-1.9,1.14-2.84,1.71-.62-2.94-1.24-5.88-1.86-8.81,1.91-3.97,5.03-4.09,8.62-2.67,.34,1.22,.67,2.43,1.01,3.65-.24,.46-.48,.92-.72,1.39Z"/><path class="cls-10" d="M217.94,289.59c.95-.57,1.9-1.14,2.84-1.71,1.56,2.07,1.46,4.46,1.33,6.85l.23,.59c-.97-.11-1.94-.22-2.91-.33-.47-1.28-.93-2.57-1.4-3.85-.03-.51-.06-1.03-.1-1.54Z"/><path class="cls-6" d="M286.33,65.7c-.94,0-1.88,0-2.83,0-.55,.89-1.11,1.79-1.66,2.69-.53,.42-1.06,.85-1.59,1.27-.9,.52-1.8,1.03-2.7,1.55-6.01,.01-12.02-.1-18.02,.1-2.13,.07-5.2-.76-5.36,3.06,.04,.89,.08,1.79,.11,2.68-4.11-.57-8.22-1.13-12.32-1.7l-.55-3.89c2.17-1.58,5.44-.62,7.22-3.11,1.95-.04,3.9-.08,5.85-.12,6.49,.68,12.35-2.82,18.74-2.83,3.08-.71,4.13-2.95,4.35-5.81,4.31-1.56,8.63-3.12,12.94-4.67,.06,1.59,.13,3.18,.19,4.77-.51,1.42-1.01,2.84-1.52,4.26l-2.86,1.75Z"/><path class="cls-6" d="M254.6,62.91c4.67-1.34,9.34-2.69,14.02-4.03,1.54,1.67,3.07,3.33,4.61,5-6.69-1.55-12.7,1.36-18.9,2.94l.28-3.91Z"/><path class="cls-7" d="M254.6,62.91c-.09,1.3-.19,2.6-.28,3.91,.04,.47,.09,.94,.16,1.41-1.95,.04-3.9,.08-5.85,.12-2-.46-4-.91-6-1.37l-6.53-4.19c.29,.05,.59,.07,.89,.05,2,.05,3.99,.09,5.99,.14,3.88,1.55,7.75,1.07,11.62-.07Z"/><path class="cls-7" d="M273.22,63.87c-1.54-1.66-3.07-3.33-4.61-5,3.39-4.87,5.89,1.52,8.96,.71-.22,2.86-1.27,5.1-4.35,5.81,0-.51,0-1.01,0-1.52Z"/><path class="cls-7" d="M290.71,59.68c-.06-1.59-.13-3.17-.19-4.77,.79-.86,1.59-1.71,2.38-2.56,1.99,1.41,5.58-.83,6.56,2.88-.98,.51-1.95,1.03-2.93,1.54-1.2,.96-2.4,1.93-3.59,2.89h-2.23Z"/><path class="cls-6" d="M216.44,374.05c-2.53-8.95-1.85-18.02-.74-27.04,1.46-11.89,3.26-23.74,4.92-35.61,.58-1.03,1.15-2.05,1.73-3.08,.96-.47,1.92-.94,2.88-1.41,.14,8.94-2.62,17.48-3.69,26.25-.37,3.03-1.57,6.13,.64,8.98-.45,.74-.9,1.48-1.35,2.21-2.37,5.24-1.37,10.81-1.61,16.25-1.12,3.33-.91,6.76-.78,10.19-.66,1.08-1.33,2.17-1.99,3.25Z"/><path class="cls-8" d="M219.2,360.6c.24-5.45-.76-11.02,1.61-16.25,2.7,4.22-2.12,9.27,1.47,13.39-.56,1.46-1.56,2.44-3.09,2.86Z"/><path class="cls-6" d="M57.89,52.46l.06-1.54h0c-2.49-2.44-5.94-1.98-8.92-2.93,.19-.53,.38-1.05,.56-1.58,.36-.22,.69-.5,.97-.82,2.38,.38,4.75,.77,7.13,1.15,10.41,3.38,20.87,6.64,30.71,11.56-7.13,1.54-13.32-2.51-20.05-3.34-3.23-1.91-7.41,.16-10.46-2.51Z"/><path class="cls-10" d="M57.7,46.74c-2.38-.38-4.75-.77-7.13-1.15-1.36-.13-2.72-.25-4.09-.38,4.32-6.98,8.6,.22,12.9,.04-.56,.5-1.13,1-1.69,1.5Z"/><path class="cls-4" d="M21.8,48.6c-1.75,.37-2.45-.7-2.9-2.11,.97,.7,1.93,1.41,2.9,2.11Z"/><path class="cls-16" d="M290.7,372.78c-1.91,3.24-9.23,6.44-.07,9.77q-.94,2.65-7.11,1.61c0-3.88,0-7.75-.01-11.63,.96-.97,1.91-1.95,2.86-2.93,.56,.94,1.13,1.89,1.69,2.83,.88,.12,1.76,.23,2.64,.35Z"/><path class="cls-9" d="M56.44,89.32c-2.8-.28-5.64-.35-8.39-.92-1.8-.37-2.29-1.57-.3-2.71,11.22,2.49,22.44,1.4,33.68,.16,1.63-.18,2.24-.62,1.26-2.16,0-.73,0-1.45,0-2.18,2.99-.11,5.79,1.93,8.86,.78l-.07,.42c0,.94,0,1.88,0,2.82-1.82,3.49-5.22,3.08-8.27,3.18-8.92,.29-17.85,.42-26.78,.61Z"/><path class="cls-4" d="M104.59,68.3c1.98,.73,2.65,2.33,2.85,4.25-2.73,5.48,3.72,3.31,4.73,5.68-1.18,1.52-.47,4.39-3.36,4.69-5.77-.25-11.52-1.66-17.31-.21l.07-.42c-.07-.91-.13-1.82-.2-2.73,3.44-.12,6.97,.66,10.28-.68,2.03-.82,.83-1.51-.34-2.02,.14-1.91,.29-3.81,.43-5.72,.95-.95,1.89-1.89,2.84-2.84Z"/><path class="cls-6" d="M82.7,83.69c.98,1.54,.37,1.98-1.26,2.16-11.24,1.25-22.46,2.34-33.68-.16,0-.72,.01-1.44,.02-2.16,1.99-.15,3.98-.29,5.98-.44,1.89,1.19,3.76,1.16,5.6-.1l-.05-.32c2.97,.18,5.94,.35,8.91,.53,3.9,1.67,7.97,1,12,.88l2.48-.4Z"/><path class="cls-5" d="M91.37,79.56c.07,.91,.13,1.82,.2,2.73-3.08,1.16-5.88-.88-8.86-.78-.93-.14-1.86-.28-2.79-.42l-.07-.9,11.52-.63Z"/><path class="cls-2" d="M91.4,75.8c.29-1.35,.19-3.26,2-3.29,2.41-.04,1.95,2.15,2.15,3.7-1.38-.14-2.76-.27-4.14-.41Z"/><path class="cls-4" d="M80.22,84.09c-4.03,.13-8.1,.8-12-.88,4.04-.25,8.08-.46,12,.88Z"/><path class="cls-11" d="M42,91.54c4.64-2.11,9.63-1.13,14.45-1.67,.03,.51,.06,1.02,.09,1.53,0,.51,.01,1.02,.02,1.52-4.87,.07-9.74,.14-14.61,.2,.01-.53,.03-1.06,.04-1.58Z"/><path class="cls-14" d="M216.2,391.59c-3.85-1.09-8.25-1.76-5.8-7.64,.63,.12,1.26,.24,1.89,.36-.21,2.18,.42,3.82,2.81,4.3,.37,.99,.73,1.98,1.1,2.98Z"/><path class="cls-8" d="M216.2,391.59c-.37-.99-.73-1.98-1.1-2.98,.84-1,1.68-1.99,2.52-2.99,1.19,.09,2.3,.33,2.94,1.49-1.2,1.54-1.2,3.39-1.3,5.21-1.02-.25-2.04-.49-3.06-.73Z"/><path class="cls-6" d="M212.29,384.31c-.63-.12-1.26-.24-1.89-.36,.09-.61,.17-1.21,.26-1.82,.52,.02,1.03,.04,1.55,.06,.48-.34,.96-.68,1.44-1.01,1.4-.05,2.81-.11,4.21-.16,.29,.94,.58,1.89,.87,2.84-.84,.12-1.69,.23-2.54,.35-1.3,.04-2.6,.07-3.9,.11Z"/><path class="cls-14" d="M212.21,382.2c-.52-.02-1.03-.04-1.55-.06,.52,.02,1.03,.04,1.55,.06Z"/><path class="cls-9" d="M168.45,355.6l.06,.1c.63-6.09,.44-12.18-.14-18.27,1.14-1.51,.29-2.37-1-3.09,.02-.4,.07-.8,.15-1.19,1.65-2.57,1.53-6.41,5.33-7.45,.05,4.37,.1,8.74,.15,13.11-.03,5.32-.05,10.65-.08,15.97-.03,6.35-.06,12.7-.09,19.04-2.1-.88-2.84-2.65-3.11-4.73-.23-4.51,1.19-9.18-1.26-13.49Z"/><path class="cls-16" d="M172.9,354.78c.03-5.32,.05-10.65,.08-15.97,.88,.44,1.75,.89,2.63,1.33-.08,4.94-.15,9.87-.23,14.81-.83-.06-1.65-.11-2.48-.17Z"/><path class="cls-6" d="M338.5,84.18c-4.81,.65-9.63,1.3-14.44,1.95-6.94-.65-14.03,.18-20.83-1.97-.18-.06-.42-.49-.38-.55,.28-.35,.63-.65,.96-.96,8.56-1.89,17.26-1.04,25.89-1.32,3,.74,6.89-1.27,8.8,2.85Z"/><path class="cls-15" d="M242.6,90.03c-.89,.19-1.77,.38-2.66,.58-.53-.11-1.05-.23-1.58-.34,.04-.74,.09-1.48,.13-2.22,1.39,.17,2.78,.34,4.17,.5-.02,.5-.04,.99-.07,1.49Z"/><path class="cls-6" d="M216.56,250.07c-.93,5.9-1.85,11.79-2.78,17.69-1.28-.13-2.55-.27-3.83-.4-.21-.36-.42-.71-.64-1.07-.03-.58-.05-1.16-.08-1.73,.1-1.9,.2-3.8,.31-5.7,1.83-3.55,1.46-6.91-.88-10.11-.2-1.02-.39-2.04-.59-3.06,1.07-1.41,1.06-2.82-.03-4.22l1.48-1.82c3.54-.23,4.52,3.07,6.64,4.8,.13,1.87,.26,3.74,.39,5.61Z"/><path class="cls-5" d="M209.53,239.66c-.49,.61-.99,1.21-1.48,1.82-.52-.02-1.04-.04-1.56-.06-1.06,.05-2.13,.1-3.19,.15-.48-.02-.96,0-1.44,.08,.96-3.02-2.51-5.17-1.6-8.18,1.53-1.78,.57-4.72,3.06-6.52,2.96,3.94,5.91,7.64,6.21,12.72Z"/><path class="cls-7" d="M209.95,267.36c1.28,.13,2.55,.27,3.83,.4,.05,2.57,.27,5.17-1.6,7.31-1.93-2.23-3.55-4.54-2.23-7.71Z"/><path class="cls-15" d="M203.3,241.57c1.06-.05,2.13-.1,3.19-.15,.06,1.6-.09,3.28,1.59,4.28,.2,1.02,.39,2.04,.59,3.06-.36,.52-.71,1.04-1.06,1.56-3.91-1.7-4.02-5.27-4.3-8.76Z"/><path class="cls-7" d="M207.6,250.32c.35-.52,.71-1.04,1.06-1.56,2.34,3.19,2.71,6.55,.88,10.11-.36-.88-.72-1.77-1.08-2.65-.17-1.09-.33-2.18-.5-3.26l-.36-2.63Z"/><path class="cls-15" d="M207.96,252.96c.17,1.09,.33,2.18,.5,3.26-1.37-.9-1.56-1.99-.5-3.26Z"/><path class="cls-15" d="M209.24,264.57c.03,.58,.05,1.15,.08,1.73-.13-.39-.31-.77-.38-1.17-.03-.17,.19-.37,.3-.56Z"/><path class="cls-6" d="M296.53,56.77l2.93-1.54c7.64-2.99,15.29-5.98,22.93-8.97,3-.36,6.01-.72,9.02-1.08-.04,.89-.08,1.78-.12,2.66-1.65,1.55-4.68,.46-5.78,3.05-1.14,.15-2.48-.1-2.92,1.45l.1-.05c-1.83-.55-3.41-.32-4.46,1.49l.05-.04c-7.39-.03-14.05,5.25-21.75,3.03Z"/><path class="cls-8" d="M57.89,52.46c3.05,2.67,7.23,.6,10.46,2.51-1,1.5-1.99,2.99-2.99,4.49-3.84-1.19-8.15-1.53-10.46-5.58,1-.47,1.99-.94,2.99-1.41Z"/><path class="cls-8" d="M108.83,290.88c.95,0,1.9-.02,2.85-.03-3.73,9.81-7.47,19.62-11.2,29.44-.54-.53-1.07-1.07-1.61-1.6,3.32-9.27,6.64-18.54,9.96-27.81Z"/><path class="cls-14" d="M98.87,318.69c.54,.53,1.07,1.07,1.61,1.6-.59,.89-1.18,1.77-1.78,2.66,.06-1.42,.11-2.84,.17-4.26Z"/><path class="cls-15" d="M209.53,239.66c-.3-5.08-3.26-8.77-6.21-12.72-2.49,1.8-1.53,4.73-3.06,6.52-1.21-1.34-2.42-2.68-3.64-4.02-.43-3.3-.87-6.59-1.3-9.89,2.26-1.5,3.18-3.38,2.09-6.1-.82-2.04-1.44-4.2,1.13-5.64,3.57,7.57,4.91,16.38,12.22,21.85l.1,.04c.56,5.2,6,7.57,7.2,12.4-.63,.78-1.26,1.57-1.89,2.35-2.12-1.73-3.1-5.04-6.64-4.8Z"/><path class="cls-12" d="M166.65,167.64c.7-2.95,1.4-5.91,2.1-8.86,4.49-3.36,9.07-.06,13.61-.18,2.54,1.23,1.84,4.5,3.82,6.09,.3,.86,.61,1.72,.91,2.58,1.46,4.77,5.1,5.16,9.21,4.6-1.73,5.19-4.79,3.08-7.93,1.58-2.51-1.2-5.3-4.53-7.69,.25l-7.81,.92-1.68-.37c.85-1.41,1.96-2.73,2.48-4.25,.84-2.45,1.75-5.88-.89-7.02-3.5-1.52-3.63,2.5-4.76,4.59-.46,.03-.92,.05-1.39,.06Z"/><path class="cls-6" d="M168.04,167.57c1.13-2.09,1.26-6.1,4.76-4.59,2.64,1.14,1.73,4.58,.89,7.02-.52,1.52-1.63,2.84-2.48,4.25-1.26,1.43-1.92,3.59-4.37,3.56l-.11-.26c-.45-2.97-.9-5.95-1.34-8.92,.41-.33,.83-.66,1.24-.99,.47-.03,.94-.05,1.41-.08Z"/><path class="cls-5" d="M166.01,145.77c1.34-.12,2.68-.23,4.02-.35,1.32,2.91-.48,5.79-.08,8.7l-1.51,1.69c-1.12-.07-2.23-.14-3.34-.21,1.07-1.34,1.74-2.73,.64-4.38,.09-1.82,.18-3.63,.28-5.45Z"/><path class="cls-14" d="M168.44,155.8c.5-.56,1.01-1.13,1.51-1.69,4.19-.22,8.24,.1,11.61,3.02l.81,1.46c-4.54,.12-9.12-3.18-13.61,.18-.11-.99-.21-1.98-.32-2.97Z"/><path class="cls-16" d="M165.39,168.64c.45,2.97,.9,5.95,1.34,8.92-1.84-.04-3.68-.09-5.52-.13l.03,.03c.06-1.86,.13-3.72,.19-5.57,.15-.45,.31-.89,.48-1.33,1.16-.64,2.32-1.28,3.47-1.92Z"/><path class="cls-16" d="M165.73,151.21c1.1,1.65,.44,3.05-.64,4.38-.82-1.61-.64-3.08,.64-4.38Z"/><path class="cls-16" d="M168.04,167.57c-.47,.03-.94,.05-1.41,.08h.02c.46-.02,.92-.04,1.38-.08Z"/><path class="cls-4" d="M161.25,88.64c-2.82-1.94-2.66-7.28-7.67-6.7-.34-.14-.7-.25-1.07-.33-1.42-2.28-3.02-4.5-2.92-7.39,1.51-1.03,3.01-2.05,4.52-3.08,1.38-.3,2.27-1.15,2.75-2.46,4.16,.86,3.03,7.96,8.53,7.24,.66,1.38,1.45,2.43,3.11,1.17,.96,0,1.92,.01,2.88,.02,1.27,1.44,.76,2.83-.14,4.2-1.46,.4-3.25,.32-3.73,2.2-.04,.16,1.39,.7,2.14,1.07-2.8,1.35-5.61,2.71-8.41,4.06Z"/><path class="cls-8" d="M171.25,81.31c.9-1.37,1.41-2.75,.14-4.2,.06-2.63-2.9-2.68-4.15-4.84,3.58-2.07,6.77,.8,10,.5,3.77,.55,7.54,1.11,11.31,1.66-.01,2.31-.03,4.62-.05,6.93-5.75-.59-11.51,3.08-17.26-.05Z"/><path class="cls-13" d="M188.56,74.43c-3.77-.55-7.54-1.11-11.31-1.66-.08-1.3-.15-2.6-.23-3.9,2.39-.09,4.77-.18,7.16-.28,1.57,.96,3.14,1.93,4.7,2.89-.11,.98-.22,1.97-.33,2.95Z"/><path class="cls-8" d="M168.51,77.09c-1.65,1.26-2.44,.21-3.11-1.17,1.21-.09,2.37-.03,3.11,1.17Z"/><path class="cls-6" d="M108.81,82.92c2.89-.3,2.18-3.17,3.36-4.68,1.42,.4,2.73,.92,2.8,2.72l1.08,.74c.99-.06,1.97-.12,2.96-.19,7.08,3.45,14.1,7.03,21.94,8.51,2.12,.46,4.6,.2,5.59,2.87-.9,.09-1.81,.17-2.71,.26-10.72,.6-21.33-1.26-32.01-1.53-2.34-1.41-4.89-1.55-7.52-1.28-.4-.03-.79-.08-1.17-.17-2.23-4.44-7.49-1.47-10.39-4.25,5.07-2.59,11.1,.04,16.08-3Z"/><path class="cls-7" d="M104.29,90.33c2.62-.27,5.18-.12,7.52,1.28-1.49,.5-2.98,.99-4.48,1.49-.96-.05-1.93-.1-2.89-.15l-.15-2.62Z"/><path class="cls-11" d="M168.45,355.6c2.45,4.31,1.03,8.98,1.26,13.49-.83,.09-1.65,.18-2.48,.27-.2-4.64-1.22-9.35,1.22-13.76Z"/><path class="cls-7" d="M92.72,85.92c2.91,2.78,8.17-.2,10.39,4.25-15.49,1.67-31.03,1.7-46.58,1.24-.03-.51-.06-1.02-.09-1.53v-.55c8.92-.19,17.85-.32,26.77-.61,3.05-.1,6.45,.3,8.27-3.18,.41,.12,.82,.25,1.23,.39Z"/><path class="cls-7" d="M156.87,322.97c.11-5.88,.13-11.77,1.47-17.54,3.09,6.44,1.72,13.83,4.36,20.37l-.02-.03,1.07,1.22c.43,3.08,.86,6.17,1.28,9.25-2.65,.81-2.09,3.79-3.62,5.36-2.09-3.49-2.59-7.45-3.31-11.34,.19-2.13,0-4.19-1.15-6.07,0-.41-.02-.81-.08-1.22Z"/><path class="cls-8" d="M161.41,341.6c1.52-1.57,.97-4.55,3.62-5.36,.43,5.27,.87,10.55,1.3,15.82-5.23-.83-2.78-6.2-5.16-8.73,.08-.58,.16-1.16,.24-1.74Z"/><path class="cls-16" d="M156.95,324.19c1.14,1.88,1.34,3.94,1.15,6.07-1.19-1.87-1.36-3.93-1.15-6.07Z"/><path class="cls-5" d="M175.61,340.14c-.88-.44-1.75-.88-2.63-1.33-.05-4.37-.1-8.74-.15-13.11-.04-7.27-.07-14.54-.11-21.81,.42-.89,.84-1.79,1.26-2.68l.5-.18c-.74,4.35-.18,8.5,1.21,12.73,2.54,7.68,1.88,15.68,1.45,23.6-.51,.92-1.03,1.84-1.54,2.77Z"/><path class="cls-15" d="M159.86,239.25c0,2.27,.02,4.55,.02,6.82-.71,8.6,1.05,17.06,1.42,25.59-.44,1.15-.89,2.29-1.33,3.44h-1.61c-.73-5.32,1.14-10.91-1.57-16.05-.47-1.54-.94-3.08-1.42-4.63-.66-1.72-1.97-2.55-3.75-2.74-.49-3.66,2.97-6.58,1.94-10.34,.03-5.32,.06-10.64,.09-15.96,.1-1.44,.2-2.87,.3-4.31,.48-.52,.96-1.05,1.44-1.57,.44,.55,.88,1.1,1.31,1.65l-.15,4.25c-1.38,2.3-1.12,4.85-1.18,7.36-.13,3.28,2.28,4.81,4.48,6.48Z"/><path class="cls-4" d="M153.57,241.34c1.03,3.76-2.42,6.68-1.94,10.34-2.02,2.59-4.04,5.18-6.06,7.77-.59-.14-1.17-.27-1.75-.41,2.94-6.07,3.88-13.24,9.75-17.7Z"/><path class="cls-10" d="M174.32,267.72c1.09,4.93-3.77,11.61,4.27,14.49-.47,.91-.93,1.83-1.4,2.74-2.05-.16-4.1-.31-6.15-.47,1.36-6.04-.57-8.55-6.86-6.42-.02-2.01-.04-4.02-.06-6.02,2.32-9.17,.41-18.59,1.66-27.83,1.85-2.81,3.7-5.61,5.56-8.42,.3,10.71,.87,21.39,2.98,31.93Z"/><path class="cls-12" d="M173.99,301.21c-.42,.89-.84,1.79-1.26,2.68-2.33-.45-4.66-.9-6.99-1.35-1.42-.46-2.84-.91-4.25-1.37l-1.59-1.53c-.09-.49-.18-.98-.27-1.47,.52-1.48,1.04-2.95,1.56-4.43l-.03,.08c2.42,.23,4.84,.46,7.26,.69,1.53,.09,3.07,.18,4.6,.27,2.61,1.8,2.67,3.98,.97,6.43Z"/><path class="cls-4" d="M171.04,284.48c2.05,.16,4.1,.31,6.15,.47,.46,3.62-1.84,5.51-4.51,7.17-1.34-.05-2.69-.11-4.03-.16-1.1-1.66-2.58-2.5-4.62-2.16-.43-.27-.87-.54-1.3-.8,.48-1.04,.97-2.08,1.45-3.12,2.29-.46,4.58-.92,6.87-1.39Z"/><path class="cls-9" d="M168.65,291.95c1.34,.05,2.69,.11,4.03,.16,.11,.89,.23,1.78,.34,2.67-1.53-.09-3.07-.19-4.6-.28,.08-.85,.15-1.71,.23-2.56Z"/><path class="cls-11" d="M104.59,68.3c-.95,.95-1.89,1.89-2.84,2.84-4.06-.94-8.12-1.87-12.19-2.81-.41-.87-.82-1.74-1.23-2.6,.65-.67,1.3-1.33,1.95-1.99,1.28-.39,2.56-.77,3.83-1.16,2,4.64,6.95,3.89,10.48,5.73Z"/><path class="cls-7" d="M90.27,63.73c-.65,.66-1.3,1.33-1.95,1.99-5.33-1.46-10.96-2.09-15.43-5.82,6.2-.59,11.63,2.37,17.38,3.83Z"/><path class="cls-8" d="M149.6,74.23c-.1,2.89,1.49,5.1,2.92,7.39,.29,.36,.6,.7,.94,1.03,.07,.53,.13,1.06,.19,1.59-.4,.03-.8,.06-1.2,.09-1.16,.03-2.33,.06-3.48,.09-2.91-3.29-6.38-5.52-10.91-5.74l-2.9-.18,.07-2.56c3.14-.57,7.06,.92,8.78-3.36,1.87,.56,3.74,1.11,5.6,1.67Z"/><path class="cls-15" d="M146.53,92.88c-.98-2.67-3.47-2.41-5.59-2.87,.53-.58,1.07-1.16,1.6-1.75,1.27,.01,2.53,.02,3.8,.03l3.31,1.65c-.07,1.76-.37,3.44-1.63,4.8-.45-.24-.9-.48-1.35-.72,0-.39-.05-.77-.14-1.15Z"/><path class="cls-5" d="M149.65,89.95c-1.1-.55-2.2-1.1-3.31-1.65,.87-1.3,1.74-2.6,2.6-3.9,1.16-.03,2.33-.06,3.49-.09-.93,1.88-1.86,3.76-2.79,5.63Z"/><path class="cls-16" d="M200.28,63.97c.5,0,1,0,1.5,0,4.86-1.38,9.55-1.33,13.93,1.58-3.93,3.78-10.27,1.78-14.08,5.86-.91-.54-1.83-1.07-2.75-1.61,.47-1.94,.93-3.89,1.4-5.83Z"/><path class="cls-9" d="M166.84,177.82c2.44,.02,3.11-2.14,4.37-3.56,.56,.12,1.12,.24,1.68,.36-.59,3.73,1.8,5.68,4.46,7.47-9.96,1.97-15.52,8.23-18.01,17.87-.74,2.89-1.62,6.04-4.35,8.01,.15-2.9,.29-5.79,.44-8.69,.16-.31,.31-.62,.47-.93l-.5,.9c-.42,.02-.84,.04-1.25,.07,.04-2.25,.07-4.5,.11-6.75,.9-1.13,1.8-2.26,2.69-3.38,3.97-3.2,7.3-6.96,9.9-11.36Z"/><path class="cls-16" d="M161.21,177.43l.03,.03-.03-.03Z"/><path class="cls-6" d="M161.48,301.17c1.42,.46,2.84,.91,4.25,1.37,.59,10.2,1.19,20.41,1.78,30.61-.08,.39-.13,.79-.15,1.19,.33,1.03,.67,2.06,1,3.09,.58,6.08,.77,12.17,.14,18.27-1.42-.8-1.96-2.12-2.17-3.63-.43-5.27-.86-10.55-1.3-15.82-.43-3.08-.86-6.17-1.29-9.25-.36-.41-.71-.82-1.07-1.22l.02,.03c-.41-8.21,.71-16.5-1.22-24.63Z"/><path class="cls-16" d="M120.55,276.2c-.41,.03-.83,.04-1.24,.04-.55-.48-1.1-.96-1.66-1.44,.96-3.33,1.93-6.66,2.89-9.99,2.16-1.99,4.32-3.97,6.48-5.96,.75,.1,1.51,.21,2.26,.31-2.39,5.94-9.37,9.53-8.73,17.03Z"/><path class="cls-4" d="M130.36,250.13c4.51-5.25,3.26-13.88,10.35-17.62-2.94,6.81-5.87,13.62-8.81,20.44-.83,.05-1.66,.09-2.49,.14l.95-2.96Z"/><path class="cls-5" d="M129.41,253.09c.83-.05,1.66-.09,2.49-.14-.43,1.52-.86,3.05-1.29,4.57-.44,.55-.88,1.1-1.33,1.65-.75-.1-1.5-.2-2.26-.31,.65-1.98,.5-4.3,2.38-5.77Z"/><path class="cls-4" d="M290.71,59.68c.74,0,1.49,0,2.23-.01,4.54,3.57,8.98-.09,13.47-.17l2.07,.25c-3.82,3-8.41,3.82-13.03,4.6-2.09-.14-4.18-.27-6.26-.4,.51-1.42,1.01-2.84,1.52-4.26Z"/><path class="cls-7" d="M289.19,63.94c2.09,.13,4.17,.27,6.26,.4-.11,.42-.22,.84-.32,1.26-2.93,.26-5.85,1.94-8.8,.09,.95-.58,1.9-1.17,2.86-1.75Z"/><path class="cls-7" d="M308.48,59.75c-.69-.08-1.38-.17-2.07-.25,3.31-1.15,6.61-2.3,9.92-3.46,.21,.28,.41,.57,.62,.86-2.45,2.04-5.29,2.95-8.47,2.85Z"/><path class="cls-4" d="M46.48,45.21c1.36,.13,2.72,.25,4.09,.38-.28,.33-.61,.6-.97,.83-1.04-.4-2.08-.81-3.12-1.21Z"/><path class="cls-11" d="M260.13,286.76c.51-2.12,1.03-4.24,1.54-6.36,1.81,.94,3.45,1.99,3.15,4.43-.53,2.91,1.9,4.99,2.13,7.69-.29,.08-.58,.11-.88,.09-2.96-.95-5.77-2.07-5.94-5.85Z"/><path class="cls-4" d="M242.66,88.54c-1.39-.17-2.78-.33-4.17-.5-1.01-1.26-2.01-2.52-3.02-3.78,.18-.88,.36-1.76,.54-2.64h.44l.44-.07c1.56-.43,2.54-1.42,2.86-3.02h-.01l14.55,.22c.99,.92,1.97,1.84,2.96,2.76-4.86,2.35-9.72,4.69-14.58,7.04Z"/><path class="cls-13" d="M236.01,81.62c-.18,.88-.36,1.76-.54,2.64-.91,1.06-1.83,2.12-2.74,3.19-.26-.21-.53-.42-.79-.64,.28-1.34,.56-2.69,.83-4.03,1.08-.38,2.16-.77,3.23-1.16Z"/><path class="cls-8" d="M161.48,301.17c1.93,8.13,.81,16.42,1.22,24.63-2.65-6.53-1.27-13.93-4.36-20.37,.52-1.93,1.03-3.87,1.55-5.8,.53,.51,1.06,1.02,1.59,1.53Z"/><path class="cls-7" d="M277.55,71.19c.9-.52,1.8-1.03,2.7-1.55,.63,3.47-1.47,7.03,.31,10.47l-.04-.13c-3.26-1.04-7.82,2.2-9.82-2.98,2.72-1.42,6.94-1.08,6.85-5.81Z"/><path class="cls-7" d="M281.85,68.37c.55-.9,1.11-1.79,1.66-2.69-.55,.9-1.11,1.79-1.66,2.69Z"/><path class="cls-10" d="M156.8,259.05c2.71,5.14,.84,10.73,1.57,16.06-.02,5.1-.03,10.21-.05,15.31l-.18,1.82c-3.01-5.87-.81-12.12-1.23-18.18-.34-4.98-.1-10.01-.11-15.02Z"/><path class="cls-3" d="M158.14,292.24c.06-.61,.12-1.22,.18-1.82,.59-.07,1.17-.14,1.76-.21l2.32-.3,1.63-.12c2.04-.35,3.52,.5,4.62,2.16-.08,.85-.15,1.7-.23,2.56-2.42-.23-4.84-.46-7.26-.69-.57-1.35-1.95-1.16-3.01-1.57Z"/><path class="cls-10" d="M316.32,56.04c-3.31,1.15-6.61,2.31-9.92,3.46-4.49,.08-8.93,3.74-13.47,.17,1.2-.96,2.4-1.93,3.59-2.89,7.7,2.22,14.35-3.07,21.75-3.03-.65,.76-1.3,1.53-1.95,2.29Z"/><path class="cls-10" d="M318.22,53.78c1.05-1.81,2.62-2.04,4.46-1.49-1.12,1.59-2.7,1.8-4.46,1.49Z"/><path class="cls-10" d="M322.58,52.35c.44-1.55,1.79-1.3,2.92-1.45-.66,1.12-1.71,1.45-2.92,1.45Z"/><path class="cls-5" d="M198.89,69.8c.92,.54,1.83,1.07,2.75,1.61,4.39,.44,8.64-.62,12.91-1.35,.79,2.97-4.36,4-2.4,7.35,0,1.35-.01,2.71-.02,4.06-1.66,.64-3.31,1.29-4.97,1.92-5.99-1.41-11.72-3.06-10.97-11.12,.44-1.32,1.4-2.08,2.7-2.47Zm7.51,8.3l-.28,.79,.5-.18-.22-.61Z"/><path class="cls-16" d="M236.1,62.79c2.18,1.4,4.35,2.79,6.53,4.19-2.21,1.67-4.55,.89-6.88,.37-2.97-.66-5.29-.21-5.71,3.41-4.66-.5-5.47,5.06-9.28,5.9,1.29-3.16-1.08-4.27-3.11-5.57,2.2-3.84,7.58-1.99,9.96-5.54,3.48,1.03,5.55-2.22,8.5-2.77Z"/><path class="cls-13" d="M217.64,71.1c2.03,1.3,4.41,2.41,3.11,5.57-.46,.12-.91,.26-1.35,.43l-3.14,.36-4.13-.05c-1.96-3.35,3.19-4.38,2.4-7.35,1.03,.35,2.06,.69,3.1,1.03Z"/><path class="cls-7" d="M281.66,89.64c.83-1.22,1.89-2.06,3.44-2.1-.76,1.34-1.84,2.15-3.44,2.1Z"/><path class="cls-3" d="M219.36,164.93c-1.48-2.45-3.05-4.87-2.83-7.93,.93,.1,1.87,.19,2.8,.29,0,2.55,.02,5.09,.02,7.64Z"/><path class="cls-4" d="M288.06,372.43c-.56-.94-1.13-1.89-1.69-2.83,.7-.35,1.4-.69,2.1-1.04,.24,.69,.48,1.39,.73,2.08-.38,.6-.76,1.2-1.14,1.79Z"/><path class="cls-3" d="M212.29,384.31c1.3-.04,2.6-.07,3.9-.11,.48,.47,.95,.95,1.42,1.42-.84,1-1.68,1.99-2.52,2.99-2.39-.48-3.02-2.12-2.81-4.3Z"/><path class="cls-7" d="M198.89,69.8c-1.3,.39-2.26,1.15-2.7,2.47-2.48,.11-4.71-2.06-7.31-.8-1.57-.96-3.13-1.93-4.7-2.89,1.11-4.34-1.56-9.31,2.23-13.19,.18,4.44,5.71,3.32,6.93,6.68,.47,2.86,1.68,1.38,2.79,.48,.42-.13,.83-.25,1.25-.38,.97,.6,1.94,1.2,2.9,1.8-.47,1.94-.93,3.89-1.4,5.83Z"/><path class="cls-6" d="M196.13,62.56c-1.11,.91-2.32,2.39-2.79-.48,.93,.16,1.86,.32,2.79,.48Z"/><path class="cls-7" d="M198.96,58.04c-.46,.53-.92,1.07-1.38,1.6l1.38-1.6Z"/><path class="cls-13" d="M201.88,25.88c0,.9,0,1.8,0,2.69-1.85,.25-3.7,.5-5.55,.75-2.21-1.91-4.9-2.66-7.67-3.26,1.15-3.4,3.07-5.01,6.42-2.46,2.04,1.55,4.44,1.77,6.79,2.28Z"/><path class="cls-10" d="M186.01,33.64c.35-.18,.7-.33,1.08-.44,3.13,.01,6.27,.03,9.4,.04,1.76,2.48,1.11,5.03,.22,7.58-2.71-1.1-5.49-1.77-8.44-1.47-.75-1.9-1.51-3.81-2.26-5.71Z"/><path class="cls-3" d="M188.27,39.36c2.95-.3,5.73,.38,8.44,1.47-.7,1.37-1.41,2.75-2.11,4.12-4,.27-6.4-1.26-6.33-5.6Z"/><path class="cls-6" d="M153.57,241.34c-5.86,4.46-6.81,11.63-9.75,17.7-3.88,3.72-3.08,10.63-8.88,13.04-.14-.54-.27-1.09-.41-1.63l-.65-1.48-.74-1.69c.54-.45,1.07-.91,1.61-1.36,6.26-9.08,8.49-19.55,10.49-30.11,.08-.9,.16-1.8,.24-2.71,3.58-3.42,3.62-8.62,6.29-12.5,.25,.17,.51,.33,.76,.5,.38,1.43,.76,2.85,1.14,4.28l-.09,15.96Z"/><path class="cls-8" d="M133.13,267.28c.25,.56,.5,1.12,.74,1.68,.22,.49,.43,.99,.65,1.48,.14,.54,.27,1.09,.41,1.63-1.29,.47-2.58,.93-3.87,1.4-.02-.9-.05-1.79-.08-2.69,.71-1.17,1.43-2.33,2.14-3.5Z"/><path class="cls-10" d="M133.13,267.28c-.71,1.17-1.43,2.33-2.14,3.5-1.34-4.39,1.87-8.91-.39-13.27,.43-1.52,.86-3.05,1.29-4.57,2.94-6.81,5.87-13.62,8.81-20.44,2.27-4,3.42-8.38,4.27-12.85,3.05-6.78,6.1-13.56,9.15-20.35,.42-.03,.84-.05,1.25-.07l.04,.03c-.15,2.9-.29,5.79-.44,8.69-.54,1.44-1.08,2.88-1.62,4.32-1.26,.55-1.89,1.39-1.29,2.8l-.86,3.12c-3.56,4.33-5.37,9.34-5.75,14.89-.08,.9-.16,1.8-.24,2.7-2.7,.52-3.06,2.94-3.73,4.91-2.81,8.25-5.35,16.58-6.75,25.21l-1.61,1.36Z"/><path class="cls-9" d="M234.98,219.78c.76,3.94,1.52,7.89,2.29,11.83-1.06,1.33-2.11,2.67-3.17,4.01-1.6-1.58-2.65-3.47-3.19-5.65-.38-2.97-.77-5.93-1.15-8.9,1.74-.43,3.48-.86,5.22-1.29Z"/><path class="cls-9" d="M236.85,255.91c-.05-.44-.11-.88-.19-1.32,.07-2.44,.15-4.88,.22-7.31,5.28,4.35,1.8,11,4.21,16.1-4.49-.74-4.07-4.27-4.24-7.47Z"/><path class="cls-9" d="M240.24,239.14c2.45,2.17,3.36,4.98,3.38,8.16-3.34-1.8-3.85-4.78-3.38-8.16Z"/><path class="cls-9" d="M240.28,273.31c-.48-2.01-.34-3.93,.85-5.7,1.57,2.17,.36,3.93-.85,5.7Z"/><path class="cls-9" d="M235.53,241.43c-.38-1-.76-2-1.13-3.01,1.36,.63,2.01,1.53,1.13,3.01Z"/><path class="cls-9" d="M237.51,232.28c1.44,.66,1.93,1.87,1.94,3.35-1.46-.65-2.19-1.72-1.94-3.35Z"/><path class="cls-9" d="M236.85,247.22c-.38-.94-.77-1.88-1.15-2.82,.38,.94,.77,1.88,1.15,2.82Z"/><path class="cls-12" d="M258.95,302.29c1.39,.77,2.16,1.87,1.93,3.53-1.33-.8-2.01-1.96-1.93-3.53Z"/><path class="cls-4" d="M216.76,226.95c.54,6.29-2.58,4.74-5.9,2.76l-.1-.04c-3.81-10.31-7.66-20.62-5.92-31.96,.77-1.93,2.07-1.87,3.33-.66,2.41,2.32,4.69,4.77,7.03,7.17,1.81,7.49,1.29,15.13,1.56,22.73Z"/><path class="cls-4" d="M229.76,221.07c.38,2.97,.77,5.93,1.15,8.9-.52,.78-.96,1.64-1.58,2.32-1.6,1.75,.15,6.34-3.41,5.73-2.64-.45-1.98-4.33-2.27-6.84-.16-1.4-.21-2.81-.31-4.22,.14-9.95-.75-19.74-4.19-29.17,2.08,.29,3.41,1.8,4.9,3.05,1.58,6.84,1.51,14.14,5.72,20.23Z"/><path class="cls-11" d="M219.15,197.79c3.44,9.43,4.32,19.23,4.19,29.17-2.19,0-4.39,0-6.57-.01-.27-7.59,.26-15.24-1.55-22.73,.54-2.14,1.07-4.28,1.61-6.42,.78,0,1.55,0,2.33,0Z"/><path class="cls-3" d="M216.17,244.46c.63-.78,1.26-1.57,1.89-2.35,2.52,4.56,6.39,8.43,7.23,13.87-2.91-1.97-5.82-3.93-8.73-5.9-.13-1.87-.26-3.74-.39-5.62Z"/><path class="cls-15" d="M223.09,259.16c.08,.24,.09,.48,.05,.72,0,0-.05-.72-.05-.72Z"/><path class="cls-12" d="M260.13,286.76c.17,3.78,2.97,4.9,5.94,5.85-.09,1.88-.18,3.76-.27,5.64-2.49-1.59-4.98-3.19-7.48-4.78-.87-1.75-1.74-3.49-2.61-5.24,1.47-.49,2.94-.98,4.42-1.47Z"/><path class="cls-15" d="M224.98,283.14c.24-.46,.48-.92,.72-1.39,.42,0,.82,.1,1.21,.27-.64,.37-1.29,.74-1.93,1.11Z"/><path class="cls-12" d="M222.34,308.32c-.58,1.03-1.15,2.05-1.73,3.08-.5-.07-1-.14-1.49-.21,0-3.61,1.71-7.67-2.65-10.14-.27-2.63,1.11-4.47,2.97-6.06,.97,.11,1.94,.22,2.91,.33-1.57,4.34,.14,8.67,0,13.01Z"/><path class="cls-12" d="M266.2,301.04c.37,.52,.73,1.04,1.1,1.56-.37-.52-.73-1.04-1.1-1.56Z"/><path class="cls-9" d="M288.06,372.43c.38-.6,.76-1.2,1.14-1.79,1.92,.38,4.2,.31,4.06,3.26-.85-.37-1.7-.75-2.56-1.12-.88-.11-1.76-.23-2.64-.35Z"/><path class="cls-7" d="M294.74,376.07c.98-.33,1.97-.65,2.95-.98-.65,1.32-1.6,1.76-2.95,.98Z"/><path class="cls-7" d="M293.68,373.9c.24,.6,.48,1.2,.72,1.81-.24-.6-.48-1.2-.72-1.81Z"/><path class="cls-6" d="M182.37,158.59c-.27-.49-.54-.97-.81-1.46,2.34-4.88,.14-9.73-.09-14.6-.07-.88-.15-1.76-.22-2.64,.05-4.06,.1-8.11,.15-12.17,2.37-1.56,4.97-1.44,7.63-1.16,3.07,.32,5.05-1.06,5.82-4.09,.42-4.48,.84-8.95,1.26-13.43,1.32,.34,3.64,.47,2.99,2.17-1.71,4.46,2.69,3.58,4.08,5.26,.04,.44,.1,.89,.17,1.33-3.1,2.72-.63,2.88,1.48,3.21,.09,.48,.27,.91,.56,1.3-1.81,1.59-4.02,.82-6.07,1-.63-.27-.88-.18-.51,.52,1.57,4.27,6.35,3.26,9.14,5.53-2.97,5.45-4.08,11.29-3.31,17.43,.36,2.86,1.06,5.68,1.6,8.52-1.91,1.67-3.5,3.56-4.19,6.07-1.1,1.15-2.21,2.3-3.31,3.45-.86-.06-1.72-.12-2.58-.18-.53-1.95-4.15-3.68-2.07-5.44,4.27-3.63-.79-7.77,1.45-11.47,1.05-1.73-1.36-2.78-2.92-3.29-2.22-.72-3.21,.77-3.28,2.63-.12,3.1-1.04,6.92,.38,9.16,3.35,5.28,.33,6.78-3.54,8.43-1.97-1.59-1.28-4.85-3.82-6.09Z"/><path class="cls-3" d="M202.06,161.38c.69-2.51,2.28-4.4,4.19-6.07,3.55-.11,7.63-3.38,10.31,1.72-3.3,.41-6.81,.1-8.73,3.89-1.51,3-3.86,.02-5.77,.45Z"/><path class="cls-4" d="M208.52,129.34c.78-1.78,1.78-2.97,3.78-1.36-1.27,.41-1.39,4.05-3.78,1.36Z"/><path class="cls-10" d="M196.11,109.05c-.42,4.48-.84,8.95-1.27,13.43-7-.8-3.28-6.66-4.49-10.08-1.01-2.85-.3-6.44-5.12-5.32l-3.55-.92c-.16-.35-.27-.71-.33-1.08,.04-1.15,.09-2.29,.13-3.44,3.81-1.73,3.32-6.83,6.86-8.76,2.48,.76,4.9,1.85,7.6,1.52l.3,.23,1.27-.05,.07-.05c.36,.33,.73,.66,1.09,.99,.04,1.26,.09,2.52,.13,3.79,1.76,3.99-2.46,6.31-2.71,9.74Z"/><path class="cls-3" d="M195.95,94.4c-2.7,.33-5.12-.76-7.6-1.51-.04-2.23-.08-4.47-.12-6.7,.09-1.61,.19-3.21,.28-4.82,.02-2.31,.03-4.62,.05-6.93,.11-.98,.22-1.97,.33-2.95,2.6-1.26,4.83,.91,7.31,.8-.75,8.06,4.98,9.71,10.97,11.12,0,.01,.41,.35,.4,.35-2.9-.06-5.9-.62-8.68-.07-4.67,.92-2.09,2.48,0,3.76-.02,.79-.03,1.57-.05,2.36-1.65,.1-2.5,.9-2.28,2.62-.2,.66-.4,1.32-.61,1.99Z"/><path class="cls-7" d="M212.15,77.42c1.38,.02,2.75,.03,4.13,.05,1.28,1.93,2.31,1.72,3.13-.36,.44-.17,.89-.31,1.35-.43,3.81-.84,4.62-6.4,9.28-5.91,.37,.13,.73,.26,1.09,.4,.81,.94,1.81,1.26,3.01,.92,.14,.25,.35,.41,.63,.49,2.77,3.88-1.51,5.83-2.39,8.71-5.38-2.75-10.61,3.48-16,.29-1.42-.03-2.84-.07-4.25-.1,0-1.35,.01-2.71,.02-4.06Z"/><path class="cls-5" d="M216.38,81.58c5.39,3.19,10.61-3.04,16-.29,.13,.5,.26,.99,.4,1.49-.28,1.34-.55,2.69-.83,4.03-.39,.2-.74,.45-1.06,.74-5.27,3.44-11.02,1.07-14.51-5.97Z"/><path class="cls-7" d="M198.89,87.43c-2.1-1.27-4.67-2.84,0-3.76,2.78-.55,5.78,.01,8.68,.07,1.65,1.21,5.71,.13,4.67,3.67-.66,2.24-3.66,1.22-5.69,.99-2.55-.29-5.1-.65-7.65-.98Z"/><path class="cls-4" d="M196.56,92.41c-.21-1.72,.63-2.52,2.28-2.62,4.7,1.06,9.94-.14,15.32,3.62-6.37,1.64-11.41-.45-16.48-.51-.34-.26-.71-.42-1.13-.49Z"/><path class="cls-10" d="M196.56,92.41c.42,.07,.79,.23,1.13,.49-.03,.54-.06,1.08-.09,1.63l-.07,.05c-.43,0-.85,0-1.27,.05l-.3-.23c.2-.66,.4-1.32,.61-1.99Z"/><path class="cls-11" d="M203.41,101.84c.45-.03,.9-.06,1.35-.09,.07,.54,.24,1.56,.19,1.57-1.17,.25-1.23-.76-1.55-1.48Z"/><path class="cls-11" d="M203.35,117.81c-.07-.44-.12-.88-.17-1.33,.15,.29,.34,.57,.43,.88,.03,.11-.17,.3-.26,.45Z"/><path class="cls-4" d="M59.35,83c-1.85,1.26-3.71,1.29-5.6,.1,1.87-.03,3.74-.07,5.6-.1Z"/><path class="cls-5" d="M135.22,75.92c-.02,.85-.05,1.71-.07,2.56-4.99-.65-9.96-1.09-14.6,1.54l-1.51-.13c-1.95-2.49-3.91-4.97-5.86-7.46,7.77-1.48,15.24-1.12,22.05,3.48Z"/><path class="cls-16" d="M113.16,72.44c1.95,2.49,3.91,4.97,5.86,7.46,0,.54-.02,1.07-.03,1.61-.99,.06-1.97,.12-2.95,.18-.34-.27-.7-.51-1.08-.74-.07-1.8-1.38-2.32-2.8-2.72-1-2.37-7.46-.2-4.72-5.68,1.91-.04,3.82-.08,5.73-.11Z"/><path class="cls-6" d="M151.22,218.21c.29-1.04,.57-2.08,.86-3.12,1.04-.65,1.4-1.61,1.29-2.8,.54-1.44,1.08-2.88,1.62-4.32,2.73-1.97,3.6-5.12,4.35-8.01,2.48-9.64,8.04-15.9,18.01-17.87,6.76-.54,3.61-5.04,3.35-8.39,2.39-4.78,5.17-1.45,7.69-.25,3.14,1.5,6.21,3.61,7.93-1.58,.83-.66,1.67-1.31,2.5-1.97,3.25-.02,4.15,2.9,5.91,4.73-.82,2.61-1.63,5.22-2.45,7.83-2.58-.85-5.66,.4-7.85-2.42-1.1-1.41-2.84-1.11-4.01,.88-2.17,3.66-6.08,6.38-5.95,11.26-2-.61-3.81-5.43-6.06-.27-3.71,.93-8.21-3.36-11.3,1.71-2.13,4.53-5.27,8.74-4.59,14.18-2.39,.7-3.77,2.3-4.21,4.73-1.96,1.91-2.68,4.33-2.92,6.96-.48,.52-.96,1.05-1.44,1.57-.48,.02-.96,.03-1.44,.03-.25-.17-.51-.33-.76-.5-.18-.8-.36-1.6-.54-2.4Z"/><path class="cls-3" d="M202.29,182.46c.81-2.61,1.63-5.22,2.44-7.83,3.23-2.24,7-.52,10.41-1.45-.28,1.88-.57,3.75-.85,5.63-.81,1.35-1.63,2.71-2.44,4.06-3.26,1-6.43-.01-9.62-.45l.06,.05Z"/><path class="cls-3" d="M198.82,169.89c-.84,.66-1.67,1.31-2.5,1.97-4.12,.56-7.76,.16-9.21-4.61,3.02-.87,6.05-1.74,9.07-2.61,.86,.06,1.72,.12,2.58,.18,.02,1.69,.04,3.38,.06,5.07Z"/><path class="cls-6" d="M202.22,182.41c3.19,.44,6.36,1.46,9.62,.46,2.17,2.02,5.19,3.16,6.39,6.18-.47,.12-.94,.25-1.42,.37-5.09,2.11-1.84,4.6-.32,7.01,.09,.46,.19,.92,.31,1.38-.53,2.14-1.07,4.28-1.61,6.42-2.34-2.39-4.62-4.84-7.03-7.16-1.26-1.21-2.56-1.27-3.33,.66-3,.1-5.99,.19-8.99,.29-.27-1.01-.54-2.03-.81-3.04,6.41-1.89,3.63-9.03,7.18-12.55Z"/><path class="cls-4" d="M216.5,196.42c-1.52-2.41-4.77-4.9,.32-7.01-.08,1.29-.16,2.57-.24,3.85,0,.55,0,1.1-.01,1.65-.02,.5-.04,1-.06,1.51Z"/><path class="cls-6" d="M216.57,194.91c0-.55,0-1.1,.01-1.65,1.17,.56,1.4,1.11-.01,1.65Z"/><path class="cls-5" d="M195.86,198c3-.1,5.99-.19,8.99-.29-1.75,11.34,2.1,21.64,5.92,31.95-7.31-5.48-8.65-14.29-12.22-21.85,1.09-2.54,3.92-5.59-1.8-6.13-.3-1.23-.59-2.45-.88-3.68Z"/><path class="cls-16" d="M187.03,205.27c-3.01-1.96-2.2-4.93-2.04-7.72l.03-.02c1.38,.76,2.76,1.52,4.14,2.28-.71,1.82-1.42,3.64-2.13,5.46Z"/><path class="cls-15" d="M195.86,198c.29,1.23,.59,2.45,.88,3.68-2.41-.23-3.39-2.29-4.83-3.76,.12-1.01,.24-2.02,.35-3.04,.93,.03,1.86,.05,2.79,.08l.81,3.04Z"/><path class="cls-5" d="M192.26,194.88c-.12,1.01-.24,2.02-.36,3.04-.91,.63-1.83,1.26-2.74,1.89-1.38-.76-2.76-1.52-4.14-2.28,.04-.53,.08-1.05,.11-1.58,2.34-.55,4.62-1.58,7.12-1.07Z"/><path class="cls-4" d="M167.12,193.62c3.08-5.07,7.59-.78,11.3-1.71-.04,3.4,2.18,4.56,5.04,5.08-2.88,2.89-8.07,3.69-4.95,10.68,1.6,3.6-3.53,8.4-8.86,9.54-.12-1.95-.24-3.89-.36-5.83,.97-6.13,.83-12.11-2.17-17.75Z"/><path class="cls-16" d="M169.28,211.38c.12,1.94,.25,3.88,.37,5.83-.23,4.36,1.4,7.04,6.18,6.9-1.99,5.92-6.25,8.83-12.35,9.32-.25-.25-.51-.48-.78-.69,.58-2.89,2.1-5.73,.4-8.72l.02-12.61c2.05,0,4.1-.02,6.15-.03Z"/><path class="cls-10" d="M183.45,196.99c-2.86-.52-5.08-1.67-5.04-5.08,2.25-5.16,4.06-.35,6.06,.27,.22,1.26,.44,2.52,.67,3.78-.04,.53-.08,1.05-.11,1.58l-.03,.02c-.52-.19-1.03-.37-1.55-.56Z"/><path class="cls-7" d="M165.78,244.21c-1.25,9.23,.66,18.66-1.66,27.83-.94-.12-1.87-.25-2.81-.37-.37-8.54-2.13-17-1.42-25.59,1.7-1.46,3.58-2.36,5.89-1.86Z"/><path class="cls-16" d="M159.86,239.25c-2.2-1.67-4.61-3.2-4.48-6.48,2.44-.01,4.87-.02,7.31-.03,.27,.21,.53,.44,.78,.69-.58,2.33-1.64,4.36-3.62,5.82Z"/><path class="cls-4" d="M188.23,86.18c.04,2.23,.08,4.47,.12,6.7-3.54,1.94-3.06,7.03-6.86,8.76-3.74-.65-7.49-1.3-11.23-1.95,.3-.97,.6-1.94,.9-2.9,2.81-3.66,4.11-7.58,2.08-12.08,4.96,.83,10.3-2.22,14.99,1.46Z"/><path class="cls-7" d="M181.36,105.08c.06,.38,.17,.74,.33,1.08-1.99,1.93-3.98,3.86-5.96,5.78l-2.87,.51c-1.07-2.78-1.56-5.9-4.34-7.72,4.28,.11,8.63-2.13,12.84,.35Z"/><path class="cls-9" d="M181.36,105.08c-4.22-2.47-8.56-.24-12.84-.35,.58-1.68,1.16-3.35,1.74-5.04,3.75,.65,7.49,1.29,11.23,1.94-.04,1.15-.09,2.29-.13,3.44Z"/><path class="cls-13" d="M172.85,112.46l2.87-.51c-.5,1.42-1.5,2.37-2.85,2.97l-.05-.04c0-.81,.02-1.62,.02-2.42Z"/><path class="cls-14" d="M188.23,86.18c-4.69-3.68-10.03-.63-14.99-1.46-1.19-.04-2.38-.09-3.58-.14-.75-.36-2.18-.9-2.14-1.07,.48-1.88,2.26-1.81,3.73-2.2,5.74,3.14,11.51-.54,17.26,.05-.09,1.61-.19,3.21-.28,4.82Z"/><path class="cls-4" d="M181.46,142.54c.23,4.86,2.44,9.72,.09,14.6-3.37-2.93-7.42-3.25-11.61-3.02-.4-2.9,1.4-5.79,.08-8.7,.04-.89,.07-1.78,.1-2.67,3.75-1.45,7.65,5.11,11.33-.21Z"/><path class="cls-5" d="M181.46,142.54c-3.68,5.32-7.58-1.24-11.33,.21-.11-2.95-.21-5.89-.32-8.84,2.32,.96,5.13,4.09,6-1.36,3.93,.88,2.17,5.97,5.44,7.35l.22,2.64Z"/><path class="cls-7" d="M175.81,132.55c-.87,5.45-3.68,2.31-6,1.36,.15-.64,.31-1.27,.46-1.91,.4-.59,.8-1.18,1.21-1.77,0,0,.2,.03,.2,.03,.23-.72,.47-1.44,.71-2.17,1.07-1.84,2.91-2,4.75-2.17,.04,.65,.09,1.29,.13,1.93-.49,1.56-.97,3.13-1.46,4.69Z"/><path class="cls-10" d="M171.48,130.23c-.4,.59-.81,1.18-1.21,1.77,.4-.59,.81-1.18,1.21-1.77Z"/><path class="cls-12" d="M177.26,127.85c-.04-.64-.09-1.29-.13-1.93,.72-1.69,1.35-3.59-1.6-3.02-2.74,.52-5.14-.53-7.69-.87,1.87-4.88,6.85,.31,9.24-2.86,8.05-.43,9.04-5.63,8.15-12.09,4.82-1.12,4.11,2.46,5.12,5.32,1.21,3.42-2.5,9.27,4.49,10.08-.77,3.03-2.74,4.41-5.82,4.09-2.67-.28-5.27-.4-7.63,1.17-1.37,.36-2.73,.97-4.13,.12Z"/><path class="cls-9" d="M185.24,107.08c.89,6.46-.1,11.65-8.15,12.09,.13-2.94-4.1-1.56-4.21-4.25,1.35-.61,2.35-1.55,2.85-2.97,1.99-1.93,3.97-3.86,5.96-5.78,1.18,.31,2.37,.61,3.55,.92Z"/><path class="cls-16" d="M153.45,82.64c-.33-.32-.64-.67-.94-1.03,.37,.08,.72,.19,1.07,.33l-.13,.7Z"/><path class="cls-7" d="M257.24,81.5c-.99-.92-1.97-1.84-2.96-2.77,0-.57,0-1.13,0-1.7-.04-.89-.08-1.79-.11-2.68,2.63-.13,5.27-.16,7.89-.41,2.52-.24,4.97-.61,5.18,3.02-1.66,1.04-3.32,2.07-4.98,3.11,.05,.48-.16,.71-.63,.72-1.46,.24-2.93,.47-4.39,.71Z"/><path class="cls-14" d="M262.26,80.08c1.66-1.04,3.32-2.07,4.98-3.11,1.15,.01,2.3,.03,3.46,.04,2,5.18,6.56,1.93,9.82,2.98-.04,1.61-.69,3.05-2.44,2.71-5.25-1.02-10.85,.06-15.82-2.62Z"/><path class="cls-16" d="M257.24,81.5c1.46-.24,2.93-.47,4.39-.71-4.52,6.84-12.29,6.98-19.03,9.24,.02-.5,.04-.99,.07-1.49,4.86-2.35,9.72-4.69,14.58-7.04Z"/><path class="cls-8" d="M216.47,301.04c4.36,2.47,2.66,6.53,2.65,10.14-3.93-2.59-2.22-6.65-2.65-10.14Z"/><path class="cls-5" d="M270.7,77.01c-1.15-.01-2.3-.03-3.46-.04-.21-3.63-2.66-3.25-5.18-3.02-2.62,.24-5.26,.28-7.89,.41,.16-3.82,3.23-2.99,5.36-3.06,6-.2,12.01-.09,18.02-.1,.09,4.73-4.13,4.39-6.85,5.81Z"/><path class="cls-3" d="M231.13,71.17c-.36-.14-.72-.28-1.09-.4,.42-3.62,2.75-4.07,5.71-3.41,2.33,.52,4.67,1.29,6.88-.37,2,.46,4,.91,6,1.37-1.78,2.49-5.05,1.52-7.22,3.11-2.28-.04-4.57-.1-6.64,1.13-.28-.08-.49-.24-.63-.49-1-.31-2.01-.61-3.01-.91Z"/><path class="cls-14" d="M234.77,72.58c2.07-1.23,4.36-1.17,6.64-1.13,.18,1.3,.37,2.59,.55,3.89-.75,1.06-1.49,2.13-2.23,3.19h.01c-1.67,.32-2.55,1.4-2.86,3.02l-.44,.08h-.44c-1.08,.37-2.16,.76-3.23,1.15-.13-.5-.26-.99-.39-1.49,.88-2.88,5.16-4.83,2.39-8.71Z"/><path class="cls-9" d="M273.22,63.87c0,.51,0,1.01,0,1.52-6.39,.01-12.25,3.52-18.74,2.83-.07-.47-.12-.94-.16-1.41,6.21-1.58,12.21-4.48,18.9-2.94Z"/><path class="cls-5" d="M239.73,78.53c.74-1.06,1.48-2.12,2.23-3.19,4.11,.56,8.22,1.13,12.33,1.7,0,.57,0,1.13,0,1.7-4.85-.07-9.7-.14-14.55-.21Z"/><path class="cls-4" d="M57.96,50.92h0Z"/><path class="cls-10" d="M92.72,85.92c-.41-.14-.81-.27-1.23-.39,0-.94,0-1.88,0-2.82,5.79-1.45,11.54-.04,17.31,.21-4.98,3.04-11.02,.41-16.08,3Z"/><path class="cls-11" d="M167.51,333.15c-.59-10.2-1.19-20.41-1.78-30.61,2.33,.45,4.67,.9,7,1.35,.04,7.27,.07,14.54,.11,21.81-3.8,1.04-3.67,4.88-5.33,7.45Z"/><path class="cls-11" d="M168.37,337.43c-.33-1.03-.67-2.06-1-3.09,1.3,.72,2.14,1.58,1,3.09Z"/><path class="cls-7" d="M208.08,245.7c-1.68-1-1.53-2.68-1.59-4.28,.52,.02,1.04,.04,1.56,.06,1.09,1.4,1.1,2.81,.03,4.22Z"/><path class="cls-9" d="M196.17,164.65c-3.02,.87-6.05,1.74-9.07,2.61-.3-.86-.61-1.72-.91-2.58,3.88-1.65,6.9-3.15,3.54-8.43-1.42-2.24-.5-6.07-.38-9.16,.07-1.85,1.06-3.35,3.28-2.63,1.56,.51,3.97,1.56,2.92,3.29-2.24,3.7,2.83,7.84-1.45,11.47-2.07,1.76,1.55,3.49,2.07,5.44Z"/><path class="cls-10" d="M180.69,173.7c.26,3.35,3.41,7.85-3.35,8.39-2.66-1.79-5.05-3.74-4.46-7.47,2.6-.31,5.21-.62,7.81-.92Z"/><path class="cls-8" d="M119,81.5c0-.53,.02-1.07,.03-1.61,.5,.04,1.01,.08,1.51,.13,2.73,.52,5.46,1.04,8.19,1.56,3,2.72,6.61,3.99,10.58,4.41,1.08,.76,2.16,1.52,3.24,2.28-.53,.58-1.07,1.16-1.6,1.75-7.84-1.48-14.87-5.06-21.95-8.51Z"/><path class="cls-4" d="M114.97,80.95c.38,.22,.74,.47,1.08,.74-.36-.24-.72-.49-1.08-.74Z"/><path class="cls-8" d="M162.68,325.77c.36,.41,.71,.82,1.07,1.22-.36-.41-.71-.82-1.07-1.22Z"/><path class="cls-7" d="M163.12,211.41c0,4.2-.01,8.41-.02,12.61-2.18,.46-4.36,.93-6.54,1.39,.05-1.42,.1-2.84,.15-4.26,1.99-2.6,1.49-5.67,1.61-8.61,.44-2.44,1.82-4.03,4.21-4.73,.2,1.2,.4,2.4,.59,3.6Z"/><path class="cls-5" d="M161.31,271.66c.94,.12,1.87,.25,2.81,.37,.02,2.01,.04,4.02,.06,6.02-1.84,2.6-2.54,5.2,0,7.81-.48,1.04-.97,2.08-1.45,3.13-.11,.31-.22,.62-.34,.93-.77,.1-1.54,.2-2.32,.3-.03-5.04-.06-10.07-.1-15.11,.44-1.15,.89-2.29,1.33-3.44Z"/><path class="cls-5" d="M156.56,225.41c2.18-.46,4.35-.93,6.54-1.39,1.7,2.99,.18,5.83-.4,8.72-2.44,.01-4.87,.02-7.31,.03,.06-2.51-.2-5.06,1.18-7.36Z"/><path class="cls-16" d="M159.98,275.1c.03,5.04,.06,10.07,.1,15.11-.59,.07-1.17,.14-1.76,.21,.02-5.11,.03-10.21,.05-15.32,.54,0,1.07,0,1.61,0Z"/><path class="cls-5" d="M158.32,212.54c-.12,2.95,.39,6.01-1.61,8.61-.44-.55-.88-1.1-1.31-1.65,.24-2.63,.96-5.05,2.92-6.96Z"/><path class="cls-4" d="M152.52,221.1c.48,0,.96-.02,1.44-.03-.1,1.44-.2,2.87-.3,4.31-.38-1.43-.76-2.85-1.14-4.28Z"/><path class="cls-3" d="M164.18,285.86c-2.53-2.61-1.83-5.21,0-7.81,6.29-2.14,8.22,.38,6.86,6.42-2.29,.46-4.58,.93-6.87,1.39Z"/><path class="cls-16" d="M162.39,289.92c.11-.31,.23-.62,.34-.93,.43,.27,.87,.53,1.3,.8-.55,.04-1.09,.08-1.64,.12Z"/><path class="cls-6" d="M142.54,88.27c-1.08-.76-2.16-1.52-3.24-2.28-.93-4.52-5.51-3.81-8.24-5.74,2.4-.22,4.85-.19,6.98-1.59,4.53,.22,8,2.45,10.91,5.74-.87,1.3-1.74,2.6-2.61,3.9-1.27-.01-2.54-.02-3.8-.03Z"/><path class="cls-11" d="M138.05,78.66c-2.13,1.4-4.58,1.37-6.99,1.59-.78,.45-1.56,.89-2.33,1.34-2.73-.52-5.46-1.04-8.19-1.56,4.64-2.63,9.61-2.2,14.6-1.54,.97,.06,1.94,.12,2.9,.18Z"/><path class="cls-10" d="M155.39,199.24l.5-.9c-.16,.31-.31,.62-.47,.93l-.04-.03Z"/><path class="cls-5" d="M236.89,81.55c.31-1.62,1.19-2.69,2.86-3.02-.32,1.61-1.3,2.59-2.86,3.02Z"/><path class="cls-8" d="M206.4,78.11l.22,.61-.5,.18,.28-.79Z"/><path class="cls-8" d="M219.41,77.11c-.82,2.08-1.85,2.29-3.13,.36,1.04-.12,2.09-.24,3.13-.36Z"/><path class="cls-11" d="M134.74,265.92c1.4-8.63,3.95-16.96,6.75-25.21,.67-1.96,1.03-4.39,3.73-4.91-2,10.56-4.23,21.04-10.49,30.11Z"/><path class="cls-9" d="M151.22,218.21c.18,.8,.36,1.6,.54,2.4-2.68,3.87-2.72,9.08-6.3,12.5,.38-5.56,2.2-10.56,5.75-14.89Z"/><path class="cls-11" d="M134.52,270.45c-.22-.49-.43-.99-.65-1.48,.22,.49,.43,.99,.65,1.48Z"/><path class="cls-9" d="M153.37,212.29c.11,1.18-.25,2.15-1.29,2.8-.6-1.41,.03-2.25,1.29-2.8Z"/><path class="cls-4" d="M177.26,127.85c1.4,.85,2.77,.23,4.13-.12-.05,4.05-.1,8.11-.15,12.16-3.27-1.37-1.5-6.47-5.44-7.35,.49-1.56,.97-3.13,1.46-4.69Z"/><path class="cls-8" d="M198.82,123.83c-.37-.7-.12-.79,.51-.52-.16,.17-.33,.35-.51,.52Z"/><path class="cls-14" d="M196.25,94.62c.42-.04,.85-.06,1.27-.05-.43,.02-.85,.03-1.27,.05Z"/><path class="cls-14" d="M231.13,71.17c1.01,.3,2.01,.61,3.01,.91-1.2,.35-2.2,.03-3.01-.91Z"/><path class="cls-9" d="M185.14,195.95c-.22-1.26-.44-2.52-.67-3.78-.13-4.88,3.78-7.6,5.95-11.26,1.18-1.99,2.92-2.29,4.01-.88,2.19,2.82,5.27,1.57,7.85,2.42l-.06-.05c-3.54,3.52-.77,10.66-7.17,12.55-.93-.03-1.86-.05-2.79-.08-2.5-.51-4.78,.52-7.12,1.07Z"/><path class="cls-11" d="M163.12,211.41c-.2-1.2-.39-2.4-.59-3.6-.68-5.44,2.45-9.65,4.59-14.19,3,5.64,3.14,11.63,2.17,17.75-2.06,.01-4.11,.02-6.16,.03Z"/><path class="cls-4" d="M128.73,81.58c.78-.45,1.55-.89,2.33-1.34,2.74,1.94,7.32,1.22,8.25,5.74-3.96-.42-7.58-1.69-10.58-4.41Z"/></g></g></svg>