<?xml version="1.0" encoding="UTF-8"?><svg id="Layer_2" xmlns="http://www.w3.org/2000/svg" viewBox="0 0 536.77 213.59"><defs><style>.cls-1{fill:#fefefe;}.cls-2{fill:#a1abb8;}.cls-3{fill:#8a99ac;}.cls-4{fill:#8a919a;}.cls-5{fill:#a8dffb;}.cls-6{fill:#b2bcc8;}.cls-7{fill:#dadfe8;}.cls-8{fill:#c8ccd5;}.cls-9{fill:#373839;}.cls-10{fill:#454645;}.cls-11{fill:#6f767c;}.cls-12{fill:#292b2a;}.cls-13{fill:#5c656d;}.cls-14{fill:#3a3d42;}.cls-15{fill:#8292ac;}.cls-16{fill:#7b838e;}</style></defs><g id="Layer_1-2"><g><path class="cls-1" d="M271.58,205l1.86-.37c4.43,1.18,8.34-1.06,12.3-2.21,27.67-8.04,55.3-16.22,81.05-29.59,7.24-3.76,13.23-9.38,20.43-13.16,.87,.03,1.62-.16,2-1.06,9.58-3.75,18.21-9.05,25.62-16.19,3.19-3.08,6.25-6.4,6.45-11.27,.92-2.64,1.81-5.29,3.46-7.6,3.09,.61,5.99-.32,8.59-1.66,17.94-9.23,36.18-17.93,53.38-28.49,11.35-6.97,23.24-13.33,32.29-23.51,1.21-.1,1.9-.75,2.07-1.95,1.78-.17,2.81-1.09,2.94-2.92,6.08-3.87,10.26-9.12,11.76-16.29,.41-2.43,1.44-4.8,.81-7.35,.5-1.44-.04-2.25-1.51-2.49-.27-.12-.55-.16-.84-.14-.75-1.59-1.51-3.18-2.26-4.77-.05-1.47-.83-2.05-2.25-1.85-2.21-1.17-4.41-2.35-6.62-3.52-.73-2.18-2.89-1.99-4.49-2.58-17.55-6.51-36.08-6.29-54.29-6.74-20.43-.51-40.91,1.35-61.22,3.92-5.94,.75-12.17,.26-17.84,2.85-6.99,.97-13.97,1.93-20.96,2.9-.42-.78-1.15-.99-1.96-1.05-7.48-7.91-17.88-10.85-27.11-15.74-2.11-1.12-4.23-2.71-6.93-2.22-1.24-1.76-3.22-2.2-5.08-2.85-11.63-4.05-23.72-5.68-35.9-6.85-6.31-.11-12.64-.73-18.87,.85-3.29,.12-6.58,.25-9.87,.37-.88-.38-1.58-.21-2.06,.66-4.72,.73-9.49,1.26-14.15,2.3-1.7,.38-4.24-.1-4.92,2.54-3.38-.02-6.77-.1-9.29,2.76-1.14,.23-2.34,.28-3.4,.71-14.15,5.71-27.71,12.46-39.37,22.53-6.39,5.51-13,10.8-17.63,18.02-.43,.51-.86,1.01-1.29,1.52-1.8,1.02-3.32,2.28-3.73,4.46-.21,.11-.3,.28-.27,.51-3.43,2.85-5.96,6.34-7.62,10.48-.22,.14-.32,.34-.32,.59-1.02,.48-1.63,1.23-1.57,2.41-3.01,4.73-5.92,9.51-7.67,14.88-1.24,.26-1.38,1.17-1.31,2.21-7.8,3.11-15.68,6.07-23.39,9.39-5.86,2.52-12.18,4.11-17.34,8.14l-2.43,.94c-3.31,.37-6.11,1.81-8.53,4.06-12.85,4.65-24.66,11.39-36.45,18.15-9.7,4.51-18.57,10.34-27.04,16.83-3.97,1.9-7.05,4.93-10.12,7.96-2.09,.86-3.64,2.36-4.96,4.14-5.2,4.4-9.55,9.5-12,15.91-1.12,2.92-2.88,6.04-.47,9.24,.35,2.8,1.38,5.21,3.86,6.8,1.44,2.82,4.08,3.98,6.85,4.96,.51,.15,1.02,.29,1.54,.43,1.14,1.91,3.19,2.24,5.06,2.87,7.59,2.54,15.48,3.58,23.37,4.62,.59,.97,1.24,.96,1.96,.14,3.04,0,5.93,1.39,9.02,.89,1.94,1.51,3.95,1.31,5.99,.21,15.62,1.65,31.24,1.03,46.86-.01,2.03,1.12,4.03,1.29,5.98-.19,1.65-.09,3.31-.19,4.96-.28,8.49,.43,16.79-1.59,25.21-2.03,1.96,1.4,3.92,2.81,5.88,4.21,5.92,6.54,13.5,7.32,21.62,6.27,3.05,2.44,6.66,1.39,9.99,1.38,7.81-.03,15.65-.93,23.43-.05,8.17,.92,16.25,.75,24.34-.57h.3c.69,0,1.38,.01,2.07,.01,1.1,.19,2.17,.22,3.06-.63l.98-.14c7.47,.13,14.66-1.78,21.92-3.12,.98,1.27,1.63,.64,2.2-.38l2.79-.58c1.09,1.34,1.66,.5,2.19-.53,.61-.12,1.21-.24,1.82-.36,1.19,1.26,1.7,.36,2.17-.67,.62-.09,1.23-.18,1.85-.27,1.43,1.31,2.41,.87,3.1-.78Z"/><path class="cls-15" d="M5.06,189.59c-2.48-1.59-3.51-4-3.86-6.8,1.81-.44,1.23,2.72,3.64,2.06-2.08-3.65-.21-5.55,2.67-7.71,2.81-2.1,6.16-3.26,8.78-5.5,2.2-1.88,3.72-3.99,7.05-1.3,1.12,.9,6.36,.95,5.76-.81-2.41-7,3.05-3.38,4.71-3.7,4.7-.92,9.34,2.4,13.32,2.28,7.89-.24,15.83,.08,23.72-.47,3.98,0,7.95,0,11.93,.01,9.95-.02,19.9-.04,29.85-.05l9.31,.36c-1.04,3.61-5.38,5.46-5.17,9.73-.84,3.29,.11,6.2,1.9,8.93-.69,2.2,1.74,2.93,2.4,4.83-2.69,.22-5.65-.15-5.86,3.73-.03,.64-1.36,1.36-2.22,1.78-6.57,3.18-13.43,4.64-20.82,4.81-9.02,.2-17.74-2.16-26.7-2.15-3.55,0-7.06,.24-10.68-.07-4.75-.41-9.34-.41-13.72-2.59-.68-.34-1.95,.13-2.8,.55-1.72,.84-3.27,.84-5.22,.47-6.49-1.24-13.07-2.03-19.62-3-.51-.15-1.02-.29-1.54-.44-.42-4.22-3-5.48-6.85-4.96Zm71.63,2.68c1.91,.19,2.66,.37,3.4,.33,11-.65,21.87-2.3,32.74-4.01,.85-.13,1.77-.39,1.65-1.42-.17-1.54-1.27-.99-2.24-.83-11.45,1.93-22.91,3.83-35.55,5.93Zm-37.99-23.21c-.58-1.78-2.22-1.32-3.58-1.33-1.35-.01-2.87,.28-2.81,1.95,.07,1.96,1.8,1.98,3.29,1.97,1.62,0,2.86-.56,3.11-2.59Z"/><path class="cls-3" d="M70.87,167.64c-7.89,.55-15.83,.22-23.72,.47-3.99,.12-8.62-3.19-13.32-2.28-1.66,.32-7.13-3.3-4.71,3.7,.6,1.75-4.64,1.71-5.76,.81-3.33-2.68-4.85-.57-7.05,1.3-2.62,2.24-5.97,3.4-8.78,5.5-2.88,2.15-4.76,4.06-2.67,7.71-2.41,.66-1.83-2.5-3.64-2.06-2.41-3.2-.65-6.33,.47-9.24,2.45-6.41,6.8-11.51,12-15.91,4.27-1.17,8.14,4.14,14.01,.38-4.78-.02-7.1-1.98-9.06-4.52,3.08-3.03,6.15-6.07,10.12-7.96,.22,.24,.51,.72,.65,.68,3.98-1.2,8-2.31,11.89-3.78,.96-.36,1.33-1.68,2.75-.5,7.34,6.12,14.28-1.73,21.49-.75,2.85-4.85,8.16-7.04,11.84-10.93,4.88-5.17,10.85-8.2,17.38-10.47-.09,1.89-1.19,3.3-2.83,3.72-2.71,.69-4.58,2.54-6.78,3.99-3.46,2.3-5.75,5.43-5.03,9.47,.82,4.58,4.16,7.7,8.75,8.52,4.68,.84,9.69,1.09,14.26,.68,9.3-.84,18.47-3.18,27.67-4.99,17.3-3.4,33.93-9.08,50.57-14.8,8.93-3.07,18.01-5.69,26.94-8.74,12.29-4.19,25.04-6.98,37.11-11.85,1.68,2.62-.07,4.07-2.09,4.78-1.65,.58-3.45,.78-5.19,1.32-9.12,2.85-18.05,6.39-27.54,7.93-1.34-.04-2.01,.62-2.04,1.95h0c-6.63,2.77-13.93,2.48-20.7,5.68-10.99,5.18-24.12,5.82-32.84,15.81-.19,.22-.58,.3-.9,.37-5.62,1.25-9.92,4.86-14.44,8.09-1.12,.23-2.63,1.04-3.31,.6-3.57-2.37-6.48-.63-9.72,.79-2.21,.97-4.82,1-7.2,1.63-5.09,1.35-10.41,2.23-15.16,4.36-6.92,3.11-13.77,5.5-21.49,4.64-2.62-.29-5.31-.04-7.97-.05-1.37,0-2.73,0-2.99,1.83-10.4-1.29-20.8-2.59-31.2-3.88l-.2,1.66c2.84,.45,5.67,.95,8.52,1.35,7.3,1.02,14.61,2,21.92,2.99Z"/><path class="cls-16" d="M166.45,52.48c.43-.51,.86-1.01,1.29-1.52,2.49-1.06,4.77-2.48,7.81-1.2,1.91,.8,3.08-.73,4.62-2.3,3.09-3.16,4.22-9.13,10.43-8.52,.87,1.22,1.91,.89,3.08,.45,5.09-1.92,10.12-4.04,15.33-5.55,3.85-1.12,7.98-.8,10.7,2.65,2.63,3.35,4.86,7,7.02,10.73,1.92,3.32,.68,9.24,6.77,9.66-1,.62-1.99,1.24-2.99,1.87-1.65,.41-3.3,.83-4.94,1.24-3.52-.29-6.46,2.39-10,1.95-.05-1.26-.63-2-1.96-2.01,.62-1.27,1.13-2.56,.94-4.02,1.74-1.72,.92-3.13-.87-3.74-2.21-.75-3.86,.12-4.14,2.71-.99,.01-1.97,.02-2.96,.03-12.42,1.34-21.33,9.5-31.08,16.03-4.87,.53-5.07,6.26-8.88,7.97l-21.36,6.91c1.76-5.37,4.66-10.15,7.67-14.88,1.38-.24,1.76-1.14,1.57-2.41,0-.26,.11-.46,.32-.59,3.71-2.64,7.07-5.54,7.62-10.48-.03-.23,.06-.4,.27-.51,2.47-.46,4.39-1.38,3.73-4.46Z"/><path class="cls-7" d="M524,65.01c-.13,1.83-1.16,2.75-2.94,2.92-2.7-1.48-1.76,.89-2.07,1.95-9.05,10.18-20.94,16.54-32.29,23.51-17.2,10.56-35.44,19.26-53.38,28.49-2.6,1.34-5.5,2.27-8.59,1.66,.76-4.18,2.55-7.98,4.39-11.76,1.23-.05,1.99-.61,2.06-1.91,.48-1.41,2.26-2.02,2.28-3.71,.37-.22,.75-.44,1.12-.65,2.45-.71,3.68-2.07,2.53-4.71-1-2.23,1.92-5.57-1.98-6.97-.71-.57-1.41-1.14-2.12-1.71,.33-.99,.14-3.23,1.17-2.7,3.27,1.67,5.79-2.22,8.75-.74,1.64,.82,4.18-2.88,5.11,1.07-3.81,.65-6.66,2.86-9.64,5.66,4.82,.01,9.08-1.8,10.79-4.38,.32-.4,.65-.8,.97-1.2l-.06,.03c5.73,.42,10.19-2.84,14.97-5.18,.72-.09,1.45-.18,2.17-.27-.11,5.76,3.4,3.17,4.84,1.58,4.25-4.69,11.48-2.12,15.84-7.51,2.3-2.84,8.14-3.65,11.32-5.68,7.89-5.05,16.02-9.79,23.81-15.03,1.41-.95,2.92-1.4,4.08-.41,1.36,1.15-.14,2.42-.76,3.44-.83,1.38-2.5,2.28-2.38,4.2Z"/><path class="cls-8" d="M387.21,159.67c-7.2,3.78-13.19,9.41-20.43,13.16-25.75,13.37-53.37,21.55-81.05,29.59-3.96,1.15-7.87,3.39-12.3,2.21,.67-1.44,2.91-.77,3.36-2.51,.53-.03,1.06-.06,1.59-.08,1.23,.85,1.91,.1,2.51-.88,.51-.04,1.02-.08,1.54-.11,2.24,.4,4.17,.09,5.18-2.29,.93-.03,1.85-.06,2.78-.09,12.34-2.34,24.07-6.71,35.8-11,5.5-2.01,11.35-3.29,16.17-6.92v.05c.62-.08,1.24-.17,1.87-.25l1.13-.58c.97-.44,1.94-.87,2.92-1.31,8.08-3.06,15.49-7.29,21.66-13.34,3.57-3.5,3.13-6-.72-8.65-11.21-4.57-22.61-2.66-34-1.03-1.9,.06-3.81,.11-5.71,.17-7.41,1.48-14.99,2.21-22.13,4.89-3.07,.52-6.14,1.07-9.22,1.56-7.79,1.25-15.12,4.56-23.04,5.22l.56-2.06,1.76-.56c2.11,1,3.69-.04,5.21-1.35l1.79-.55c2.35,.6,4.42,.08,6.17-1.61l1.81-.45c1.05,1.13,1.65,.42,2.19-.54l1.81-.43c1.08,1.15,1.66,.42,2.18-.57l1.81-.39c.99,1.05,1.61,.39,2.19-.48,2.23-.5,4.47-1,6.7-1.51,.45,.46,.79,.32,1.07-.18,1.65-.41,3.31-.81,4.96-1.22,6.68-1.06,13.36-2.12,20.04-3.18,3.99-.47,7.98-.93,11.98-1.4l7.91-.34c1.37-.05,2.74-.1,4.12-.16,4.29,.07,8.59,.13,12.88,.2,.59,.68,1.3,.73,2.08,.41,1.3,.2,2.6,.4,3.91,.6,2.8,.61,6.31,6.34,7.96-1.13,2.05-.37,3.11-1.96,4.2-3.48,3.3-2.73,5.76-5.65,2.09-9.86-1.52-1.51-3.27-2.64-5.44-2.81-2.85-.22-5.56-.75-7.81-2.69-1.83-2.99-3.44-6.34-7.98-5.17l-2.81-.11c-.04-.53-.08-1.06-.12-1.59,8.59-.77,17.19-1.41,25.82-1.09,8.28,.3,16.58,.63,24.02,5,.72,1.19,1.5,2.31,3.08,2.38-.2,4.87-3.26,8.19-6.45,11.27-7.41,7.14-16.03,12.45-25.62,16.19-1.6-1.41-1.79-.15-2,1.06Zm11.83-31.39c-2.87-.93-5.08,.03-7.11,1.47-.65,.46-.25,1.2,.43,1.53,2.69,1.26,4.12-1.31,6.16-2.06,.11-.04,.16-.26,.52-.93Zm10.64,7.15c-1.11-1.1-2.42-.64-3.57-.27-1.47,.47-4.07,.8-3.47,2.61,.84,2.54,2.64,.16,3.91-.31,1.08-.4,2.73-.14,3.13-2.03Zm-14.23,14.05c2.51,.58,4.66-.13,6.51-1.86,.11-.11-.3-1.13-.46-1.13-2.26,.04-4.56,.12-6.04,2.25-.08,.11,0,.32,0,.73Z"/><path class="cls-16" d="M531.96,33.96c.75,1.59,1.51,3.18,2.26,4.77l-.29,.18c-2.67,.58-4.27-2.55-6.93-2.01-.32-.55-.6-1.55-.96-1.58-7.5-.59-15.37-2.47-22.44,.18-12.62,4.74-24.7,10.88-37.14,16.13-4.7,1.98-9.06,4.92-14.23,5.68-11.69,1.71-23.22,.3-34.69-1.92-.51-.1-.89-.92-1.33-1.4,.42-.91,.84-1.83,1.26-2.75,.64-.41,1.29-.81,1.93-1.21,3.77-3.06,6.4-7.04,8.93-11.1,2.77,.06,2.66-3.29,4.76-4.02,.59,4.43,2.92,5.37,7.05,4.06,4.22-1.34,8.61-2.78,13.11-1.98,7.84,1.39,14.6-2.96,22-3.99,2.7-.38,5.38,.51,8.11-.62,6.36-2.63,13.24-3.07,19.92-2.15,3.09,.43,6.18-.53,9.18,.58,.9,.33,2.11,.1,2.29-1.2,.19-1.33-1.05-1.37-1.88-1.85-1.33-.77-3.5-.31-3.89-2.52,4.96,.01,9.28,2.75,14.1,3.35,2.21,1.17,4.41,2.35,6.62,3.52,.37,1.09,1.09,1.73,2.25,1.85Z"/><path class="cls-16" d="M169.36,211.68c-8.12,1.05-15.7,.27-21.62-6.27,1.41-5.7,1.02-10.8-5.09-13.61-3.04-1.4-5.64-3.36-7.94-5.68-2.68-2.72-5.98-3.43-9.54-4-.1,3.65,6.05,4.2,3.53,8.51-1.58,.05-2.6-1.04-3.76-1.85-.73-1.38-1.46-2.75-2.19-4.13,1.5-1.55,.26-1.79-.97-2.04-.01-.33-.03-.65-.06-.98,.26-2.41,1.35-3,3.73-2.23,5.18,1.67,10.5,2.89,15.66,4.61,3.31,1.1,6.23,3.1,8.83,5.45q4.63,4.18,8.69-.77l17.96-10.93c2.6,.03,4.52-1.87,6.9-2.44,.49,3.36-2.22,6.1-1.85,9.44-1.68,1.96-3.37,3.92-5.05,5.88-2.59-1.13-1.68,1.04-1.97,2.08l.07-.06c-3.83,2.77-3.83,6.64,.12,9.35,1.46,1,3.18,1.63,4.79,2.43-.81,2.09-3.64,.2-4.35,1.84,.45,3.05,3.02,2.7,4.76,4.04-3.55,.45-7.11,.91-10.66,1.36Z"/><path class="cls-6" d="M258.56,1.44c3.29-.12,6.58-.25,9.87-.37,.53,2.77,2.77,1.92,4.4,1.87,2.07-.05,3.76,.53,4.43,2.43,1.93,5.42,6.95,7.64,10.8,11.15,4.21,3.83,10.35,6.45,10.42,13.55-.03,.9-.05,1.8-.08,2.7-.36,3.82,2.03,4.36,5.01,4.18l1.04,.16c-.16,2.39-2.05,2.8-3.82,3.2-2.72,.61-5.47,1.09-8.2,1.63,.04-1.66-1.32-2.28-2.42-2.89-4.27-2.34-7.34-6.12-11-9.18-5.65-4.74-9.28-11.16-12.82-17.54-1.4-2.53-2.99-5.74-5.64-5.93-6.65-.48-13.44-1.59-20.04,.67l-1.89,.12-1.18-.27c.69-2.64,3.23-2.16,4.93-2.54,4.66-1.04,9.42-1.57,14.15-2.3,1.17,1.31,1.67,.48,2.06-.66Z"/><path class="cls-7" d="M287.3,.21c12.18,1.17,24.27,2.8,35.9,6.85,1.86,.65,3.84,1.09,5.08,2.85,.4,.68,.69,1.83,1.23,1.97,4.53,1.17,7.23,4.99,10.89,7.29,6.11,3.84,10.06,12.2,19.58,9.79-5.23,2.25-10.4,3.24-15.8,2.91,.39-4.35-3.32-4.76-5.97-6.2-.16-6.05-5.1-7.33-9.25-9.72-7.57-4.36-15.97-4.88-24.26-5.87-2.79-.34-4.24,1.72-2.52,4.19,4.74,6.79,7.19,15.54,15.86,19.1,.99,.41,1.27,1.48,1.31,2.53-4.24-.16-8.13-2.5-12.48-2.01-.89-2.61-3.18-3.45-5.46-4.3-.79-8.11-6.27-12.85-12.3-17.23-2.75-1.99-7.21-3.47-2.25-7.89,.79-.7,.31-2.81,.42-4.27Z"/><path class="cls-15" d="M190.59,38.94c-6.21-.62-7.33,5.35-10.43,8.52-1.54,1.57-2.71,3.1-4.62,2.3-3.04-1.28-5.32,.14-7.81,1.2,4.63-7.23,11.24-12.51,17.63-18.02,11.66-10.07,25.22-16.82,39.37-22.53,1.06-.43,2.26-.48,3.4-.71,.8,.11,1.59,.22,2.39,.32,.68,.91,1.68,.87,2.68,.98,1.51,.17,3.84-.78,4.07,1.6,.21,2.24-.24,4.81-2.52,6.06-2.52,1.38-5.39,1.51-8.23,1.31-2.94-1.56-5.8-3.51-6.19,2.36-.16,2.38-2.43,1.86-3.86,.88-3.04-2.07-4.51-1.18-5.01,2.25-.21,1.48-1.46,2.98-2.61,2.23-5.75-3.76-8.5,1.47-12.36,3.64-3.13,1.76-6.18,3.33-5.9,7.62Z"/><path class="cls-4" d="M94.75,119.79c-6.53,2.27-12.49,5.3-17.38,10.47-3.67,3.89-8.99,6.08-11.84,10.93-7.22-.98-14.15,6.87-21.49,.75-1.41-1.18-1.78,.13-2.75,.5-3.89,1.47-7.9,2.58-11.89,3.78-.14,.04-.43-.44-.65-.68,8.47-6.49,17.34-12.32,27.04-16.83,.26,2.21,1.61,2.38,3.15,1.43,4.31-2.66,8.7-4.6,13.91-5.42,2.53-.4,5.55-.1,8-1.65,5.54-3.5,11.91-4.98,17.97-7.23,.39,3.12-2.42,2.92-4.06,3.94Zm-47.19,20.37l-.36,.83c.28,.12,.62,.39,.82,.31,.2-.08,.26-.51,.38-.79-.28-.12-.56-.24-.84-.36Z"/><path class="cls-2" d="M124.94,188.79c1.16,.81,2.18,1.9,3.76,1.85,.98,1.46,3.46,.94,3.98,3.01-5.34,3.19-10.68,6.38-16.02,9.58-1.65,.09-3.31,.19-4.96,.28-2.04-1.31-4.04-1.41-5.98,.19-15.62,1.04-31.24,1.66-46.86,.01-1.94-1.63-3.94-1.5-5.99-.21-3.09,.51-5.98-.9-9.02-.89-.59-.93-1.24-1.06-1.96-.14-7.89-1.04-15.78-2.08-23.37-4.62-1.87-.63-3.91-.95-5.06-2.86,6.54,.97,13.12,1.76,19.61,3,1.95,.37,3.49,.37,5.22-.47,.85-.41,2.12-.89,2.8-.55,4.38,2.19,8.97,2.18,13.72,2.59,3.62,.31,7.13,.08,10.68,.07,8.96-.01,17.68,2.35,26.7,2.15,7.38-.17,14.25-1.63,20.82-4.81,.86-.42,2.19-1.14,2.22-1.78,.21-3.88,3.17-3.51,5.86-3.73-.66-1.9-3.09-2.63-2.4-4.83,.34,.03,.68,.06,1.02,.09,1.36,1.66,3.2,2.09,5.22,2.07Z"/><path class="cls-7" d="M523.08,28.58c-4.82-.6-9.14-3.34-14.1-3.35-1.3-.16-2.6-.32-3.9-.49-1.58-1.19-3.26-1.14-5-.42l-3.57-.12c-5.39-2.4-10.92-1.69-16.46-.74l-13.95,.39c-.91-1.35-2.33-1.07-3.59-.99-7.79,.47-15.67-1.11-23.37,1.09l-2.98-.2c-3.71-.02-7.44-.19-11,1.2-1.29,.1-2.57,.21-3.86,.31-1.77-.22-3.58-.8-5.13,.67-1.94,.16-3.88,.31-5.81,.47-.84-.34-1.6-.33-2.18,.49-1.61,.14-3.22,.29-4.83,.43-.81-.31-1.57-.31-2.17,.44-9.64,1.33-19.27,2.67-28.91,4,3.03-3.03,7.22-2.78,10.95-3.78,1.14-.31,2.96,.4,2.01-1.95,5.67-2.59,11.9-2.1,17.84-2.85,20.31-2.57,40.78-4.43,61.22-3.92,18.21,.46,36.74,.23,54.29,6.74,1.6,.59,3.76,.39,4.49,2.58Z"/><path class="cls-16" d="M98.82,115.84c-6.05,2.25-12.42,3.73-17.97,7.23-2.45,1.55-5.47,1.25-8,1.65-5.21,.82-9.59,2.76-13.91,5.42-1.54,.95-2.89,.78-3.15-1.43,11.8-6.76,23.61-13.5,36.46-18.15,3.4-.18,6.18-1.66,8.53-4.06,.81-.31,1.62-.63,2.43-.94,2.19,.53,3.71-1.14,5.57-1.68-.54,3.35,.76,3.97,3.8,2.88,6.12-2.2,12.61-3.59,18.36-6.47,3.2-1.6,7.7-.48,9.74-4.44l2.94-.06c1.33,.03,1.99-.63,2.05-1.94,4.74,.06,8.74-2.32,12.95-3.98,0,.66,0,1.31,.01,1.97-9.47,5.02-19.99,7.44-29.65,11.97-6.15,2.89-13.25,3.84-18.32,8.92-4.23,0-7.72,2.76-11.85,3.12Z"/><path class="cls-8" d="M524,65.01c-.12-1.93,1.55-2.82,2.38-4.2,.62-1.03,2.12-2.29,.76-3.44-1.17-.99-2.67-.54-4.08,.41-7.78,5.24-15.92,9.98-23.81,15.03-3.18,2.03-9.02,2.85-11.32,5.68-4.37,5.39-11.59,2.82-15.84,7.51-1.44,1.59-4.95,4.18-4.84-1.57,4.29-3.96,10.29-4.96,14.82-8.52,.92-.36,1.89-.63,2.75-1.1,14.61-8.18,28.86-16.97,42.72-26.36,2.92-1.97,5.66-5.08,8.24,.27-1.51,7.17-5.69,12.42-11.76,16.29Z"/><path class="cls-11" d="M169.36,211.68c3.55-.45,7.11-.91,10.66-1.36-1.74-1.34-4.31-.99-4.76-4.04,.71-1.64,3.54,.25,4.35-1.84,.98,.04,1.97,.07,2.95,.11,1.34,.83,2.65,3.56,4.04,.05,.81-.13,1.83-.24,1.55-1.36-.34-1.31-1.5-1.59-2.74-1.52-.49-.64-.98-1.27-1.47-1.91,2.91-.3,2.26-1.45,.85-3.06-1.04-1.18-2.31-2.48-.24-4.09,1.95-1.52,3.17-.08,4.2,.98,.7,.72,.69,2.12,1.04,3.2,2.31,7.13,2.28,7.11,7.46,1.81,1.36-1.39,3.49-1.98,4.33-3.96,2.31-1.04,4.62-2.09,6.93-3.13-.63,3.31-4.56,4.57-4.98,8.01-3.47,4.33-2.79,6.96,2.07,8.05l-.08-.06c.32,.34,.64,.69,.97,1.03,2.04,.38,4.08,.76,6.11,1.14,.4,2.47,2.35,1.74,3.86,1.84,3.56,.25,7.2-.59,10.66,.88-8.09,1.31-16.17,1.48-24.34,.57-7.78-.88-15.62,.03-23.43,.05-3.34,.01-6.95,1.06-9.99-1.38Z"/><path class="cls-4" d="M108.78,103.87c-1.86,.54-3.38,2.21-5.57,1.68,5.16-4.03,11.48-5.62,17.34-8.14,7.72-3.32,15.59-6.28,23.39-9.39,7.9-1.31,14.93-5.35,22.66-7.2,6.44-2.37,13.06-4.15,19.5-6.61,10.23-3.92,21.02-6.4,31.57-9.48,2.64-.77,5.33-2,7.81,.41-13.44,4.24-26.84,8.64-40.35,12.69-15.72,4.71-31.21,10.04-46.52,15.95-1.56-.15-2.87,.63-4.27,1.12-8.54,2.94-16.74,6.88-25.57,8.98Z"/><path class="cls-8" d="M385.24,26.03c.95,2.35-.87,1.64-2.01,1.95-3.73,1-7.92,.75-10.95,3.78-5.06,2.45-10.69,1.98-16,3.13-4.75,.21-9.42-.82-14.23-.46-4.93,.38-9.64,2.8-14.71,1.53,2.32-2.32,5.33-2.71,8.38-2.98,2.32-.2,3.46-.96,1.57-3.21,1.42-1.49,2.73-.97,3.63,.47,.82,1.3,1.82,1.79,3.26,1.64,5.41,.33,10.58-.67,15.81-2.91-9.53,2.41-13.48-5.95-19.58-9.79-3.67-2.31-6.36-6.12-10.89-7.29-.54-.14-.82-1.29-1.23-1.97,2.7-.49,4.82,1.1,6.93,2.22,9.24,4.9,19.63,7.83,27.11,15.75,.12,1.35,.31,2.56,1.96,1.05,6.99-.97,13.97-1.93,20.96-2.9Z"/><path class="cls-13" d="M421.27,131.14c-1.58-.07-2.36-1.19-3.08-2.38,.84-.33,2.55-.95,.98-1.71-3.58-1.72-2.92-4.07-2.13-6.98,1.22-4.44,1.52-9.23,3.29-13.41,1.69-3.98,2.38-9.96,9.39-8.65,2.06,.39,1.11-1.48,1.41-2.39,1.7,1.58,2.21,3.4,1.42,5.67-.59,1.7-.77,3.5,.91,4.86-.02,1.69-1.8,2.3-2.28,3.7-1.48-.22-2.1,.5-2.06,1.91-1.84,3.78-3.63,7.58-4.39,11.76-1.65,2.31-2.54,4.96-3.46,7.6Z"/><path class="cls-8" d="M287.3,.21c-.11,1.46,.36,3.57-.42,4.27-4.96,4.42-.5,5.9,2.25,7.89,6.03,4.38,11.51,9.12,12.3,17.23-.98,.15-1.97,.31-2.95,.46-.07-7.1-6.21-9.72-10.42-13.55-3.85-3.51-8.87-5.73-10.8-11.15-.68-1.89-2.36-2.48-4.43-2.43-1.63,.04-3.87,.9-4.4-1.87,6.23-1.58,12.56-.97,18.87-.85Z"/><path class="cls-4" d="M132.68,193.65c-.52-2.07-3-1.54-3.98-3.01,2.52-4.32-3.62-4.86-3.53-8.51,3.56,.57,6.86,1.27,9.54,4,2.29,2.33,4.89,4.29,7.94,5.68,6.12,2.81,6.51,7.9,5.09,13.61-1.96-1.4-3.92-2.81-5.88-4.21-2.55-3.15-5.87-5.35-9.19-7.56Z"/><path class="cls-4" d="M535.76,48.72c-2.58-5.35-5.32-2.25-8.24-.27-13.87,9.39-28.11,18.18-42.72,26.36-.85,.48-1.83,.74-2.75,1.1,0-.69-.01-1.38-.02-2.07,9.76-5.84,19.93-11.02,29.15-17.75,1.05-.26,1.78-.87,2.17-1.89,5.28-1.65,9.23-5.1,12.66-9.26l-.02,.02c1.62,.15,2.37-1.16,3.39-2.02,1.31-.09,2.08-.88,2.58-2.01,1.29-.05,1.97-.7,1.96-2.01l.29-.18c.29-.02,.57,.02,.84,.14-.18,1.25,.36,2.06,1.51,2.49,.63,2.55-.39,4.92-.81,7.35Z"/><path class="cls-6" d="M132.68,193.65c3.32,2.21,6.64,4.41,9.19,7.56-8.42,.44-16.72,2.46-25.21,2.02,5.34-3.2,10.68-6.39,16.02-9.58Z"/><path class="cls-16" d="M268.48,205.78c-.62,.09-1.23,.18-1.85,.26-.92-.42-1.66-.24-2.17,.68-.61,.12-1.21,.24-1.82,.36-.89-.48-1.62-.32-2.19,.53-.93,.19-1.86,.38-2.79,.57-.86-.59-1.58-.39-2.2,.39-7.26,1.35-14.45,3.25-21.92,3.12-.45-.78-.76-.65-.98,.14-.89,.85-1.96,.82-3.06,.63,.24-2.27-.93-3.04-3.02-2.85,.54-.72,1.33-1.15,2.15-.95,7.98,1.97,15.53-1.09,23.29-1.78,5.74-.51,10.97-3.67,16.89-2.81l-.33,1.69Z"/><path class="cls-6" d="M166.61,80.81c-7.73,1.86-14.76,5.89-22.66,7.2-.07-1.04,.07-1.95,1.31-2.21,7.12-2.3,14.23-4.61,21.35-6.91,0,.64,0,1.28,0,1.91Z"/><path class="cls-16" d="M18.64,153.5c1.95,2.53,4.27,4.5,9.06,4.52-5.87,3.77-9.74-1.54-14.01-.38,1.32-1.78,2.87-3.29,4.96-4.14Z"/><path class="cls-16" d="M227.12,212.45c-3.46-1.47-7.1-.63-10.66-.88-1.51-.11-3.46,.63-3.86-1.84,3.95,0,7.9-.01,11.85-.02,.76,1.16,2.96,.77,2.96,2.74h-.3Z"/><path class="cls-15" d="M162.45,57.45c-.56,4.94-3.91,7.84-7.62,10.48,1.66-4.13,4.2-7.63,7.62-10.48Z"/><path class="cls-2" d="M230.53,10.01c-.8-.11-1.59-.21-2.39-.32,2.52-2.87,5.91-2.78,9.28-2.76,.39,.09,.79,.18,1.18,.27-1.67,3.88-6.02,.06-8.08,2.82Z"/><path class="cls-2" d="M5.06,189.59c3.86-.52,6.43,.74,6.85,4.96-2.77-.98-5.41-2.14-6.85-4.96Z"/><path class="cls-4" d="M100.78,106.5c-2.34,2.4-5.12,3.88-8.53,4.06,2.42-2.25,5.22-3.69,8.53-4.06Z"/><path class="cls-6" d="M52.87,203.49c2.04-1.29,4.05-1.41,5.99,.21-2.04,1.1-4.04,1.29-5.99-.21Z"/><path class="cls-6" d="M105.71,203.7c1.95-1.6,3.95-1.5,5.98-.19-1.95,1.48-3.95,1.3-5.98,.19Z"/><path class="cls-15" d="M166.45,52.48c.66,3.08-1.26,4-3.73,4.46,.41-2.18,1.93-3.44,3.73-4.46Z"/><path class="cls-16" d="M276.79,202.12c-.45,1.74-2.69,1.07-3.36,2.51-.62,.12-1.24,.25-1.86,.37-.41-.35-.82-.71-1.23-1.06,1.82-1.78,4.12-1.87,6.45-1.82Z"/><path class="cls-11" d="M227.42,212.46c0-1.98-2.2-1.59-2.96-2.74,.67-.03,1.35-.07,2.02-.1,2.09-.19,3.26,.58,3.02,2.85-.69,0-1.38,0-2.07-.01Z"/><path class="cls-8" d="M270.35,203.94c.41,.35,.82,.71,1.23,1.06-.68,1.65-1.67,2.09-3.1,.78,.11-.56,.22-1.13,.32-1.7,.51-.05,1.03-.1,1.54-.14Z"/><path class="cls-8" d="M518.99,69.88c.3-1.06-.64-3.43,2.07-1.95-.17,1.2-.85,1.85-2.07,1.95Z"/><path class="cls-8" d="M258.56,1.44c-.4,1.14-.89,1.97-2.06,.66,.48-.87,1.19-1.04,2.06-.66Z"/><path class="cls-7" d="M387.21,159.67c.21-1.21,.39-2.47,2-1.06-.37,.9-1.13,1.09-2,1.06Z"/><path class="cls-7" d="M531.96,33.96c-1.16-.12-1.89-.77-2.25-1.85,1.42-.2,2.2,.38,2.25,1.85Z"/><path class="cls-7" d="M536.57,41.36c-1.16-.43-1.69-1.25-1.51-2.49,1.47,.24,2.02,1.05,1.51,2.49Z"/><path class="cls-8" d="M255.46,208.56c.62-.77,1.34-.97,2.2-.39-.58,1.03-1.23,1.65-2.2,.39Z"/><path class="cls-8" d="M260.46,207.61c.57-.85,1.3-1.01,2.19-.53-.52,1.03-1.09,1.86-2.19,.53Z"/><path class="cls-6" d="M41.89,202.47c.72-.92,1.37-.79,1.96,.14-.71,.82-1.37,.83-1.96-.14Z"/><path class="cls-8" d="M264.46,206.71c.51-.92,1.25-1.09,2.17-.68-.47,1.04-.98,1.94-2.17,.68Z"/><path class="cls-7" d="M364.28,28.93c-1.65,1.5-1.84,.29-1.96-1.05,.81,.06,1.54,.27,1.96,1.05Z"/><path class="cls-15" d="M154.5,68.52c.19,1.27-.2,2.16-1.57,2.41-.06-1.18,.55-1.93,1.57-2.41Z"/><path class="cls-11" d="M232.56,211.83c.22-.79,.53-.92,.98-.14-.33,.05-.66,.1-.98,.14Z"/><path class="cls-10" d="M183.5,175.33c-2.39,.57-4.3,2.47-6.9,2.44-2.65-8.9-10.07-10.62-17.83-12.31-8.71-1.9-17.12,.37-25.39,1.87-5,.91-11.04,2.46-13.66,8.36-.11,.82-.33,1.58-1.15,1.99l-1.79,.02c-.21-4.27,4.13-6.12,5.17-9.73,1.15-.32,1.83-1,1.74-2.27,5.13-1.39,9.15-4.57,12.95-8.09,1.65-.67,3.29-1.33,4.94-2,7.32,5.03,13.13-.89,19.25-3.03,4.37-1.52,8.99-2.62,13.13-2.21,3.88,.38,7.99,1.54,11.99,2.4,7.64,1.64,12.36,6.88,12.65,14.09-1.64,1.42-3.73,1.97-5.61,2.93-3.27,1.65-7.28,2.1-9.5,5.55Z"/><path class="cls-6" d="M70.87,167.64c-7.31-.99-14.62-1.97-21.92-2.99-2.85-.4-5.68-.9-8.52-1.35l.2-1.66c10.4,1.29,20.8,2.59,31.2,3.88,3.69,.14,7.39,.28,11.08,.42l-.11,1.71c-3.98,0-7.95,0-11.93-.01Z"/><path class="cls-2" d="M76.7,192.27c12.64-2.1,24.1-4,35.55-5.93,.97-.16,2.07-.71,2.24,.83,.11,1.03-.8,1.29-1.65,1.42-10.87,1.72-21.74,3.36-32.74,4.01-.74,.04-1.49-.14-3.4-.33Z"/><path class="cls-7" d="M82.8,167.65c.04-.57,.07-1.14,.11-1.72,9.93,1.17,19.9,.62,29.86,.55l-.11,1.11c-9.95,.02-19.9,.04-29.85,.05Z"/><path class="cls-3" d="M38.7,169.06c-.25,2.03-1.49,2.59-3.11,2.59-1.49,0-3.21,0-3.29-1.97-.06-1.67,1.46-1.96,2.81-1.95,1.36,.01,3-.45,3.58,1.33Z"/><path class="cls-6" d="M112.66,167.6c.04-.37,.07-.74,.11-1.11,3.54-1.7,7.3-.46,10.94-.8,.09,1.27-.59,1.95-1.74,2.27-3.1-.12-6.2-.24-9.31-.36Z"/><path class="cls-12" d="M116.79,177.7c.6,0,1.19-.01,1.79-.02,.3,1.36-.46,2.99,1.04,4.04,.03,1.67,.06,3.34,.09,5.01l-1.02-.09c-1.79-2.73-2.74-5.64-1.9-8.93Z"/><path class="cls-2" d="M98.82,115.84c4.13-.36,7.63-3.13,11.85-3.12l.13,.14c-1.14,4.78-6.23,5.03-9.14,7.82-2.66,2.54-5.3,5.28-4.57,8.77,.72,3.44,3.98,5.34,7.6,6.35,5.33,1.49,10.52,.68,15.88,.56,6.28-.15,12.55-2.65,18.93-.74,.91,.27,2.17-.59,3.27-.93,10.2-3.15,20.27-6.69,30.69-9.21,9.43-2.28,18.86-5.05,27.78-8.82,7.18-3.04,14.72-4.42,22.04-6.75,6.58-2.1,13.27-3.79,19.37-7.13l2.74,1.03c.01,.66,.02,1.32,.03,1.98-12.07,4.87-24.82,7.66-37.11,11.85-8.93,3.05-18.01,5.67-26.94,8.74-16.63,5.71-33.27,11.39-50.57,14.8-9.2,1.81-18.37,4.15-27.67,4.99-4.57,.41-9.58,.16-14.26-.68-4.58-.82-7.92-3.94-8.75-8.52-.73-4.04,1.57-7.17,5.03-9.47,2.19-1.46,4.06-3.3,6.78-3.99,1.64-.42,2.73-1.83,2.83-3.72,1.64-1.02,4.46-.83,4.06-3.94Z"/><path class="cls-16" d="M245.41,105.8c-.01-.66-.02-1.32-.03-1.98l1.13-.04c2.66,1.46,4.92,5.78,7.76,4.27,4.14-2.19,8.6-1.84,12.74-3.38,5.36-2,10.93-3.58,16.53-4.82,12.56-2.78,25.12-5.67,37.81-7.64,5.42-.84,10.34-3.66,15.92-3.43,7.77,.39,15.39-1.49,23.09-1.64,3.37-.06,6.84-3.06,10.2-.02-6.99,2.24-14.37,2.03-21.51,3.45-10.85,2.15-22.01,2.67-32.63,6.08-2.36,.37-4.71,.75-7.07,1.12-.69,.2-1.38,.39-2.08,.59-4.48,1.03-8.92,2.24-13.38,3.28-16.97,3.97-34.24,6.76-50.44,13.57-.45,.19-.92,.38-1.4,.48-11.95,2.46-23.14,7.29-34.68,11.04-1.61,.33-3.21,.67-4.82,1,.16-1.98,1.29-2.98,3.22-2.92,2.17,.07,2.94-1.01,2.78-3.02h0c1.29-.01,1.95-.69,2.04-1.95,9.49-1.55,18.42-5.08,27.54-7.93,1.73-.54,3.54-.74,5.19-1.32,2.01-.71,3.77-2.16,2.09-4.78Z"/><path class="cls-15" d="M123.71,165.69c-3.64,.34-7.4-.9-10.94,.8-9.96,.06-19.92,.61-29.86-.56-3.69-.14-7.39-.27-11.08-.41,.25-1.83,1.61-1.83,2.99-1.83,2.66,0,5.34-.25,7.97,.05,7.72,.85,14.56-1.53,21.49-4.64,4.75-2.13,10.07-3.01,15.16-4.36,2.38-.63,4.99-.66,7.2-1.63,3.24-1.42,6.15-3.16,9.72-.79,.68,.45,2.18-.36,3.31-.6,.16,2.56-3.07,3.38-3.02,5.89-3.8,3.52-7.82,6.7-12.95,8.09Z"/><path class="cls-4" d="M136.65,157.6c-.05-2.5,3.18-3.33,3.02-5.89,4.52-3.22,8.81-6.84,14.44-8.09,.32-.07,.71-.15,.9-.37,8.73-9.99,21.86-10.63,32.84-15.81,6.77-3.19,14.07-2.91,20.7-5.67,.16,2.01-.61,3.08-2.78,3.02-1.93-.06-3.06,.94-3.22,2.92-11.8,4.69-23.67,9.22-35.15,14.68-8.92,3.79-17.72,7.81-25.81,13.21-1.65,.67-3.29,1.33-4.94,2Z"/><path class="cls-4" d="M210.6,119.83c-.09,1.26-.75,1.94-2.04,1.95,.03-1.33,.7-1.99,2.04-1.95Z"/><path class="cls-4" d="M190.59,38.94c-.28-4.29,2.77-5.86,5.9-7.62,3.86-2.17,6.61-7.4,12.36-3.64,1.15,.75,2.4-.75,2.61-2.23,.5-3.43,1.96-4.32,5.01-2.25,1.43,.97,3.7,1.5,3.86-.88,.39-5.87,3.25-3.92,6.19-2.36-.06,1.79-2.04,3.91-.65,5.18,4.09,3.69,4.33,9.11,6.61,13.57,2.82,5.53,7.66,9.92,9.02,16.21-1.66,.65-3.33,1.31-4.99,1.96-1.01,0-2.01,0-3.02,0-6.09-.42-4.86-6.35-6.77-9.66-2.15-3.73-4.39-7.38-7.02-10.73-2.71-3.46-6.84-3.77-10.7-2.65-5.21,1.51-10.24,3.64-15.33,5.55-1.17,.44-2.21,.77-3.08-.45Z"/><path class="cls-11" d="M213.6,59.92c1.33,.02,1.91,.75,1.96,2.01-13.72,4.64-27.44,9.27-41.38,13.98-.19-2.25,2.1-3.18,1.3-4.99,9.75-6.52,18.66-14.68,31.08-16.03-.07,1.8-2.14,3.81,.11,5.33,2.22,1.5,4.65,.79,6.92-.31Z"/><path class="cls-3" d="M233.49,56.88c1.01,0,2.01,0,3.02,0,1.19,1.49,2.59,.86,4.05,.51,12.94-3.17,25.9-6.3,38.85-9.44,3.46,.56,6.81,.02,10.14-.92,1.88-.53,1.88-1.44,.85-2.76,1.13-.41,2.02,.31,2.99,.64,.98,.63,1.97,1.26,2.95,1.9-8.51,3.12-17.43,4.68-26.23,6.6-11.93,2.59-23.39,7.05-35.56,8.62-.7-.01-1.4-.02-2.11-.03l-2.02-.23c.02-1.01,.05-2.01,.07-3.02,1-.62,1.99-1.24,2.99-1.87Z"/><path class="cls-2" d="M175.49,70.93c.79,1.81-1.49,2.74-1.3,4.99,13.94-4.71,27.66-9.35,41.38-13.98,3.55,.44,6.48-2.24,10-1.95,.31,1.66,.62,3.32,.92,4.98l-1,.17c-2.48-2.41-5.16-1.18-7.81-.41-10.55,3.08-21.34,5.56-31.57,9.48-6.44,2.47-13.06,4.24-19.5,6.61,0-.64,0-1.28,0-1.91,3.81-1.71,4.01-7.44,8.88-7.97Z"/><path class="cls-3" d="M213.6,59.92c-2.27,1.1-4.7,1.8-6.92,.31-2.25-1.52-.18-3.53-.11-5.33,.99-.01,1.97-.02,2.96-.03,1.49,1.21,3.11,1.78,5.01,1.04,.2,1.46-.31,2.75-.94,4.02Z"/><path class="cls-6" d="M226.49,64.96c-.31-1.66-.62-3.32-.92-4.98,1.65-.41,3.3-.82,4.94-1.24-.02,1.01-.05,2.01-.07,3.02-.41,2.19-1.2,3.9-3.95,3.2Z"/><path class="cls-11" d="M214.54,55.9c-1.89,.75-3.52,.18-5.01-1.04,.28-2.59,1.93-3.46,4.14-2.71,1.79,.61,2.61,2.02,.87,3.74Z"/><path class="cls-8" d="M511.19,56.09c-9.22,6.73-19.39,11.91-29.15,17.75-5.97,3.01-11.95,6.02-17.92,9.03-4.44,2.81-10.27,2.82-14.02,7l.06-.03-2.01,.02-.11-.1c-.93-3.95-3.47-.25-5.11-1.07-2.96-1.48-5.48,2.41-8.75,.74-1.03-.53-.84,1.71-1.17,2.7-3.88-2.83-8.72-3.21-12.98-5.06,2.75-2.47,4.9-6.19,9.47-5.16,3.11,.7,6.18,.09,9.22,.17,4.02,.11,7.25-2.55,11.12-2.2,6.28,.57,12.23-1.15,17.99-3.11,5.14-1.74,10.81-2.93,14.22-7.94h2c.38,.65,1.02,1.03,1.64,.66,4.47-2.7,8.19-6.62,13.53-7.91,.98-.24,.78-1.7,.79-2.69h0c4.17,.88,6.77-4.04,10.98-2.99l.19,.2Z"/><path class="cls-9" d="M420.04,87.05c4.26,1.85,9.1,2.23,12.98,5.06,.71,.57,1.41,1.14,2.12,1.71-.14,2.37,.26,4.65,.96,6.9-.5,1.59-1.01,3.18-1.51,4.78-.37,.22-.75,.44-1.12,.65-1.68-1.36-1.5-3.16-.91-4.86,.78-2.28,.28-4.09-1.42-5.67-3.75-5.64-5.82-5.89-11.21-1.02-2.92,2.64-5.63,4.71-9.25,1.06-.95-.96-2.39-.87-3.77-.65-8.81,1.45-10.71-.16-10.66-8.9,4.96-.06,9.92-.11,14.88-.16,1.27,.07,2.54,.15,3.82,.22,1.6,.85,3.33,.93,5.09,.86Z"/><path class="cls-3" d="M464.12,82.87c5.97-3.01,11.95-6.02,17.92-9.03,0,.69,.01,1.38,.02,2.07-4.53,3.56-10.53,4.56-14.82,8.52-.72,.08-1.44,.17-2.17,.27-.32-.61-.64-1.22-.95-1.83Z"/><path class="cls-2" d="M464.12,82.87c.32,.61,.64,1.22,.95,1.83-4.78,2.34-9.24,5.59-14.97,5.18,3.75-4.18,9.58-4.19,14.02-7Z"/><path class="cls-8" d="M449.19,91.03c-1.7,2.57-5.97,4.39-10.79,4.38,2.98-2.8,5.82-5.01,9.64-5.66l.11,.1c.35,.39,.69,.79,1.04,1.18Z"/><path class="cls-13" d="M436.1,100.73c-.7-2.25-1.1-4.54-.96-6.9,3.9,1.4,.99,4.74,1.98,6.97-.34-.02-.68-.04-1.03-.07Z"/><path class="cls-6" d="M436.1,100.73c.34,.02,.68,.04,1.03,.07,1.15,2.64-.08,4-2.53,4.71,.5-1.59,1.01-3.19,1.51-4.78Z"/><path class="cls-6" d="M429.13,111.78c-.04-1.42,.58-2.13,2.06-1.91-.07,1.3-.83,1.86-2.06,1.91Z"/><path class="cls-2" d="M449.19,91.03c-.35-.39-.69-.79-1.04-1.18,.67,0,1.34-.01,2.01-.02-.32,.4-.65,.8-.97,1.2Z"/><path class="cls-10" d="M396.25,86.13c-.06,8.73,1.85,10.34,10.66,8.9,1.38-.23,2.81-.31,3.77,.65,3.62,3.64,6.34,1.57,9.25-1.06,5.38-4.87,7.46-4.62,11.21,1.02-.3,.91,.65,2.78-1.41,2.39-7.01-1.32-7.7,4.67-9.39,8.65-1.77,4.18-2.07,8.96-3.29,13.41-.8,2.91-1.45,5.26,2.13,6.98,1.57,.75-.14,1.37-.98,1.71-7.44-4.37-15.74-4.7-24.02-5-8.63-.32-17.23,.32-25.82,1.09-7.78-.59-15.33,1.51-23.01,2-9.71,1.35-19.49,2.31-29,4.87-1.34-1.44-2.51-3.09-4.04-4.3-4.62-3.65-5.62-12.14-1-15.7,5.85-4.49,10.82-10.54,18.64-12.09,1.54-.31,1.29-1.69,1.4-2.81,1.66-.34,3.32-.68,4.98-1.02,2.76,.45,5.94,4.35,7.99-.98,.66,0,1.33,0,1.99,0,.1,1.9,1.6,2.63,3.02,2.8,5.78,.69,10.57,3.13,14.68,7.24,1.53,1.52,4.29,1.75,5.34-.03,2.79-4.73,5.91-9.4,6.91-14.99,2.23-.16,2.02-1.73,1.87-3.26,1.06-.24,2.11-.47,3.17-.71l.42,.06,.43-.02v.02c.29,1.76-.64,3.18-1.25,4.72-3.36,8.55-4.75,17.45-4.63,26.62,.02,1.84-.1,3.68,2.31,4.34,3.45,.95,7.96-1.21,9.03-4.71,3.12-10.11,6.24-20.23,5.66-31.02,.99,.08,1.99,.17,2.98,.25Z"/><path class="cls-12" d="M284.44,162.93c-.6,.18-1.19,.37-1.79,.55-1.96-.41-3.7,.03-5.21,1.35-.59,.19-1.17,.38-1.76,.56-4.38,0-8.23,1.96-12.23,3.35-9.57,2.59-19.09,5.29-27.96,9.87-.32-.1-.63-.19-.96-.27-.29-2.46,1.63-2.81,3.24-3.68,3.43-1.85,3.64-4.32,.53-6.58-3.27-2.38-7.17-2.35-10.2-.24-3.56,2.47-7.15,3.06-11.21,2.89-1.64-.07-3.87-.83-4.37,1.94-.99,0-1.98,0-2.98,0v-2.96c3.16-.36,4.83-3.66,7.99-4.01,3.39-1.91,7.37-1.8,10.93-3.11,13.43-4.94,27.06-9.17,40.77-13.3,13.45-4.05,27.1-7.06,40.75-10.02,3.79-.82,6.9-3.62,10.65-3.38,5.91,.37,11.27-2.31,17.12-2.57,2.4-.11,6.42-1.67,8.53-4.57,2.94-.83,5.94-1.08,8.98-.91,.23,1.82,1.49,2.67,3.08,2.46,1.22-.16,.82-1.57,.94-2.5,.66-.01,1.33-.02,1.99-.03,1.81,3.36,8.91,4.87,13.97,2.98,1.34,.33,2.67,.66,4.01,1,2.24,1.94,4.95,2.47,7.81,2.69,2.18,.17,3.92,1.3,5.44,2.81,.03,3.44-2.52,6.33-2.09,9.86-1.1,1.53-2.15,3.11-4.2,3.48-.12-2.13,.1-4.35-.47-6.36-.33-1.17-1.11-3.13-2.87-2.94-1.6,.17-1.38,1.95-1.74,3.19-.72,2.5-.97,5.2-2.88,7.24-1.3-.2-2.6-.4-3.91-.6-.49-1.19-1.1-1.76-2.08-.41-4.29-.07-8.59-.13-12.88-.2-.04-.59-.07-1.18-.11-1.77,.59-.08,1.19-.15,1.78-.23,2.56,.04,2.72-.98,1.21-2.74-.55-4.42,.73-9.31-3.26-12.85-1.19,.31-2.39,.62-3.58,.93-3.17,1.44-4.96,6.11-3.85,10.03-.02,.31-.07,.62-.17,.92-1.35-.08-2.04,.59-2.14,1.92-2.78,.48-1.75,2.65-1.92,4.29-3.99,.47-7.98,.93-11.98,1.4-.98-2.65,4.15-2.57,2.36-6.08-2.8-5.48-12.41-7.29-16.36-2.61-1.8,2.14-3.25,4.81-5.48,6.29-2.99,1.98-1.5,3.63-.55,5.58l-4.96,1.22-1.07,.18c-2.23,.5-4.47,1-6.7,1.5-.87-.47-1.59-.29-2.19,.48-.6,.13-1.21,.26-1.81,.39-.89-.45-1.61-.22-2.18,.57-.6,.14-1.2,.29-1.81,.43-.87-.4-1.61-.26-2.19,.54-.6,.15-1.2,.3-1.81,.44-2.31-.43-4.34,.21-6.17,1.61Zm-41.25,9.13c.02,.1,0,.26,.07,.3,.09,.07,.24,.06,.37,.08l-.1-.52-.34,.13Z"/><path class="cls-5" d="M307.38,160.68c7.15-2.68,14.72-3.41,22.13-4.89-.55,11.48-8.91,18.01-16.35,24.81-5.19,4.74-11.6,7.92-18.34,10.38-10.36,3.78-20.93,4.59-31.73,2.99-10.05-1.49-18.74-6.06-26.62-12.3,5.4-2.37,10.72-4.94,16.53-6.21,8.46,2.68,16.95,4.55,25.99,4.31,13.73-.37,21.3-9.22,28.38-19.1Z"/><path class="cls-15" d="M335.23,155.63c11.39-1.63,22.8-3.54,34,1.03,.18,1.86,.37,4.3-1.2,5.1-6.18,3.16-10.8,9.55-18.83,8.97-4.88-.35-9.79,.76-13.61,3.59-5.68,4.2-12.1,7.37-17.25,12.3-2.48,.14-4.35,2.59-7.06,1.86,4.22-3.58,8.58-6.91,12.13-11.3,5.26-6.52,10.18-13.1,11.82-21.55Z"/><path class="cls-2" d="M335.23,155.63c-1.65,8.45-6.57,15.02-11.82,21.55-3.54,4.4-7.91,7.73-12.12,11.3-.42,.88-1.26,.96-2.07,1.1-.76-.04-1.43,.14-1.86,.84-.98,.13-1.95,.25-2.93,.38-2.12,.73-4.9-.09-6.2,2.6-2.87-.11-5.19,1.72-7.89,2.2-5.1-.2-9.74,2.4-14.81,2.37-1.33-.39-1.97,.25-2.2,1.49l-2.87,.12c-1.38-1.37-2.71-1.37-4.01,.12-1.31,.25-2.62,.5-3.93,.76-.19-1.12-.86-1.61-1.98-1.84-4.83-1.01-9.42-2.81-13.87-4.87-4.9-2.26-9.84-4.62-12.31-9.96,.21-1.21,.7-2.13,2.12-2.11,7.89,6.24,16.57,10.81,26.62,12.3,10.8,1.6,21.37,.79,31.73-2.99,6.74-2.46,13.14-5.64,18.34-10.38,7.45-6.8,15.8-13.33,16.35-24.81,1.91-.06,3.81-.11,5.71-.17Z"/><path class="cls-7" d="M307.38,160.68c-7.08,9.88-14.65,18.73-28.38,19.1-9.04,.24-17.53-1.64-25.99-4.31,3.78-1.71,7.56-3.42,11.33-5.14,3.92,.28,7.13-2.13,10.77-2.88,7.93-.65,15.25-3.97,23.04-5.22,3.08-.49,6.15-1.04,9.22-1.56Z"/><path class="cls-11" d="M318.34,186.62c5.15-4.92,11.56-8.1,17.25-12.3,3.83-2.82,8.73-3.94,13.61-3.59,8.03,.58,12.65-5.81,18.83-8.97,1.57-.8,1.38-3.24,1.2-5.1,3.85,2.65,4.28,5.15,.72,8.65-6.17,6.05-13.59,10.28-21.66,13.34-1.95-1.74-2.74-.9-2.92,1.31-.38,.19-.75,.38-1.13,.58-.77-1-1.39-.85-1.89,.25v-.05c-5.49,.19-10.26,2.9-15.38,4.38-2.77,.8-5.32,3.64-8.63,1.5Z"/><path class="cls-13" d="M262.52,200.46c1.31-.25,2.62-.5,3.93-.76,1.37,1.28,2.72,1.47,4.01-.12,.96-.04,1.91-.08,2.87-.12,.69,.05,1.39,.1,2.08,.16,2.41,0,4.81,0,7.22,.01-.06,.47-.12,.94-.18,1.42-.51,.04-1.02,.08-1.54,.11-1.1-.45-1.98-.3-2.51,.88-.53,.03-1.06,.05-1.59,.08-2.33-.05-4.63,.03-6.45,1.82-.52,.05-1.03,.1-1.54,.15-5.91-.86-11.14,2.31-16.88,2.81-7.76,.68-15.31,3.75-23.29,1.78-.82-.2-1.61,.22-2.15,.95-.67,.03-1.35,.07-2.02,.1-3.95,0-7.9,.01-11.85,.02-2.04-.38-4.08-.76-6.11-1.14-.32-.34-.64-.69-.97-1.03l.08,.06c-.68-2.02-3.3-3.67-1.14-6.21,1.23,2,2.55,4.06,5.18,4.13,14.53,.38,29.03,.19,43.43-2.08,.94-.15,1.25-.98,1.4-1.83l2.01,.04c.1,1.38,.87,1.94,2.21,1.86,1.19-.07,1.62-.81,1.71-1.87,.89-.08,1.72-.26,2.11-1.21Z"/><path class="cls-9" d="M315.34,155.57c-.95-1.95-2.44-3.6,.55-5.58,2.24-1.48,3.68-4.15,5.48-6.29,3.95-4.68,13.56-2.87,16.36,2.61,1.8,3.51-3.34,3.43-2.36,6.08-6.68,1.06-13.36,2.12-20.04,3.18Z"/><path class="cls-13" d="M318.34,186.62c3.31,2.14,5.86-.7,8.63-1.5,5.13-1.48,9.89-4.19,15.4-4.38-4.82,3.63-10.67,4.9-16.17,6.92-11.73,4.3-23.46,8.66-35.8,11-.02-1.02-.04-2.04-.06-3.07,2.7-.48,5.02-2.31,7.89-2.2,2.49,.14,4.9,.09,6.2-2.6,.98-.13,1.95-.25,2.93-.38,.26,.6,.76,1.11,1.32,.73,.37-.25,.37-1.03,.54-1.57,.81-.13,1.65-.22,2.07-1.1,2.71,.73,4.58-1.72,7.06-1.86Z"/><path class="cls-10" d="M378.25,151.7c1.91-2.03,2.16-4.74,2.88-7.24,.36-1.24,.14-3.02,1.74-3.19,1.76-.19,2.54,1.76,2.87,2.94,.57,2,.36,4.23,.47,6.36-1.65,7.47-5.17,1.74-7.96,1.13Z"/><path class="cls-11" d="M355.27,127.82c-3.04-.17-6.04,.08-8.98,.91-.31-.07-.62-.14-.93-.22,0-.55-.02-1.11-.02-1.66,7.69-.49,15.23-2.59,23.01-2,.04,.53,.08,1.06,.12,1.59-2.4,.43-4.8,.87-7.2,1.3-.66,.01-1.33,.02-1.99,.03-1.34,.01-2.67,.02-4.01,.03Z"/><path class="cls-9" d="M361.28,127.75c2.4-.43,4.8-.87,7.2-1.3,.94,.04,1.87,.07,2.81,.11,.5,.74-2.81,1.74,.24,2.42,1.28,.29,2.84,.43,3.73,1.75-5.06,1.89-12.16,.37-13.97-2.98Z"/><path class="cls-11" d="M290.33,195.59c.02,1.02,.04,2.04,.06,3.07-.93,.03-1.85,.06-2.78,.09-1.77-.29-3.46-.15-5,.88-2.41,0-4.81,0-7.22-.01,.04-.55,.08-1.1,.12-1.65,5.07,.03,9.71-2.58,14.81-2.37Z"/><path class="cls-4" d="M275.12,167.46c-3.65,.75-6.85,3.16-10.77,2.88-.3-.53-.6-1.06-.89-1.59,4-1.38,7.85-3.35,12.23-3.35-.19,.69-.38,1.37-.56,2.06Z"/><path class="cls-11" d="M375.25,130.73c-.88-1.33-2.45-1.47-3.73-1.75-3.05-.68,.26-1.69-.24-2.42,4.54-1.17,6.14,2.18,7.98,5.17-1.34-.33-2.67-.66-4.01-1Z"/><path class="cls-10" d="M390.42,147.09c-.43-3.52,2.13-6.42,2.09-9.86,3.66,4.21,1.21,7.12-2.09,9.86Z"/><path class="cls-13" d="M399.04,128.27c-.36,.67-.41,.89-.52,.93-2.03,.75-3.47,3.33-6.16,2.06-.68-.32-1.09-1.06-.43-1.53,2.03-1.45,4.24-2.4,7.11-1.47Z"/><path class="cls-9" d="M347.35,150.99c.17-1.64-.86-3.82,1.92-4.29l.21,.2c-.12,1.26,.4,1.94,1.73,1.86,1.34,.08,2.67,.17,4.01,.25l.05,1.64c-2.64,.11-5.27,.22-7.91,.34Z"/><path class="cls-13" d="M409.68,135.42c-.4,1.9-2.05,1.63-3.13,2.03-1.26,.47-3.06,2.84-3.91,.31-.6-1.81,2-2.14,3.47-2.61,1.16-.37,2.46-.83,3.57,.27Z"/><path class="cls-13" d="M395.45,149.47c0-.41-.07-.62,0-.73,1.49-2.14,3.78-2.21,6.04-2.25,.16,0,.57,1.02,.46,1.13-1.85,1.73-4,2.44-6.51,1.86Z"/><path class="cls-4" d="M284.44,162.93c1.83-1.41,3.86-2.05,6.17-1.61-1.76,1.7-3.82,2.21-6.17,1.61Z"/><path class="cls-16" d="M282.61,199.62c1.54-1.03,3.23-1.17,5-.88-1.01,2.38-2.94,2.7-5.18,2.29,.06-.47,.12-.94,.18-1.42Z"/><path class="cls-4" d="M277.44,164.84c1.51-1.33,3.25-1.76,5.21-1.35-1.51,1.31-3.09,2.36-5.21,1.35Z"/><path class="cls-13" d="M355.26,150.65c-.02-.55-.03-1.09-.05-1.64,1.35-.1,2.7-.19,4.06-.29,.04,.59,.07,1.18,.11,1.77-1.37,.05-2.74,.1-4.12,.16Z"/><path class="cls-13" d="M345.37,179.96c.18-2.21,.97-3.04,2.92-1.31-.97,.44-1.94,.87-2.92,1.31Z"/><path class="cls-4" d="M292.42,160.88c.57-.81,1.32-.94,2.19-.54-.53,.96-1.13,1.67-2.19,.54Z"/><path class="cls-4" d="M296.42,159.9c.57-.79,1.29-1.02,2.18-.57-.52,.98-1.11,1.72-2.18,.57Z"/><path class="cls-4" d="M300.41,158.95c.6-.76,1.33-.94,2.19-.48-.58,.87-1.2,1.53-2.19,.48Z"/><path class="cls-10" d="M372.26,150.7c.98-1.35,1.59-.78,2.08,.41-.78,.32-1.49,.27-2.08-.41Z"/><path class="cls-16" d="M278.38,202.03c.52-1.18,1.41-1.33,2.51-.88-.6,.98-1.27,1.73-2.51,.88Z"/><path class="cls-13" d="M342.35,180.78c.49-1.1,1.11-1.25,1.89-.25-.63,.08-1.26,.17-1.89,.25Z"/><path class="cls-4" d="M309.31,156.97l1.07-.18c-.28,.51-.62,.65-1.07,.18Z"/><path class="cls-4" d="M416.21,53.99c.44,.48,.81,1.3,1.33,1.4,11.47,2.23,23.01,3.64,34.69,1.92,5.17-.76,9.53-3.7,14.23-5.68,12.44-5.25,24.52-11.39,37.14-16.13,7.08-2.66,14.94-.78,22.44-.18,.36,.03,.64,1.03,.96,1.58-.82,.05-1.59,.21-2.02,1.04-.67,0-1.34-.02-2.01-.03-5.04-1.33-9.33,1.01-13.94,2.44-5.43,1.69-9.82,5.06-14.76,7.51-5.15,2.56-10.78,4.17-15.49,7.62-4.36,3.19-9.39,4.74-14.44,6.43-10.19,3.41-20.52,5.52-31.33,5.6-9,.07-17.99,.53-26.95-.79,2.05-5.31,6.86-8.42,10.15-12.74Z"/><path class="cls-11" d="M505.09,24.74c1.3,.16,2.6,.32,3.9,.49,.39,2.21,2.56,1.75,3.89,2.52,.83,.48,2.07,.52,1.88,1.85-.18,1.3-1.39,1.53-2.29,1.2-3-1.11-6.09-.15-9.18-.58-6.67-.92-13.55-.49-19.92,2.15-2.73,1.13-5.41,.24-8.11,.62-7.4,1.03-14.16,5.38-22,3.99-4.5-.8-8.89,.64-13.11,1.98-4.13,1.31-6.47,.37-7.05-4.06,.01-.66,.03-1.32,.04-1.97,.84-.43,.99-1.2,1-2.04,2.77-3.13,5.04,1.44,8.21,.41,4.1-1.33,9.74-2.2,13.04-.87,8.38,3.4,15.71-6.16,23.61-.74,.16,.11,.65-.13,.89-.33,2.95-2.32,6.29-1.22,9.55-1.22,3.64,0,7.53,.82,10.57-2.21,1.72-.28,3.76,.77,5.09-1.2Z"/><path class="cls-8" d="M416.21,53.99c-3.29,4.32-8.1,7.43-10.14,12.74l.06,.06c-1.15-.08-2.26-.05-2.89,1.16-2.83,1.75-5.05,4.12-7.07,6.73-4.66,3.32-9.31,6.63-13.97,9.95-.3,.42-.6,.83-.91,1.25-1.06,.24-2.11,.47-3.17,.71,.05-.21,.02-.42-.07-.62,4.29-5.24,10.72-8.25,14.6-13.93,4.4-2.04,7.62-5.45,10.64-9.11,4.02-3.29,7.62-6.99,10.88-11.03,.88-.45,1.77-.9,2.65-1.35,.22,.23,.44,.46,.65,.7-.42,.91-.84,1.83-1.26,2.74Z"/><path class="cls-2" d="M428.33,38.93c-2.53,4.06-5.16,8.03-8.93,11.1-.5-.81-1.26-1.08-2.16-1.07,.79-2.95,3.45-4.57,4.97-7,.98-1.02,1.96-2.03,2.94-3.05,1.06,0,2.12,.01,3.18,.02Z"/><path class="cls-4" d="M428.33,38.93c-1.06,0-2.12-.01-3.18-.02,1.13-3.39,4-4.76,6.99-6,.33,.02,.66,.02,1,.02-.01,.66-.03,1.32-.04,1.97-2.11,.73-1.99,4.08-4.76,4.02Z"/><path class="cls-3" d="M524.98,37.93c.43-.82,1.19-.98,2.02-1.04,2.66-.54,4.26,2.59,6.93,2.01,0,1.32-.67,1.96-1.96,2.01-1.86-2.1-5.01-1.17-6.98-2.99Z"/><path class="cls-8" d="M417.24,48.96c.9-.01,1.66,.26,2.16,1.07-.64,.4-1.29,.81-1.93,1.21-.21-.23-.42-.47-.64-.69,.14-.53,.28-1.06,.41-1.59Z"/><path class="cls-13" d="M119.73,175.69c2.61-5.9,8.66-7.45,13.66-8.36,8.27-1.51,16.68-3.77,25.39-1.87,7.76,1.69,15.18,3.41,17.83,12.31-5.99,3.64-11.98,7.29-17.96,10.93-2.82-4.36-6.95-7.77-11.66-8.76-8.97-1.9-17.88-4.72-27.25-4.25Z"/><path class="cls-11" d="M119.73,175.69c9.37-.47,18.28,2.35,27.25,4.25,4.7,1,8.84,4.41,11.66,8.76q-4.08,4.97-8.69,.77c-2.61-2.36-5.52-4.35-8.83-5.45-5.16-1.72-10.48-2.94-15.66-4.61-2.39-.77-3.48-.18-3.73,2.23-.7,.02-1.4,.05-2.1,.07-1.5-1.05-.73-2.68-1.04-4.04,.81-.41,1.04-1.17,1.15-1.99Z"/><path class="cls-12" d="M183.93,199.82c.49,.64,.98,1.27,1.48,1.9,.05,.61,.11,1.22,.16,1.83-.96,0-1.93,0-2.89-.01-4.39-2.35-9.24-4.36-7.98-10.86l-.07,.06c1.06-.31,1.69-1.03,1.97-2.08,1.68-1.96,3.37-3.92,5.05-5.88,.96-.44,1.92-.89,2.88-1.33,.09,.48,.18,.96,.27,1.44-5.5,8.51-5.56,9.55-.87,14.94Z"/><path class="cls-11" d="M184.53,183.44c-.96,.44-1.92,.89-2.88,1.33-.37-3.34,2.34-6.07,1.85-9.44,2.22-3.46,6.22-3.9,9.5-5.55,1.88-.95,3.97-1.5,5.61-2.93,1.29-.16,2.59-.32,3.88-.48,.02,.44,.05,.89,.07,1.33l-4.98,3.06c-6.54,1.56-11.05,5.33-12.98,11.91-.08,.25-.1,.51-.06,.78Z"/><path class="cls-6" d="M174.7,192.67c-1.27,6.5,3.59,8.51,7.98,10.86-.04,.34-.08,.68-.11,1.02-.98-.04-1.97-.07-2.95-.11-1.6-.8-3.32-1.43-4.79-2.43-3.96-2.7-3.95-6.58-.12-9.35Z"/><path class="cls-13" d="M119.62,181.72c.7-.02,1.4-.05,2.1-.07,.02,.33,.04,.65,.05,.98-.05,.86,.12,1.61,.97,2.03,.73,1.38,1.46,2.75,2.19,4.13-2.02,.02-3.86-.41-5.22-2.07-.03-1.67-.06-3.34-.09-5.01Z"/><path class="cls-6" d="M176.61,190.65c-.28,1.05-.91,1.77-1.97,2.08,.29-1.04-.62-3.21,1.97-2.08Z"/><path class="cls-11" d="M122.74,184.66c-.85-.43-1.02-1.18-.97-2.03,1.23,.25,2.47,.49,.97,2.03Z"/><path class="cls-3" d="M241.5,54.92c-1.35-6.3-6.2-10.69-9.02-16.21-2.28-4.46-2.52-9.88-6.61-13.57-1.4-1.26,.59-3.39,.65-5.18,2.85,.19,5.72,.06,8.23-1.31,2.28-1.25,2.73-3.82,2.52-6.06-.22-2.38-2.56-1.42-4.07-1.6-1-.11-2-.07-2.68-.98,2.06-2.76,6.41,1.06,8.08-2.82,.63-.04,1.26-.08,1.89-.12,6.44,.33,9.98,3.08,9.38,10.17-.16,1.9,1.05,4.26,2.31,5.88,3.73,4.77,4.35,10.02,3.32,15.71-1.56,1.33-4.1,2.27-2.08,5.07,.62,4.91,3.59,2.71,6.06,2.01l.38-.07h.38c1.81,.54,4.51-1.15,5.23,2.1-7.55,3.86-16.01,4.59-23.98,6.99Z"/><path class="cls-2" d="M255.5,38.84c1.03-5.69,.42-10.94-3.32-15.71-1.26-1.62-2.47-3.98-2.31-5.88,.6-7.09-2.93-9.84-9.38-10.17,6.6-2.26,13.39-1.15,20.04-.67,2.65,.19,4.23,3.4,5.64,5.93,3.54,6.38,7.17,12.8,12.82,17.54,3.65,3.06,6.72,6.84,11,9.18,1.1,.6,2.46,1.22,2.42,2.88-.67,.78-1.34,1.56-2,2.34,1.02,1.32,1.03,2.23-.85,2.76-3.34,.94-6.68,1.48-10.14,.92,2.03-1.79,4.53-2.01,7.06-2.11,.89-.16,2.38,.4,2.36-.99-.02-1.35-1.52-.78-2.4-.95-.79-1.1-1.69-.39-2.65-.28-6.27,.74-11.83,4.44-18.29,4.32-.72-3.25-3.42-1.56-5.23-2.09,2.03-5.98,1.53-6.71-4.75-7.01Z"/><path class="cls-8" d="M290.4,44.27c.67-.78,1.34-1.56,2-2.34,2.74-.54,5.48-1.01,8.2-1.63,1.77-.4,3.66-.82,3.82-3.2,1.81-.3,2.19-1.7,2.45-3.19,4.35-.5,8.24,1.85,12.48,2.01,1.69,.06,3.37,.13,5.06,.19-.19,1.11-.84,1.62-1.97,1.84-4.96,.96-10.05,1.58-14.83,3.12-4.7,1.52-10.09,.41-14.23,3.85-.97-.33-1.86-1.06-2.99-.64Z"/><path class="cls-16" d="M306.88,33.9c-.26,1.49-.64,2.89-2.45,3.19-.35-.05-.69-.1-1.04-.16,.52-4.01-1.69-4.76-5.01-4.18,.03-.9,.05-1.8,.08-2.7,.98-.15,1.97-.31,2.95-.46,2.28,.85,4.56,1.69,5.46,4.3Z"/><path class="cls-5" d="M298.39,32.76c3.31-.58,5.53,.17,5.01,4.18-2.98,.18-5.36-.36-5.01-4.18Z"/><path class="cls-1" d="M324.42,36.1c-1.69-.06-3.37-.13-5.06-.19-.04-1.05-.32-2.12-1.31-2.53-8.67-3.56-11.12-12.3-15.86-19.1-1.73-2.48-.28-4.53,2.52-4.19,8.29,.99,16.69,1.51,24.26,5.87,4.15,2.39,9.09,3.67,9.25,9.72-1.01,.21-2.41-.2-2.7,1.28-.28,1.38,.28,2.44,1.77,2.81,1.89,2.25,.74,3.01-1.57,3.21-3.05,.27-6.06,.66-8.38,2.98-.97,.05-1.94,.1-2.91,.14Z"/><path class="cls-2" d="M337.29,29.77c-1.49-.37-2.05-1.43-1.77-2.81,.3-1.47,1.69-1.07,2.7-1.28,2.64,1.44,6.35,1.85,5.97,6.2-1.44,.15-2.44-.34-3.26-1.64-.9-1.44-2.21-1.96-3.63-.47Z"/><path class="cls-3" d="M47.56,140.16c.28,.12,.56,.24,.83,.36-.12,.28-.18,.71-.38,.79-.2,.08-.54-.19-.82-.31,.12-.28,.24-.56,.36-.83Z"/><path class="cls-13" d="M500,25.94c-3.03,3.04-6.93,2.21-10.57,2.21-3.26,0-6.6-1.1-9.55,1.22-.25,.19-.74,.43-.89,.33-7.89-5.42-15.22,4.13-23.61,.74-3.3-1.34-8.94-.47-13.04,.87-3.17,1.03-5.44-3.54-8.21-.41-.66,.01-1.32,.02-1.98,.03-2.68-1.14-4.2,2.22-7.02,1.59-5.72-1.28-11.47-1.1-16.95,1.43-1.33,0-2.65,0-3.98,0-3.99,.46-8.14-1.09-11.99,.98l-6.97,.95c-2.6-1.74-4.01-.37-5.05,1.94l-2.94,.13c-1.32-.33-2.65-.66-3.97-.99-1.11-.02-2.28-.22-3.03,.94-1.37,.16-2.95-.47-3.98,1.03-1.33,.31-2.66,.62-3.99,.93-4.12-1.72-7.78-.87-11.1,1.95l-1.89,.03c-1.6-1.49-2.58-.98-3.1,.98l-1.88,.07c-1.69-1.32-3.18-1.68-4.06,.85-.98,.03-1.96,.06-2.94,.09-1.51-1.41-1.8-.19-2.11,.98l-2.86,.12c-2.9-1.53-5.19-.53-7.17,1.74-.6,.03-1.19,.07-1.79,.1-4.76-.77-9.22-.2-13.13,2.89l-9.71,.43c-1.35-.2-2.05,.41-2.2,1.73l-13.79,2.23c-1.48-.19-2.89-.24-3.18,1.75l-2.93,.16c-1.47-1.57-1.78-.4-2.05,.87-1.98,.38-3.96,.76-5.93,1.13-2.91-1.48-5.24-.82-7.03,1.88-2.92,.42-5.85,.84-8.77,1.26-1.37-.25-2.07,.37-2.22,1.71l-5.93,1.17c-1.47-1.6-1.79-.45-2.05,.85l-4.95,1.08c-.73-1.1-1.41-.98-2.05,.09l-1.94,.06c-1.16-1.14-1.7-2.43-.96-4.02,12.16-1.57,23.63-6.03,35.56-8.62,8.8-1.91,17.72-3.48,26.23-6.6,.66-.08,1.31-.15,1.97-.23,.86,.26,1.57,.11,2.05-.72,.66-.06,1.31-.12,1.97-.18,1.14,.22,2.24,.29,3.03-.8,.98-.14,1.96-.29,2.94-.43,.86,.33,1.56,.17,2.03-.68l1.97-.26c.85,.31,1.55,.16,2.06-.64,2.64-.46,5.29-.91,7.93-1.37,.85,.3,1.55,.16,2.04-.66,.66-.07,1.32-.14,1.98-.22,1.13,.25,2.23,.35,3.01-.77,1.31-.13,2.63-.27,3.94-.4,.89,.35,1.6,.21,2.01-.73l4-.13c1.17,.31,2.34,.62,2.99-.87,4.71-.81,9.73-.02,14.03-2.85,5.31-1.15,10.94-.67,16-3.13,9.64-1.33,19.27-2.67,28.91-4,1.07,1.58,1.67,.84,2.17-.44,1.61-.14,3.22-.29,4.83-.43,1.1,1.49,1.68,.7,2.18-.49,1.94-.16,3.88-.31,5.81-.47,1.92,1.42,3.71,1.76,5.13-.67l3.86-.31c3.91,1.85,7.7,2.57,11-1.2l2.98,.2c8.24,2.26,16.64,.41,24.95,1.03,.86,.06,1.61-.27,2.02-1.12,4.65-.13,9.3-.26,13.95-.38,5.37,2.99,10.94,1.36,16.46,.73,1.19,.04,2.38,.08,3.57,.12-.03,.54-.06,1.08-.08,1.62Z"/><path class="cls-4" d="M466.1,23.86c-.41,.85-1.16,1.18-2.02,1.12-8.3-.62-16.71,1.23-24.95-1.03,7.7-2.2,15.59-.61,23.37-1.09,1.26-.08,2.68-.36,3.59,.99Z"/><path class="cls-4" d="M496.51,24.21c-5.53,.63-11.1,2.25-16.46-.73,5.54-.96,11.07-1.66,16.46,.73Z"/><path class="cls-4" d="M436.16,23.75c-3.3,3.76-7.09,3.05-11,1.2,3.56-1.38,7.29-1.22,11-1.2Z"/><path class="cls-16" d="M500,25.94c.03-.54,.06-1.08,.08-1.62,1.74-.72,3.42-.77,5,.42-1.33,1.96-3.36,.92-5.09,1.2Z"/><path class="cls-4" d="M421.3,25.26c-1.42,2.44-3.2,2.09-5.13,.67,1.54-1.47,3.36-.89,5.13-.67Z"/><path class="cls-4" d="M403.35,27.32c-.49,1.28-1.1,2.02-2.17,.44,.6-.75,1.35-.75,2.17-.44Z"/><path class="cls-4" d="M410.36,26.4c-.49,1.19-1.08,1.98-2.18,.49,.58-.82,1.34-.83,2.18-.49Z"/><path class="cls-13" d="M226.49,64.96c2.75,.7,3.54-1.01,3.95-3.2,.67,.08,1.35,.15,2.02,.23-.3,1.98-.6,3.95-.9,5.93-.03,.64-.06,1.27-.09,1.91-2.94,.67-6.45-3.55-8.93,1.04l-.99,1.06c-.64,.03-1.28,.06-1.92,.09-.69-.03-1.38-.06-2.07-.09-2.56-.98-4.75-.89-5.9,2.1-.03,.26-.07,.52-.13,.77-1.32,.03-2.63,.06-3.95,.09-1.61-1.66-2.56-1.17-3.02,.93-.94,.06-1.89,.13-2.83,.19-2.29-.12-4.47-.04-5.15,2.81-.64,.08-1.29,.16-1.93,.23-3.85-.87-7.18,.13-10.05,2.77-5.21,1.71-10.41,3.46-15.9,4.08-1.6-.29-2.02,1.29-3.05,1.91-1.37,.16-2.94-.43-3.98,1.03-1.11,0-2.3-.21-3.02,1-4.21,1.66-8.21,4.04-12.95,3.98-1.31-.02-1.96,.66-2.05,1.94-.98,.02-1.96,.04-2.94,.06-1.32-.06-1.97-.78-2.06-2.06,15.3-5.91,30.79-11.25,46.52-15.95,13.51-4.04,26.9-8.44,40.35-12.69,.33-.06,.67-.11,1-.17Z"/><path class="cls-2" d="M194.63,79.06c.64-.08,1.29-.16,1.93-.23,.68,.37,1.36,.74,2.04,1.11-.12,1.49-1.2,1.64-2.39,2-20.55,6.27-40.65,13.77-60.54,21.87-1.09,.37-2.18,.75-3.27,1.12-7.28,2.44-13.87,6.73-21.61,7.94l-.13-.14c5.08-5.08,12.17-6.04,18.32-8.92,9.66-4.53,20.18-6.95,29.65-11.97,.81-.01,1.56-.17,2.05-.91,1.72-.47,4.17,.96,4.98-1.9,.97-.1,1.94-.21,2.91-.31,5.8-2.06,12.22-2.51,17.22-6.64,.93-.08,1.86-.16,2.79-.24,.12,.07,.23,.13,.35,.2l-.38-.17c2.24-.47,4.38-1.15,6.07-2.8Z"/><path class="cls-11" d="M138.62,93.77c.09,1.29,.74,2.01,2.06,2.06-2.04,3.96-6.53,2.84-9.74,4.44-5.76,2.88-12.25,4.27-18.36,6.47-3.04,1.09-4.34,.47-3.8-2.88,8.84-2.1,17.03-6.04,25.57-8.98,1.41-.48,2.71-1.27,4.27-1.12Z"/><path class="cls-11" d="M160.69,90.92c-.49,.74-1.23,.9-2.05,.91,0-.66,0-1.31-.01-1.97,.72-1.21,1.9-.99,3.02-1-.32,.69-.64,1.37-.96,2.06Z"/><path class="cls-11" d="M143.63,95.78c.09-1.28,.74-1.95,2.05-1.94-.06,1.31-.73,1.97-2.05,1.94Z"/><path class="cls-16" d="M256.49,201.68c-.67-.01-1.34-.03-2.01-.04-2.09-2.04-5.11,.03-7.07-1.31-5.19-3.55-11.13-3.85-16.98-4.78-2.03-.32-3.76-2.98-5.89-1.78-6.24,3.51-14.34,.48-19.95,5.87-.35-.02-.7-.04-1.05-.06,.42-3.44,4.35-4.7,4.98-8.01,1.02-.64,2.03-1.27,3.05-1.91,1.1-.03,2.3,.21,2.9-1.11l-.03-.02c1.27,.16,1.97-.4,2.15-1.65,1.98-1.4,3.96-2.8,5.94-4.2,1.61-.1,3.21-.2,4.82-.3,1.77,3.29,4.81,.3,7.01,1.42,2.47,5.33,7.42,7.69,12.31,9.95,4.45,2.06,9.03,3.86,13.87,4.87,1.12,.23,1.79,.72,1.98,1.84-.39,.95-1.22,1.13-2.11,1.21-1.31,0-2.62,0-3.92,.01Z"/><path class="cls-10" d="M211.56,189.66c-1.02,.64-2.03,1.27-3.05,1.91-2.31,1.04-4.62,2.09-6.93,3.13-2.25,.17-3.45-.98-4.51-2.91-1.94-3.57-4.45-6.72-8.48-8.2,3.97-3.87,9.65-2.58,14.22-4.66,.3-.14,.87,.38,1.33,.56,4.25,1.6,8.28,3.37,7.39,9.13,0,.35,.02,.7,.02,1.05Z"/><path class="cls-13" d="M188.59,183.59c4.03,1.48,6.54,4.63,8.48,8.2,1.05,1.94,2.26,3.09,4.51,2.91-.84,1.98-2.97,2.57-4.33,3.96-5.17,5.29-5.15,5.32-7.46-1.81-.35-1.08-.34-2.49-1.04-3.2-1.03-1.05-2.25-2.5-4.2-.98-2.07,1.62-.8,2.91,.24,4.09,1.41,1.61,2.06,2.76-.85,3.06-4.69-5.38-4.63-6.42,.86-14.94,1.26-.43,2.53-.86,3.79-1.29Z"/><path class="cls-2" d="M203.54,199.58l1.05,.06c-.04,.6-.08,1.19-.12,1.79-2.16,2.54,.46,4.19,1.14,6.21-4.86-1.09-5.54-3.73-2.07-8.05Z"/><path class="cls-16" d="M182.56,204.55c.04-.34,.08-.68,.11-1.02,.96,0,1.93,0,2.89,.02,.34,.35,.69,.71,1.03,1.06-1.39,3.51-2.7,.78-4.04-.05Z"/><path class="cls-13" d="M186.6,204.61c-.34-.35-.69-.71-1.03-1.06-.05-.61-.11-1.22-.16-1.83,1.24-.07,2.4,.21,2.74,1.52,.29,1.12-.74,1.23-1.55,1.36Z"/><path class="cls-2" d="M205.53,207.57c.32,.34,.64,.69,.97,1.03-.32-.34-.64-.69-.97-1.03Z"/><path class="cls-2" d="M298.32,46.58c-.66,.08-1.31,.15-1.97,.23-.98-.63-1.97-1.26-2.95-1.9,4.14-3.44,9.53-2.33,14.23-3.85,4.78-1.55,9.87-2.16,14.83-3.12,1.12-.22,1.77-.73,1.97-1.84,.97-.05,1.94-.09,2.91-.14,5.07,1.27,9.78-1.15,14.71-1.53,4.81-.37,9.48,.66,14.23,.46-4.3,2.82-9.32,2.04-14.03,2.85-1.45-1.29-2.43-.94-2.99,.87-1.33,.04-2.66,.09-4,.13-1.2-1.22-1.64-.35-2.02,.73-1.31,.13-2.63,.27-3.94,.4-1.44-1.44-2.43-1.13-3.01,.77-.66,.07-1.32,.14-1.98,.22-1.19-1.36-1.66-.49-2.04,.66-2.64,.46-5.29,.91-7.93,1.37-1.18-1.38-1.67-.54-2.06,.64-.66,.09-1.31,.18-1.97,.26-1.17-1.27-1.64-.42-2.03,.68-.98,.14-1.96,.29-2.94,.43-1.48-1.5-2.47-1.16-3.03,.8-.66,.06-1.31,.12-1.97,.18-1.27-1.43-1.69-.46-2.05,.72Z"/><path class="cls-2" d="M524.98,37.93c1.97,1.82,5.13,.89,6.98,2.99-.5,1.14-1.27,1.92-2.59,2.01-1.51,.04-3.24-.3-3.38,2.02l.02-.02c-1.67,.33-3.35,.66-5.02,.99-4.24-2.05-4.95,2.14-7,3.96-.33,.01-.65,.02-.98,.03-3.32,.95-5.85,3.39-8.93,4.72-2.08,.9-3.84,1.72-4.07,4.23h0c-6.62,1.23-12.01,4.44-15.97,9.95-.67,0-1.33,0-2,0-2.68-1.06-5.07,.06-7.3,1.25-9.13,4.86-18.87,7.04-29.14,7.9-7.97,.67-15.88,1.97-23.91,1.97-1.32,0-3.12,.65-3.17,1.92-.1,2.6-2.56,2.78-3.58,4.33-1.27-.07-2.54-.15-3.82-.22,.07-1.37-.59-2.07-1.94-2.14-.26-.59-.37-1.37-.82-1.73-1.74-1.4-3.6-2.89-2.52-5.32,1.05-2.36,3.18-3.67,5.89-3.93,12.86-1.24,25.77-1.36,38.61-3.72,12.66-2.33,24.12-6.79,35.23-12.93,10.05-5.55,19.97-11.4,30.6-15.83,2.22-.92,5.09-.07,6.78-2.47,.67,0,1.34,.02,2.01,.03Z"/><path class="cls-8" d="M521,45.92c1.67-.33,3.35-.66,5.02-.99-3.43,4.17-7.38,7.62-12.66,9.26l-.38-.32,.04-3.95c.33-.01,.65-.02,.98-.03,4.18,1.94,5.21-1.69,7-3.97Z"/><path class="cls-8" d="M526,44.95c.14-2.32,1.88-1.98,3.38-2.02-1.01,.86-1.76,2.17-3.38,2.02Z"/><path class="cls-8" d="M513.36,54.2c-.38,1.02-1.12,1.63-2.17,1.89l-.19-.2c.01-1.31,.69-1.96,1.98-2.01l.38,.32Z"/><path class="cls-14" d="M202.49,166.36c-1.29,.16-2.59,.32-3.88,.48-.28-7.2-5.01-12.44-12.65-14.09-4-.86-8.11-2.02-11.99-2.4-4.15-.4-8.77,.69-13.13,2.21-6.12,2.14-11.93,8.06-19.25,3.03,8.1-5.39,16.89-9.42,25.81-13.21,5.63,1.82,10.84-.75,15.8-2.39,2.73-.9,5.18-2.49,8.25-2.27,1.85,.13,3.43-.5,5.17-1.26,4.63-2,9.68-3.13,14.66-2.62,2.39,.25,4.95,1.38,7.27,.78,4.67-1.2,8.63,.18,12.86,1.87,10.12,4.04,10.19,3.87,10.09,14.38-8.64,4.08-18.01,6.16-26.83,9.71-4.17,1.67-8.79,2.45-12.19,5.77Z"/><path class="cls-6" d="M110.8,112.87c7.73-1.21,14.33-5.5,21.61-7.94,1.09-.37,2.18-.75,3.27-1.12-2.43,4.77-8.09,5.68-11.4,9.48-1.03,1.19-3.85,.91-3.33,3.5,.49,2.45,1.27,4.77,4.16,5.65,7.4,2.26,14.71,2.8,22.5,1.5,11.41-1.9,22.7-4.38,33.88-7.16,16.46-4.09,32.62-9.43,49-13.86,4.43-1.2,8.17-2.42,9.39-7.34,2.67,1.73,2.48,4.55,2.77,7.2-6.11,3.35-12.79,5.04-19.37,7.13-7.31,2.33-14.85,3.71-22.04,6.75-8.92,3.77-18.35,6.53-27.78,8.82-10.42,2.52-20.48,6.06-30.69,9.21-1.1,.34-2.36,1.21-3.27,.93-6.38-1.91-12.65,.59-18.93,.74-5.36,.12-10.55,.93-15.88-.56-3.62-1.01-6.88-2.91-7.6-6.35-.73-3.49,1.91-6.23,4.57-8.77,2.92-2.79,8-3.04,9.14-7.82Z"/><path class="cls-4" d="M242.64,102.78c-.29-2.64-.1-5.47-2.77-7.2-.24-.99-.12-2.12-1.05-2.86-.33-2.96-3.67-4.64-3.38-7.87-.87-4.02-3.21-7.33-5.15-10.84l.15-1.03c1.19-.78,1.11-1.97,1.02-3.16,.03-.64,.06-1.27,.09-1.91,1.52-.2,2.87-.78,3.97-1.87,.65-.02,1.29-.04,1.94-.07,.02,.59,.04,1.17,.05,1.76-.51,1.14-2.33,1.5-1.91,3.2l.14,1.92c-3.27,.25-2.03,2.12-1.38,3.8,2.81,7.34,6.66,14.18,10.12,21.2,1.37,1.73,2.38,3.58,2.03,5.9l-1.13,.04c-.92-.34-1.83-.69-2.74-1.03Z"/><path class="cls-9" d="M241.51,150.89c.1-10.51,.03-10.34-10.09-14.38-4.23-1.69-8.19-3.08-12.86-1.87-2.32,.6-4.88-.54-7.27-.78-4.98-.51-10.03,.62-14.66,2.62-1.74,.75-3.32,1.39-5.17,1.26-3.07-.22-5.52,1.37-8.25,2.27-4.96,1.64-10.17,4.21-15.8,2.39,11.48-5.46,23.35-9.99,35.15-14.68,1.61-.33,3.21-.67,4.82-1,2.01,1.09,3.7,1.09,6.09,.14,5.56-2.21,11.2-4.89,17.54-3.78,4.55,.8,8.63-2.99,12.75-2.04,7.63,1.77,14.53-.82,21.29-2.82,13.32-3.95,25.26-11.63,38.73-15.44,1.82-.52,4.35-1.38,3.5-4.43,.69-.2,1.38-.39,2.08-.59,2.16,2.44,4.59,2.06,7.07-1.12,10.62-3.41,21.78-3.93,32.63-6.08,7.13-1.41,14.52-1.2,21.51-3.45,2.58,.15,4.78-2.19,7.49-1.15,.1,.2,.12,.4,.08,.62,.16,1.53,.36,3.09-1.87,3.26-7.24,5.28-15.3,6.28-23.87,4.5-2.1-.44-4.18-1.26-6.09,.48-.66,0-1.33,0-1.99,0-2.69,.07-5.68-2.26-7.99,.98-1.66,.34-3.32,.68-4.98,1.02-8.74,2.08-17.76,3.76-24.08,10.9-2.51,2.84-5.02,5.66-7.61,8.43-4.62,4.96-2.92,14.74,2.8,17.72-4.5,2.13-9.68,2.32-14.03,4.87-1.42,0-2.95-.4-4.03,1l.07-.04c-1.43,.07-2.97-.34-4.07,1.04l.08-.04c-4.15,.44-8.22,1.2-11.98,3.12-.97,.11-1.97,.1-2.89,.35-8.03,2.21-16.05,4.46-24.08,6.7Zm-36.66-21.51c-.02-.11,0-.26-.07-.31-.09-.07-.24-.06-.37-.08l.1,.52,.34-.14Z"/><path class="cls-12" d="M307.28,98.35c.85,3.05-1.68,3.92-3.5,4.43-13.47,3.81-25.41,11.49-38.73,15.44-6.76,2-13.66,4.6-21.29,2.82-4.12-.96-8.2,2.83-12.75,2.04-6.33-1.11-11.97,1.57-17.54,3.78-2.39,.95-4.08,.95-6.09-.14,11.54-3.75,22.73-8.58,34.68-11.04,.48-.1,.95-.29,1.4-.48,16.2-6.81,33.47-9.61,50.44-13.57,4.46-1.04,8.9-2.25,13.38-3.28Z"/><path class="cls-3" d="M246.52,103.77c.35-2.32-.66-4.17-2.03-5.9,1.01-.37,2.01-.75,3.02-1.12,.66,.68,1.32,1.36,1.98,2.05,1.51,4.7,5.09,4.63,8.8,3.54,6.28-1.84,12.67-3.54,18.97-5.07,6.24-1.51,12.65-3.02,19.1-4.02,10.81-1.68,21.27-5.19,32.18-6.49,1.11-.13,2.38-.51,3.19-1.22,2.38-2.06,4.46-1.37,6.59,.28l-1.04,2.95c-5.58-.24-10.5,2.58-15.92,3.43-12.69,1.98-25.26,4.86-37.81,7.64-5.6,1.24-11.16,2.82-16.53,4.82-4.14,1.54-8.59,1.19-12.74,3.38-2.84,1.5-5.1-2.81-7.76-4.27Z"/><path class="cls-4" d="M337.27,88.77c.35-.98,.69-1.97,1.04-2.95,5.59-.26,10.31-3.93,15.94-4.04,3.83-.91,7.84-.41,11.59-1.02,3.67-.59,7.38-2.39,11.08-2.14,5.09,.34,8.52-1.55,11.21-5.5,1.2-1.77,2.9-1.18,4.52-1.1-3.87,5.68-10.3,8.69-14.6,13.93-2.72-1.04-4.91,1.3-7.49,1.15-3.36-3.04-6.83-.05-10.2,.02-7.7,.15-15.32,2.02-23.09,1.64Z"/><path class="cls-12" d="M316.42,96.64c-2.48,3.18-4.91,3.56-7.07,1.12,2.36-.37,4.71-.75,7.07-1.12Z"/><path class="cls-6" d="M265.48,47.93c6.46,.12,12.02-3.58,18.29-4.32,.96-.11,1.86-.82,2.65,.28,.01,.65,.03,1.3,.04,1.94-2.53,.11-5.03,.32-7.06,2.11-12.95,3.14-25.9,6.27-38.85,9.44-1.46,.36-2.86,.98-4.05-.51,1.66-.65,3.33-1.31,4.99-1.96,7.98-2.39,16.44-3.13,23.98-6.99Z"/><path class="cls-11" d="M235.52,66.05c-1.1,1.09-2.44,1.67-3.97,1.87,.3-1.98,.6-3.95,.91-5.93,.7,.01,1.4,.02,2.1,.03-.74,1.59-.21,2.89,.96,4.03Z"/><path class="cls-6" d="M414.95,86.19c1.02-1.55,3.49-1.74,3.58-4.33,.05-1.27,1.85-1.92,3.17-1.92,8.03,0,15.95-1.3,23.91-1.97,10.27-.86,20.01-3.04,29.14-7.9,2.22-1.18,4.62-2.31,7.3-1.25-3.4,5.01-9.08,6.2-14.22,7.94-5.76,1.96-11.71,3.68-17.99,3.11-3.87-.35-7.1,2.31-11.12,2.2-3.05-.08-6.11,.53-9.22-.17-4.57-1.03-6.71,2.69-9.47,5.16-1.76,.06-3.49-.01-5.09-.86Z"/><path class="cls-6" d="M484.05,68.83c3.95-5.51,9.34-8.72,15.97-9.95-.02,.99,.18,2.46-.79,2.69-5.34,1.29-9.06,5.21-13.53,7.91-.62,.38-1.26-.01-1.64-.66Z"/><path class="cls-6" d="M512.98,53.88c-1.29,.05-1.97,.7-1.98,2.01-4.22-1.05-6.81,3.87-10.98,2.99,.24-2.5,1.99-3.33,4.07-4.23,3.08-1.33,5.61-3.78,8.93-4.72-.01,1.32-.02,2.63-.04,3.95Z"/><path class="cls-4" d="M409.19,83.83c1.35,.07,2.01,.77,1.94,2.14-4.96,.05-9.92,.11-14.88,.16-.99-.08-1.99-.16-2.98-.25-3.71,.02-7.42,.04-11.12,.06v-.02c.02-.43,.03-.87,.05-1.3,4.66-3.32,9.31-6.63,13.97-9.95,2.26,6.02,8.21,6.78,13.02,9.16Z"/><path class="cls-14" d="M302.44,133.89c-5.72-2.98-7.42-12.77-2.8-17.72,2.59-2.78,5.1-5.59,7.61-8.43,6.33-7.14,15.34-8.82,24.08-10.9-.11,1.12,.15,2.51-1.4,2.81-7.81,1.55-12.78,7.6-18.64,12.09-4.63,3.55-3.63,12.04,1,15.7,1.53,1.21,2.7,2.85,4.04,4.3-2.97,.37-5.93,.74-8.9,1.12-1.53-1.62-1.84-.46-2.07,.9-.98,.05-1.95,.09-2.93,.14Z"/><path class="cls-11" d="M382.15,85.94c3.71-.02,7.42-.04,11.12-.06,.58,10.79-2.54,20.91-5.66,31.02-1.08,3.49-5.58,5.65-9.03,4.71-2.41-.66-2.29-2.5-2.31-4.34-.12-9.16,1.27-18.07,4.63-26.62,.6-1.54,1.54-2.95,1.25-4.72Zm-1.1,21.85c.81,1.48-.95,4.11,1.48,4.65,2.79,.62,2.81-2.34,3.28-4.03,1.27-4.56,2.32-9.2,3.23-13.85,.29-1.47,1.04-3.62-.95-4.37-2.11-.79-2.62,1.39-3.41,2.76-2.63,4.56-2.55,9.76-3.63,14.84Z"/><path class="cls-14" d="M346.3,94.83c1.91-1.74,3.99-.92,6.09-.48,8.56,1.78,16.63,.78,23.87-4.5-1,5.59-4.13,10.25-6.91,14.99-1.05,1.79-3.81,1.56-5.34,.03-4.12-4.1-8.9-6.55-14.68-7.24-1.41-.17-2.92-.89-3.02-2.8Z"/><path class="cls-13" d="M307.44,132.85c2.97-.37,5.93-.74,8.9-1.12,9.51-2.56,19.29-3.52,29-4.88,0,.55,.02,1.11,.02,1.66-19.15,2.91-38.14,6.68-56.99,11.15,.02-.3,.03-.61,.03-.91,4.36-2.54,9.53-2.74,14.03-4.87,.98-.05,1.95-.09,2.93-.14,.83,.03,1.59-.12,2.07-.9Z"/><path class="cls-14" d="M336.32,95.81c2.31-3.24,5.3-.91,7.99-.98-2.05,5.33-5.23,1.43-7.99,.98Z"/><path class="cls-11" d="M382.2,84.62c-.02,.43-.04,.87-.06,1.3l-.43,.02-.42-.06c.3-.42,.6-.83,.91-1.25Z"/><path class="cls-9" d="M288.38,139.66c18.85-4.47,37.83-8.24,56.99-11.15,.31,.08,.62,.15,.93,.21-2.1,2.91-6.13,4.47-8.53,4.57-5.86,.27-11.21,2.95-17.12,2.57-3.75-.24-6.86,2.56-10.65,3.38-13.66,2.96-27.3,5.97-40.75,10.02-13.71,4.13-27.34,8.37-40.77,13.3-3.57,1.31-7.54,1.2-10.93,3.11,0-1.28,.01-2.57,.02-3.85,11.25-4.25,22.55-8.35,34.08-11.8,5.63-1.69,11.56-2.5,16.79-5.41,4.12-.98,8.46-1.25,12.03-3.92l-.08,.05c1.4-.16,3.05,.64,4.07-1.04l-.07,.04c1.33-.03,2.67-.06,4-.09Z"/><path class="cls-14" d="M217.55,161.85c0,1.28-.01,2.57-.02,3.85-3.16,.35-4.83,3.65-7.98,4.01-1.24-.05-2.28,.53-3,1.41-1.57,1.94-5.48,1.24-5.5,4.88,2.96-.38,5.91-.77,8.26-2.9,.11-.1,.16-.28,.23-.43,.99,0,1.98,0,2.98,0,4.81-1.22,7.8,2.55,11.2,4.56,2.38,1.41-2.37,3.19-1.21,5.44-1.98,1.4-3.96,2.8-5.94,4.2-1.34-.26-2.03,.32-2.15,1.65l.03,.02c-.97,.02-1.95,.04-2.92,.06,.89-5.75-3.14-7.53-7.39-9.13-.46-.17-1.04-.69-1.33-.56-4.57,2.08-10.25,.79-14.22,4.66-1.26,.43-2.53,.86-3.79,1.29-.09-.48-.18-.96-.27-1.44-.03-.26-.01-.52,.06-.78,1.86-1.02,3.83-1.9,5.56-3.1,3.24-2.25,7.67-3.59,7.42-8.81,1.66-1.02,3.32-2.04,4.98-3.06l1.02,.08c1.51,1.41,1.76,.23,1.99-.97,3.99-1.65,7.99-3.3,11.98-4.95Z"/><path class="cls-9" d="M222.52,182.67c-1.16-2.25,3.6-4.04,1.21-5.44-3.4-2.01-6.4-5.79-11.2-4.56,.5-2.77,2.72-2,4.37-1.94,4.06,.16,7.65-.42,11.21-2.89,3.03-2.11,6.94-2.14,10.2,.24,3.11,2.26,2.9,4.73-.53,6.58-1.62,.87-3.54,1.23-3.24,3.69-.84,.65-1.68,1.29-2.51,1.94-1.82,.12-3.16,1.3-4.68,2.09-1.61,.1-3.21,.2-4.82,.3Z"/><path class="cls-3" d="M227.34,182.37c1.52-.79,2.86-1.97,4.68-2.08,1.63,.42,3.2,.72,3.47-1.68,8.87-4.58,18.39-7.28,27.96-9.87,.3,.53,.6,1.06,.89,1.59-3.78,1.71-7.55,3.42-11.33,5.14-5.81,1.27-11.14,3.84-16.54,6.21-1.42-.02-1.91,.9-2.12,2.11-2.21-1.12-5.25,1.87-7.02-1.42Z"/><path class="cls-13" d="M362.26,145.75c1.5,1.76,1.35,2.78-1.21,2.74,.02-2.65-2.09-2.73-3.76-2.68-1.89,.06-3.77,.75-5.65,1.16-.08-.73-.16-1.47-.23-2.2,.09-.3,.15-.61,.16-.92,4.79-2,2.1-6.87,3.85-10.03,1.19-.31,2.39-.62,3.58-.93,.77,4.37-.82,9.33,3.26,12.85Z"/><path class="cls-9" d="M209.55,172.67c-.08,.14-.12,.32-.23,.43-2.34,2.13-5.3,2.52-8.26,2.9,.03-3.64,3.93-2.94,5.5-4.88,.72-.88,1.76-1.46,3-1.41,0,.99,0,1.98-.01,2.96Z"/><path class="cls-9" d="M355.42,133.83c-1.75,3.17,.95,8.04-3.85,10.03-1.11-3.92,.68-8.59,3.85-10.03Z"/><path class="cls-8" d="M351.64,146.98c1.88-.42,3.76-1.1,5.65-1.16,1.67-.05,3.77,.03,3.76,2.68-.59,.08-1.19,.15-1.78,.23-1.35,.1-2.7,.19-4.06,.29-1.34-.08-2.67-.17-4.01-.25,.12-.57,.23-1.14,.35-1.71l.09-.07Z"/><path class="cls-9" d="M362.26,145.75c-4.08-3.53-2.5-8.49-3.26-12.85,3.99,3.55,2.71,8.43,3.26,12.85Z"/><path class="cls-9" d="M355.27,127.82c1.34-.01,2.67-.02,4.01-.03-.11,.93,.29,2.34-.94,2.5-1.59,.2-2.85-.65-3.08-2.46Z"/><path class="cls-16" d="M235.49,178.61c-.27,2.4-1.84,2.09-3.47,1.68,.84-.65,1.67-1.3,2.51-1.94,.32,.08,.64,.17,.96,.27Z"/><path class="cls-9" d="M351.4,144.78c.08,.73,.16,1.47,.23,2.2l-.09,.07c-.69-.05-1.39-.1-2.08-.15l-.21-.21c.1-1.32,.78-1.99,2.14-1.92Z"/><path class="cls-9" d="M243.19,172.07l.34-.13,.1,.52c-.12-.02-.27-.01-.37-.08-.06-.05-.05-.2-.07-.3Z"/><path class="cls-16" d="M304.42,190.79c-1.3,2.69-3.71,2.74-6.2,2.6,1.3-2.69,4.07-1.87,6.2-2.6Z"/><path class="cls-16" d="M270.45,199.58c-1.29,1.59-2.63,1.4-4.01,.12,1.29-1.49,2.63-1.49,4.01-.12Z"/><path class="cls-16" d="M309.21,189.58c-.17,.54-.18,1.31-.54,1.57-.56,.39-1.07-.12-1.32-.73,.43-.7,1.1-.88,1.86-.84Z"/><path class="cls-16" d="M275.52,197.96c-.04,.55-.08,1.1-.12,1.65-.69-.05-1.39-.1-2.08-.16,.23-1.24,.87-1.88,2.2-1.49Z"/><path class="cls-11" d="M204.46,201.42c.04-.6,.08-1.19,.12-1.79,5.61-5.4,13.71-2.36,19.95-5.87,2.13-1.2,3.85,1.46,5.89,1.78,5.85,.93,11.8,1.23,16.98,4.78,1.96,1.34,4.98-.72,7.07,1.31-.15,.85-.46,1.68-1.4,1.83-14.4,2.27-28.91,2.46-43.43,2.08-2.63-.07-3.95-2.13-5.18-4.13Z"/><path class="cls-11" d="M256.49,201.68c1.31,0,2.62,0,3.92-.01-.09,1.06-.52,1.8-1.71,1.88-1.34,.08-2.11-.48-2.21-1.86Z"/><path class="cls-13" d="M349.47,146.9c.69,.05,1.38,.1,2.08,.15-.12,.57-.23,1.14-.35,1.71-1.33,.08-1.84-.6-1.73-1.86Z"/><path class="cls-3" d="M409.19,83.83c-4.82-2.38-10.76-3.14-13.02-9.16,2.01-2.6,4.24-4.98,7.07-6.73,.51,.83,1,1.92,2.17,1.44,1.12-.46,.67-1.67,.71-2.6l-.06-.06c8.95,1.32,17.94,.86,26.95,.79,10.82-.08,21.14-2.19,31.33-5.6,5.05-1.69,10.08-3.24,14.44-6.43,4.71-3.45,10.34-5.06,15.49-7.62,4.94-2.45,9.33-5.82,14.76-7.51,4.61-1.44,8.9-3.78,13.94-2.44-1.69,2.4-4.57,1.55-6.78,2.47-10.63,4.43-20.55,10.28-30.6,15.83-11.11,6.14-22.58,10.59-35.23,12.93-12.85,2.37-25.75,2.48-38.61,3.72-2.71,.26-4.84,1.57-5.89,3.93-1.08,2.43,.78,3.92,2.52,5.32,.45,.36,.55,1.14,.82,1.73Z"/><path class="cls-16" d="M432.15,30.92c.66,0,1.32-.02,1.98-.03-.01,.84-.17,1.61-1,2.04-.33,0-.66,0-1-.02,0-.66,.01-1.33,.02-1.99Z"/><path class="cls-3" d="M392.65,72.04c-1.61-.08-3.31-.67-4.52,1.1-2.68,3.94-6.12,5.84-11.21,5.5-3.7-.25-7.41,1.55-11.08,2.14-3.75,.6-7.76,.11-11.59,1.02,.12-1.11,.76-1.63,1.81-2.05,6.51-2.58,12.9-5.49,19.49-7.86,10.01-3.59,12.71-10.04,6.23-16.8-7.28-7.6-17.07-8.92-27.03-9.56-4.84-.31-9.56,3.01-14.42,.37l.03-1c1.57-.18,3-.65,3.97-2.02,.63-.02,1.25-.05,1.88-.07,1.02,.05,2.04,.09,3.06,.13,2.01,1.34,3.9,2.05,5.06-.98l4.92-.02c1.84,1.76,4.14,1.04,6.18,.91,5.96-.4,11.81,.22,16.64,3.72,4.49,3.25,9.39,5.49,14.26,7.92,3.09,1.54,7.39,2.34,5.35,7.59-.03,.07,1.05,.56,1.61,.85-3.02,3.65-6.24,7.07-10.64,9.11Z"/><path class="cls-4" d="M403.29,62.93c-.56-.29-1.63-.79-1.61-.85,2.04-5.25-2.26-6.05-5.35-7.59-4.87-2.43-9.77-4.68-14.26-7.92-4.83-3.5-10.68-4.11-16.64-3.72-2.04,.14-4.34,.85-6.18-.91,1.01-.69,2.02-1.39,3.03-2.08,1.33-.31,2.66-.62,3.99-.93,1.32,1.41,2.65,1.36,4,.04,.99,0,1.99,0,2.98-.01,1.75,1.33,3.28,1.75,4-1.01,.98-.04,1.96-.09,2.94-.13,.35,.04,.69,.09,1.04,.13,.48,2.79,2.18,1.64,3.75,1.22,3.68-1,7.25-1.24,11.16-.46,4.57,.91,8.68,2.92,12.96,4.41,2.73,.95,7.24,2.59,3.52,7.45-.61,.8,.75,1.17,1.55,1.33-3.26,4.04-6.87,7.74-10.88,11.03Z"/><path class="cls-16" d="M414.17,51.9c-.8-.16-2.16-.53-1.55-1.33,3.72-4.87-.79-6.51-3.52-7.45-4.29-1.48-8.39-3.49-12.96-4.41-3.92-.78-7.49-.54-11.16,.46-1.57,.42-3.27,1.57-3.75-1.22,1.19-.97,3.06-.64,4.01-2.08,2.32-.32,4.65-.64,6.97-.95,4.12,1.12,8.28,2.82,11.99-.98,1.33,0,2.65,0,3.98,0,.96,3.25,4.19,2.85,6.15,2.77,4.27-.18,6.42,1.76,7.87,5.26-1.52,2.43-4.18,4.05-4.97,7-.14,.53-.27,1.06-.41,1.59-.89,.45-1.77,.9-2.65,1.35Z"/><path class="cls-4" d="M406.13,66.78c-.05,.93,.41,2.14-.71,2.6-1.18,.49-1.67-.61-2.17-1.44,.63-1.21,1.74-1.24,2.89-1.16Z"/><path class="cls-11" d="M422.21,41.96c-1.46-3.5-3.61-5.44-7.87-5.26-1.95,.08-5.19,.48-6.15-2.77,5.48-2.53,11.23-2.71,16.95-1.43,2.81,.63,4.34-2.72,7.02-1.59,0,.66-.01,1.33-.02,1.99-2.98,1.24-5.85,2.61-6.99,6-.98,1.02-1.96,2.03-2.94,3.05Z"/><path class="cls-13" d="M217.55,161.85c-3.99,1.65-7.99,3.3-11.98,4.95-.84-.04-1.57,.15-1.99,.97l-1.02-.08c-.02-.44-.05-.88-.07-1.33,3.39-3.33,8.02-4.1,12.19-5.78,8.83-3.55,18.2-5.62,26.83-9.71,8.02-2.24,16.04-4.49,24.08-6.7,.93-.25,1.93-.24,2.89-.35,0,.27-.02,.53-.05,.8-5.24,2.91-11.17,3.73-16.79,5.41-11.53,3.46-22.83,7.55-34.08,11.8Z"/><path class="cls-10" d="M197.58,170.75c.24,5.22-4.18,6.55-7.42,8.81-1.73,1.21-3.7,2.08-5.56,3.1,1.94-6.58,6.45-10.35,12.98-11.91Z"/><path class="cls-11" d="M255.5,38.84c6.28,.29,6.78,1.03,4.75,7.01h-.39l-.38,.07c-.66-4.78-3.43-3.19-6.06-2.01-2.02-2.8,.52-3.73,2.08-5.07Z"/><path class="cls-5" d="M253.43,43.9c2.63-1.19,5.4-2.77,6.06,2.01-2.48,.71-5.44,2.9-6.06-2.01Z"/><path class="cls-8" d="M286.47,45.84c-.01-.65-.03-1.3-.04-1.94,.89,.17,2.38-.4,2.4,.95,.02,1.39-1.47,.83-2.36,.99Z"/><path class="cls-4" d="M246.5,63.97c1.98-.39,3.95-.78,5.93-1.17,1.27,.11,1.96-.52,2.22-1.71,2.92-.42,5.85-.84,8.77-1.26,2.5-.05,4.85-.64,7.03-1.88,1.98-.38,3.96-.76,5.94-1.13,.84,.07,1.58-.08,2.05-.87,.98-.05,1.95-.11,2.93-.16,1.48,.18,2.86,.18,3.18-1.75,4.6-.74,9.2-1.49,13.8-2.23,1.28,.12,1.97-.52,2.2-1.73l9.71-.43,.15,.33c-.02,.62-.04,1.25-.06,1.88l-3.94,.11c-3.34,1.33-7.52,.42-10.08,3.81-.32,0-.64,0-.96-.02-4.51-1.06-8.5,.04-12.08,2.88-2.3,.36-4.6,.72-6.89,1.08-2.55-.92-4.72,.36-6.97,1.2l-1.99,1c-1.31,.13-2.64,.15-3.92,.42-8.05,1.76-16.08,3.57-24.12,5.37l.1-1.81c1.65-.36,3.3-.72,4.95-1.08,.82,.06,1.56-.09,2.05-.85Z"/><path class="cls-16" d="M310.25,49.65c3.91-3.08,8.37-3.66,13.13-2.89-.01,.37-.03,.74-.04,1.11-.65,.05-1.31,.09-1.96,.14-.85-.08-1.59,.08-2.01,.92-1.36,.23-3.01-.52-3.97,1.13-.32-.01-.64,.02-.96,.09-1.35-.05-2.69-.11-4.04-.16l-.15-.33Z"/><path class="cls-16" d="M362.28,39.86c-1.01,.69-2.02,1.39-3.03,2.08-1.64,0-3.28,.01-4.92,.02-1.05-.05-2.09-.1-3.14-.15,3.32-2.82,6.98-3.67,11.1-1.95Z"/><path class="cls-11" d="M404.2,33.94c-3.71,3.81-7.88,2.1-11.99,.98,3.85-2.08,8.01-.53,11.99-.98Z"/><path class="cls-3" d="M332.35,44.92c.95-.04,1.91-.08,2.87-.12,.69,.04,1.38,.08,2.07,.13,.01,.33,.02,.67,.03,1-1.5,3.41-3.76,2.07-5.99,.96,.34-.66,.68-1.31,1.02-1.97Z"/><path class="cls-16" d="M332.35,44.92c-.34,.66-.68,1.31-1.02,1.97-1.32,.06-2.64,.12-3.95,.17l-2.2-.4c1.98-2.27,4.27-3.27,7.17-1.74Z"/><path class="cls-11" d="M270.45,57.95c-2.18,1.24-4.53,1.83-7.03,1.88,1.79-2.7,4.12-3.37,7.03-1.88Z"/><path class="cls-16" d="M377.25,37.95c-.72,2.76-2.25,2.34-4,1,0-.67,.02-1.33,.03-2l3.97,.99Z"/><path class="cls-4" d="M351.18,41.81c1.05,.05,2.09,.1,3.14,.15-1.16,3.03-3.05,2.32-5.06,.98,.01-.37,.02-.74,.03-1.11l1.89-.03Z"/><path class="cls-16" d="M344.32,42.88c-.97,1.36-2.4,1.83-3.98,2.02-.03-.39-.06-.78-.08-1.17,.88-2.53,2.37-2.17,4.06-.85Z"/><path class="cls-11" d="M385.24,35.88c-.95,1.44-2.82,1.11-4.01,2.08-.35-.04-.69-.09-1.04-.13,1.04-2.32,2.45-3.68,5.05-1.94Z"/><path class="cls-3" d="M325.17,46.66c.73,.13,1.47,.27,2.2,.4-.89,2.55-2.35,2.24-4.04,.81,.01-.37,.03-.74,.04-1.11,.6-.04,1.19-.07,1.79-.1Z"/><path class="cls-16" d="M370.27,38.97c-1.34,1.33-2.68,1.38-4-.04,1.03-1.5,2.61-.87,3.98-1.03,0,.36,.01,.71,.02,1.07Z"/><path class="cls-16" d="M349.3,41.83c0,.37-.02,.74-.03,1.11-1.02-.04-2.04-.09-3.06-.13,.52-1.96,1.49-2.46,3.09-.98Z"/><path class="cls-3" d="M326.29,40.64c.58-1.9,1.58-2.21,3.01-.77-.78,1.12-1.88,1.02-3.01,.77Z"/><path class="cls-11" d="M284.54,54.03c-.32,1.93-1.7,1.93-3.18,1.75,.29-1.99,1.7-1.94,3.18-1.75Z"/><path class="cls-11" d="M370.27,38.97c0-.36-.01-.71-.02-1.07,.74-1.17,1.91-.97,3.03-.94,0,.67-.02,1.33-.03,2-.99,0-1.99,0-2.98,.01Z"/><path class="cls-3" d="M339.26,38.6c.56-1.8,1.54-2.15,2.99-.87-.65,1.48-1.82,1.18-2.99,.87Z"/><path class="cls-4" d="M340.26,43.73c.03,.39,.06,.78,.08,1.17,0,.33-.02,.67-.03,1-1,0-2,.02-3.01,.02-.01-.33-.02-.67-.03-1,.01-.37,.02-.74,.03-1.11,.98-.03,1.96-.06,2.94-.09Z"/><path class="cls-11" d="M239.51,65.9c-.03,.6-.07,1.21-.1,1.81-.63,.01-1.26,.02-1.9,.03-.02-.59-.04-1.17-.05-1.76,.64-1.06,1.32-1.18,2.05-.08Z"/><path class="cls-3" d="M302.33,45.69c.56-1.96,1.55-2.31,3.03-.8-.79,1.09-1.89,1.02-3.03,.8Z"/><path class="cls-3" d="M298.32,46.58c.36-1.17,.78-2.14,2.05-.72-.48,.83-1.19,.97-2.05,.72Z"/><path class="cls-16" d="M337.32,43.82c-.01,.37-.02,.74-.03,1.11-.69-.04-1.38-.08-2.08-.13,.31-1.17,.6-2.39,2.11-.98Z"/><path class="cls-3" d="M308.29,44.46c.39-1.1,.85-1.95,2.03-.68-.47,.85-1.17,1.01-2.03,.68Z"/><path class="cls-3" d="M312.29,43.52c.39-1.18,.88-2.02,2.06-.64-.51,.79-1.21,.95-2.06,.64Z"/><path class="cls-3" d="M322.27,41.51c.38-1.15,.85-2.02,2.04-.66-.48,.82-1.19,.96-2.04,.66Z"/><path class="cls-11" d="M300.54,50.07c-.24,1.21-.93,1.85-2.2,1.73,.15-1.32,.86-1.93,2.2-1.73Z"/><path class="cls-3" d="M333.24,39.46c.37-1.08,.82-1.94,2.02-.73-.42,.94-1.13,1.08-2.02,.73Z"/><path class="cls-11" d="M278.44,55.94c-.47,.79-1.22,.94-2.05,.87,.27-1.27,.58-2.44,2.05-.87Z"/><path class="cls-11" d="M254.65,61.09c-.26,1.19-.96,1.82-2.22,1.71,.15-1.34,.85-1.96,2.22-1.71Z"/><path class="cls-11" d="M246.5,63.97c-.48,.76-1.22,.91-2.05,.85,.26-1.31,.58-2.46,2.05-.85Z"/><path class="cls-2" d="M230.44,72.99c-.05,.34-.1,.69-.14,1.03-3.11-.28-6.13-.1-9.22,.67-3.77,.94-7.45,2.55-11.48,2.2,.64-.7,1.28-1.39,1.92-2.09,.06-.25,.1-.51,.13-.77,1.93-.02,3.89,.5,5.77-.31,1.3,.17,2.02-.4,2.2-1.69,.64-.03,1.28-.06,1.92-.09,1.33,1.47,1.73,.32,2.15-.77,2.5-.3,5.05-.8,6.75,1.83Z"/><path class="cls-16" d="M185.8,82.07c-5,4.13-11.42,4.58-17.22,6.64,.03-.93,.06-1.86,.1-2.79,5.49-.62,10.69-2.37,15.9-4.09,.41,.08,.82,.16,1.23,.24Z"/><path class="cls-11" d="M185.8,82.07c-.41-.08-.82-.16-1.23-.24,2.88-2.65,6.21-3.65,10.05-2.77-1.69,1.65-3.83,2.33-6.07,2.8l.03-.03-2.79,.24Z"/><path class="cls-11" d="M230.44,72.99c-1.7-2.63-4.25-2.14-6.75-1.84-.39-.1-.77-.19-1.16-.29,2.48-4.59,5.99-.37,8.93-1.04,.09,1.19,.17,2.38-1.02,3.16Z"/><path class="cls-11" d="M198.61,79.94c-.68-.37-1.36-.74-2.04-1.11,.67-2.85,2.86-2.92,5.14-2.81-.07,.9-.13,1.8-.2,2.71-.97,.4-1.94,.81-2.9,1.21Z"/><path class="cls-11" d="M217.41,73.71c-1.89,.82-3.85,.3-5.77,.31,1.16-2.99,3.34-3.08,5.91-2.1-.04,.59-.09,1.19-.13,1.78Z"/><path class="cls-16" d="M160.69,90.92c.32-.69,.64-1.38,.96-2.06,1.04-1.46,2.61-.87,3.98-1.03l.04,1.19c-.81,2.86-3.26,1.43-4.98,1.9Z"/><path class="cls-4" d="M201.51,78.73c.07-.9,.13-1.81,.2-2.71,.94-.06,1.89-.13,2.83-.19,.34,.35,.68,.69,1.02,1.03-.03,.62-.06,1.24-.08,1.86-1.32,0-2.64,0-3.97,0Z"/><path class="cls-11" d="M205.56,76.86c-.34-.34-.68-.69-1.02-1.03,.45-2.1,1.4-2.59,3.02-.93,0,.64-.02,1.29-.03,1.93l.1,.17c-.69-.04-1.38-.09-2.07-.13Z"/><path class="cls-11" d="M165.67,89.02l-.04-1.19c1.03-.62,1.45-2.2,3.05-1.91-.03,.93-.06,1.86-.1,2.79-.97,.1-1.94,.2-2.91,.31Z"/><path class="cls-4" d="M207.53,76.82c0-.64,.02-1.29,.03-1.93,1.32-.03,2.63-.06,3.95-.09-.64,.7-1.28,1.39-1.92,2.09-.69-.02-1.37-.04-2.06-.06Z"/><path class="cls-4" d="M217.41,73.71c.04-.59,.09-1.19,.13-1.78,.69,.03,1.38,.06,2.07,.09-.17,1.29-.9,1.87-2.2,1.69Z"/><path class="cls-4" d="M222.53,70.87c.39,.09,.77,.19,1.16,.29-.42,1.09-.82,2.25-2.15,.77,.33-.35,.66-.7,.99-1.06Z"/><path class="cls-8" d="M207.53,76.82c.69,.02,1.37,.04,2.06,.06,4.03,.36,7.71-1.25,11.48-2.2,3.09-.77,6.11-.95,9.22-.67,1.94,3.51,4.28,6.82,5.14,10.84-3.01-.25-3.17-3.04-4.34-4.91-.87-1.38-1.37-3.3-3.52-2.9-7.72,1.43-15.48,3.01-22.68,6.07-7.97,3.38-16.33,5.71-24.47,8.29-10.66,3.38-21.28,6.67-31.33,11.57-2.59,1.26-4.63,4.39-4.65,6.99-.02,2,3.69,2.25,5.87,2.7,9.55,1.97,19.38,1.22,28.33-1.47,9.31-2.8,18.8-4.58,28.19-6.75,4.76-1.1,8.87-3.56,13.51-4.54,6.58-1.4,13.28-2.3,18.47-7.18,.93,.74,.82,1.86,1.05,2.86-1.22,4.91-4.95,6.14-9.39,7.33-16.39,4.43-32.54,9.77-49,13.86-11.18,2.78-22.47,5.26-33.88,7.16-7.78,1.3-15.1,.76-22.5-1.5-2.89-.88-3.67-3.21-4.16-5.65-.52-2.59,2.3-2.31,3.33-3.5,3.31-3.8,8.97-4.71,11.4-9.48,19.89-8.1,40-15.6,60.54-21.87,1.19-.36,2.27-.51,2.39-2,.97-.4,1.94-.8,2.9-1.21,1.32,0,2.64,0,3.97,0,1.31,.15,2.01-.44,2.16-1.73l-.1-.17Z"/><path class="cls-11" d="M188.57,81.86l.38,.17c-.12-.07-.23-.13-.35-.2l-.03,.03Z"/><path class="cls-11" d="M214.43,188.53c.11-1.33,.81-1.91,2.15-1.65-.18,1.25-.88,1.82-2.15,1.65Z"/><path class="cls-11" d="M211.54,188.61c.97-.02,1.95-.04,2.92-.06-.6,1.32-1.8,1.08-2.9,1.11,0-.35-.02-.7-.02-1.05Z"/><path class="cls-6" d="M521,45.92c-1.79,2.28-2.82,5.9-7,3.97,2.05-1.82,2.75-6.01,7-3.97Z"/><path class="cls-7" d="M238.81,92.73c-5.19,4.89-11.89,5.78-18.47,7.18-4.63,.99-8.75,3.45-13.51,4.54-9.39,2.17-18.88,3.95-28.19,6.75-8.95,2.69-18.78,3.44-28.33,1.47-2.19-.45-5.89-.7-5.87-2.7,.03-2.59,2.07-5.73,4.65-6.99,10.04-4.9,20.66-8.19,31.33-11.57,8.14-2.58,16.5-4.91,24.47-8.29,7.21-3.06,14.97-4.64,22.68-6.07,2.15-.4,2.65,1.52,3.52,2.9,1.17,1.87,1.33,4.66,4.34,4.91-.3,3.23,3.04,4.91,3.38,7.87Z"/><path class="cls-7" d="M235.74,72.86c-.05-.64-.1-1.28-.14-1.92,1.3,.28,2.59,.56,3.89,.84,5.23,.7,10.19-.57,15.27-1.66,7.49-1.61,15.12-3.21,22.72-3.44,3.79-.11,7.49-1.15,11.28-.81,2.11,.19,5.05,1.13,2.46,3.29-3.75,3.11-6.33,8.39-10.69,9.54-5.12,1.35-9.37,4.38-14.5,5.58-7,1.65-13.74,4.35-20.6,6.61-1.07-.59-1.51-1.57-2.03-2.65-2.47-5.17-5.09-10.26-7.66-15.38Z"/><path class="cls-6" d="M235.74,72.86c2.57,5.12,5.2,10.21,7.66,15.38,.52,1.08,.96,2.06,2.03,2.65,.69,1.95,1.38,3.9,2.07,5.86-1.01,.37-2.01,.74-3.02,1.12-3.46-7.03-7.31-13.87-10.12-21.2-.64-1.68-1.89-3.55,1.38-3.8Z"/><path class="cls-6" d="M239.49,71.79c-1.3-.28-2.6-.56-3.89-.84-.42-1.7,1.4-2.05,1.91-3.2,.63-.01,1.27-.02,1.9-.04,8.04-1.8,16.07-3.61,24.12-5.37,1.28-.28,2.61-.29,3.92-.43-1.72,2.62-4.36,3.26-7.25,4.05-6.91,1.88-14.28,2.21-20.7,5.82Z"/><path class="cls-11" d="M268.43,144.63c.03-.27,.04-.53,.05-.8,3.76-1.92,7.83-2.68,11.98-3.12-3.57,2.67-7.91,2.94-12.03,3.92Z"/><path class="cls-11" d="M284.45,139.72c-1.02,1.68-2.66,.88-4.07,1.04,1.09-1.38,2.64-.97,4.07-1.04Z"/><path class="cls-11" d="M288.38,139.66c-1.33,.03-2.67,.06-4,.09,1.08-1.4,2.61-.99,4.03-1,0,.3-.01,.61-.03,.91Z"/><path class="cls-12" d="M204.85,129.37l-.34,.14-.1-.52c.13,.02,.28,.01,.37,.08,.06,.05,.05,.2,.07,.31Z"/><path class="cls-8" d="M239.49,71.79c6.42-3.61,13.79-3.94,20.7-5.82,2.89-.78,5.53-1.43,7.25-4.05,.66-.33,1.33-.66,1.99-1,2.76,2.12,4.81,.16,6.97-1.2,2.3-.36,4.6-.72,6.89-1.08,4.33,.29,8.18-1.37,12.08-2.88,.32,.02,.64,.03,.96,.02,3.45,.82,6.65-1.03,10.03-.91,8.47,.46,16.83-1.52,25.32-1.01,7.86,.47,10.83,5.27,7.45,12.44-1.11,2.36-2.6,4.19-5.07,5.2-7.42,3.04-15.13,5.28-22.59,8.25-8.2,3.27-16.98,5.03-25.41,7.75-7.65,2.48-15.48,4.32-23.13,6.67-3.14,.97-8.1-.4-9.49,4.6-1.32,0-2.64,.01-3.95,.02-.66-.68-1.32-1.36-1.98-2.05-.69-1.95-1.38-3.9-2.07-5.86,6.85-2.25,13.6-4.96,20.6-6.61,5.13-1.21,9.38-4.23,14.5-5.58,4.36-1.15,6.94-6.43,10.69-9.54,2.59-2.15-.34-3.1-2.46-3.29-3.78-.34-7.48,.7-11.28,.81-7.61,.22-15.23,1.83-22.72,3.44-5.08,1.09-10.04,2.35-15.27,1.66Z"/><path class="cls-2" d="M249.49,98.8c1.32,0,2.64-.01,3.95-.02,1.82,.02,3.58-.06,5.4-.55,6.95-1.88,13.96-3.59,20.95-5.31,5.28-1.3,10.75-2.04,15.84-3.86,8.97-3.2,18.48-4.37,27.3-8.18,9.46-4.08,19.97-5.63,28.05-12.99,5.33-4.86,5.14-12.83-1.15-16.65-.82-.5-1.82-.95-2.75-.99-8.2-.33-16.35-.35-24.46,1.46-2.31,.51-5.39,1.33-7.23-1.65,.96-1.65,2.6-.9,3.97-1.13,1.48,1.46,1.75,.28,2.01-.92,.65-.05,1.31-.09,1.96-.14,1.69,1.43,3.15,1.73,4.04-.81,1.32-.06,2.64-.11,3.95-.17,2.23,1.11,4.49,2.45,5.99-.96,1,0,2-.01,3.01-.02,4.87,2.64,9.58-.68,14.42-.37,9.96,.64,19.75,1.96,27.03,9.56,6.48,6.76,3.77,13.21-6.23,16.8-6.59,2.36-12.98,5.27-19.49,7.86-1.05,.42-1.69,.94-1.81,2.05-5.63,.1-10.36,3.77-15.94,4.04-2.13-1.64-4.21-2.34-6.59-.28-.81,.7-2.08,1.08-3.19,1.22-10.91,1.3-21.37,4.81-32.18,6.49-6.45,1-12.86,2.51-19.1,4.02-6.29,1.53-12.68,3.22-18.97,5.07-3.7,1.09-7.29,1.16-8.8-3.54Z"/><path class="cls-9" d="M307.44,132.85c-.48,.78-1.24,.93-2.07,.9,.22-1.37,.54-2.52,2.07-.9Z"/><path class="cls-4" d="M381.05,107.78c1.08-5.07,1-10.27,3.63-14.84,.79-1.37,1.3-3.55,3.41-2.76,1.99,.75,1.24,2.9,.95,4.37-.92,4.65-1.96,9.29-3.23,13.85-.47,1.69-.49,4.65-3.28,4.03-2.43-.54-.66-3.18-1.48-4.65Z"/><path class="cls-10" d="M203.58,167.77c.42-.82,1.15-1.01,1.99-.97-.23,1.21-.47,2.39-1.99,.97Z"/><path class="cls-6" d="M315.4,50.06c1.83,2.98,4.91,2.17,7.23,1.65,8.11-1.8,16.27-1.78,24.46-1.46,.93,.04,1.93,.49,2.75,.99,6.29,3.82,6.48,11.8,1.15,16.65-8.08,7.36-18.59,8.9-28.05,12.99-8.82,3.81-18.34,4.98-27.3,8.18-5.09,1.82-10.56,2.57-15.84,3.86-7,1.72-14,3.42-20.95,5.31-1.82,.49-3.58,.57-5.4,.55,1.39-5,6.35-3.64,9.49-4.6,7.65-2.36,15.48-4.2,23.13-6.67,8.43-2.73,17.21-4.49,25.41-7.75,7.46-2.98,15.17-5.21,22.59-8.25,2.47-1.01,3.96-2.85,5.07-5.2,3.38-7.18,.42-11.97-7.45-12.44-8.49-.51-16.85,1.47-25.32,1.01,.02-.96,.03-1.93,.05-2.89,1.31-.04,2.63-.08,3.94-.11,2.4,1.91,3.77,1.35,4.09-1.71,.32-.07,.64-.1,.96-.09Z"/><path class="cls-2" d="M306.41,51.97c-.02,.96-.03,1.93-.05,2.89-3.38-.12-6.58,1.74-10.03,.91,2.56-3.39,6.74-2.48,10.08-3.81Z"/><path class="cls-2" d="M295.37,55.76c-3.89,1.51-7.75,3.18-12.08,2.88,3.58-2.84,7.57-3.95,12.08-2.88Z"/><path class="cls-2" d="M276.4,59.72c-2.16,1.36-4.21,3.32-6.97,1.2,2.25-.84,4.42-2.12,6.97-1.2Z"/><path class="cls-2" d="M314.44,50.14c-.32,3.06-1.69,3.62-4.09,1.71,.02-.63,.04-1.25,.06-1.88,1.35,.06,2.69,.11,4.04,.16Z"/><path class="cls-3" d="M321.38,48c-.26,1.21-.53,2.39-2.01,.92,.43-.84,1.16-1,2.01-.92Z"/><path class="cls-2" d="M207.63,76.99c-.14,1.29-.85,1.88-2.16,1.73,.03-.62,.05-1.24,.08-1.87,.69,.04,1.38,.09,2.07,.13Z"/></g></g></svg>